<svg xmlns="http://www.w3.org/2000/svg" width="86" height="86" viewBox="0 0 86 86">
  <g id="Groupe_85" data-name="Groupe 85" transform="translate(-145 -2663)">
    <g id="JDhUwy.tif" transform="translate(-48.8 2525)">
      <g id="Groupe_33" data-name="Groupe 33" transform="translate(207.8 158)">
        <path id="Tracé_1510" data-name="Tracé 1510" d="M244.278,158.01c5.222,1.667,10.435,3.354,15.666,5.011,1.983.632,3.986,1.2,6.516,1.955-2.673,2.52-5.05,4.753-7.493,7.052,2.185,3.334,4.245,6.5,6.477,9.908l-23.935,12.543c-1.533-3.574-3.009-7-4.743-11.048-1.9,4.417-3.545,8.269-5.347,12.476-7.646-3.354-15.158-6.64-22.853-10.023,2.482-3.861,4.781-7.436,7.177-11.163-2.6-2.108-5.069-4.12-7.943-6.449,5.05-2.1,9.773-3.814,14.277-5.989,5.356-2.587,10.492-5.088,15.254,2.415,2.233-2.587,4.015-4.647,5.8-6.7C243.521,158.01,243.895,158.01,244.278,158.01Zm12.916,13.884c-6.784-2.309-12.964-4.427-19.173-6.5a2.553,2.553,0,0,0-1.648.029c-6.065,2.645-12.111,5.337-18.627,8.231,6.276,2.673,12.025,5.136,17.8,7.541a2.633,2.633,0,0,0,1.888.077C243.866,178.285,250.257,175.209,257.194,171.894Z" transform="translate(-207.8 -158)" fill="#151c36"/>
        <path id="Tracé_1511" data-name="Tracé 1511" d="M302.738,467.9c5.2,2.271,10.214,4.456,15.542,6.774,1.351-3.152,2.635-6.161,4.187-9.793,1.389,3.037,2.558,5.615,3.852,8.442,6.276-3.267,12.447-6.477,19.26-10.023,0,3.641.086,6.65-.067,9.639a2.738,2.738,0,0,1-1.466,1.763c-6.612,3.334-13.242,6.631-19.93,9.812a3.826,3.826,0,0,1-2.875.019c-5.548-2.463-11.077-4.992-16.51-7.713a4.488,4.488,0,0,1-1.907-2.942A36.944,36.944,0,0,1,302.738,467.9Z" transform="translate(-293.568 -434.047)" fill="#151c36"/>
      </g>
    </g>
    <g id="Groupe_55" data-name="Groupe 55" transform="translate(19 2154)">
      <line id="Ligne_3" data-name="Ligne 3" x1="52.875" y1="65.903" transform="translate(143.242 517.813)" fill="none" stroke="#e96027" stroke-width="2"/>
      <g id="Ellipse_2" data-name="Ellipse 2" transform="translate(126 509)" fill="none" stroke="#151c36" stroke-width="1">
        <circle cx="43" cy="43" r="43" stroke="none"/>
        <circle cx="43" cy="43" r="42.5" fill="none"/>
      </g>
    </g>
    <g id="Groupe_83" data-name="Groupe 83" transform="translate(19 2154)">
      <line id="Ligne_3-2" data-name="Ligne 3" x1="52.875" y1="65.903" transform="translate(143.242 517.813)" fill="none" stroke="#e96027" stroke-width="2"/>
      <g id="Ellipse_2-2" data-name="Ellipse 2" transform="translate(126 509)" fill="none" stroke="#151c36" stroke-width="1">
        <circle cx="43" cy="43" r="43" stroke="none"/>
        <circle cx="43" cy="43" r="42.5" fill="none"/>
      </g>
    </g>
  </g>
</svg>
