<svg xmlns="http://www.w3.org/2000/svg" viewBox="0 0 750 500"><defs><style>.cls-1{fill:#fcf4eb;}.cls-2{fill:#ae9d86;}.cls-3{fill:#b46d4f;}.cls-4{fill:#6d4332;}.cls-5{fill:#cc905a;}.cls-6{fill:#5e5d37;}.cls-7{fill:#a55e46;}.cls-8{fill:#e5d9b3;}.cls-9{fill:#c9753d;}.cls-10{fill:#995341;}.cls-11{fill:#aca386;}.cls-12{fill:#3e2f2f;}.cls-13{fill:#d6755b;}.cls-14{fill:#fff;}.cls-15{fill:#f1e3d1;}.cls-16{fill:#837665;}.cls-17{fill:#ea977a;}.cls-18{fill:#f1bea8;}.cls-19{fill:#f7d8cb;}</style></defs><g id="BACKGROUND"><rect class="cls-1" width="750" height="500"/></g><g id="OBJECTS"><path class="cls-2" d="M177.12,350.34s-78.69,9.85-65.86,20.34,111.91,7,141.05,10.49S269.8,394,311.77,392.83s10.49-18.66,32.64-17.49,93.26,25.65,170.2,23.32,139.27-44.46,80.44-51.3c-50.13-5.83-417.93,3-417.93,3"/><path class="cls-3" d="M434.11,79.05l.12,3.66s3.43,8.51,4,10.4,10.63,7,10.63,7l15-9.45s.47-7.57.47-7.92-3.19-10.4-3.19-10.4l-8-5.55-5.2.59s-11.46,5.32-11.82,5.43-1.53,2.72-1.53,2.72Z"/><path class="cls-4" d="M520.57,369.72l-1.42.47s-.95,5.67-.16,7.09,8.82,9.14,27.26,7.25,25.36-11,26.78-13.4.31-6.77.31-6.77Z"/><path class="cls-5" d="M532.07,362.47s-8.51,1.89-11.35,4.41-2.83,8.19,10.09,11,31.51,1.57,41.59-10.08a7.58,7.58,0,0,0,.94-3.47c0-1.89-2.2-8.82-2.2-8.82Z"/><path class="cls-4" d="M464.17,356.8l-1.42.47s-.95,5.67-.16,7.09,8.82,9.14,27.26,7.25,25.36-11,26.78-13.39.31-6.78.31-6.78Z"/><path class="cls-5" d="M475.67,349.55s-8.51,1.89-11.35,4.41-2.83,8.19,10.09,11,31.51,1.58,41.59-10.08a7.58,7.58,0,0,0,.94-3.47c0-1.89-2.2-8.82-2.2-8.82Z"/><path class="cls-6" d="M502.45,252.82s-1.89,9.77-.95,17.33,10.72,27.41,13.87,38.75S528.29,364,528.29,364s22.68,9.14,44.74-6c0,0,0-3.15-.32-7.25s-9.45-47.26-12.91-57-5.36-15.44-5-17,26.79-23.31,32.77-43.79-10.08-40.65-16.38-46.32l-47.58,21.43L470,217.21s-17,22.37-21.42,33.09-1.26,27.41,11.34,52a290.59,290.59,0,0,1,18.91,46.32s14.18,17,36.86-2.53c0,0-5.35-35.6-8.82-46.63s-10.71-22.05-10.71-28.67S502.45,252.82,502.45,252.82Z"/><path class="cls-7" d="M488,106.46s-7.72-.16-19.23-17.8L457.08,108s.94,9.45.78,11.34.79,13.86.79,13.86l13.24,24.26,6.3-1.57,6-24.26Z"/><path class="cls-8" d="M465.43,231.47s-23.64-17-26-19.14-5.43-5-6.14-17.49-1.66-53.64,7.8-63.8,13-11.35,13.94-13,.47-2.36.94-3.55a4.94,4.94,0,0,1,1.42-1.89s2.6,15.36,4.73,18.67a12.44,12.44,0,0,0,4.72,4.49l5.2,15.36-.71-16.54s12.06-9,14.42-28.36l.06-.29-1.95-1a18,18,0,0,1,6.91-.88c3.13.41,7.9,2.52,10.89,2.67s46.32-2.83,53.57,49.32c0,0,1.73,7.4,4.57,12s11.65,12,12.76,16.23-.63,10.08-7.57,15.28-40.72,20.32-54.66,23.16S465.43,231.47,465.43,231.47Z"/><path class="cls-9" d="M503.08,163.65s11.66-.63,16.38,3.46,10.09,5.68,16.7,7.57S556,185.07,556,185.07a41.93,41.93,0,0,1,8.83,10.72c3.78,6.61,4.09,13.55,4.41,18.27s-1.58,14.18-2.84,18S556,246.2,551.29,247.78s-9.14.63-10.4,1.57.31,2.84-3.47,3.15-6.3,1.26-12.28.63-17.33-.31-21.75-.31-2.2-10.4-2.2-10.4l8.19-52Z"/><path class="cls-10" d="M526.63,188.46s1,21.51,1,24.34,17,4,17,4,5.91-19.85,7.33-22.69S537.74,183,537.74,183Z"/><path class="cls-11" d="M464.48,187.24a.41.41,0,0,1-.36-.19c-.09-.13-9-13.27-10.88-16.32a.43.43,0,0,1,.14-.6.43.43,0,0,1,.6.14c1.87,3,10.77,16.16,10.86,16.29a.44.44,0,0,1-.11.61A.45.45,0,0,1,464.48,187.24Z"/><path class="cls-6" d="M469,176.17s-16.3-22-16.54-55.53l1.18-1.42s-7.33,0-7.56,8.51,5.51,34.82,21.11,53.25Z"/><path class="cls-12" d="M433.52,80.94c-.33-2.7.59-10.28,7.45-13.83a20.22,20.22,0,0,1,19.14.24c5.2,2.84,6.26,9.22,6.26,9.22l.71,6.14s3.78,5,1.65,15-14.53,13.94-20.08,11.34c-5.09-2.38-11-16.07-11-16.07s-.59-1.3,0-1.65a7.7,7.7,0,0,0,1.22,2,8.53,8.53,0,0,0,1.17,1.15c1.68,1.33,4.37,2.32,8.48,1.11,8.39-2.48,13.23-7.8,13.82-11.58s-.35-6.14-1.53-7.8-4.26-7.21-9.45-7.56c0,0-1.78,7.09-9.1,9s-6.74-2.72-6.74-2.72-1.18,5.79-1.18,6.74a10.45,10.45,0,0,0,.36,2.24A13.43,13.43,0,0,1,433.52,80.94Z"/><path class="cls-3" d="M464.6,78.1S467,74,469.21,76.33s-1.07,5.32-2.84,5.55A7.1,7.1,0,0,1,464.6,78.1Z"/><path class="cls-12" d="M440.34,87.55a1.07,1.07,0,1,1-1.07-1.06A1.07,1.07,0,0,1,440.34,87.55Z"/><path class="cls-12" d="M453,82.71a1.07,1.07,0,1,1-1.06-1.06A1.06,1.06,0,0,1,453,82.71Z"/><path class="cls-4" d="M447.94,96.11a2.3,2.3,0,0,1-1.22-.33,3,3,0,0,1-1.22-2l-2.11-6.66a.42.42,0,0,1,.28-.54.43.43,0,0,1,.55.28l2.13,6.74a2.18,2.18,0,0,0,.84,1.47,2,2,0,0,0,1.67,0c2.06-.72,2.19-1.31,2.19-1.32a.4.4,0,0,1,.31-.5.47.47,0,0,1,.54.34c.08.28.13,1.3-2.76,2.3A3.67,3.67,0,0,1,447.94,96.11Z"/><path class="cls-13" d="M458.72,84.76c.38.76-.54,2-2.06,2.75s-3.05.76-3.43,0,.54-2,2.06-2.75S458.34,84,458.72,84.76Z"/><path class="cls-13" d="M441.93,91.26c-.38-.76-1.92-.76-3.43,0a7.4,7.4,0,0,0-.69.41,7.75,7.75,0,0,0,1.07,1.66,9.2,9.2,0,0,0,.76.78l.23-.1C441.39,93.25,442.31,92,441.93,91.26Z"/><path class="cls-4" d="M448.65,80.19a.43.43,0,0,1-.29-.76,9,9,0,0,1,6.61-2,.44.44,0,0,1-.12.87,8.24,8.24,0,0,0-5.92,1.79A.42.42,0,0,1,448.65,80.19Z"/><path class="cls-4" d="M436.36,87.28a.44.44,0,0,1-.44-.43,4.25,4.25,0,0,1,3.31-4.21.42.42,0,0,1,.51.34.43.43,0,0,1-.34.51,3.35,3.35,0,0,0-2.6,3.36A.44.44,0,0,1,436.36,87.28Z"/><path class="cls-4" d="M451.72,100.52a.44.44,0,0,1,0-.88c.2,0,5-.09,7-6.2a.44.44,0,0,1,.55-.28.45.45,0,0,1,.28.56C457.38,100.44,451.78,100.52,451.72,100.52Z"/><path class="cls-8" d="M496.15,110.48s-2.37,11.1-2.6,18A18.31,18.31,0,0,0,497.33,140,69.31,69.31,0,0,1,506,146.1a66.88,66.88,0,0,1,9.84,9.72,40.85,40.85,0,0,1,7.47,13.5s-2.83,1-2.6,4.73,3.55,15.12,5.2,15.83,4.49-2.84,14.89.71,10.16,7.8,11.82,7.32,4.72-8.5,5.2-12.52,0-11.11-2.84-12C555,173.34,558.77,107.64,496.15,110.48Z"/><path class="cls-11" d="M523.32,169.76a.43.43,0,0,1-.41-.31,40.34,40.34,0,0,0-7.4-13.35,65.85,65.85,0,0,0-9.78-9.66.45.45,0,0,1-.06-.62.44.44,0,0,1,.61-.06,67.13,67.13,0,0,1,9.91,9.79,41.23,41.23,0,0,1,7.55,13.64.44.44,0,0,1-.29.55Z"/><path class="cls-6" d="M499,163.41s-9.69-16.54-9.69-35.21,6.86-23.87,6.86-23.87,5,.24,5.91,1-14.89,19.61,3.54,60l-3.54.95Z"/><path class="cls-11" d="M553.57,173.77a.41.41,0,0,1-.21-.05c-4.13-2.3-13.45-3.48-13.55-3.49a.44.44,0,0,1-.38-.49.42.42,0,0,1,.49-.38c.39,0,9.59,1.22,13.86,3.59a.43.43,0,0,1,.17.6A.43.43,0,0,1,553.57,173.77Z"/><path class="cls-14" d="M512.45,247.78a10,10,0,0,0,9.93,1.65s2.6,1.66,8.51,0c0,0,8.27-1.42,10.16-7.56s.23-11.58.94-13.71l4.26-12.76s-15.6-5-23.64-3.78l-11.1,33.79Z"/><path class="cls-2" d="M522.38,249.87a.44.44,0,0,1-.29-.77c1.76-1.54,2.69-5.86,2.7-5.9a.43.43,0,0,1,.51-.34.44.44,0,0,1,.34.52c0,.19-1,4.65-3,6.38A.48.48,0,0,1,522.38,249.87Z"/><path class="cls-2" d="M530.89,249.87a.44.44,0,0,1-.36-.19.44.44,0,0,1,.1-.61,6.61,6.61,0,0,0,2.66-3.74.44.44,0,0,1,.86.17,7.54,7.54,0,0,1-3,4.29A.49.49,0,0,1,530.89,249.87Z"/><path class="cls-5" d="M460.54,191.06S458,212.8,464,230.45s13.86,23,15.12,23,2.84-.32,3.15,1.26,8.2,3.15,15.13,1.89,22.05-8.82,26.78-28.67-3.47-42.23-5-46-6.62-20.79-22.69-21.42-29.3,8.19-30.56,12.6S460.54,188.86,460.54,191.06Z"/><path class="cls-4" d="M478.82,173.1s-9.14,1-12.92,14.81c-1.89,6.93-3.23,20.64-1.26,33.08s7.25,23.64,18.59,25.53c19.15,3.19,21.91-29.09,17.57-48.89a42.29,42.29,0,0,0-3.08-9.4C489.85,172.16,483.54,172.16,478.82,173.1Z"/><path class="cls-8" d="M505,234h-.12a.44.44,0,0,1-.3-.54,73.85,73.85,0,0,0,.31-36.31.45.45,0,0,1,.3-.54.43.43,0,0,1,.54.3,74.62,74.62,0,0,1-.31,36.78A.43.43,0,0,1,505,234Z"/><path class="cls-8" d="M521,208.2a.44.44,0,0,1-.44-.4c-1.54-18.86-7.74-28.06-7.8-28.15a.44.44,0,0,1,.11-.61.45.45,0,0,1,.61.11c.07.1,6.39,9.46,8,28.57a.43.43,0,0,1-.39.48Z"/><path class="cls-8" d="M465.9,181.73a.4.4,0,0,1-.15,0,.43.43,0,0,1-.26-.56,19.5,19.5,0,0,1,11-10.66.45.45,0,0,1,.56.27.44.44,0,0,1-.26.56c-7.58,2.73-10.42,10.06-10.45,10.14A.45.45,0,0,1,465.9,181.73Z"/><path class="cls-8" d="M503.08,191.5a.44.44,0,0,1-.42-.31c-3.36-11.21-7.79-16.28-10.91-18.55-3.35-2.44-5.94-2.26-6-2.25a.44.44,0,1,1-.08-.88c.45,0,11.15-.71,17.79,21.43a.43.43,0,0,1-.29.54Z"/><path class="cls-15" d="M500.8,197.63c4.34,19.8,1.58,52.08-17.57,48.89-11.34-1.89-16.62-13.08-18.59-25.53a14,14,0,0,1,1.57-6.3c1.58-2.52.63-3.15,2.21-5.67s3.15-3.15,5.36-3.15,5.67.63,6.3-1.26-.32-3.78,2.2-3.78,2.52-4.41,6.31-4.41,4.72.63,6.61.31S500.8,197.63,500.8,197.63Z"/><path class="cls-15" d="M490.79,245.89s-10.71,1.57-15.44,8.5-3.15,10.72-5.36,12.29-4.09.32-4.41,2.52.32,6.3-1.26,6.62-2.2-1.26-2.83-3.78-3.15-3.47-3.47-8.51.63-6.3,2.52-9.14-.63-10.08.95-15.12,5-6.93,5-9.14a34.6,34.6,0,0,1,1.26-6.61l12.29.63,9.77,13.23Z"/><polygon class="cls-12" points="340.49 334.11 408.24 319.3 408.24 328.13 408.24 348.92 379.56 351.13 348.37 343.88 340.49 334.11"/><path class="cls-4" d="M408.24,348.92V319.3s69.32,18.91,75.62,20.48S502.13,347,502.13,347l-.94,8.19-33.4,16.7-33.08-5.35-23.32-7.88Z"/><path class="cls-4" d="M340.49,334.11s5,1.35,12,3.18c13.33,3.51,34.06,8.82,41.91,10.06,12,1.89,38.13,5.67,47.9,7.56S465,359.63,465,359.63L484.58,353l17.55-6s.95,7.56,1.26,10.71-.94,9.77-.94,9.77l-36.24,15.76S397.52,371.61,388.39,371s-38.76-10.09-42.54-10.4a34.77,34.77,0,0,1-6-.95Z"/><path class="cls-12" d="M465,359.63,484.58,353l17.55-6s.95,7.56,1.26,10.71-.94,9.77-.94,9.77l-36.24,15.76Z"/><path class="cls-15" d="M484.58,353,465,359.63s-12.92-2.83-22.68-4.72-35.92-5.67-47.9-7.56c-7.85-1.24-28.58-6.55-41.91-10.06a25.39,25.39,0,0,1,11-5.7c6.3-1.26,7.87,0,11.65,0s8.51,2.21,9.77,2.84a25.79,25.79,0,0,0,3.47,1.26s2.2-3.78,6.3-4.41,2.52,1.89,5.36,1.26,4.09-1,5.35,0,1,3.46,2.84,3.15,1.26-1.89,7.56-3.15,7.88-2.52,9.45-3.79,1.58.32,6.62.64,7.56,0,9.14,1.57.31,5,3.46,4.41,3.47,0,4.1-3.15-2.21-4.41,2.52-4.1,5,1.27,5.36,2.53-.63,2.52,1.89,4.72,5.67,1.26,7.24,3.15,4.1,2.52,7.25,2.84,6.93,3.78,6.93,3.78Z"/><path class="cls-2" d="M403.2,345.26a2.59,2.59,0,0,1-2.58-1.77,3.15,3.15,0,0,0-.84-1.15,11,11,0,0,0-4.19-1.18.43.43,0,0,1-.39-.48.44.44,0,0,1,.48-.39c.13,0,3.29.34,4.63,1.35a4.08,4.08,0,0,1,1.09,1.45c.39.75.67,1.3,1.8,1.3a8,8,0,0,0,2.8-.48,14.66,14.66,0,0,1,1.85-.46.44.44,0,1,1,.14.86,12.36,12.36,0,0,0-1.73.44A9.13,9.13,0,0,1,403.2,345.26Z"/><path class="cls-2" d="M439.43,343.92a9.28,9.28,0,0,1-2.31-.25c-1.22-.3-2.48-2.28-3.77-4.46l-.28-.46c-.81-1.36-.93-1.37-3.89-1.66l-.19,0a2.5,2.5,0,0,0-3,2.13.44.44,0,1,1-.87-.1,3.39,3.39,0,0,1,3.95-2.9l.19,0c3,.29,3.51.35,4.55,2.08l.28.46c.84,1.43,2.26,3.82,3.23,4.06a14.65,14.65,0,0,0,5.2,0l2.52-.32a.42.42,0,0,1,.49.38.44.44,0,0,1-.38.49l-2.52.31A26.54,26.54,0,0,1,439.43,343.92Z"/><path class="cls-2" d="M454.55,353.77h-.1a13.57,13.57,0,0,1-3-1.31.44.44,0,0,1-.14-.6.43.43,0,0,1,.6-.15,12.64,12.64,0,0,0,2.71,1.21.44.44,0,0,1-.11.86Z"/><path class="cls-16" d="M329.26,367.18c0,5.15-41,9.33-91.52,9.33s-91.51-4.18-91.51-9.33,41-9.33,91.51-9.33S329.26,362,329.26,367.18Z"/><path class="cls-17" d="M351.52,262.9s4.89-11.5,8.19-9.61c4.11,2.35-2.36,14.65-1.57,17.17l-4.57-1.57Z"/><path class="cls-17" d="M170,327.18s4,15.36,7.09,23.16,4.73,14.18,5.67,16.07,14.18,2.83,16.31,1.18-1.42-2.6-3.55-4.73a14.05,14.05,0,0,1-3.78-11.58c.71-5.2.71-17.48.47-20.79s-16.77-14.89-16.77-14.89Z"/><path class="cls-17" d="M283.7,324.82s4,15.36,7.09,23.16,4.72,14.17,5.67,16.06,14.18,2.84,16.31,1.19-1.42-2.6-3.55-4.73a14,14,0,0,1-3.78-11.58c.71-5.2.47-27.65.24-31s-16.55-4.72-16.55-4.72Z"/><path class="cls-3" d="M141.19,262a10.32,10.32,0,0,1-3.46-.56,8.83,8.83,0,0,1-4.6-3.72c-2.69,1.19-5.48,1.3-7.07.25a.88.88,0,0,1,1-1.46c.89.59,3,.65,5.26-.33-.15-.32-.29-.65-.42-1-2.3-6.13-.35-8.79.59-9.65a3.92,3.92,0,0,1,4.35-.64,4.73,4.73,0,0,1,2.43,4.85,9.19,9.19,0,0,1-4.56,7.15,7.21,7.21,0,0,0,3.63,2.91c4.82,1.7,10.89-1.86,10.95-1.89a.87.87,0,1,1,.89,1.5A19.91,19.91,0,0,1,141.19,262Zm-6.09-15.76a2.14,2.14,0,0,0-1.46.59c-1.41,1.29-1.46,4.18-.13,7.74q.15.41.33.78a7.5,7.5,0,0,0,3.65-5.74,3,3,0,0,0-1.45-3.14A2.1,2.1,0,0,0,135.1,246.23Z"/><path class="cls-18" d="M180.43,230.29s-21.27,3.31-27.89,14.18-14.18,30.72-10.87,50.1,10.4,28.36,11.35,35.92,5.19,37.34,13.7,38.75,11.82-.47,9.45-3.78S170.5,354.12,170,347s0-16.54,3.78-20.32c0,0,11.51,6.2,29.85,10.3a139.2,139.2,0,0,0,63.73-.38s5.2,11.82,9.93,16.07,4.72,15.13,6.14,18.43,15.6,2.84,17,1.42,1.42-3.07-1-5.91-6.61-9.45-5.91-16.3,1.19-10.64,3.08-12.76,7.56-16.07,7.56-16.07,9.21-6.62,18.67-3.07,26.46,8,38.75,5.43,26.23-12.76,26.23-12.76l.95-10.87s1.89-3.78-.47-4.49-10.16-5-14.18-9.22-13.24-13.94-15.13-17-16.54-17.25-26.23-24.34-23.63-12.29-36.63-11.58-16.3,2.83-19.61,2.6-27.65-9-54.12-9.45S184.45,229.34,180.43,230.29Z"/><path class="cls-3" d="M361.68,323.87c-12.29,2.6-29.3-1.89-38.75-5.43s-18.67,3.07-18.67,3.07-5.67,13.94-7.56,16.07-2.37,5.91-3.08,12.76c0,0-.7-10.64.24-13.47s7.8-15.36,9.45-21.51,2.84-8.74,3.55-11.1,1.89-4.26,2.36-3.31,13.62,18.55,35.68,21.74A131.09,131.09,0,0,0,361.68,323.87Z"/><path class="cls-3" d="M173.81,326.71s11.51,6.2,29.85,10.3a139.2,139.2,0,0,0,63.73-.38s-3.78-11.58-4.49-17.72-.94-9.69-.94-9.69-.95.47-.95,6.38.71,8.27-.71,10.16-2.12,7.56-3.07,7.8a28.08,28.08,0,0,1-14.89,1.18c-7.56-1.65-54.82-21-57.89-41.12C184.45,293.62,183.5,317.73,173.81,326.71Z"/><path class="cls-19" d="M155.38,275s2.13-9.69-1.18-9.21-2.84,8.27-2.6,12.05-1.18,8.27.94,7.8S155.62,276.37,155.38,275Z"/><path class="cls-19" d="M197.92,233.83s-13.95-2.12-15.6,5.2,13.47,6.15,22.92,7.09,16.78,3.55,18.91,1.42S213.28,233.6,197.92,233.83Z"/><path class="cls-19" d="M236.91,242.58s-7.09.47-5,2.6,7.32,2.12,9.21,1.18S240,242.11,236.91,242.58Z"/><path class="cls-4" d="M362.63,283.93c0,2.09-1,3.78-2.25,3.78s-2.24-1.69-2.24-3.78,1-3.78,2.24-3.78S362.63,281.85,362.63,283.93Z"/><path class="cls-17" d="M365.77,299.64c-.43,2.11-4.4,3.08-8.88,2.18s-7.76-3.36-7.33-5.47,4.4-3.08,8.88-2.18S366.2,297.53,365.77,299.64Z"/><path class="cls-3" d="M386,298.19c-1.48,1.47-3.23,1.73-3.55,6.93s2.36,8.51,5,8.2,1.58-7.57,2.37-9.61,2.28-6.94-.4-7.57S386.65,297.48,386,298.19Z"/><path class="cls-4" d="M388.39,303.47c0,1-.53,1.81-1.18,1.81s-1.19-.81-1.19-1.81.53-1.81,1.19-1.81S388.39,302.47,388.39,303.47Z"/><path class="cls-17" d="M353.57,268.89c-1.89-4.41-1.58-14-1.42-17.33s-2.52-3-2.52-3c-7.88.95-10.08,21.43-10.08,21.43s-.9,5.93,6.21,6S353.57,268.89,353.57,268.89Z"/><path class="cls-3" d="M343.49,272.2s1.41-12.45,3.31-11.82,1.57,9.45,2.2,10.4C349,270.78,345.38,275,343.49,272.2Z"/><path class="cls-8" d="M353.88,206s-3.3,1.42-5.51-3.15-4.25-12.76-1.1-13.39,6.46,13.7,6.61,14.33A9.74,9.74,0,0,1,353.88,206Z"/><path class="cls-8" d="M354.67,206.19s2.05.31,4.73-2.84,8.19-11.66,5.51-13.08-8,7.09-9.13,9.46S354.67,206.19,354.67,206.19Z"/><path class="cls-12" d="M355.15,205.08c0,.87-.43,1.58-.95,1.58s-.95-.71-.95-1.58.43-1.57.95-1.57S355.15,204.21,355.15,205.08Z"/><path class="cls-8" d="M381.93,238.8s-.32-15.76,4.09-15S381.93,238.8,381.93,238.8Z"/><path class="cls-8" d="M381,239s-7.56-5.51-6.3-7.87,7.09,3,7.25,4.88a12.67,12.67,0,0,1,0,2.84Z"/><path class="cls-12" d="M382.56,238.48c0,.61-.35,1.1-.79,1.1s-.79-.49-.79-1.1.36-1.1.79-1.1S382.56,237.87,382.56,238.48Z"/></g></svg>