<svg id="Groupe_92" data-name="Groupe 92" xmlns="http://www.w3.org/2000/svg" xmlns:xlink="http://www.w3.org/1999/xlink" width="31" height="35.754" viewBox="0 0 31 35.754">
  <defs>
    <clipPath id="clip-path">
      <rect id="Rectangle_22" data-name="Rectangle 22" width="31" height="35.754" fill="#0c1229"/>
    </clipPath>
  </defs>
  <g id="Groupe_39" data-name="Groupe 39" clip-path="url(#clip-path)">
    <path id="Tracé_1512" data-name="Tracé 1512" d="M30.631,4.028a1.923,1.923,0,0,0-1.582-.437.262.262,0,0,1-.206-.048.172.172,0,0,1-.037-.08c-.053-.214-.008-.736-.036-.891a3.725,3.725,0,0,0-.371-1.08A2.67,2.67,0,0,0,26.7.051,2.171,2.171,0,0,0,24.647.72c-.478.516-.764,1.157-1.366,1.511-.621.365-1.264.7-1.906,1.026-2.931,1.5-6.187,1.995-9.146,3.45A16.9,16.9,0,0,0,9.12,8.531a24.539,24.539,0,0,0-2.212,2.287c-.835.875-1.91.911-2.7,1.679a4.06,4.06,0,0,0-1.2,2.784,8.7,8.7,0,0,1-.208,2.33,9.547,9.547,0,0,1-1.538,2.421A6.594,6.594,0,0,0,.787,27c.646,1.064,1.58,1.848,2.19,2.953.741,1.342,1.033,2.966,2.056,4.108,2.017,2.251,4.854,1.8,7.365,1.229,1.7-.384,3.409-.58,5.111-.908a5.6,5.6,0,0,0,4.223-3.113c.218-.426.393-.879.633-1.29.467-.8,1.147-1.387,1.659-2.143a13.387,13.387,0,0,0,1.048-2.387,38.161,38.161,0,0,0,1.759-5.607c.815-3.308,1.233-6.766,2.176-10.029a29.763,29.763,0,0,1,1.729-3.508,2.2,2.2,0,0,0-.1-2.278m-18.1,3.095c.225-.064.451-.123.678-.178a6.953,6.953,0,0,1,.784-.041,7.362,7.362,0,0,1,2.152.357,11.059,11.059,0,0,0-5.914,1.061,18.29,18.29,0,0,1,2.3-1.2m11.35,9.666c.057,1.143.156,2.286.2,3.429.208,6.034-1.828,5.111-3.211,8.773A5.5,5.5,0,0,1,19.6,31.238a4.386,4.386,0,0,1-2.038.988c-1.521.345-3.091.086-4.615.415-1.544.333-3.06,1.639-4.686,1.189A3.487,3.487,0,0,1,6.55,32.317c-.594-.814-1.169-1.649-1.75-2.475Q4,28.71,3.212,27.572c-.595-.85-1.434-1.717-1.413-2.881.033-1.9,1.2-3.5,2.015-5.065a8.149,8.149,0,0,0,.932-2.559,3.772,3.772,0,0,0-.015-1.374c-.108-.442-.233-.9.1-1.266.211-.228.45-.214.732-.254a3.991,3.991,0,0,0,2.265-1.047c1.8-1.7,2.51-6.016,8.807-5.263a11.445,11.445,0,0,1,3.337.964,12.382,12.382,0,0,1,3.264,2.054c1.107,1.032.89,2.406.659,3.841a9.786,9.786,0,0,0-.013,2.066M21.715,30.315a32.6,32.6,0,0,1-1.91,2.65c-.593.662-1.559.608-2.321.764s-1.809.138-2.574.333c-2.686.687-5.831,2.166-8.41.609A6.16,6.16,0,0,1,4.209,31.4a11.772,11.772,0,0,0-1.734-2.991A6.425,6.425,0,0,1,.721,25.142a6.818,6.818,0,0,1,1.556-5.248,7.28,7.28,0,0,0,1.2-3.284c.136-1.11-.2-1.987.47-3a3.451,3.451,0,0,1,2.532-1.42c.892-.223,1.052-.968,1.511-1.728,1.2-1.981,2.671-1.464,4.4-2.224a8.729,8.729,0,0,0-3.582,3.291,4.944,4.944,0,0,1-2.9,2.461,2.479,2.479,0,0,0-1.236.375c-.519.457-.116,1.016-.075,1.607a5.632,5.632,0,0,1-.158,1.691,12.71,12.71,0,0,1-1.3,3.065c-.724,1.333-1.743,3.028-1.515,4.69a4.6,4.6,0,0,0,.989,1.921q.906,1.317,1.811,2.633.829,1.209,1.651,2.425A6.077,6.077,0,0,0,7.61,34.238c1.4.891,2.978-.047,4.319-.589,1.7-.687,3.46-.4,5.212-.66A4.435,4.435,0,0,0,20.451,31a17.369,17.369,0,0,0,.912-2.227c1.306-3.124,3.968-1.954,2.681-13.574.1-.384.215-.818.295-1.264,1.619,8.713.058,12.681-2.624,16.376M29.042,5.923a11.857,11.857,0,0,1,.365,1.4q-.144.259-.273.524a10.842,10.842,0,0,0-.566-2.3.079.079,0,1,0-.15.047,13.776,13.776,0,0,1,.489,2.756c-.016.037-.033.074-.048.111a7.565,7.565,0,0,0-.831-2.774.374.374,0,0,0,0-.208c.03-.107.059-.2-.049-.21a3.36,3.36,0,0,1-.061-.4c-.013-.147-.217-.149-.2,0a3.327,3.327,0,0,0,.113.653,1.6,1.6,0,0,0-.084.846c.013.044.073.062.095.014a1.927,1.927,0,0,0,.094-.47c.01-.063.024-.126.037-.188a.058.058,0,0,0,.016,0,12.407,12.407,0,0,1,.665,3.3c-.006.017-.011.035-.017.052C28.5,8.224,28.27,7.71,28.278,7.9c.023.572.1.8.161,1.774-.107.366-.2.737-.284,1.111-.016-.081-.032-.16-.047-.238a.03.03,0,0,0,.056-.016,9.252,9.252,0,0,0-.169-1.445.035.035,0,0,0-.069.01c.03.362.051.737.109,1.1-.033-.094-.168-.045-.15.064.064.393.1.789.129,1.186-.1.475-.184.954-.27,1.431a10.092,10.092,0,0,0-.442-1.943c0-.009-.015-.006-.013,0a24.961,24.961,0,0,1,.269,2.953c-.14.746-.131.663-.26,1.26a8.6,8.6,0,0,0-.477-2.867c.02.746.143,1.491.195,2.235.037.528.03,1.064.069,1.592q-.126.536-.26,1.07a9,9,0,0,0-.444-3.626c.025.8.138,1.587.167,2.385s-.05,1.6-.025,2.41c-.031.118-.061.237-.093.355a21.241,21.241,0,0,0-.362-4.026c-.046,1.591.238,3.139.061,4.726-.032.285-.319,1.589-.363,1.751a17.4,17.4,0,0,0-.2-5.414,22.382,22.382,0,0,1-.068,4.885,48.7,48.7,0,0,0-.5-6.341,6.085,6.085,0,0,0-1.4-3.66,12.353,12.353,0,0,0-6.929-3.308,6.135,6.135,0,0,0-2.619-.562c.243-.049.486-.1.73-.135a29.964,29.964,0,0,1,3.63-.268c.041,0,.04-.066,0-.071a12.739,12.739,0,0,0-3.537.176,15.469,15.469,0,0,0-1.529.335l-.027,0c.64-.254,1.3-.488,1.982-.717.969-.17,1.944-.265,2.929-.346.042,0,.043-.074,0-.075a12.31,12.31,0,0,0-2.134.159c1.085-.353,2.241-.716,3.51-1.159.5,0,1.006.025,1.515.061.041,0,.051-.072.01-.082a4.422,4.422,0,0,0-1.1-.129q.415-.151.828-.32c.521.052,2.422.36,1.907.119A3.578,3.578,0,0,0,21.292,4c.174-.077.347-.157.517-.241.559.054,1.115.116,1.672.217a.033.033,0,0,0,.016-.064,4.644,4.644,0,0,0-1.459-.271q.329-.172.643-.365a12.791,12.791,0,0,1,1.613.278c.042.008.077-.062.031-.085a3.624,3.624,0,0,0-1.4-.347c.043-.028.084-.058.126-.087.114.023.228.046.34.078.28.077.548.2.829.27.046.012.074-.058.032-.087a2.464,2.464,0,0,0-1.023-.383c.149-.109.292-.224.433-.344.222.028.444.048.663.1a5.937,5.937,0,0,0,.592.143c.034,0,.04-.05.016-.068a1.628,1.628,0,0,0-1.191-.244,2.944,2.944,0,0,0,.378-.37c1.214.488,1.185.19.118-.137.115-.138.226-.281.336-.423.277.27.778.419.082-.1C25.14.84,25.638.291,26.508.444A2.314,2.314,0,0,1,28.3,2.587c-.018-.04-.039-.078-.058-.117a.041.041,0,0,0,0-.039c-.012-.017-.027-.034-.04-.052A10.492,10.492,0,0,0,27.255.821q.326.555.615,1.135A9.76,9.76,0,0,0,26.75.821s-.009,0-.006.008a9.684,9.684,0,0,0,1.328,1.541c.111.247.21.5.308.753.016.151.028.3.037.448a10.32,10.32,0,0,0-1.1-1.878,9.323,9.323,0,0,1,.768,1.425,3.481,3.481,0,0,1,.329,1.592A.365.365,0,0,0,28.5,5c.359-.316.327-.905.812-1.045a.956.956,0,0,1,1.02.449.849.849,0,0,1,.186.567,1.5,1.5,0,0,1-.055.317c-.036-.163-.079-.324-.118-.486a.039.039,0,1,0-.074.023L30.3,4.9c-.014.072-.028.143-.04.216a2.4,2.4,0,0,0-.314-.606c-.018-.025-.055.008-.039.034a2.344,2.344,0,0,1,.278.719,1.586,1.586,0,0,1,.026.2c-.019.16-.033.319-.041.475L30.13,6a4.539,4.539,0,0,0-.163-.507c0-.04-.007-.079-.011-.119q0-.283.005-.567a.064.064,0,1,0-.128,0c0,.006,0,.011,0,.017a1.568,1.568,0,0,0-.116-.251,0,0,0,0,0-.005,0c.036.159.071.317.1.477a3.766,3.766,0,0,0-.181-.42c0-.01-.017,0-.015.007a6.369,6.369,0,0,0,.215.844c0,.081,0,.162,0,.244-.02.145-.051.287-.079.431a1.574,1.574,0,0,0-.682-1.1c-.029-.015-.057.023-.034.051a2.579,2.579,0,0,1,.47.735,3.55,3.55,0,0,1,.138.891.047.047,0,0,0,.023.037.489.489,0,0,0-.082.243c-.18-.694-.575-1.248-.536-1.1m.723.48h0a1.346,1.346,0,0,0,.178-.522,2.155,2.155,0,0,0,.1.254c-.105.167-.215.34-.3.491a1.186,1.186,0,0,0,.021-.222m.587-.776a1.533,1.533,0,0,0-.057-.378c.006-.1.01-.193.012-.289q.054.235.121.465c-.01.034-.021.068-.033.1a.712.712,0,0,1-.044.1" transform="translate(0 -0.001)" fill="#0c1229"/>
    <path id="Tracé_1513" data-name="Tracé 1513" d="M97.469,27.227c.132.5.478,1.9.486,1.475.012-.688-.56-1.758-.486-1.475" transform="translate(-73.188 -19.526)" fill="#0c1229"/>
    <path id="Tracé_1514" data-name="Tracé 1514" d="M99.186,15.277a.007.007,0,0,0-.013,0,8.12,8.12,0,0,0,.174,1.132c-.009.015-.119.745-.121.761-.112-.327-.05-.133-.159-.479.04-.278.077-.555.115-.83.018-.133-.16-.193-.182-.057s-.048.284-.074.426c-.143-.479-.131-.476-.035.19q-.071.378-.146.756c-.052-.184-.107-.366-.163-.547.152-1.254.087-.968-.081-.263-.061-.2-.047-.126-.013.053q-.144.6-.286,1.209c-.047-.152-.1-.3-.151-.452.154-1.417.08-1.133-.109-.3a8.646,8.646,0,0,0-.684-1.464,14.819,14.819,0,0,1,.614,1.773q-.073.332-.149.662c-.057-.157-.118-.313-.183-.467.045-.229.085-.458.123-.686.009-.054-.063-.077-.073-.023-.035.186-.077.369-.119.552A5.1,5.1,0,0,0,96.425,15.5c.332.707.671,1.4.946,2.134q-.1.379-.2.756a4.987,4.987,0,0,0-1.242-1.9,10.925,10.925,0,0,1,1.129,2.319q-.053.193-.1.386a6.5,6.5,0,0,0-.736-1.848,0,0,0,0,0-.009,0,17.012,17.012,0,0,1,.843,3.228.037.037,0,0,0,.073-.011,6.455,6.455,0,0,0-.136-1.217c.047-.116.09-.235.132-.354.054.166.1.335.151.505a5.977,5.977,0,0,0-.132.63c-.011.074.075.126.112.054s.084-.181.125-.273c.083.351.154.712.212,1.091.007.048.071.034.073-.011a6.081,6.081,0,0,0-.136-1.447c.08-.22.153-.448.216-.685.032.128.065.255.1.384-.012.057-.025.115-.037.172s.061.1.093.057c.068.279.138.558.223.832a.043.043,0,0,0,.084-.013,6.263,6.263,0,0,0-.143-1.27c.057-.175.109-.353.159-.533q.084.329.172.66c-.013.094-.027.189-.039.283s.087.118.115.036l0-.015,0,.01a.043.043,0,0,0,.084-.013c0-.068-.015-.136-.022-.2a12.1,12.1,0,0,0,.317-1.27c.015.046.026.092.042.137s.063.025.057-.018c-.017-.1-.04-.208-.062-.312q.065-.35.118-.7a2.466,2.466,0,0,0,.163.472c-.156,1.221.092,1.621.3-.649a1.113,1.113,0,0,0,.124.249c.032.046.1.007.1-.047a3.406,3.406,0,0,0-.232-.86c-.1-.32-.183-.647-.281-.968M97.4,19.041c-.045-.152-.095-.3-.15-.452.073-.249.137-.5.194-.758a4.274,4.274,0,0,1,.159.5c-.063.235-.134.47-.2.705m.569-.4c-.029-.112-.062-.224-.1-.336q.069-.34.118-.683c.038.141.076.281.113.423q-.068.3-.135.6m.491.048q-.055-.312-.135-.619c.1-.421.177-.85.234-1.278q.062.313.137.623c-.084.424-.166.848-.236,1.274" transform="translate(-72.021 -10.971)" fill="#0c1229"/>
    <path id="Tracé_1515" data-name="Tracé 1515" d="M112.8,22c-.016,0-.016.028,0,.028s.016-.028,0-.028" transform="translate(-84.696 -15.808)" fill="#0c1229"/>
    <path id="Tracé_1516" data-name="Tracé 1516" d="M100.152,42.358c.119.521.192-1.113-.718-2.965,0,0,.187.628.718,2.965" transform="translate(-74.669 -28.299)" fill="#0c1229"/>
    <path id="Tracé_1517" data-name="Tracé 1517" d="M69.719,25.006a17.65,17.65,0,0,0-5.24-1.564s0,.006,0,.006A32.055,32.055,0,0,1,69.3,25.115a7.577,7.577,0,0,1,3.733,2.713c.193.282-.114-1.454-3.314-2.822" transform="translate(-48.417 -16.84)" fill="#0c1229"/>
    <path id="Tracé_1518" data-name="Tracé 1518" d="M90.465,76.348a5.155,5.155,0,0,1-.491,3.469c-.035.063.045.132.09.079a3.3,3.3,0,0,0,.443-3.568c-.015-.026-.046-.009-.043.021" transform="translate(-67.558 -54.824)" fill="#0c1229"/>
    <path id="Tracé_1519" data-name="Tracé 1519" d="M46.6,62c-.182.068-.323.229-.507.3a.575.575,0,0,1-.081.023c-.258.051-.519-.068-.784-.021a1.282,1.282,0,0,0-.994,1.016,14.377,14.377,0,0,0-.179,3.29c.006.824-.191,1.183.6,1.368a3.487,3.487,0,0,0,2.391.021,1.157,1.157,0,0,0,.511-1.317c-.192-.569-.746-.731-.361-1.483a14.175,14.175,0,0,0,.772-1.272c.381-.971-.335-2.306-1.366-1.922m.241,3.009a1.235,1.235,0,0,0-.2.917c.132.526.763.79.324,1.427-.384.556-1.4.288-1.934.187-.435-.082-.55-.139-.618-.637a3.63,3.63,0,0,1,.083-.807c.064-.624.048-1.255.068-1.882a1.828,1.828,0,0,1,.26-1.179c.333-.412,1.179-.357,1.65-.473.543-.133,1.172.04,1.213.766.039.683-.549,1.167-.847,1.681" transform="translate(-33.065 -44.49)" fill="#0c1229"/>
    <path id="Tracé_1520" data-name="Tracé 1520" d="M49.234,68.4a.392.392,0,0,0-.012.121.152.152,0,1,0,.3,0,.408.408,0,0,0-.012-.121.141.141,0,0,0-.278,0" transform="translate(-36.963 -49.057)" fill="#0c1229"/>
    <path id="Tracé_1521" data-name="Tracé 1521" d="M53.135,67.564c-.151,0-.151.265,0,.265s.151-.265,0-.265" transform="translate(-39.816 -48.537)" fill="#0c1229"/>
    <path id="Tracé_1522" data-name="Tracé 1522" d="M56.11,65.31a.431.431,0,0,0-.224-.081.062.062,0,0,0-.046.091.445.445,0,0,0,.185.155c.1.062.182-.116.085-.164" transform="translate(-41.927 -46.859)" fill="#0c1229"/>
    <path id="Tracé_1523" data-name="Tracé 1523" d="M51.044,73.9c-.108,0-.109.19,0,.19s.108-.19,0-.19" transform="translate(-38.269 -53.086)" fill="#0c1229"/>
    <path id="Tracé_1524" data-name="Tracé 1524" d="M50.645,67.585a2.83,2.83,0,0,0-1.9-.287,2.15,2.15,0,0,0-1.519,1.152c-.463.369-.2,2.4-.231,2.817-.156,2.081-1.894,2.3-3.267,3a3.687,3.687,0,0,0-2.117,2.63,2.659,2.659,0,0,0,1.517,2.681c1.25.624,2.763.273,4.046-.031a4.9,4.9,0,0,0,2.941-2.371c.791-1.147,1.965-2.075,2.473-3.437a5.562,5.562,0,0,0,.128-3.319,4.418,4.418,0,0,0-2.073-2.835m1.632,6.279a16.7,16.7,0,0,1-2.083,2.754,15.151,15.151,0,0,1-1.182,1.559,11.814,11.814,0,0,1-1.689.808,5.978,5.978,0,0,1-2.131-.145,5.21,5.21,0,0,1-2.068-.286c.118-.063.234-.133.347-.208a1.292,1.292,0,0,1-.145-.168c-.114.1-.227.194-.335.3-.969-.635-.676-1.85-.253-2.787,0-.008-.007-.016-.011-.007a2.973,2.973,0,0,0-.418,2.2,1.49,1.49,0,0,0,.588.726c.008.025.028.044.053.033a2.329,2.329,0,0,0,.785.3c.482.091.973.044,1.457.093a10.627,10.627,0,0,0,1.7.269,2.568,2.568,0,0,0,.311-.039,6.691,6.691,0,0,1-3.454.239,2.382,2.382,0,0,1-1.72-3.145A4.464,4.464,0,0,1,44.808,74.1a3,3,0,0,0,2.378-3.084,11.951,11.951,0,0,1,.051-2.125,4.122,4.122,0,0,1,.237-.363.16.16,0,0,1,.068,0c.056.017.073-.072.023-.1l-.014-.005a2.112,2.112,0,0,1,2.729-.715,4.4,4.4,0,0,1,2.228,2.869,5.162,5.162,0,0,1-.23,3.277" transform="translate(-31.232 -48.304)" fill="#0c1229"/>
    <path id="Tracé_1525" data-name="Tracé 1525" d="M17.178,66.654c.264-.616.143-1.313.363-1.937.213-.6.78-.955.927-1.6a2.325,2.325,0,0,0-.164-1.328c-.364-.948-.961-1.663-.806-2.779A6.745,6.745,0,0,0,17.7,56a1.988,1.988,0,0,0-1.758-1.157,4.225,4.225,0,0,0-.978-.123c-.762.1-1.117,1.2-1.257,1.912a11.651,11.651,0,0,1-2.2,4.413,5.29,5.29,0,0,0-1.067,3.4,4.625,4.625,0,0,0,1.28,2.959c1.465,1.439,4.5,1.473,5.455-.751M15.466,67.91a3.354,3.354,0,0,1-3.027-.262c-2.024-1.259-2.191-4.194-.942-6.159a20.038,20.038,0,0,0,1.875-3.05,9.011,9.011,0,0,0,.471-1.5c.232-1.052.267-1.872,1.416-1.864.7,0,1.912.128,2.284.943.455,1-.19,2.164-.272,3.184a5.422,5.422,0,0,0,.807,2.6,1.915,1.915,0,0,1-.367,2.139,2.264,2.264,0,0,0-.456.923,9.051,9.051,0,0,1-.293,1.669,2.73,2.73,0,0,1-1.5,1.378" transform="translate(-7.834 -39.302)" fill="#0c1229"/>
    <path id="Tracé_1526" data-name="Tracé 1526" d="M44.8,41.48a2.22,2.22,0,0,1,1.057-2.069s0-.005,0,0a2.306,2.306,0,0,0-1.218,2.18A2.053,2.053,0,0,0,46.01,43.5a.086.086,0,0,0,.058-.156A2.417,2.417,0,0,1,44.8,41.48" transform="translate(-33.515 -28.309)" fill="#0c1229"/>
    <path id="Tracé_1527" data-name="Tracé 1527" d="M62.714,35.471c.616.168.816.675,1.114,1.227A3.189,3.189,0,0,0,65.1,37.911a4.524,4.524,0,0,1,1.884,1.444,2.305,2.305,0,0,1,0,2.271,2.343,2.343,0,0,1-1.119.6c-.076.029-.069.177.02.168a1.535,1.535,0,0,0,1.574-1.348A2.749,2.749,0,0,0,66.4,38.488c-.439-.331-.934-.543-1.394-.83a3.7,3.7,0,0,1-1.3-1.551c-.512-.927-1.319-.841-2.162-.662,0,0,0,.008,0,.007a3.28,3.28,0,0,1,1.174.02" transform="translate(-46.21 -25.381)" fill="#0c1229"/>
    <path id="Tracé_1528" data-name="Tracé 1528" d="M66.935,71.453a3.024,3.024,0,0,1,.921-1.135,2.644,2.644,0,0,1,1.315-.378c.059-.006.079-.1.015-.123a2.059,2.059,0,0,0-2.308,1.609c-.009.038.039.061.057.027" transform="translate(-50.221 -50.116)" fill="#0c1229"/>
    <path id="Tracé_1529" data-name="Tracé 1529" d="M61.543,93.187a1.647,1.647,0,0,0-.7.868,3.4,3.4,0,0,1-1.116,1.655,4.793,4.793,0,0,1-4.192.781c-.024-.009-.04.033-.017.046a3.717,3.717,0,0,0,3.584-.242,3.036,3.036,0,0,0,1.382-1.061c.411-.671.487-1.449,1.093-1.976.038-.033.007-.1-.038-.073" transform="translate(-41.685 -66.941)" fill="#0c1229"/>
    <path id="Tracé_1530" data-name="Tracé 1530" d="M16.175,84.577c-2.569.173-2.555-4.121-1.356-5.743.03-.04-.016-.093-.051-.058a4.476,4.476,0,0,0-.839,3.77c.186,1.192,1.048,2.54,2.258,2.132.048-.016.041-.105-.012-.1" transform="translate(-10.398 -56.584)" fill="#0c1229"/>
    <path id="Tracé_1531" data-name="Tracé 1531" d="M35.725,66.27a4.443,4.443,0,0,1-.2,2.2.047.047,0,0,0,.084.04,3.639,3.639,0,0,0,.1-2.891c-.117-.306-.291-.573-.425-.869a3.114,3.114,0,0,1-.115-1.779,12.239,12.239,0,0,0,.02-1.88,0,0,0,1,0-.009,0,9.279,9.279,0,0,1-.151,2.112,2.518,2.518,0,0,0,.015,1.406,11.5,11.5,0,0,1,.68,1.656" transform="translate(-26.235 -43.887)" fill="#0c1229"/>
    <path id="Tracé_1532" data-name="Tracé 1532" d="M19.755,81.091l-.081-.426a5.3,5.3,0,0,1-.191-.586s0,0,0,0c.046.228.1.46.172.69-.027.129-.052.26-.071.391A3.377,3.377,0,0,0,20.4,84.2c.043.037.085-.039.054-.079a4,4,0,0,1-.7-3.033" transform="translate(-14.627 -57.527)" fill="#0c1229"/>
    <path id="Tracé_1533" data-name="Tracé 1533" d="M56.719,41.985c-.272-.014-.545-.014-.817-.016-.056,0-.056.1,0,.1.273,0,.545,0,.817-.016a.034.034,0,0,0,0-.067" transform="translate(-41.947 -30.15)" fill="#0c1229"/>
    <path id="Tracé_1534" data-name="Tracé 1534" d="M37.45,89.923c-.061.025-.057.139.016.135a1.087,1.087,0,0,0,.936-.88c.3-.967-.169-2.279.834-2.849a.024.024,0,0,0-.016-.044c-1.559.364-.357,3.066-1.77,3.639" transform="translate(-28.091 -61.985)" fill="#0c1229"/>
    <path id="Tracé_1535" data-name="Tracé 1535" d="M46.733,86.924a2.866,2.866,0,0,0,1.635-.812c.054-.066-.013-.168-.085-.125a9.233,9.233,0,0,1-2.31.882A2.128,2.128,0,0,0,44.545,87.9a0,0,0,0,0,.007.006,4.453,4.453,0,0,1,2.181-.985" transform="translate(-33.45 -61.764)" fill="#0c1229"/>
    <path id="Tracé_1536" data-name="Tracé 1536" d="M80.8,69.072a.007.007,0,0,0,0,.014c1.121.087,1.428,2.048,1.688,2.989a.05.05,0,0,0,.1-.015c-.026-1.032-.618-3.1-1.787-2.988" transform="translate(-60.668 -49.618)" fill="#0c1229"/>
    <path id="Tracé_1537" data-name="Tracé 1537" d="M86.838,69.336c-.029-.06-.12-.019-.1.047.1.321.207.638.321.952a2.058,2.058,0,0,0,.325.723.061.061,0,0,0,.1-.048,2.086,2.086,0,0,0-.248-.76c-.127-.308-.26-.614-.4-.913" transform="translate(-65.133 -49.789)" fill="#0c1229"/>
    <path id="Tracé_1538" data-name="Tracé 1538" d="M37.861,45.573c.073.045.144-.06.088-.128a4.137,4.137,0,0,1-1.091-1.508,3.318,3.318,0,0,1,.531-2.144c.02-.046-.033-.1-.067-.058a2.84,2.84,0,0,0-.731,2.054,2.632,2.632,0,0,0,1.271,1.785" transform="translate(-27.465 -29.97)" fill="#0c1229"/>
    <path id="Tracé_1539" data-name="Tracé 1539" d="M73.48,105.078a11.677,11.677,0,0,1-1.268,1.367,3.025,3.025,0,0,1-1.627.629,0,0,0,0,0,0,0c1.179.367,2.327-1.008,2.939-1.96.019-.03-.022-.062-.043-.038" transform="translate(-53.004 -75.481)" fill="#0c1229"/>
    <path id="Tracé_1540" data-name="Tracé 1540" d="M74.731,105.005c.017-.029-.023-.065-.043-.038a4.384,4.384,0,0,1-1.816,1.473h0a3,3,0,0,0,1.859-1.436" transform="translate(-54.722 -75.4)" fill="#0c1229"/>
    <path id="Tracé_1541" data-name="Tracé 1541" d="M29.257,112.763a4.781,4.781,0,0,1-1.642-.4,2.021,2.021,0,0,1-.958-1.337,0,0,0,0,0-.009,0c.028,1.4,1.592,1.911,2.6,1.82.039,0,.055-.076.01-.084" transform="translate(-20.01 -79.756)" fill="#0c1229"/>
    <path id="Tracé_1542" data-name="Tracé 1542" d="M32.163,113.1a2.557,2.557,0,0,1-1.092-.089,2.2,2.2,0,0,1-.5-.249c-.086-.057-.655-.488-.407-.6.009,0,0-.019-.005-.014-.337.2.259.663.4.758a1.857,1.857,0,0,0,1.62.293c.048-.016.042-.108-.012-.1" transform="translate(-22.572 -80.569)" fill="#0c1229"/>
    <path id="Tracé_1543" data-name="Tracé 1543" d="M20.738,52.7A1.969,1.969,0,0,1,21.9,50.34c.03-.012.029-.073-.008-.069a1.493,1.493,0,0,0-1.069.873,2.072,2.072,0,0,0-.1,1.559.007.007,0,1,0,.013,0" transform="translate(-15.485 -36.114)" fill="#0c1229"/>
    <path id="Tracé_1544" data-name="Tracé 1544" d="M21.294,54.766a.025.025,0,1,0,.049,0A4.721,4.721,0,0,1,21.76,52.9a5.8,5.8,0,0,1,1.024-1.406c.028-.033-.008-.086-.043-.063a3.968,3.968,0,0,0-1.446,3.338" transform="translate(-15.989 -36.942)" fill="#0c1229"/>
    <path id="Tracé_1545" data-name="Tracé 1545" d="M41.637,32.771a2.685,2.685,0,0,1,1.131-.285h.106c.069,0,.136-.006.2-.009a5.407,5.407,0,0,0-2.6,2.05,2.85,2.85,0,0,0-.108,2.744,2.435,2.435,0,0,0,.988.826,3.024,3.024,0,0,1,.708.474,8.374,8.374,0,0,1,.55.855,1.2,1.2,0,0,0,.922.386,1.127,1.127,0,0,1,1.093.635,1.36,1.36,0,0,0,.342.525c.4.3,1.112.2,1.572.234.8.064,1.608.129,2.412.191a2.789,2.789,0,0,0,1.671-.175,3.061,3.061,0,0,0,1-1.13,4.569,4.569,0,0,0,.624-3.4A3.631,3.631,0,0,0,50.4,34.563c-.555-.322-1.135-.586-1.678-.934a20.4,20.4,0,0,0-1.714-1.213,5.492,5.492,0,0,0-3.562-.219,4.59,4.59,0,0,0-3.8,2.158,5.367,5.367,0,0,1,1.992-1.584M46.2,32.35a10.4,10.4,0,0,1,2.662,1.625,14.513,14.513,0,0,1,2.266,1.372,3.164,3.164,0,0,1,.848,3.374,5.4,5.4,0,0,1-.664,1.432,1.942,1.942,0,0,1-1.849,1.028c-1.193-.023-2.4-.186-3.586-.273a1.241,1.241,0,0,1-1.04-.489c-.068-.1-.1-.239-.165-.343a1,1,0,0,0-.75-.447c-.589-.095-.97-.036-1.335-.651a2.233,2.233,0,0,0-.632-.767,5.42,5.42,0,0,1-1.33-.912,2.406,2.406,0,0,1-.275-2.056c.389-1.427,1.715-2.063,2.788-2.694a.049.049,0,0,0,.005-.072A10.029,10.029,0,0,1,46.2,32.35" transform="translate(-29.771 -22.994)" fill="#0c1229"/>
    <path id="Tracé_1546" data-name="Tracé 1546" d="M79.186,35.517c.029.019.064-.028.037-.054a7.455,7.455,0,0,0-3.855-1.818s0,0,0,0A9.658,9.658,0,0,1,77.4,34.4a18.867,18.867,0,0,1,1.783,1.114" transform="translate(-56.595 -24.17)" fill="#0c1229"/>
    <path id="Tracé_1547" data-name="Tracé 1547" d="M46.837,70.1c-.439-.115-.293-.78-.273-1.128q.028-.491.054-.982c.036-.656.075-1.307.062-1.965,0,0,0,0,0,0-.143.947-.19,1.909-.261,2.865-.029.384-.222,1.5.421,1.358.067-.014.064-.132,0-.149" transform="translate(-34.819 -47.434)" fill="#0c1229"/>
    <path id="Tracé_1548" data-name="Tracé 1548" d="M42.882,64.053a2.69,2.69,0,0,1,.4-1.1,2.057,2.057,0,0,1,.945-.684c.031-.014.03-.074-.008-.071a1.769,1.769,0,0,0-1.36,1.852.013.013,0,0,0,.026,0" transform="translate(-32.175 -44.684)" fill="#0c1229"/>
    <path id="Tracé_1549" data-name="Tracé 1549" d="M57.912,71.026c.016,0,.016-.03,0-.029-.437.051-.657.443-.607.93.076.747.886,1.629.2,2.286-.031.029,0,.093.04.077a.834.834,0,0,0,.4-.947,3.579,3.579,0,0,0-.292-.845c-.176-.429-.419-1.384.262-1.472" transform="translate(-43.027 -51.003)" fill="#0c1229"/>
    <path id="Tracé_1550" data-name="Tracé 1550" d="M47.009,84.757c-.066.007-.068.114,0,.118a6.7,6.7,0,0,0,1.614-.056c.05-.01.031-.087-.011-.092a6.668,6.668,0,0,0-1.6.03" transform="translate(-35.263 -60.84)" fill="#0c1229"/>
    <path id="Tracé_1551" data-name="Tracé 1551" d="M42.209,63.295a6.076,6.076,0,0,0,.513-.767c.013-.025-.017-.052-.035-.031a6.082,6.082,0,0,0-.522.76c-.018.029.023.066.044.038" transform="translate(-31.66 -44.892)" fill="#0c1229"/>
    <path id="Tracé_1552" data-name="Tracé 1552" d="M42.111,61.528c.025-.032-.007-.086-.042-.061a2.282,2.282,0,0,0-.315.278,1.606,1.606,0,0,0-.268.319s0,.011.006.009a1.334,1.334,0,0,0,.292-.217,2.537,2.537,0,0,0,.327-.328" transform="translate(-31.154 -44.153)" fill="#0c1229"/>
    <path id="Tracé_1553" data-name="Tracé 1553" d="M42.956,72.739a8.505,8.505,0,0,0,0-1.54.038.038,0,1,0-.076,0,8.485,8.485,0,0,0-.007,1.54.042.042,0,0,0,.083,0" transform="translate(-32.168 -51.118)" fill="#0c1229"/>
    <path id="Tracé_1554" data-name="Tracé 1554" d="M59.4,73.693a2.349,2.349,0,0,1-.235-.749,2.01,2.01,0,0,1,.11-.723h0a1.165,1.165,0,0,0,.062,1.545c.043.032.081-.029.064-.072" transform="translate(-44.312 -51.883)" fill="#0c1229"/>
    <path id="Tracé_1555" data-name="Tracé 1555" d="M60.94,74.106a3.253,3.253,0,0,0,.085,1.014c.014.04.076.054.085,0a3.3,3.3,0,0,0-.1-1.024.033.033,0,0,0-.065.01" transform="translate(-45.761 -53.211)" fill="#0c1229"/>
    <path id="Tracé_1556" data-name="Tracé 1556" d="M27.168,57.072a1.06,1.06,0,0,1,.977.189.048.048,0,0,0,.061-.069c-.492-.794-1.836-.218-1.729.752,0,.045.055.055.07.011.126-.379.255-.733.621-.883" transform="translate(-19.878 -40.818)" fill="#0c1229"/>
    <path id="Tracé_1557" data-name="Tracé 1557" d="M27.322,59.975a.011.011,0,0,0,.021.006,1.374,1.374,0,0,1,.835-.745c.037-.012.03-.076-.009-.076a.925.925,0,0,0-.847.815" transform="translate(-20.517 -42.5)" fill="#0c1229"/>
    <path id="Tracé_1558" data-name="Tracé 1558" d="M27.771,60.987a.912.912,0,0,0-.553.252,1.144,1.144,0,0,0-.217.269c-.057.1-.067.23-.124.323-.011.017.019.032.023.011a1.165,1.165,0,0,1,.359-.475,1.679,1.679,0,0,1,.521-.313c.03-.012.028-.07-.008-.067" transform="translate(-20.181 -43.812)" fill="#0c1229"/>
    <path id="Tracé_1559" data-name="Tracé 1559" d="M15.977,82.73a2.807,2.807,0,0,0-.429,1.934,2.2,2.2,0,0,0,.921,1.558c.036.022.072-.03.044-.064a3.41,3.41,0,0,1-.809-1.475,2.835,2.835,0,0,1,.3-1.938c.009-.015-.013-.03-.022-.014" transform="translate(-11.651 -59.428)" fill="#0c1229"/>
    <path id="Tracé_1560" data-name="Tracé 1560" d="M18.012,88.285a2.387,2.387,0,0,1-.783-2.108c0-.017-.02-.025-.024-.008a1.911,1.911,0,0,0,.763,2.182.041.041,0,0,0,.045-.066" transform="translate(-12.863 -61.896)" fill="#0c1229"/>
    <path id="Tracé_1561" data-name="Tracé 1561" d="M47.268,96.608a1.517,1.517,0,0,0-.842,2.315c.009.015.03,0,.022-.014a1.6,1.6,0,0,1,.838-2.226.038.038,0,0,0-.018-.074" transform="translate(-34.683 -69.401)" fill="#0c1229"/>
    <path id="Tracé_1562" data-name="Tracé 1562" d="M48.769,77.737c-.111,0-.111.195,0,.195s.111-.195,0-.195" transform="translate(-36.56 -55.845)" fill="#0c1229"/>
    <path id="Tracé_1563" data-name="Tracé 1563" d="M51.9,80.044c-.186,0-.186.327,0,.327s.186-.327,0-.327" transform="translate(-38.871 -57.503)" fill="#0c1229"/>
    <path id="Tracé_1564" data-name="Tracé 1564" d="M54.106,71.033c-.223,0-.223.391,0,.391s.223-.391,0-.391" transform="translate(-40.504 -51.029)" fill="#0c1229"/>
    <path id="Tracé_1565" data-name="Tracé 1565" d="M48.382,73.022c.169,0,.17-.3,0-.3s-.17.3,0,.3" transform="translate(-36.236 -52.245)" fill="#0c1229"/>
    <path id="Tracé_1566" data-name="Tracé 1566" d="M56.275,68.424c-.163,0-.163.286,0,.286s.163-.286,0-.286" transform="translate(-42.167 -49.155)" fill="#0c1229"/>
    <path id="Tracé_1567" data-name="Tracé 1567" d="M53.82,69.306c-.125,0-.125.219,0,.219s.125-.219,0-.219" transform="translate(-40.345 -49.789)" fill="#0c1229"/>
    <path id="Tracé_1568" data-name="Tracé 1568" d="M55.847,50.744c-.127,0-.128.224,0,.224s.128-.224,0-.224" transform="translate(-41.866 -36.454)" fill="#0c1229"/>
    <path id="Tracé_1569" data-name="Tracé 1569" d="M52.052,39.33c-.12,0-.12.21,0,.21s.12-.21,0-.21" transform="translate(-39.021 -28.254)" fill="#0c1229"/>
    <path id="Tracé_1570" data-name="Tracé 1570" d="M68.6,40.292a.141.141,0,0,0,.089-.068.073.073,0,0,0,0-.068.137.137,0,0,0-.089-.069c-.151-.049-.152.254,0,.205" transform="translate(-51.43 -28.794)" fill="#0c1229"/>
    <path id="Tracé_1571" data-name="Tracé 1571" d="M73.954,49.543c0,.012,0,.024,0,.036a.121.121,0,1,0,.24,0c0-.012,0-.024,0-.036a.118.118,0,1,0-.235,0" transform="translate(-55.533 -35.499)" fill="#0c1229"/>
    <path id="Tracé_1572" data-name="Tracé 1572" d="M30.694,67.148a.805.805,0,0,0,.015-.163.145.145,0,0,0-.216-.14.176.176,0,0,0,0,.28.582.582,0,0,0,.119.075c.033.015.073-.017.081-.052" transform="translate(-22.847 -48.005)" fill="#0c1229"/>
    <path id="Tracé_1573" data-name="Tracé 1573" d="M32.848,86.984c.182,0,.182-.32,0-.32s-.182.32,0,.32" transform="translate(-24.564 -62.258)" fill="#0c1229"/>
    <path id="Tracé_1574" data-name="Tracé 1574" d="M25.2,95.787c-.191,0-.191.335,0,.335s.191-.335,0-.335" transform="translate(-18.818 -68.812)" fill="#0c1229"/>
    <path id="Tracé_1575" data-name="Tracé 1575" d="M23.408,104.677l-.032.036c-.117.133.065.338.182.206l.032-.036c.117-.132-.065-.338-.182-.206" transform="translate(-17.526 -75.168)" fill="#0c1229"/>
    <path id="Tracé_1576" data-name="Tracé 1576" d="M80.837,25.5c.022.006.039-.032.016-.044-.455-.234-.938-.406-1.41-.593a8.7,8.7,0,0,0-1.566-.565s0,0,0,0a7.981,7.981,0,0,0,1.4.612c.515.2,1.031.435,1.561.587" transform="translate(-58.479 -17.452)" fill="#0c1229"/>
    <path id="Tracé_1577" data-name="Tracé 1577" d="M83.185,24.4c.03.01.049-.04.021-.058a9.244,9.244,0,0,0-1.037-.524,6.843,6.843,0,0,0-1.188-.509s0,0,0,.005a7,7,0,0,0,1.151.609,9.113,9.113,0,0,0,1.055.476" transform="translate(-60.81 -16.742)" fill="#0c1229"/>
    <path id="Tracé_1578" data-name="Tracé 1578" d="M84.807,23.239c.036.008.05-.048.015-.062a8.561,8.561,0,0,0-1.777-.554c-.012,0-.023.018-.009.024a8.618,8.618,0,0,0,1.771.591" transform="translate(-62.35 -16.252)" fill="#0c1229"/>
    <path id="Tracé_1579" data-name="Tracé 1579" d="M105.851,5.758a.03.03,0,0,0,.06-.009,1.1,1.1,0,0,0-1.53-.964s0,.01,0,.009a1.253,1.253,0,0,1,1.467.964" transform="translate(-78.382 -3.366)" fill="#0c1229"/>
    <path id="Tracé_1580" data-name="Tracé 1580" d="M60.014,101.17h0a2.553,2.553,0,0,0,1.679-.18,3.427,3.427,0,0,0,1.477-.952c.028-.034-.008-.093-.045-.066a6.206,6.206,0,0,1-1.518.93,3.935,3.935,0,0,1-.843.2,5.118,5.118,0,0,0-.75.068" transform="translate(-45.067 -71.814)" fill="#0c1229"/>
    <path id="Tracé_1581" data-name="Tracé 1581" d="M79.984,72.692a5.419,5.419,0,0,1,.81,2.37,6.463,6.463,0,0,1-.278,2.4c-.008.03.031.049.045.021a5.008,5.008,0,0,0-.576-4.8h0" transform="translate(-60.063 -52.22)" fill="#0c1229"/>
    <path id="Tracé_1582" data-name="Tracé 1582" d="M79.408,75.3s-.006,0,0,0a3.411,3.411,0,0,1,.666,1.544,5.12,5.12,0,0,1-.091,1.7c-.006.038.04.066.059.028a3.293,3.293,0,0,0-.63-3.277" transform="translate(-59.627 -54.095)" fill="#0c1229"/>
    <path id="Tracé_1583" data-name="Tracé 1583" d="M79.562,78.036a4.788,4.788,0,0,1,.381,2.107.026.026,0,0,0,.051.008,3.119,3.119,0,0,0-.425-2.12s-.01,0-.007,0" transform="translate(-59.746 -56.055)" fill="#0c1229"/>
    <path id="Tracé_1584" data-name="Tracé 1584" d="M56.478,81.839a3.138,3.138,0,0,0,.635-2.34c-.008-.044-.063-.03-.065.01a3.88,3.88,0,0,1-.776,2.378,4.921,4.921,0,0,1-1.99,1.29c-.016.006-.008.034.007.028a4.877,4.877,0,0,0,2.189-1.366" transform="translate(-40.756 -57.092)" fill="#0c1229"/>
    <path id="Tracé_1585" data-name="Tracé 1585" d="M61.005,83.6a2.5,2.5,0,0,1-1.56,2.04c-.016,0-.009.033.007.028a2.138,2.138,0,0,0,1.609-2.059.028.028,0,0,0-.056-.008" transform="translate(-44.633 -60.044)" fill="#0c1229"/>
    <path id="Tracé_1586" data-name="Tracé 1586" d="M61.846,87.264c-.012.012.005.032.018.021a3.324,3.324,0,0,0,1.073-1.814c.005-.031-.035-.055-.048-.023a5.029,5.029,0,0,1-1.043,1.817" transform="translate(-46.439 -61.373)" fill="#0c1229"/>
    <path id="Tracé_1587" data-name="Tracé 1587" d="M58.948,57.636c-.408-.346-1.046-1.515-1.659-.943a0,0,0,0,0,0,0,.992.992,0,0,1,.881.294c.153.17.275.373.432.54a2.458,2.458,0,0,0,.878.577,2.4,2.4,0,0,0,2.068-.017c.019-.01.006-.045-.014-.038a2.524,2.524,0,0,1-2.588-.415" transform="translate(-43.02 -40.616)" fill="#0c1229"/>
    <path id="Tracé_1588" data-name="Tracé 1588" d="M59.7,55.561a.855.855,0,0,0-1.166-.172s0,.006,0,0c1.272-.743,1.745,2.148,2.993,1.442.014-.008,0-.034-.01-.028-.88.328-1.266-.722-1.82-1.246" transform="translate(-43.958 -39.671)" fill="#0c1229"/>
    <path id="Tracé_1589" data-name="Tracé 1589" d="M72.518,43.581a16.59,16.59,0,0,0-2.033-1.7s0,0,0,0a16.686,16.686,0,0,0,2,1.741c.025.016.052-.022.031-.045" transform="translate(-52.928 -30.088)" fill="#0c1229"/>
    <path id="Tracé_1590" data-name="Tracé 1590" d="M70.629,44.333h0a4.962,4.962,0,0,0,1.1.721c.034.014.047-.04.023-.06a4.9,4.9,0,0,0-1.125-.663" transform="translate(-53.038 -31.848)" fill="#0c1229"/>
    <path id="Tracé_1591" data-name="Tracé 1591" d="M71.154,45.928a5.289,5.289,0,0,0-.866-.594h0a5.421,5.421,0,0,0,.832.644.032.032,0,0,0,.035-.052" transform="translate(-52.781 -32.567)" fill="#0c1229"/>
    <path id="Tracé_1592" data-name="Tracé 1592" d="M33.926,71.366a7.155,7.155,0,0,1-.321-1.09,3.13,3.13,0,0,1,.1-1.35c0-.012-.011-.022-.019-.012a2.207,2.207,0,0,0-.085,1.831,7.223,7.223,0,0,1,.6,2.661.021.021,0,0,0,.041.006,3.738,3.738,0,0,0-.322-2.047" transform="translate(-25.116 -49.504)" fill="#0c1229"/>
    <path id="Tracé_1593" data-name="Tracé 1593" d="M31.932,92.063a3.268,3.268,0,0,1-.85,1.741c-.034.034.015.086.049.055a2.62,2.62,0,0,0,.855-1.788.027.027,0,0,0-.054-.008" transform="translate(-23.332 -66.121)" fill="#0c1229"/>
    <path id="Tracé_1594" data-name="Tracé 1594" d="M50.818,99.523a1.178,1.178,0,0,0,.355,1.144c.039.028.088-.028.063-.072a1.6,1.6,0,0,1-.3-.989,1.12,1.12,0,0,1,.688-.972s0,0,0,0a1.181,1.181,0,0,0-.8.889" transform="translate(-38.142 -70.857)" fill="#0c1229"/>
    <path id="Tracé_1595" data-name="Tracé 1595" d="M27.97,105c.016,0,.016-.029,0-.029s-.016.029,0,.029" transform="translate(-20.995 -75.411)" fill="#0c1229"/>
    <path id="Tracé_1596" data-name="Tracé 1596" d="M30.075,104.589a4.5,4.5,0,0,0-.637-.907,1.36,1.36,0,0,0-1.051-.323.094.094,0,0,0-.06-.025h-.032a.087.087,0,0,0-.079.041,5.3,5.3,0,0,0-.6.111,1.61,1.61,0,0,0-1.279.968.982.982,0,0,0,.374,1.214c.039.02.073-.043.034-.066-.5-.3-.372-1.117,0-1.477a2.579,2.579,0,0,1,1.443-.522,1.42,1.42,0,0,1,1.046.07,2.285,2.285,0,0,1,.618.78,14.872,14.872,0,0,0,.951,1.518c.038.048.1-.013.076-.066a12.659,12.659,0,0,0-.8-1.313" transform="translate(-19.726 -74.232)" fill="#0c1229"/>
    <path id="Tracé_1597" data-name="Tracé 1597" d="M29.816,106.284c.046,0,.049-.069.01-.086a.767.767,0,0,0-.849.321,1.13,1.13,0,0,0-.224.45,1.231,1.231,0,0,0,.037.527c0,.018.03.01.024-.008a1.084,1.084,0,0,1,.262-.9.885.885,0,0,1,.739-.3" transform="translate(-21.579 -76.262)" fill="#0c1229"/>
    <path id="Tracé_1598" data-name="Tracé 1598" d="M87.7,61.082c-.024.061.052.115.081.054a12.222,12.222,0,0,0,.773-1.819.04.04,0,0,0-.071-.034,12.139,12.139,0,0,0-.782,1.8" transform="translate(-65.851 -42.573)" fill="#0c1229"/>
    <path id="Tracé_1599" data-name="Tracé 1599" d="M83.676,49.108c-.027.045.032.094.065.057a2.572,2.572,0,0,0-.536-3.732s0,0,0,0a2.831,2.831,0,0,1,.473,3.672" transform="translate(-62.48 -32.639)" fill="#0c1229"/>
    <path id="Tracé_1600" data-name="Tracé 1600" d="M79.07,51.135c-.018-.025-.056.008-.04.035a1.268,1.268,0,0,1-.634,1.841c-.035.015-.033.08.01.079.889-.029,1.173-1.254.664-1.955" transform="translate(-58.852 -36.728)" fill="#0c1229"/>
    <path id="Tracé_1601" data-name="Tracé 1601" d="M51.061,35.252a0,0,0,0,0,0,0,9.037,9.037,0,0,1,1.155-.686,5.69,5.69,0,0,1,1.289-.23c.045-.006.066-.086.012-.1a2.6,2.6,0,0,0-2.458,1.014" transform="translate(-38.344 -24.569)" fill="#0c1229"/>
  </g>
</svg>
