<svg xmlns="http://www.w3.org/2000/svg" width="111" height="111" viewBox="0 0 111 111">
  <g id="Groupe_81" data-name="Groupe 81" transform="translate(-0.072 0.133)">
    <g id="Groupe_49" data-name="Groupe 49" transform="translate(0.073)">
      <g id="Ellipse_2" data-name="Ellipse 2" transform="translate(0 -0.133)" fill="none" stroke="#3c3c3c" stroke-width="1">
        <circle cx="55.5" cy="55.5" r="55.5" stroke="none"/>
        <circle cx="55.5" cy="55.5" r="55" fill="none"/>
      </g>
    </g>
    <g id="_1699645" data-name="1699645" transform="translate(29.668 18.062)">
      <path id="Tracé_1602" data-name="Tracé 1602" d="M432.133-1159.745c-2.381.028-7.435.085-11.231.128l-6.9.078-.32.348c-.178.192-.8.846-1.379,1.457a10.405,10.405,0,0,0-1.016,1.152c.021.021,1.116.007,2.438-.036s3.561-.107,4.969-.149c4.635-.135,10.5-.3,16.129-.462,1.99-.057,3.867-.107,4.18-.107a1.255,1.255,0,0,0,.554-.064c0-.064-2.31-2.09-2.623-2.3a.6.6,0,0,0-.327-.114C436.533-1159.8,434.521-1159.774,432.133-1159.745Z" transform="translate(-402.749 1159.81)" fill="#0c1229"/>
      <path id="Tracé_1603" data-name="Tracé 1603" d="M776.247-1119.8l-.746.043.021.213c.014.114.434,2.339.938,4.941s.931,4.948.953,5.224.142,2.1.256,4.052.3,4.833.391,6.4.178,2.914.178,3,.043.163.114.163a19.238,19.238,0,0,0,2.111-.5,9.728,9.728,0,0,0-.014-1.393c-.043-.74-.107-2.026-.149-2.858s-.107-2.189-.142-3.021-.107-2.1-.142-2.822-.1-2.1-.149-3.057l-.078-1.742-.81-4.194c-.448-2.31-.825-4.265-.846-4.358C778.088-1119.877,777.96-1119.884,776.247-1119.8Z" transform="translate(-741.069 1122.693)" fill="#0c1229"/>
      <path id="Tracé_1604" data-name="Tracé 1604" d="M402.87-1109.168a12.407,12.407,0,0,0-1.329.078c-.021.021-.107,1.571-.185,3.448s-.192,4.528-.249,5.907c-.078,1.763-.107,4.393-.107,8.935v6.44h.2c.107-.007.7-.078,1.329-.164,1.123-.156,1.137-.164,1.159-.341.071-.583-.384-3.973-1.578-11.956l-.178-1.194,1.173-5.552c.647-3.049,1.152-5.566,1.116-5.594A11.2,11.2,0,0,0,402.87-1109.168Z" transform="translate(-393.19 1112.78)" fill="#0c1229"/>
      <path id="Tracé_1605" data-name="Tracé 1605" d="M472.341-1107.118a3.3,3.3,0,0,0-.569.7c.028.029,4.244.483,9.376,1.024l9.319.974.811-.156a7.131,7.131,0,0,0,.853-.2,5.457,5.457,0,0,0-.981-.711l-1.038-.661-2.893-.277c-1.585-.149-3.59-.334-4.45-.412-4.919-.462-6.334-.59-7.748-.718-.86-.078-1.678-.164-1.806-.185C472.98-1107.772,472.938-1107.751,472.341-1107.118Z" transform="translate(-458.93 1111.448)" fill="#0c1229"/>
      <path id="Tracé_1606" data-name="Tracé 1606" d="M467.091-1082.125c-.021.05,0,1.465.043,3.128s.121,4.357.163,5.978a22.362,22.362,0,0,0,.164,3.028,3.447,3.447,0,0,0,.405.27l.32.185.413-.263.412-.256-.043-.754c-.028-.412-.078-1.585-.114-2.6-.071-1.863-.164-4.322-.277-7.13-.035-.832-.078-1.528-.1-1.55a3.916,3.916,0,0,0-.69-.085C467.247-1082.224,467.126-1082.21,467.091-1082.125Z" transform="translate(-454.575 1087.719)" fill="#0c1229"/>
      <path id="Tracé_1607" data-name="Tracé 1607" d="M738.947-1060.456a5.38,5.38,0,0,0-.661.163c-.021.014.277,1.592.654,3.5s.753,3.853.846,4.315a8.359,8.359,0,0,0,.192.86c.064.064,1.727.824,1.749.8s-.846-4.556-1.671-8.758C739.829-1060.727,739.907-1060.663,738.947-1060.456Z" transform="translate(-706.5 1067.63)" fill="#0c1229"/>
      <path id="Tracé_1608" data-name="Tracé 1608" d="M447.906-934.058c-1.031.661-1.919,1.2-1.976,1.2s-1.095-.512-2.3-1.137l-2.189-1.145-1.614,1.081c-1.379.917-1.635,1.066-1.763,1-.078-.036-.867-.476-1.749-.967a12.593,12.593,0,0,0-1.713-.874c-.057.014-.9.547-1.862,1.18a21.386,21.386,0,0,1-1.862,1.145,12.366,12.366,0,0,1-1.4-.874c-.718-.477-1.379-.924-1.478-.988-.185-.121-.192-.121-.59.171-.306.227-.405.341-.405.476,0,.355.725,5.587.789,5.651a.11.11,0,0,0,.149-.007,21.532,21.532,0,0,1,2.68-1.926,10.268,10.268,0,0,1,1.109,1.123c.54.6,1.009,1.109,1.038,1.123a20.063,20.063,0,0,0,1.67-1.294,16.276,16.276,0,0,1,1.727-1.322c.064,0,1.052.59,2.2,1.315s2.111,1.315,2.154,1.315.789-.576,1.663-1.28a20.619,20.619,0,0,1,1.685-1.279,11.923,11.923,0,0,1,1.265,1.031c.64.568,1.187,1.03,1.208,1.03s.647-.483,1.386-1.073,1.407-1.1,1.471-1.137c.092-.05.448.22,1.77,1.358.91.782,1.692,1.422,1.734,1.422a3.112,3.112,0,0,0,.561-.405l.483-.412-.05-1.784c-.028-.981-.071-2.111-.1-2.509l-.043-.732-1.777-.8c-.974-.441-1.827-.818-1.891-.839A12.735,12.735,0,0,0,447.906-934.058Z" transform="translate(-417.342 951.183)" fill="#0c1229"/>
      <path id="Tracé_1609" data-name="Tracé 1609" d="M845.922-930.723c-.583.242-.64.284-.654.476-.014.114.036,1.066.107,2.118l.121,1.919,1.656,1.052c.91.576,1.692,1.052,1.742,1.052a15.7,15.7,0,0,0,1.407-.8,9.976,9.976,0,0,0,1.983-1.414l.654-.626.235-.824a4.574,4.574,0,0,1,.327-.917,4.156,4.156,0,0,1,.6-.306l.5-.213.242-.789a3.976,3.976,0,0,0,.206-.825,21.333,21.333,0,0,0-2.09.54c-1.13.313-2.118.576-2.2.576s-1.038-.291-2.14-.647S846.6-931,846.59-931,846.278-930.872,845.922-930.723Z" transform="translate(-805.876 947.265)" fill="#0c1229"/>
      <path id="Tracé_1610" data-name="Tracé 1610" d="M307.884-924.743c-.035.05-.242.391-.448.753a3.712,3.712,0,0,1-.526.76,5.644,5.644,0,0,1-.924.256l-.775.156-.491,1.038a8.084,8.084,0,0,1-.569,1.081,2.4,2.4,0,0,1-.533.1c-.327.035-.448.071-.434.142a24.846,24.846,0,0,0,1.933,2.282,11.144,11.144,0,0,0,1.606-.867c.839-.5,1.571-.91,1.628-.924a2.39,2.39,0,0,1,.718.32l.6.355.043-.761c.028-.419.05-1.166.057-1.656l.007-.9-.853-1.088c-.469-.6-.881-1.1-.917-1.116A.169.169,0,0,0,307.884-924.743Z" transform="translate(-302.328 941.52)" fill="#0c1229"/>
      <path id="Tracé_1611" data-name="Tracé 1611" d="M945.885-914.349c-.05.178-.142.5-.213.711l-.121.391-.569.2a3.526,3.526,0,0,0-.625.256,5.28,5.28,0,0,0-.192.86l-.135.8-.412.362c-.227.2-.5.44-.611.54l-.206.185.078,2.552c.043,1.408.128,4.208.185,6.22s.135,4.891.185,6.4c.107,3.967.178,11.523.121,13.79-.029,1.073-.078,5.616-.121,10.094s-.1,9.141-.121,10.364-.035,2.218-.014,2.218a3.67,3.67,0,0,0,.313-.654,1.89,1.89,0,0,1,.931-1.137,3.213,3.213,0,0,0,1.244-1.443l.327-.576.078-6.071c.085-6.355.085-20.131.014-36.644C945.985-913.033,945.963-914.612,945.885-914.349Z" transform="translate(-896.477 931.822)" fill="#0c1229"/>
      <path id="Tracé_1612" data-name="Tracé 1612" d="M321.5-858.792c-.732.661-1.358,1.208-1.379,1.208s-.6-.526-1.28-1.173-1.258-1.173-1.28-1.173-.739.611-1.585,1.358c-1.1.967-1.578,1.351-1.678,1.322-.071-.014-1.095-.611-2.275-1.322s-2.189-1.28-2.232-1.265-.746.633-1.557,1.358a18.5,18.5,0,0,1-1.571,1.322,8.781,8.781,0,0,1-1.095-1.088c-.547-.6-1.045-1.13-1.1-1.18-.092-.071-.306.057-1.415.889-.718.533-1.322.995-1.358,1.016s.064,1.052.2,2.282a21.182,21.182,0,0,1,.192,2.289,29.385,29.385,0,0,1-3.27.469l-.192-.021-.043-1.137c-.028-.625-.05-1.763-.057-2.523s-.028-1.557-.057-1.763c-.043-.37-.05-.377-.519-.682-.263-.171-.54-.348-.618-.384-.114-.064-.405.085-1.763.881-.9.526-1.656.953-1.685.953s-.583-.59-1.244-1.315a10.933,10.933,0,0,0-1.237-1.265c-.064.078-.206,5.353-.256,9.4-.028,3.007-.014,3.974.149,7.57.5,11.409.547,13.449.362,19.157-.114,3.6-.362,10.9-.455,13.613a15.607,15.607,0,0,0-.014,1.763c.028.029,1.152,0,2.5-.057,6.291-.263,12.34-.306,16.307-.107,2.282.114,8.878.363,14,.533,9.5.313,13.25.426,13.286.384.014-.014.085-5.928.156-13.143.142-14.814.128-16.328-.3-29.891-.064-2-.135-4.685-.163-5.971-.036-2.14-.05-2.346-.164-2.339a12.861,12.861,0,0,0-1.294.7,10.21,10.21,0,0,1-1.294.682,14.184,14.184,0,0,1-2.424-1.308c-.533-.334-.981-.6-1-.59s.043,1.059.121,2.324a10.762,10.762,0,0,1,.05,2.4,21.188,21.188,0,0,1-3.014.7c-.021-.021-.121-.946-.213-2.047s-.185-2.026-.206-2.04a2.931,2.931,0,0,0-.611.369c-.441.3-.6.384-.7.334-.064-.035-.832-.661-1.7-1.386S322.929-860,322.894-860,322.233-859.46,321.5-858.792Z" transform="translate(-291.136 881.312)" fill="#0c1229"/>
    </g>
    <rect id="Rectangle_41" data-name="Rectangle 41" width="23.222" height="3.87" rx="1.935" transform="matrix(1, 0.017, -0.017, 1, 36.178, 82.243)" fill="#e96328"/>
  </g>
</svg>
