<svg xmlns="http://www.w3.org/2000/svg" xmlns:xlink="http://www.w3.org/1999/xlink" width="23.337" height="47.685" viewBox="0 0 23.337 47.685">
  <defs>
    <clipPath id="clip-path">
      <rect id="Rectangle_11" data-name="Rectangle 11" width="45.746" height="14.135" fill="#0c1229"/>
    </clipPath>
  </defs>
  <g id="Groupe_71" data-name="Groupe 71" transform="matrix(0.208, 0.978, -0.978, 0.208, 13.826, 0)">
    <g id="Groupe_17" data-name="Groupe 17" transform="translate(0 0)" clip-path="url(#clip-path)">
      <path id="Tracé_1198" data-name="Tracé 1198" d="M61.024.984c-2.861.718-6.155,1.516-9.13,1.3-1.369-.1-2.388-1.141-3.681-1.543A10.573,10.573,0,0,0,44.584.389c-1.4.067-2.772.353-4.159.542-1.509.205-3.03.293-4.545.436a33.633,33.633,0,0,0-8.483,1.7.058.058,0,0,0,.036.11,62.227,62.227,0,0,1,9.216-1.7c2.978-.254,6.08-.957,9.07-.749A8.815,8.815,0,0,1,49.8,2.038a4.411,4.411,0,0,0,3.014.72,39.4,39.4,0,0,0,8.242-1.664c.072-.022.036-.128-.036-.11" transform="translate(-17.105 -0.23)" fill="#0c1229"/>
      <path id="Tracé_1199" data-name="Tracé 1199" d="M27.635,6.369c3.005-.061,6-.386,9-.506a18,18,0,0,1,4.447.41,10.293,10.293,0,0,0,3.983.311.079.079,0,0,0-.007-.158c-2.871-.16-5.537-1.089-8.438-.9-2.994.2-6.009.383-8.989.738a.051.051,0,0,0,0,.1" transform="translate(-17.245 -3.44)" fill="#0c1229"/>
      <path id="Tracé_1200" data-name="Tracé 1200" d="M74.9,8.464a8.849,8.849,0,0,0,5.172.6c.159-.037.089-.249-.047-.259-.8-.061-1.6.018-2.4-.032-.918-.058-1.806-.231-2.718-.316-.006,0-.011.008,0,.012" transform="translate(-46.825 -5.284)" fill="#0c1229"/>
      <path id="Tracé_1201" data-name="Tracé 1201" d="M89.766,9.787a.8.8,0,0,0-.271,0,.028.028,0,0,0,0,.054.8.8,0,0,0,.27-.022.017.017,0,0,0,0-.034" transform="translate(-55.94 -6.112)" fill="#0c1229"/>
      <path id="Tracé_1202" data-name="Tracé 1202" d="M90.218,9.7a2.27,2.27,0,0,0,.8-.018.042.042,0,0,0,0-.081,2.26,2.26,0,0,0-.8.055.022.022,0,0,0,0,.043" transform="translate(-56.39 -5.989)" fill="#0c1229"/>
      <path id="Tracé_1203" data-name="Tracé 1203" d="M78.166,10.219a14.7,14.7,0,0,1-4.186,2.522c-1.5.488-3.112.53-4.6,1.037a.112.112,0,0,0,.04.217A13.139,13.139,0,0,0,78.2,10.256c.02-.019-.009-.054-.031-.037" transform="translate(-43.332 -6.386)" fill="#0c1229"/>
      <path id="Tracé_1204" data-name="Tracé 1204" d="M92.111,6.795A45.4,45.4,0,0,0,96.986,5.73c1.836-.459,3.728-.711,5.551-1.192.133-.035.089-.234-.042-.232a24.62,24.62,0,0,0-5.142.957,33.471,33.471,0,0,0-5.245,1.517c-.007,0-.007.016,0,.015" transform="translate(-57.582 -2.692)" fill="#0c1229"/>
      <path id="Tracé_1205" data-name="Tracé 1205" d="M59.264,10.453a5.338,5.338,0,0,0-2.355,1.736,9.4,9.4,0,0,1-4.024,2.132,13.124,13.124,0,0,0-6.259,3.716c-.076.092.058.217.137.125,1.823-2.121,4.356-3.153,6.97-3.957a7.361,7.361,0,0,0,2.791-1.313c.945-.815,1.566-1.841,2.789-2.289a.079.079,0,0,0-.049-.15" transform="translate(-29.136 -6.533)" fill="#0c1229"/>
      <path id="Tracé_1206" data-name="Tracé 1206" d="M54.169,20.294a14.853,14.853,0,0,0-5.3,1.838,9.192,9.192,0,0,0-3.816,3.233c-.033.061.055.126.1.07a15.224,15.224,0,0,1,9.02-5.111.016.016,0,0,0-.005-.03" transform="translate(-28.163 -12.688)" fill="#0c1229"/>
      <path id="Tracé_1207" data-name="Tracé 1207" d="M45.352,30.263a5.914,5.914,0,0,0-.794,1.173,3.087,3.087,0,0,0-.463,1.187.049.049,0,0,0,.084.03,7.636,7.636,0,0,0,.548-1.129c.206-.422.472-.8.7-1.213a.043.043,0,0,0-.07-.049" transform="translate(-27.568 -18.912)" fill="#0c1229"/>
      <path id="Tracé_1208" data-name="Tracé 1208" d="M59.245,7.606a11.317,11.317,0,0,1-4.612-.193c-1.581-.475-3.167-.935-4.752-1.4-.073-.022-.1.091-.026.114,3.051.987,6.173,2.573,9.395,1.5a.012.012,0,0,0,0-.024" transform="translate(-31.142 -3.76)" fill="#0c1229"/>
      <path id="Tracé_1209" data-name="Tracé 1209" d="M65.522,10.347c-2.163.164-4.5.987-5.412,3.142-.024.057.04.141.1.091.789-.66,1.263-1.56,2.166-2.12a9.646,9.646,0,0,1,3.169-.988c.07-.016.048-.13-.023-.124" transform="translate(-37.577 -6.469)" fill="#0c1229"/>
      <path id="Tracé_1210" data-name="Tracé 1210" d="M42.775,17.433c-1.486,2.032-4.214,1.923-6.36,2.841a12.587,12.587,0,0,0-4.349,3.035c-.059.065.036.147.1.09a15.543,15.543,0,0,1,6.076-3.672c1.63-.485,3.726-.542,4.581-2.261.014-.028-.027-.06-.047-.033" transform="translate(-20.036 -10.893)" fill="#0c1229"/>
      <path id="Tracé_1211" data-name="Tracé 1211" d="M32.884,22.458c1.934-2.04,4.557-2.914,7.175-3.717,1.362-.417,2.72-.85,4.09-1.238a23.382,23.382,0,0,0,4.082-1.331.085.085,0,0,0-.049-.155,25.572,25.572,0,0,0-4.35,1.325c-1.53.518-3.078.982-4.611,1.491a14.053,14.053,0,0,0-6.358,3.606.014.014,0,0,0,.02.018" transform="translate(-20.544 -10.014)" fill="#0c1229"/>
      <path id="Tracé_1212" data-name="Tracé 1212" d="M59.364,18.371a4.326,4.326,0,0,1-.8.865c-.011.009,0,.027.015.023a1.419,1.419,0,0,0,.85-.853.038.038,0,0,0-.067-.036" transform="translate(-36.612 -11.473)" fill="#0c1229"/>
      <path id="Tracé_1213" data-name="Tracé 1213" d="M63.792,13.43A3.688,3.688,0,0,0,62.509,14.9c-.007.017.016.037.028.019a6.442,6.442,0,0,1,1.289-1.437c.033-.025,0-.078-.034-.054" transform="translate(-39.079 -8.393)" fill="#0c1229"/>
      <path id="Tracé_1214" data-name="Tracé 1214" d="M64.907,13.259a4.3,4.3,0,0,0-.918,1.185A.006.006,0,0,0,64,14.45a9.455,9.455,0,0,1,.929-1.171c.013-.013-.008-.031-.021-.019" transform="translate(-40.004 -8.287)" fill="#0c1229"/>
      <path id="Tracé_1215" data-name="Tracé 1215" d="M65.738,13.675a2.12,2.12,0,0,0-.849.922c-.008.02.017.043.034.023.128-.151.234-.319.367-.468a4.757,4.757,0,0,1,.464-.451c.015-.012,0-.036-.017-.026" transform="translate(-40.567 -8.548)" fill="#0c1229"/>
      <path id="Tracé_1216" data-name="Tracé 1216" d="M91.96,9.673a5.658,5.658,0,0,0-2.173,1.166.042.042,0,0,0,.044.069,11.687,11.687,0,0,0,2.2-1.093c.079-.045.016-.169-.068-.142" transform="translate(-56.126 -6.045)" fill="#0c1229"/>
      <path id="Tracé_1217" data-name="Tracé 1217" d="M86.1,10.186A9.162,9.162,0,0,0,84,11.41a21.62,21.62,0,0,1-3.157,1.429c-.044.019-.039.1.016.09,2.1-.261,3.484-1.772,5.265-2.7.025-.013,0-.052-.021-.044" transform="translate(-50.524 -6.368)" fill="#0c1229"/>
      <path id="Tracé_1218" data-name="Tracé 1218" d="M91.722,10.124a11.247,11.247,0,0,0,2.517-1.148.032.032,0,0,0-.027-.057,11.207,11.207,0,0,0-2.5,1.173.018.018,0,0,0,.015.031" transform="translate(-57.33 -5.575)" fill="#0c1229"/>
      <path id="Tracé_1219" data-name="Tracé 1219" d="M55.476,11.265a4.563,4.563,0,0,0-3.7,2.259.109.109,0,0,0,.176.123,12.915,12.915,0,0,1,1.59-1.42,7.547,7.547,0,0,1,1.958-.846.06.06,0,0,0-.021-.117" transform="translate(-32.361 -7.043)" fill="#0c1229"/>
      <path id="Tracé_1220" data-name="Tracé 1220" d="M37.124,16.406c-1.051,1.817-2.838,2.392-4.717,3.051a21.7,21.7,0,0,0-4.588,2.029c-.038.024-.009.091.035.073,2.069-.832,4.122-1.72,6.194-2.554A5.271,5.271,0,0,0,37.17,16.43a.026.026,0,0,0-.046-.024" transform="translate(-17.381 -10.249)" fill="#0c1229"/>
      <path id="Tracé_1221" data-name="Tracé 1221" d="M23.123,30.216a7.811,7.811,0,0,0-1.314.946,5.272,5.272,0,0,0-1.147,1.131c-.025.042.029.086.067.062a10.171,10.171,0,0,0,1.14-1.018c.424-.367.871-.706,1.283-1.086.02-.018-.008-.046-.029-.034" transform="translate(-12.914 -18.889)" fill="#0c1229"/>
      <path id="Tracé_1222" data-name="Tracé 1222" d="M51.7,15.748a3.517,3.517,0,0,0-.414.658,3.864,3.864,0,0,0-.347.695c-.009.029.032.048.051.027a3.87,3.87,0,0,0,.41-.662,3.471,3.471,0,0,0,.342-.7.025.025,0,0,0-.042-.022" transform="translate(-31.843 -9.841)" fill="#0c1229"/>
      <path id="Tracé_1223" data-name="Tracé 1223" d="M47.513,9.909a7.2,7.2,0,0,1-4.63-.481c-1.235-.422-2.407-.05-3.673.033-.065,0-.079.107-.011.118a8.642,8.642,0,0,0,1.862.018,7.218,7.218,0,0,1,2.787.573A5.09,5.09,0,0,0,47.543,10a.05.05,0,0,0-.031-.094" transform="translate(-24.478 -5.771)" fill="#0c1229"/>
      <path id="Tracé_1224" data-name="Tracé 1224" d="M16.624,9.908a25.607,25.607,0,0,0-6.031,2.415,24.4,24.4,0,0,1-7.227,2.24.044.044,0,0,0,0,.088c2.235.154,4.538-.877,6.517-1.8,2.236-1.037,4.427-2.076,6.747-2.919a.016.016,0,0,0-.01-.03" transform="translate(-2.079 -6.195)" fill="#0c1229"/>
      <path id="Tracé_1225" data-name="Tracé 1225" d="M34.559,6.913A4.7,4.7,0,0,0,30.4,9.19a.087.087,0,0,0,.141.1,8.146,8.146,0,0,1,1.664-1.506,5.97,5.97,0,0,1,2.359-.725.072.072,0,0,0-.006-.144" transform="translate(-19.001 -4.321)" fill="#0c1229"/>
      <path id="Tracé_1226" data-name="Tracé 1226" d="M36.008,9.765a5.28,5.28,0,0,0-3.786,1.115c-.048.043.01.121.066.1.621-.208,1.183-.554,1.814-.751s1.285-.243,1.907-.442a.012.012,0,0,0,0-.024" transform="translate(-20.134 -6.078)" fill="#0c1229"/>
      <path id="Tracé_1227" data-name="Tracé 1227" d="M31.726,11.4c-.3.121-.593.249-.884.388a4.035,4.035,0,0,0-.855.459.043.043,0,0,0,.036.076,3.753,3.753,0,0,0,.821-.391c.3-.163.6-.334.89-.515.009-.005,0-.021-.008-.016" transform="translate(-18.737 -7.126)" fill="#0c1229"/>
      <path id="Tracé_1228" data-name="Tracé 1228" d="M42.771,13.6A7.635,7.635,0,0,0,37.6,15.874c-.121.109.049.3.181.214,1.632-1.039,3.017-2.1,5-2.4a.046.046,0,0,0,0-.093" transform="translate(-23.479 -8.499)" fill="#0c1229"/>
      <path id="Tracé_1229" data-name="Tracé 1229" d="M27.915,19.7a20.455,20.455,0,0,1-6.22,3.03.046.046,0,0,0,.016.088,11.221,11.221,0,0,0,6.244-3.071c.025-.024-.012-.069-.04-.047" transform="translate(-13.545 -12.312)" fill="#0c1229"/>
      <path id="Tracé_1230" data-name="Tracé 1230" d="M33.067,19.637c1.043-.753,2.472-.581,3.683-.851a8.252,8.252,0,0,0,3.235-1.365c.106-.082.034-.285-.108-.228a19.874,19.874,0,0,1-4.332,1.478,5.643,5.643,0,0,0-2.571.822c-.088.065,0,.209.093.144" transform="translate(-20.593 -10.743)" fill="#0c1229"/>
      <path id="Tracé_1231" data-name="Tracé 1231" d="M50.727,15.448c-.294.262-.576.536-.878.789-.271.228-.576.429-.827.679a.033.033,0,0,0,.034.054,3.975,3.975,0,0,0,1.7-1.5c.01-.016-.013-.028-.025-.018" transform="translate(-30.642 -9.655)" fill="#0c1229"/>
      <path id="Tracé_1232" data-name="Tracé 1232" d="M37.9,13.631a29.627,29.627,0,0,0-3.909.4,9.121,9.121,0,0,1-3.82-.4c-.125-.037-.168.137-.073.2,2.219,1.468,5.436.085,7.8-.154a.023.023,0,0,0,0-.045" transform="translate(-18.784 -8.518)" fill="#0c1229"/>
      <path id="Tracé_1233" data-name="Tracé 1233" d="M32.237,11.4a1.771,1.771,0,0,0-.508.226.924.924,0,0,0-.371.347c-.01.023.01.055.037.044a2.3,2.3,0,0,0,.4-.287,5.36,5.36,0,0,1,.466-.278c.03-.017.006-.06-.025-.052" transform="translate(-19.604 -7.126)" fill="#0c1229"/>
      <path id="Tracé_1234" data-name="Tracé 1234" d="M32.48,11.348a7.9,7.9,0,0,0-1.4.806c-.057.046-.02.163.06.127a7.92,7.92,0,0,0,1.371-.885.029.029,0,0,0-.031-.049" transform="translate(-19.414 -7.092)" fill="#0c1229"/>
      <path id="Tracé_1235" data-name="Tracé 1235" d="M25.148,14.708c-1.636-.121-3.709,1.632-4.536,2.925-.028.045.034.1.077.07.7-.513,1.248-1.225,1.945-1.757a9.828,9.828,0,0,1,2.519-1.213.013.013,0,0,0,0-.026" transform="translate(-12.882 -9.192)" fill="#0c1229"/>
      <path id="Tracé_1236" data-name="Tracé 1236" d="M21.033,17.648a11.935,11.935,0,0,0,6.335-2.914c.092-.09-.046-.259-.148-.175-1.859,1.545-3.978,2.206-6.19,3.07-.009,0-.007.02,0,.018" transform="translate(-13.144 -9.088)" fill="#0c1229"/>
      <path id="Tracé_1237" data-name="Tracé 1237" d="M23.045,20.848a9.32,9.32,0,0,0,5.557-.954c.077-.047.015-.153-.064-.135-.911.2-1.769.554-2.7.715a19.168,19.168,0,0,1-2.78.213c-.09,0-.108.15-.015.161" transform="translate(-14.369 -12.352)" fill="#0c1229"/>
      <path id="Tracé_1238" data-name="Tracé 1238" d="M7.892,21.84c-.548.684-1.756.957-2.55,1.305-.65.286-1.3.576-1.919.918a13.214,13.214,0,0,0-3.416,2.63c-.021.024.013.054.036.033a18.263,18.263,0,0,1,4.474-3.1c1-.474,2.719-.831,3.422-1.741.025-.032-.021-.075-.047-.043" transform="translate(0 -13.647)" fill="#0c1229"/>
      <path id="Tracé_1239" data-name="Tracé 1239" d="M20.823,22.368c-.067.054-.146.094-.213.152a1.736,1.736,0,0,0-.223.209.02.02,0,0,0,.026.03,1.5,1.5,0,0,0,.207-.162c.039-.033.078-.066.115-.1s.064-.083.1-.116c.007-.006,0-.019-.01-.012" transform="translate(-12.742 -13.983)" fill="#0c1229"/>
      <path id="Tracé_1240" data-name="Tracé 1240" d="M20.054,22.306a1.763,1.763,0,0,1-.422.3c-.139.07-.3.1-.433.175-.024.013-.007.044.014.045a1.251,1.251,0,0,0,.873-.494.022.022,0,0,0-.032-.029" transform="translate(-11.996 -13.941)" fill="#0c1229"/>
      <path id="Tracé_1241" data-name="Tracé 1241" d="M8.078,22.165c-2.713,1.621-5.585,2.6-7.944,4.79-.052.049.03.124.082.075a16.328,16.328,0,0,1,4.621-3.056A9.763,9.763,0,0,0,8.1,22.19c.013-.013-.005-.033-.021-.024" transform="translate(-0.073 -13.856)" fill="#0c1229"/>
      <path id="Tracé_1242" data-name="Tracé 1242" d="M20.359,22.452c.238-.105.476-.212.721-.3s.5-.138.746-.234a.035.035,0,0,0-.013-.068,3.438,3.438,0,0,0-1.49.526c-.04.024-.009.1.036.075" transform="translate(-12.694 -13.661)" fill="#0c1229"/>
      <path id="Tracé_1243" data-name="Tracé 1243" d="M19.92,22.618c.383-.171.771-.34,1.139-.543.015-.009,0-.036-.014-.028-.387.162-.76.362-1.132.557-.008,0,0,.019.007.015" transform="translate(-12.447 -13.782)" fill="#0c1229"/>
      <path id="Tracé_1244" data-name="Tracé 1244" d="M10.744,22.588c-3.109.939-6.438,2.74-8.173,5.587-.032.052.052.112.089.062,2.115-2.845,4.877-4.295,8.1-5.6a.025.025,0,0,0-.015-.047" transform="translate(-1.603 -14.121)" fill="#0c1229"/>
      <path id="Tracé_1245" data-name="Tracé 1245" d="M3.057,30.029A11.782,11.782,0,0,1,7.6,25.571c.054-.034,0-.12-.054-.084-1.766,1.207-3.7,2.446-4.509,4.53-.005.014.015.026.022.011" transform="translate(-1.897 -15.929)" fill="#0c1229"/>
      <path id="Tracé_1246" data-name="Tracé 1246" d="M31.154,12.177c2.34.991,5.575.163,7.805-.787.028-.012.015-.056-.015-.046-2.331.785-5.36,1.762-7.76.777-.038-.015-.068.04-.03.057" transform="translate(-19.466 -7.091)" fill="#0c1229"/>
      <path id="Tracé_1247" data-name="Tracé 1247" d="M49.446,11.741a6.367,6.367,0,0,0-.575.319,2.4,2.4,0,0,0-.542.368.022.022,0,0,0,.023.036,2.237,2.237,0,0,0,.539-.292,6.516,6.516,0,0,0,.577-.383c.022-.017.007-.062-.023-.048" transform="translate(-30.211 -7.339)" fill="#0c1229"/>
      <path id="Tracé_1248" data-name="Tracé 1248" d="M50.916,11.925a1.891,1.891,0,0,0-.949.6c-.016.024.017.044.037.033.162-.084.3-.217.453-.316a4.489,4.489,0,0,1,.483-.267c.029-.014.006-.06-.024-.05" transform="translate(-31.236 -7.455)" fill="#0c1229"/>
      <path id="Tracé_1249" data-name="Tracé 1249" d="M52.253,11.946c-.159.09-.316.182-.47.28a1.767,1.767,0,0,0-.392.287.024.024,0,0,0,.025.038,1.774,1.774,0,0,0,.415-.25c.15-.1.3-.213.441-.325a.018.018,0,0,0-.019-.03" transform="translate(-32.126 -7.467)" fill="#0c1229"/>
      <path id="Tracé_1250" data-name="Tracé 1250" d="M53.5,12.123c-.178.086-.353.176-.526.27a2.184,2.184,0,0,0-.441.267c-.015.013,0,.036.02.031a2.239,2.239,0,0,0,.462-.234c.171-.1.339-.2.505-.3.021-.013,0-.042-.021-.032" transform="translate(-32.837 -7.578)" fill="#0c1229"/>
      <path id="Tracé_1251" data-name="Tracé 1251" d="M54.228,12.528a3.817,3.817,0,0,0-.956.393c-.013.009-.009.037.01.033a3.809,3.809,0,0,0,.956-.4c.013-.006,0-.027-.01-.022" transform="translate(-33.301 -7.832)" fill="#0c1229"/>
      <path id="Tracé_1252" data-name="Tracé 1252" d="M51.117,13.337c-.423.043-.846.093-1.272.111s-.856-.033-1.278.011a.044.044,0,0,0-.008.087,4.39,4.39,0,0,0,2.567-.155c.028-.01.022-.057-.01-.053" transform="translate(-30.339 -8.338)" fill="#0c1229"/>
      <path id="Tracé_1253" data-name="Tracé 1253" d="M78.545,10.231a7.427,7.427,0,0,0-.944.49c-.016.011,0,.04.015.032a7.426,7.426,0,0,0,.937-.509c.009-.005,0-.018-.008-.013" transform="translate(-48.511 -6.396)" fill="#0c1229"/>
      <path id="Tracé_1254" data-name="Tracé 1254" d="M73.257,10.916a2.916,2.916,0,0,0-1.585.9,8.5,8.5,0,0,1-2.033,1.63c-.025.013,0,.046.019.042,1.491-.311,2.113-2.147,3.6-2.565,0,0,0-.007,0-.006" transform="translate(-43.531 -6.825)" fill="#0c1229"/>
      <path id="Tracé_1255" data-name="Tracé 1255" d="M68.815,10.672c-1.9.978-3.422,2.39-5.515,3-.049.014-.024.082.024.073,2.059-.383,3.8-1.934,5.495-3.071a0,0,0,0,0,0-.007" transform="translate(-39.558 -6.672)" fill="#0c1229"/>
      <path id="Tracé_1256" data-name="Tracé 1256" d="M71.359,13.814A12.188,12.188,0,0,0,70.1,14.947c-.014.015.006.041.024.028a12.17,12.17,0,0,0,1.249-1.143c.01-.01,0-.028-.016-.019" transform="translate(-43.824 -8.635)" fill="#0c1229"/>
      <path id="Tracé_1257" data-name="Tracé 1257" d="M72.315,12.924a6.88,6.88,0,0,0-1.561,1.445c-.015.022.017.049.037.034a8.915,8.915,0,0,0,.725-.7c.269-.257.544-.506.82-.756.013-.012-.006-.036-.021-.025" transform="translate(-44.232 -8.079)" fill="#0c1229"/>
      <path id="Tracé_1258" data-name="Tracé 1258" d="M73.051,13.822c-.188.144-.368.3-.547.455a4.158,4.158,0,0,0-.577.541.023.023,0,0,0,.03.035,3.76,3.76,0,0,0,.542-.462c.194-.178.388-.358.569-.549.01-.01,0-.028-.016-.019" transform="translate(-44.965 -8.64)" fill="#0c1229"/>
      <path id="Tracé_1259" data-name="Tracé 1259" d="M87.787,9.988a11.381,11.381,0,0,0-1.884,1.07c-.013.009,0,.033.012.026A11.394,11.394,0,0,0,87.8,10.019c.015-.011,0-.039-.015-.031" transform="translate(-53.702 -6.244)" fill="#0c1229"/>
      <path id="Tracé_1260" data-name="Tracé 1260" d="M76.528,13.1a15.825,15.825,0,0,1-5.187,2.071c-.031.007-.021.057.01.054a9.956,9.956,0,0,0,5.184-2.115c.006,0,0-.015-.007-.01" transform="translate(-44.59 -8.188)" fill="#0c1229"/>
      <path id="Tracé_1261" data-name="Tracé 1261" d="M81,13.863c-.545.5-1.122.935-1.689,1.4a.017.017,0,0,0,.018.028,8.425,8.425,0,0,0,1.694-1.409c.015-.015-.009-.035-.024-.022" transform="translate(-49.581 -8.664)" fill="#0c1229"/>
      <path id="Tracé_1262" data-name="Tracé 1262" d="M83.182,12.591a23.461,23.461,0,0,0-2.06,1.657c-.017.017.007.044.027.031a23.432,23.432,0,0,0,2.058-1.65c.022-.018,0-.056-.025-.038" transform="translate(-50.713 -7.869)" fill="#0c1229"/>
      <path id="Tracé_1263" data-name="Tracé 1263" d="M85.3,10.98a27.919,27.919,0,0,0-2.095,1.88c-.017.018.008.05.029.034a27.828,27.828,0,0,0,2.1-1.884c.022-.021-.012-.049-.033-.031" transform="translate(-52.016 -6.861)" fill="#0c1229"/>
      <path id="Tracé_1264" data-name="Tracé 1264" d="M86.7,9.732a14.92,14.92,0,0,0-2.508,2.435.036.036,0,0,0,.053.049c.877-.75,1.655-1.645,2.486-2.446.02-.019-.01-.056-.031-.037" transform="translate(-52.629 -6.081)" fill="#0c1229"/>
      <path id="Tracé_1265" data-name="Tracé 1265" d="M88,9.714a16.738,16.738,0,0,0-2.156,2.081c-.043.05.022.138.078.092a16.764,16.764,0,0,0,2.12-2.124c.022-.027-.011-.073-.042-.049" transform="translate(-53.661 -6.069)" fill="#0c1229"/>
      <path id="Tracé_1266" data-name="Tracé 1266" d="M89.438,9.909c-.306.255-.6.527-.887.8a5.626,5.626,0,0,0-.837.853c-.032.047.035.1.077.071a5.344,5.344,0,0,0,.826-.769c.295-.3.587-.592.862-.906.023-.026-.012-.073-.042-.049" transform="translate(-54.833 -6.191)" fill="#0c1229"/>
      <path id="Tracé_1267" data-name="Tracé 1267" d="M90.42,10.363c-.409.413-.872.777-1.267,1.2a.044.044,0,0,0,.056.066,5.323,5.323,0,0,0,1.26-1.223.033.033,0,0,0-.049-.045" transform="translate(-55.73 -6.472)" fill="#0c1229"/>
      <path id="Tracé_1268" data-name="Tracé 1268" d="M91.651,5.979a103.1,103.1,0,0,0,10.467-2.322c.091-.023.044-.154-.044-.136a102.445,102.445,0,0,0-10.428,2.43c-.015,0-.011.03.005.028" transform="translate(-57.29 -2.201)" fill="#0c1229"/>
      <path id="Tracé_1269" data-name="Tracé 1269" d="M73.623,7.193c2.844.905,6.019.356,8.96.549.044,0,.049-.069.007-.077-2.961-.562-5.983.151-8.959-.5-.021,0-.027.025-.007.032" transform="translate(-46.02 -4.477)" fill="#0c1229"/>
      <path id="Tracé_1270" data-name="Tracé 1270" d="M35.21,6.111a48.652,48.652,0,0,1,14.322.023c.08.013.109-.109.028-.124a36.146,36.146,0,0,0-14.352.09.006.006,0,0,0,0,.011" transform="translate(-22.009 -3.336)" fill="#0c1229"/>
      <path id="Tracé_1271" data-name="Tracé 1271" d="M55.1,6.559a1.915,1.915,0,0,0-1.408.227.018.018,0,0,0,.015.032A3.833,3.833,0,0,1,55.1,6.572c.007,0,.009-.012,0-.013" transform="translate(-33.566 -4.073)" fill="#0c1229"/>
      <path id="Tracé_1272" data-name="Tracé 1272" d="M56.738,6.521c-.606.143-1.236.248-1.825.45-.019.007-.015.04.006.036.617-.1,1.224-.3,1.827-.462.016,0,.008-.028-.008-.024" transform="translate(-34.324 -4.077)" fill="#0c1229"/>
      <path id="Tracé_1273" data-name="Tracé 1273" d="M58.112,6.878a10.715,10.715,0,0,0-1.563.43c-.021.009-.018.045.007.042a10.745,10.745,0,0,0,1.569-.431c.026-.008.013-.046-.013-.04" transform="translate(-35.345 -4.3)" fill="#0c1229"/>
      <path id="Tracé_1274" data-name="Tracé 1274" d="M59.224,7.349a13.92,13.92,0,0,0-1.48.411.019.019,0,0,0,.012.036,13.938,13.938,0,0,0,1.477-.419c.018-.005.009-.032-.009-.027" transform="translate(-36.093 -4.594)" fill="#0c1229"/>
      <path id="Tracé_1275" data-name="Tracé 1275" d="M61,7.437a10.591,10.591,0,0,0-1.819.472c-.024.01-.021.051.008.047A10.636,10.636,0,0,0,61,7.455.01.01,0,0,0,61,7.437" transform="translate(-36.987 -4.649)" fill="#0c1229"/>
      <path id="Tracé_1276" data-name="Tracé 1276" d="M61.872,7.627a10,10,0,0,0-1.709.6A.04.04,0,1,0,60.2,8.3l.22-.107a.015.015,0,0,0-.009-.028q-.122.035-.245.064l.025.076c.56-.234,1.124-.439,1.7-.635a.021.021,0,0,0-.013-.041" transform="translate(-37.597 -4.768)" fill="#0c1229"/>
      <path id="Tracé_1277" data-name="Tracé 1277" d="M63.132,7.793a4.823,4.823,0,0,0-2.109.689c-.034.022-.009.083.031.067a10.576,10.576,0,0,1,2.088-.7c.033-.006.023-.062-.01-.058" transform="translate(-38.142 -4.872)" fill="#0c1229"/>
      <path id="Tracé_1278" data-name="Tracé 1278" d="M64.97,7.946a14.307,14.307,0,0,0-1.969.7l.039.082q.111-.059.221-.12c.021-.012,0-.043-.017-.037q-.122.037-.243.076c-.056.018-.026.108.028.087.649-.259,1.3-.487,1.964-.714a.038.038,0,0,0-.023-.072" transform="translate(-39.369 -4.967)" fill="#0c1229"/>
      <path id="Tracé_1279" data-name="Tracé 1279" d="M66.33,8.44a5.948,5.948,0,0,0-2.189.68.028.028,0,0,0,.024.05c.732-.219,1.421-.52,2.172-.691.021,0,.015-.042-.007-.038" transform="translate(-40.092 -5.276)" fill="#0c1229"/>
      <path id="Tracé_1280" data-name="Tracé 1280" d="M67.27,8.7a9.15,9.15,0,0,0-2.178.646.029.029,0,0,0,.018.056c.722-.225,1.442-.437,2.171-.638.035-.01.025-.071-.012-.064" transform="translate(-40.683 -5.439)" fill="#0c1229"/>
      <path id="Tracé_1281" data-name="Tracé 1281" d="M52.877,6.234c-.262.016-.514.009-.776.007s-.312.027-.016-.014c.454-.063.912-.1,1.37-.126.083,0,.473.049.385-.128a2.862,2.862,0,0,0-.582.069c-.355.05-.7.115-1.055.188-.063.013-.042.113.02.109a13.08,13.08,0,0,0,1.584-.081c.34-.063-.079-.052-.225-.025l-.8.15c-.065.013-.045.122.021.114.7-.076,1.413-.1,2.1-.243.033-.007.021-.057-.01-.057a6.981,6.981,0,0,0-1.705.145c-.358.1.024.078.2.046l.8-.152c.064-.012.043-.115-.021-.112a8.9,8.9,0,0,1-1.705.09c.087.148,1.34-.115,1.618-.139a.062.062,0,0,0-.006-.123,20.294,20.294,0,0,0-2.489.233.056.056,0,0,0,0,.111,5.569,5.569,0,0,0,1.288-.045c.012,0,.011-.019,0-.019" transform="translate(-32.218 -3.722)" fill="#0c1229"/>
      <path id="Tracé_1282" data-name="Tracé 1282" d="M80.629,10.748a2.157,2.157,0,0,0,1.435.283,21.044,21.044,0,0,0,2.72-.1.037.037,0,0,0,0-.074c-1.323.012-2.87.315-4.14-.127-.012,0-.02.013-.011.021" transform="translate(-50.406 -6.706)" fill="#0c1229"/>
      <path id="Tracé_1283" data-name="Tracé 1283" d="M81.119,10.529a27.278,27.278,0,0,0,3.956.041.02.02,0,0,0,0-.039,27.312,27.312,0,0,0-3.955-.022.01.01,0,0,0,0,.019" transform="translate(-50.709 -6.532)" fill="#0c1229"/>
      <path id="Tracé_1284" data-name="Tracé 1284" d="M84.156,10.846a8.464,8.464,0,0,0,3.268-.007c.026-.006.017-.045-.008-.044-1.1.04-2.159.075-3.258.023-.016,0-.018.025,0,.028" transform="translate(-52.607 -6.749)" fill="#0c1229"/>
      <path id="Tracé_1285" data-name="Tracé 1285" d="M87.636,9.714a12.439,12.439,0,0,0,2.285-.078.05.05,0,0,0,0-.1,12.451,12.451,0,0,0-2.283.129.024.024,0,0,0,0,.049" transform="translate(-54.774 -5.954)" fill="#0c1229"/>
      <path id="Tracé_1286" data-name="Tracé 1286" d="M63.231,4.731c1.2.221,2.426.369,3.638.506.013,0,.018-.018,0-.02-1.2-.2-2.424-.389-3.638-.5-.012,0-.016.016,0,.018" transform="translate(-39.527 -2.947)" fill="#0c1229"/>
      <path id="Tracé_1287" data-name="Tracé 1287" d="M73.633,5.762a13.079,13.079,0,0,0,3.248.492c1.587,0,3.069-.3,4.562.433a.027.027,0,0,0,.025-.047,5.411,5.411,0,0,0-3.035-.551,17.792,17.792,0,0,1-4.8-.344.009.009,0,0,0,0,.018" transform="translate(-46.03 -3.591)" fill="#0c1229"/>
      <path id="Tracé_1288" data-name="Tracé 1288" d="M74.552,5.065a16.515,16.515,0,0,0,4.861.576c.027,0,.024-.039,0-.04a43.905,43.905,0,0,1-4.857-.547.006.006,0,0,0,0,.011" transform="translate(-46.606 -3.16)" fill="#0c1229"/>
      <path id="Tracé_1289" data-name="Tracé 1289" d="M77.087,4.5a22.724,22.724,0,0,0,4.168.716c.024,0,.027-.037,0-.042-1.39-.238-2.781-.421-4.165-.7a.014.014,0,0,0-.006.027" transform="translate(-48.187 -2.797)" fill="#0c1229"/>
      <path id="Tracé_1290" data-name="Tracé 1290" d="M78.226,4a25.511,25.511,0,0,0,3.2.648.028.028,0,0,0,.013-.055,25.562,25.562,0,0,0-3.2-.625A.017.017,0,0,0,78.226,4" transform="translate(-48.899 -2.478)" fill="#0c1229"/>
      <path id="Tracé_1291" data-name="Tracé 1291" d="M80.515,3.243c.86.228,1.66.574,2.5.864.022.007.032-.027.013-.037a8.956,8.956,0,0,0-2.5-.871.023.023,0,0,0-.01.044" transform="translate(-50.327 -2)" fill="#0c1229"/>
      <path id="Tracé_1292" data-name="Tracé 1292" d="M81.441,3.416c.863.3,1.731.659,2.6.925.05.015.068-.056.03-.081a7.051,7.051,0,0,0-2.617-.915.036.036,0,0,0-.016.07" transform="translate(-50.9 -2.092)" fill="#0c1229"/>
      <path id="Tracé_1293" data-name="Tracé 1293" d="M81.932,3.385c.9.357,1.72.826,2.593,1.229.036.016.075-.032.042-.06a6.807,6.807,0,0,0-2.619-1.211c-.024-.006-.04.033-.016.042" transform="translate(-51.215 -2.09)" fill="#0c1229"/>
      <path id="Tracé_1294" data-name="Tracé 1294" d="M23.729,7.9a11.583,11.583,0,0,0-2.785.672.022.022,0,0,0,.014.042,22,22,0,0,1,2.771-.708s0-.007,0-.006" transform="translate(-13.085 -4.939)" fill="#0c1229"/>
      <path id="Tracé_1295" data-name="Tracé 1295" d="M23.7,7.421c1.135-.232,2.3-.445,3.417-.763a.025.025,0,0,0-.009-.048A19.834,19.834,0,0,0,23.7,7.4c-.013,0-.007.023.007.021" transform="translate(-14.81 -4.133)" fill="#0c1229"/>
      <path id="Tracé_1296" data-name="Tracé 1296" d="M26.283,5.656c4.373-.536,8.83-1.562,13.25-1.327.055,0,.049-.081,0-.085-4.375-.321-8.94.708-13.247,1.389-.014,0-.013.025,0,.023" transform="translate(-16.425 -2.616)" fill="#0c1229"/>
      <path id="Tracé_1297" data-name="Tracé 1297" d="M56.343,1.575c1.89-.2,3.83-.422,5.692-.805.047-.01.032-.088-.015-.084-1.893.165-3.815.507-5.683.857-.018,0-.012.034.006.032" transform="translate(-35.214 -0.429)" fill="#0c1229"/>
      <path id="Tracé_1298" data-name="Tracé 1298" d="M61.691,1.725a17.828,17.828,0,0,1,6.635-.356.022.022,0,0,0,.01-.043C66.2.655,63.792,1.12,61.687,1.7c-.013,0-.01.026,0,.024" transform="translate(-38.561 -0.622)" fill="#0c1229"/>
      <path id="Tracé_1299" data-name="Tracé 1299" d="M63.133,1.788c1.711-.238,3.37-.371,5.091-.484.042,0,.052-.073.007-.078a13.5,13.5,0,0,0-5.1.543c-.01,0-.007.02,0,.018" transform="translate(-39.464 -0.733)" fill="#0c1229"/>
      <path id="Tracé_1300" data-name="Tracé 1300" d="M91.548,7a8.617,8.617,0,0,0,4.14.166c.044-.009.029-.078-.014-.076a29.224,29.224,0,0,1-4.118-.128A.02.02,0,0,0,91.548,7" transform="translate(-57.226 -4.351)" fill="#0c1229"/>
      <path id="Tracé_1301" data-name="Tracé 1301" d="M88.852,5.932a8.5,8.5,0,0,0,4.057-.086.032.032,0,0,0-.012-.063c-1.365.052-2.669.141-4.039.075-.043,0-.048.066-.007.074" transform="translate(-55.532 -3.616)" fill="#0c1229"/>
      <path id="Tracé_1302" data-name="Tracé 1302" d="M90.97,6.72a6.33,6.33,0,0,0,3.54,0,.043.043,0,0,0-.015-.084c-.546.008-1.086.109-1.634.119a16.426,16.426,0,0,1-1.87-.12.045.045,0,0,0-.02.088" transform="translate(-56.852 -4.146)" fill="#0c1229"/>
      <path id="Tracé_1303" data-name="Tracé 1303" d="M92.9,6.246a14.313,14.313,0,0,0,4.308-.355c.046-.011.031-.082-.015-.08-1.41.059-2.9.186-4.3.387a.024.024,0,0,0,0,.048" transform="translate(-58.064 -3.633)" fill="#0c1229"/>
      <path id="Tracé_1304" data-name="Tracé 1304" d="M95.649,4.847c2.178.134,4.473-.683,6.6-1.072.049-.009.03-.082-.015-.082-2.208-.007-4.382.9-6.583,1.1a.025.025,0,0,0,0,.049" transform="translate(-59.783 -2.309)" fill="#0c1229"/>
      <path id="Tracé_1305" data-name="Tracé 1305" d="M61.424,11.155s0,0,0,0a0,0,0,1,0,0,0" transform="translate(-38.401 -6.972)" fill="#0c1229"/>
      <path id="Tracé_1306" data-name="Tracé 1306" d="M55.359,11.443c-.045-.017-.951.491-1.1.563A7.555,7.555,0,0,0,53.1,12.7a6.6,6.6,0,0,0-1.563,1.563c-.01.015.015.033.027.019a9.292,9.292,0,0,1,1.872-1.738,7.257,7.257,0,0,1,1.178-.635,3.615,3.615,0,0,0,.835-.357.022.022,0,0,0,.009-.024c0-.027-.01-.054-.015-.081a.016.016,0,0,0-.013-.012l-.069-.02c-.019-.006-.024.022-.007.029" transform="translate(-32.222 -7.135)" fill="#0c1229"/>
      <path id="Tracé_1307" data-name="Tracé 1307" d="M48.719,18.357a5.168,5.168,0,0,1-2.141,1.62c-.061.026-.031.123.032.1a4.567,4.567,0,0,0,2.127-1.707c.007-.01-.01-.023-.018-.013" transform="translate(-29.099 -11.474)" fill="#0c1229"/>
      <path id="Tracé_1308" data-name="Tracé 1308" d="M48.019,21.483a19.365,19.365,0,0,0,3.17-.39c.05-.012.033-.087-.015-.087a19.371,19.371,0,0,0-3.157.422c-.034.006-.034.058,0,.055" transform="translate(-30.004 -13.133)" fill="#0c1229"/>
      <path id="Tracé_1309" data-name="Tracé 1309" d="M32.745,21.95A28.437,28.437,0,0,0,22.45,26.2c-.025.017,0,.052.025.039,1.723-.892,3.4-1.826,5.2-2.558,1.659-.674,3.375-1.132,5.071-1.7.017-.006.013-.036-.006-.032" transform="translate(-14.029 -13.723)" fill="#0c1229"/>
      <path id="Tracé_1310" data-name="Tracé 1310" d="M31,21.616a26.021,26.021,0,0,1-3.922,1.752.029.029,0,0,0,.018.054,12.8,12.8,0,0,0,3.936-1.757A.029.029,0,0,0,31,21.616" transform="translate(-16.918 -13.511)" fill="#0c1229"/>
      <path id="Tracé_1311" data-name="Tracé 1311" d="M45.081,13.943A9.056,9.056,0,0,0,41.73,15.5a.018.018,0,0,0,.019.03A20.412,20.412,0,0,1,45.1,13.992a.026.026,0,0,0-.016-.049" transform="translate(-26.085 -8.716)" fill="#0c1229"/>
      <path id="Tracé_1312" data-name="Tracé 1312" d="M39.062,17.368a4.276,4.276,0,0,0-1.155.678,5.114,5.114,0,0,0-1.007.891c-.012.015.006.04.023.027.359-.26.678-.573,1.037-.834s.769-.461,1.112-.738c.011-.009,0-.028-.011-.023" transform="translate(-23.067 -10.858)" fill="#0c1229"/>
      <path id="Tracé_1313" data-name="Tracé 1313" d="M40.63,16.572a10.147,10.147,0,0,0-2.318,1.844c-.013.015.007.042.024.028.772-.621,1.492-1.283,2.309-1.849a.014.014,0,0,0-.015-.023" transform="translate(-23.95 -10.36)" fill="#0c1229"/>
      <path id="Tracé_1314" data-name="Tracé 1314" d="M42.527,15.843a20.672,20.672,0,0,0-2.165,1.979c-.029.033.017.072.049.045.74-.63,1.425-1.337,2.137-2,.013-.012-.006-.036-.021-.024" transform="translate(-25.228 -9.903)" fill="#0c1229"/>
      <path id="Tracé_1315" data-name="Tracé 1315" d="M44.346,13.75c-.892.939-1.857,1.859-2.652,2.883a.024.024,0,0,0,.036.033c.949-.882,1.78-1.925,2.636-2.9a.014.014,0,0,0-.021-.019" transform="translate(-26.063 -8.594)" fill="#0c1229"/>
      <path id="Tracé_1316" data-name="Tracé 1316" d="M46.085,13.932A12.554,12.554,0,0,0,43.759,16.7a.02.02,0,0,0,.033.022c.784-.918,1.492-1.882,2.322-2.764.018-.018-.011-.043-.029-.026" transform="translate(-27.356 -8.707)" fill="#0c1229"/>
      <path id="Tracé_1317" data-name="Tracé 1317" d="M48.437,13.354a6.446,6.446,0,0,0-1.887,2.333c-.01.025.023.056.044.03.307-.391.558-.824.87-1.213a12.1,12.1,0,0,1,1.016-1.1c.027-.027-.013-.076-.043-.052" transform="translate(-29.101 -8.345)" fill="#0c1229"/>
      <path id="Tracé_1318" data-name="Tracé 1318" d="M49.307,13.6a12.022,12.022,0,0,0-1.5,1.841c-.016.025.022.048.041.029a12.021,12.021,0,0,0,1.5-1.837c.019-.028-.025-.056-.048-.033" transform="translate(-29.888 -8.496)" fill="#0c1229"/>
      <path id="Tracé_1319" data-name="Tracé 1319" d="M50.448,13.6a9.167,9.167,0,0,0-.827.769,3.592,3.592,0,0,0-.743.851.039.039,0,0,0,.055.051,4.343,4.343,0,0,0,.745-.765c.268-.288.55-.564.8-.864.019-.022-.01-.062-.036-.042" transform="translate(-30.556 -8.502)" fill="#0c1229"/>
      <path id="Tracé_1320" data-name="Tracé 1320" d="M51.07,13.954c-.264.247-.512.51-.762.772a5.155,5.155,0,0,0-.659.731c-.032.05.038.111.085.077a5.162,5.162,0,0,0,.7-.7c.247-.263.5-.524.729-.8a.06.06,0,0,0-.089-.081" transform="translate(-31.036 -8.713)" fill="#0c1229"/>
      <path id="Tracé_1321" data-name="Tracé 1321" d="M52.615,13.626a5.553,5.553,0,0,0-.774.728c-.194.212-.516.49-.569.781a.027.027,0,0,0,.04.028c.26-.133.45-.488.642-.705.232-.261.486-.5.721-.76.035-.038-.016-.1-.06-.071" transform="translate(-32.054 -8.513)" fill="#0c1229"/>
      <path id="Tracé_1322" data-name="Tracé 1322" d="M52.385,14.831c-.2.157-.38.337-.563.511a2.6,2.6,0,0,0-.52.55c-.019.034.022.064.052.048a2.491,2.491,0,0,0,.534-.477c.186-.187.379-.369.548-.571.027-.033-.014-.091-.052-.061" transform="translate(-32.07 -9.267)" fill="#0c1229"/>
      <path id="Tracé_1323" data-name="Tracé 1323" d="M51.807,13.442c-.468.035-.929.127-1.4.169s-.943.021-1.412.063c-.08.007-.1.132-.013.147a5.687,5.687,0,0,0,2.833-.312c.034-.014.028-.07-.012-.066" transform="translate(-30.59 -8.404)" fill="#0c1229"/>
      <path id="Tracé_1324" data-name="Tracé 1324" d="M49.527,14.373c-.493.092-.991.183-1.49.229-.439.04-.883.005-1.319.052a.064.064,0,0,0-.011.125,5.082,5.082,0,0,0,2.833-.367.021.021,0,0,0-.013-.039" transform="translate(-29.171 -8.986)" fill="#0c1229"/>
      <path id="Tracé_1325" data-name="Tracé 1325" d="M32.1,12.837a13.407,13.407,0,0,0,5.475.213c.028-.006.018-.049-.009-.048a24.072,24.072,0,0,1-5.449-.24.038.038,0,0,0-.017.075" transform="translate(-20.052 -7.979)" fill="#0c1229"/>
      <path id="Tracé_1326" data-name="Tracé 1326" d="M25.13,9.678a14.727,14.727,0,0,0-2,1.422,12.478,12.478,0,0,1-3.076,1.472.013.013,0,0,0,.008.025,9.456,9.456,0,0,0,2.681-1.1c.861-.525,1.572-1.234,2.4-1.8.011-.008,0-.028-.01-.022" transform="translate(-12.529 -6.05)" fill="#0c1229"/>
      <path id="Tracé_1327" data-name="Tracé 1327" d="M21.172,14.067a6.954,6.954,0,0,0-2.735,1.03,22.152,22.152,0,0,1-3.431,1.088c-.043.011-.031.083.014.077a12.241,12.241,0,0,0,2.876-.778,17.118,17.118,0,0,1,3.278-1.372.023.023,0,0,0,0-.045" transform="translate(-9.365 -8.795)" fill="#0c1229"/>
      <path id="Tracé_1328" data-name="Tracé 1328" d="M30.972,10.883a1.846,1.846,0,0,1,.24-.153c.053-.03.011-.117-.046-.1a4.821,4.821,0,0,0-1.557,1.02c-.073.07.031.189.114.134.269-.178.518-.388.784-.571a8.429,8.429,0,0,0,.715-.5l-.079-.072a1.907,1.907,0,0,1-.184.22c-.007.007,0,.022.013.015" transform="translate(-18.496 -6.646)" fill="#0c1229"/>
      <path id="Tracé_1329" data-name="Tracé 1329" d="M30.619,10.008c-.58.289-1.117.671-1.665,1.014a6.033,6.033,0,0,1-.8.431c-.138.06-.188.045-.254.174a.1.1,0,0,0,.021.121l.054.054A.1.1,0,0,0,28.1,11.8l.052-.052a.074.074,0,0,0,.016-.073l-.024-.073a.053.053,0,0,0-.1,0c-.031.133.463-.08.5-.1.234-.121.453-.268.673-.41a16.819,16.819,0,0,0,1.458-.987.057.057,0,0,0-.062-.1" transform="translate(-17.434 -6.253)" fill="#0c1229"/>
      <path id="Tracé_1330" data-name="Tracé 1330" d="M30.382,10.41a9.9,9.9,0,0,0-1.3.689,6.6,6.6,0,0,0-1.219.826c-.046.045.009.135.07.108a10.567,10.567,0,0,0,1.178-.711c.44-.271.9-.516,1.323-.808.052-.036.014-.13-.049-.1" transform="translate(-17.407 -6.505)" fill="#0c1229"/>
      <path id="Tracé_1331" data-name="Tracé 1331" d="M25.81,11.289a24.664,24.664,0,0,0-2.205,1.3,13.326,13.326,0,0,0-1.885,1.236c-.042.037.009.113.06.093a13.3,13.3,0,0,0,1.945-1.144,24.554,24.554,0,0,0,2.143-1.4.052.052,0,0,0-.057-.088" transform="translate(-13.569 -7.054)" fill="#0c1229"/>
      <path id="Tracé_1332" data-name="Tracé 1332" d="M29.968,9.829a12.458,12.458,0,0,0-1.4.84,4.708,4.708,0,0,0-1.152.9c-.025.033,0,.093.048.075a6.754,6.754,0,0,0,1.217-.795c.451-.307.917-.59,1.363-.9a.065.065,0,0,0-.071-.11" transform="translate(-17.132 -6.14)" fill="#0c1229"/>
      <path id="Tracé_1333" data-name="Tracé 1333" d="M35.42,7.9a10.6,10.6,0,0,0-2.254,1.135.019.019,0,0,0,.02.031c.741-.4,1.465-.81,2.241-1.145.012-.006.006-.026-.007-.021" transform="translate(-20.73 -4.937)" fill="#0c1229"/>
      <path id="Tracé_1334" data-name="Tracé 1334" d="M37.086,6.735a10.038,10.038,0,0,0-3.179,1.746c-.021.018,0,.051.024.036A31.49,31.49,0,0,1,37.1,6.764c.017-.007.009-.035-.009-.028" transform="translate(-21.193 -4.21)" fill="#0c1229"/>
      <path id="Tracé_1335" data-name="Tracé 1335" d="M39.608,6.244a18.35,18.35,0,0,0-2.494,1.423c-.023.016-.006.061.023.048a18.273,18.273,0,0,0,2.486-1.448.014.014,0,0,0-.015-.023" transform="translate(-23.196 -3.903)" fill="#0c1229"/>
      <path id="Tracé_1336" data-name="Tracé 1336" d="M41.322,6.162a18.681,18.681,0,0,0-2.3,1.439.023.023,0,0,0,.024.038,18.653,18.653,0,0,0,2.3-1.446.018.018,0,0,0-.019-.03" transform="translate(-24.388 -3.851)" fill="#0c1229"/>
      <path id="Tracé_1337" data-name="Tracé 1337" d="M43.546,5.661A10.1,10.1,0,0,0,41.3,7.142c-.023.021.009.055.034.04.762-.449,1.5-.987,2.239-1.481.026-.017,0-.053-.026-.04" transform="translate(-25.815 -3.538)" fill="#0c1229"/>
      <path id="Tracé_1338" data-name="Tracé 1338" d="M55.122,8.85c-.231.148-.451.315-.672.477-.124.091-.379.2-.4.366a.032.032,0,0,0,.015.033.065.065,0,0,0,.094-.015.02.02,0,0,0,0-.023l-.009-.018c-.007-.014-.031-.006-.03.009-.012-.082.461-.364.532-.416.166-.123.334-.244.492-.377.021-.018,0-.053-.024-.037" transform="translate(-33.791 -5.531)" fill="#0c1229"/>
      <path id="Tracé_1339" data-name="Tracé 1339" d="M56.355,9.216a4.424,4.424,0,0,0-1.3.91.037.037,0,0,0,.048.056c.222-.137.417-.326.627-.482s.425-.315.642-.464a.012.012,0,0,0-.013-.021" transform="translate(-34.412 -5.761)" fill="#0c1229"/>
      <path id="Tracé_1340" data-name="Tracé 1340" d="M57.529,9.6c-.242.127-.476.27-.709.414a2.9,2.9,0,0,0-.6.41.026.026,0,0,0,.027.042,2.914,2.914,0,0,0,.629-.361c.23-.148.46-.3.68-.459a.027.027,0,0,0-.03-.046" transform="translate(-35.146 -5.998)" fill="#0c1229"/>
      <path id="Tracé_1341" data-name="Tracé 1341" d="M58.976,9.9c-.205.122-.405.252-.6.386a2.789,2.789,0,0,0-.507.382c-.019.02,0,.058.03.047a2.834,2.834,0,0,0,.534-.341c.195-.139.386-.282.573-.432a.025.025,0,0,0-.027-.042" transform="translate(-36.173 -6.187)" fill="#0c1229"/>
      <path id="Tracé_1342" data-name="Tracé 1342" d="M60.2,10.638c-.135.094-.269.189-.4.287a1.116,1.116,0,0,0-.3.265.03.03,0,0,0,.036.042A1.131,1.131,0,0,0,59.859,11c.125-.106.246-.216.367-.327.016-.015-.007-.042-.025-.03" transform="translate(-37.195 -6.649)" fill="#0c1229"/>
      <path id="Tracé_1343" data-name="Tracé 1343" d="M57.631,11.3a7.367,7.367,0,0,0-3.4,2.029c-.016.018.008.051.029.034a13.765,13.765,0,0,1,3.38-2.031.017.017,0,0,0-.01-.032" transform="translate(-33.902 -7.061)" fill="#0c1229"/>
      <path id="Tracé_1344" data-name="Tracé 1344" d="M51.506,17.242a6.375,6.375,0,0,1-.754.877c-.281.271-.61.468-.9.719-.031.027.006.082.043.067a3.68,3.68,0,0,0,1.644-1.644c.009-.016-.016-.036-.028-.019" transform="translate(-31.156 -10.776)" fill="#0c1229"/>
      <path id="Tracé_1345" data-name="Tracé 1345" d="M53.234,17.444c-.246.255-.481.518-.734.765s-.538.461-.784.713c-.029.03.012.078.047.056a6.19,6.19,0,0,0,1.512-1.5c.021-.028-.016-.064-.041-.037" transform="translate(-32.326 -10.9)" fill="#0c1229"/>
      <path id="Tracé_1346" data-name="Tracé 1346" d="M54.581,18.211c-.2.157-.4.328-.588.5a4.145,4.145,0,0,0-.627.585.028.028,0,0,0,.036.043,3.8,3.8,0,0,0,.585-.5c.21-.193.422-.385.619-.591.016-.016-.007-.045-.025-.03" transform="translate(-33.359 -11.383)" fill="#0c1229"/>
      <path id="Tracé_1347" data-name="Tracé 1347" d="M55.561,18.372c-.312.346-.685.6-1.026.912-.013.012,0,.029.018.022a4.054,4.054,0,0,0,1.022-.921c.008-.009-.006-.022-.015-.013" transform="translate(-34.091 -11.484)" fill="#0c1229"/>
      <path id="Tracé_1348" data-name="Tracé 1348" d="M56.606,18.772c-.123.1-.24.209-.357.317a1.425,1.425,0,0,0-.328.343c-.012.023.012.059.039.046a1.294,1.294,0,0,0,.325-.282c.124-.123.247-.245.362-.375.024-.027-.012-.075-.042-.05" transform="translate(-34.959 -11.732)" fill="#0c1229"/>
      <path id="Tracé_1349" data-name="Tracé 1349" d="M57.274,18.211a2.44,2.44,0,0,0-.657.681c-.036.054.04.114.089.081a7.449,7.449,0,0,0,.664-.5,2.013,2.013,0,0,0,.483-.489c.017-.03-.021-.059-.048-.043a4.4,4.4,0,0,0-.569.478c-.192.159-.392.305-.6.447l.089.081a3.771,3.771,0,0,1,.591-.686c.028-.028-.012-.074-.044-.052" transform="translate(-35.39 -11.216)" fill="#0c1229"/>
      <path id="Tracé_1350" data-name="Tracé 1350" d="M58.51,17.324c-.164.144-.274.349-.431.5a2.239,2.239,0,0,1-.626.431.079.079,0,1,0,.067.142c.39-.186.96-.591,1.017-1.062a.016.016,0,0,0-.027-.014" transform="translate(-35.887 -10.828)" fill="#0c1229"/>
      <path id="Tracé_1351" data-name="Tracé 1351" d="M50.8,20.108a11.756,11.756,0,0,1-2.629.349,2.459,2.459,0,0,0-1.575.594c-.046.045.018.1.067.08a6.113,6.113,0,0,1,2.507-.516,3.473,3.473,0,0,0,1.67-.423.047.047,0,0,0-.04-.084" transform="translate(-29.122 -12.57)" fill="#0c1229"/>
      <path id="Tracé_1352" data-name="Tracé 1352" d="M62.424,17.915a.008.008,0,0,0,0-.016.008.008,0,0,0,0,.016" transform="translate(-39.022 -11.19)" fill="#0c1229"/>
      <path id="Tracé_1353" data-name="Tracé 1353" d="M61.207,16.442a7.828,7.828,0,0,1-.575.766,4.489,4.489,0,0,0-.514.6c-.013.024.015.046.037.033a2.344,2.344,0,0,0,.6-.643,7.329,7.329,0,0,0,.485-.737c.013-.022-.02-.038-.034-.018" transform="translate(-37.583 -10.274)" fill="#0c1229"/>
      <path id="Tracé_1354" data-name="Tracé 1354" d="M62.04,16.855a3.522,3.522,0,0,0-1.025,1.192.039.039,0,0,0,.069.036,5.2,5.2,0,0,1,.974-1.206c.012-.011-.005-.032-.018-.022" transform="translate(-38.143 -10.536)" fill="#0c1229"/>
      <path id="Tracé_1355" data-name="Tracé 1355" d="M63.136,16.406q-.284.332-.555.673a1.922,1.922,0,0,0-.4.577.021.021,0,0,0,.031.022,2.182,2.182,0,0,0,.5-.6c.157-.212.31-.426.46-.644.014-.02-.019-.043-.035-.024" transform="translate(-38.872 -10.253)" fill="#0c1229"/>
      <path id="Tracé_1356" data-name="Tracé 1356" d="M63.96,16.557a4.619,4.619,0,0,1-.393.483,6.145,6.145,0,0,0-.451.431c-.02.027,0,.072.039.059a1.336,1.336,0,0,0,.476-.394,2.328,2.328,0,0,0,.361-.556c.009-.019-.018-.042-.032-.022" transform="translate(-39.455 -10.347)" fill="#0c1229"/>
      <path id="Tracé_1357" data-name="Tracé 1357" d="M65.182,16.3a3.74,3.74,0,0,0-.379.38,1.486,1.486,0,0,0-.323.431.027.027,0,0,0,.038.034,1.483,1.483,0,0,0,.38-.379,3.757,3.757,0,0,0,.324-.43c.014-.023-.018-.054-.04-.037" transform="translate(-40.311 -10.186)" fill="#0c1229"/>
      <path id="Tracé_1358" data-name="Tracé 1358" d="M66.018,16.448c-.12.11-.237.222-.347.341-.088.095-.217.191-.238.325a.033.033,0,0,0,.042.039c.132-.034.214-.171.3-.269.108-.122.208-.249.306-.38a.042.042,0,0,0-.062-.056" transform="translate(-40.907 -10.275)" fill="#0c1229"/>
      <path id="Tracé_1359" data-name="Tracé 1359" d="M66.659,16.159a4.439,4.439,0,0,0-.352.384.9.9,0,0,0-.243.361c0,.026.021.057.049.045.14-.061.223-.215.313-.333a4.515,4.515,0,0,0,.288-.418c.021-.035-.028-.064-.055-.039" transform="translate(-41.302 -10.096)" fill="#0c1229"/>
      <path id="Tracé_1360" data-name="Tracé 1360" d="M67.726,16.134c-.129.109-.26.215-.385.329-.109.1-.259.2-.31.341-.012.033.028.061.057.052a.94.94,0,0,0,.33-.286c.12-.126.234-.257.348-.388.023-.026-.012-.073-.041-.049" transform="translate(-41.906 -10.083)" fill="#0c1229"/>
      <path id="Tracé_1361" data-name="Tracé 1361" d="M76.783,10.923A7.473,7.473,0,0,0,74.477,13.2c-.008.012.011.026.021.015.352-.412.69-.831,1.076-1.213s.82-.7,1.227-1.057c.012-.011,0-.029-.018-.021" transform="translate(-46.561 -6.828)" fill="#0c1229"/>
      <path id="Tracé_1362" data-name="Tracé 1362" d="M78.4,11.889a3.233,3.233,0,0,0-1.371,1.462.02.02,0,0,0,.035.018,5.27,5.27,0,0,1,1.349-1.461.011.011,0,0,0-.012-.019" transform="translate(-48.159 -7.432)" fill="#0c1229"/>
      <path id="Tracé_1363" data-name="Tracé 1363" d="M80.117,11.6a2.846,2.846,0,0,0-.588.434,1.78,1.78,0,0,0-.453.57.026.026,0,0,0,.042.03c.164-.156.284-.359.447-.521a4.108,4.108,0,0,1,.58-.47.025.025,0,0,0-.027-.042" transform="translate(-49.436 -7.251)" fill="#0c1229"/>
      <path id="Tracé_1364" data-name="Tracé 1364" d="M70.688,8.476A18.5,18.5,0,0,0,65.631,7.6c-.063,0-.067.092-.01.106a31.788,31.788,0,0,0,5.061.835c.041,0,.039-.056.006-.067" transform="translate(-41.001 -4.753)" fill="#0c1229"/>
      <path id="Tracé_1365" data-name="Tracé 1365" d="M60.418,10.692a1.75,1.75,0,0,0-.808.179,1.207,1.207,0,0,0-.626.522.038.038,0,0,0,.054.049c.209-.1.361-.3.572-.41a2.331,2.331,0,0,1,.813-.234.054.054,0,0,0,0-.107" transform="translate(-36.875 -6.684)" fill="#0c1229"/>
      <path id="Tracé_1366" data-name="Tracé 1366" d="M60.29,11.213A3.617,3.617,0,0,0,58.355,12a.045.045,0,0,0,.047.073c.316-.137.6-.332.92-.469s.649-.237.975-.351c.019-.007.015-.04-.007-.037" transform="translate(-36.475 -7.01)" fill="#0c1229"/>
      <path id="Tracé_1367" data-name="Tracé 1367" d="M59.771,10.861a2.6,2.6,0,0,0-1.959.909c-.025.036.027.073.059.054.291-.176.535-.408.843-.563a4.1,4.1,0,0,1,1.066-.349c.029-.006.019-.052-.009-.05" transform="translate(-36.139 -6.79)" fill="#0c1229"/>
      <path id="Tracé_1368" data-name="Tracé 1368" d="M60.517,11.219a3.976,3.976,0,0,0-1.646.877c-.033.031.013.076.048.057.27-.148.518-.338.789-.488s.555-.266.822-.42c.015-.009,0-.03-.012-.026" transform="translate(-36.798 -7.014)" fill="#0c1229"/>
      <path id="Tracé_1369" data-name="Tracé 1369" d="M61.084,11.458a2.924,2.924,0,0,0-1.46.876c-.025.03.013.082.047.055a7.244,7.244,0,0,1,1.42-.909.011.011,0,0,0-.007-.022" transform="translate(-37.271 -7.163)" fill="#0c1229"/>
      <path id="Tracé_1370" data-name="Tracé 1370" d="M62.093,11.758a2.591,2.591,0,0,0-1.167.78c-.012.016.005.042.024.029a7.5,7.5,0,0,1,1.15-.786c.013-.006.007-.029-.007-.023" transform="translate(-38.088 -7.351)" fill="#0c1229"/>
      <path id="Tracé_1371" data-name="Tracé 1371" d="M62.332,12.316a3.362,3.362,0,0,0-1.289.787c-.026.027.012.073.043.05a7.253,7.253,0,0,1,1.258-.8c.021-.01.011-.043-.012-.035" transform="translate(-38.158 -7.699)" fill="#0c1229"/>
      <path id="Tracé_1372" data-name="Tracé 1372" d="M63.087,12.853a4.147,4.147,0,0,0-.863.561.016.016,0,0,0,.017.027,4.156,4.156,0,0,0,.855-.573.009.009,0,0,0-.009-.015" transform="translate(-38.899 -8.035)" fill="#0c1229"/>
      <path id="Tracé_1373" data-name="Tracé 1373" d="M63.6,13.55a2.892,2.892,0,0,0-.426.376.02.02,0,0,0,.026.031,2.9,2.9,0,0,0,.429-.373c.018-.017-.009-.05-.028-.034" transform="translate(-39.495 -8.469)" fill="#0c1229"/>
      <path id="Tracé_1374" data-name="Tracé 1374" d="M71.352,10.736a3.548,3.548,0,0,0-1.914.547c-.017.011,0,.042.016.033a7.225,7.225,0,0,1,1.9-.557.012.012,0,0,0,0-.024" transform="translate(-43.407 -6.712)" fill="#0c1229"/>
      <path id="Tracé_1375" data-name="Tracé 1375" d="M72.148,10.826q-.469.133-.931.29c-.153.052-.458.082-.521.252a.043.043,0,0,0,.009.049c.034.034.038.033.086.037a.029.029,0,0,0,.025-.016l.013-.026c.017-.033-.03-.055-.05-.026.046-.067.29-.11.366-.138.1-.038.2-.074.305-.113q.355-.135.705-.285a.013.013,0,0,0-.008-.024" transform="translate(-44.196 -6.768)" fill="#0c1229"/>
      <path id="Tracé_1376" data-name="Tracé 1376" d="M72.509,11.22c-.2.081-.4.159-.6.226a5.667,5.667,0,0,0-.617.175.029.029,0,0,0,.01.055,2.307,2.307,0,0,0,1.225-.42c.019-.012,0-.046-.018-.037" transform="translate(-44.559 -7.014)" fill="#0c1229"/>
      <path id="Tracé_1377" data-name="Tracé 1377" d="M73.412,11.6a2.443,2.443,0,0,0-.959.4.037.037,0,0,0,.04.062,5.542,5.542,0,0,1,.937-.411c.036-.011.018-.062-.018-.055" transform="translate(-45.287 -7.254)" fill="#0c1229"/>
      <path id="Tracé_1378" data-name="Tracé 1378" d="M73.942,12.126a1.652,1.652,0,0,0-.527.2.025.025,0,0,0,.015.045,1.623,1.623,0,0,0,.525-.2.021.021,0,0,0-.013-.04" transform="translate(-45.892 -7.581)" fill="#0c1229"/>
      <path id="Tracé_1379" data-name="Tracé 1379" d="M74.249,12.6a1.43,1.43,0,0,0-.349.194c-.017.017,0,.043.024.037a1.43,1.43,0,0,0,.343-.2c.018-.011,0-.038-.018-.028" transform="translate(-46.197 -7.873)" fill="#0c1229"/>
      <path id="Tracé_1380" data-name="Tracé 1380" d="M74.59,12.892a.258.258,0,0,1-.145.34c-.009,0-.005.019.005.016a.267.267,0,0,0,.16-.362c-.005-.013-.026-.006-.021.007" transform="translate(-46.539 -8.052)" fill="#0c1229"/>
      <path id="Tracé_1381" data-name="Tracé 1381" d="M61.132,14.028A10.288,10.288,0,0,0,59.956,15.4c-.013.019.016.035.031.022a10.312,10.312,0,0,0,1.169-1.375c.012-.016-.009-.036-.023-.021" transform="translate(-37.482 -8.767)" fill="#0c1229"/>
      <path id="Tracé_1382" data-name="Tracé 1382" d="M57.2,14.6a11.837,11.837,0,0,1-3.151,2.423.045.045,0,0,0,.037.079,6.629,6.629,0,0,0,3.128-2.493c.006-.008-.008-.017-.014-.01" transform="translate(-33.781 -9.126)" fill="#0c1229"/>
      <path id="Tracé_1383" data-name="Tracé 1383" d="M51.172,19.627a1.01,1.01,0,0,0,1.015.388c.015,0,.01-.027,0-.026a1.268,1.268,0,0,1-1-.374c-.007-.008-.022,0-.015.012" transform="translate(-31.991 -12.261)" fill="#0c1229"/>
      <path id="Tracé_1384" data-name="Tracé 1384" d="M51.424,19.337a2.13,2.13,0,0,0,1.617.46.014.014,0,0,0,0-.028,2.811,2.811,0,0,1-1.6-.461c-.017-.011-.037.016-.021.029" transform="translate(-32.146 -12.069)" fill="#0c1229"/>
      <path id="Tracé_1385" data-name="Tracé 1385" d="M26.011,15.231a13.814,13.814,0,0,0-2.529,1.352c-.446.286-1.485.722-1.54,1.312a.021.021,0,0,0,.04.009c.184-.63,1.526-1.257,2.054-1.575.647-.389,1.328-.71,1.983-1.081a.01.01,0,0,0-.008-.018" transform="translate(-13.718 -9.522)" fill="#0c1229"/>
      <path id="Tracé_1386" data-name="Tracé 1386" d="M27.563,14.917c-1.292.81-2.525,1.73-3.751,2.636-.036.027,0,.084.037.058,1.259-.861,2.534-1.724,3.724-2.678.009-.007,0-.022-.01-.015" transform="translate(-14.878 -9.325)" fill="#0c1229"/>
      <path id="Tracé_1387" data-name="Tracé 1387" d="M34.467,15.414c-.415.351-.8.734-1.211,1.093a15.865,15.865,0,0,0-1.229,1.063c-.022.023.009.056.035.041a7.348,7.348,0,0,0,1.209-.969,11.961,11.961,0,0,0,1.22-1.207.016.016,0,0,0-.024-.022" transform="translate(-20.018 -9.634)" fill="#0c1229"/>
      <path id="Tracé_1388" data-name="Tracé 1388" d="M35.439,15.836c-.377.372-.744.754-1.124,1.123s-.8.7-1.157,1.084a.026.026,0,0,0,.033.039,10.453,10.453,0,0,0,2.272-2.224.016.016,0,0,0-.024-.022" transform="translate(-20.725 -9.897)" fill="#0c1229"/>
      <path id="Tracé_1389" data-name="Tracé 1389" d="M37.771,15.7c-.32.3-.605.628-.908.941s-.65.592-.92.928c-.021.027.009.068.04.047a6.365,6.365,0,0,0,.957-.9,7.532,7.532,0,0,0,.844-1c0-.008-.007-.015-.013-.009" transform="translate(-22.467 -9.814)" fill="#0c1229"/>
      <path id="Tracé_1390" data-name="Tracé 1390" d="M26.3,21.131a.571.571,0,0,0-.347.378c0,.012.015.025.024.012.047-.062.076-.134.127-.195a.714.714,0,0,1,.212-.163c.018-.01,0-.042-.016-.033" transform="translate(-16.223 -13.21)" fill="#0c1229"/>
      <path id="Tracé_1391" data-name="Tracé 1391" d="M26.884,21.1c.052-.023.216-.087.26-.034s-.029.112-.048.148a2.415,2.415,0,0,0-.142.3c-.009.027.032.039.045.017a3.24,3.24,0,0,0,.2-.46.014.014,0,0,0-.009-.02.515.515,0,0,0-.314.036c-.008,0,0,.016,0,.013" transform="translate(-16.802 -13.157)" fill="#0c1229"/>
      <path id="Tracé_1392" data-name="Tracé 1392" d="M28.555,20.808c-.05.094-.1.19-.139.287a1,1,0,0,0-.1.257c0,.017.019.032.032.017a1.9,1.9,0,0,0,.246-.547c.008-.022-.028-.034-.038-.014" transform="translate(-17.702 -13.002)" fill="#0c1229"/>
      <path id="Tracé_1393" data-name="Tracé 1393" d="M29.767,19.534a3.719,3.719,0,0,1-.292.462c-.091.123-.209.227-.293.353-.018.027.02.057.045.041a1.875,1.875,0,0,0,.584-.833.025.025,0,0,0-.044-.023" transform="translate(-18.242 -12.205)" fill="#0c1229"/>
      <path id="Tracé_1394" data-name="Tracé 1394" d="M30.933,18.807a5.321,5.321,0,0,0-.753,1.175c-.011.025.021.052.042.029a5.339,5.339,0,0,0,.74-1.184c.008-.017-.015-.035-.028-.019" transform="translate(-18.866 -11.754)" fill="#0c1229"/>
      <path id="Tracé_1395" data-name="Tracé 1395" d="M56.311,2.621a16.736,16.736,0,0,0-4.933.2c-.039.008-.026.07.012.069,1.644-.088,3.269-.2,4.918-.231.018,0,.022-.031,0-.033" transform="translate(-32.106 -1.579)" fill="#0c1229"/>
      <path id="Tracé_1396" data-name="Tracé 1396" d="M61.707,2.083c-1.008.092-2.072.211-3.066.4-.051.009-.031.084.015.085a10.539,10.539,0,0,0,3.057-.451.017.017,0,0,0-.006-.032" transform="translate(-36.643 -1.302)" fill="#0c1229"/>
      <path id="Tracé_1397" data-name="Tracé 1397" d="M61.907,1.7a14.079,14.079,0,0,0-3.512.534.041.041,0,0,0,.015.079c1.162-.12,2.355-.363,3.5-.6.01,0,.006-.017,0-.017" transform="translate(-36.491 -1.066)" fill="#0c1229"/>
      <path id="Tracé_1398" data-name="Tracé 1398" d="M116.277.109a28.154,28.154,0,0,0-2.864,1.071.015.015,0,0,0,.009.029,25.132,25.132,0,0,0,3.1-1.172c.021-.01.01-.045-.012-.036l-.231.1s0,.007,0,.006" transform="translate(-70.899 0)" fill="#0c1229"/>
      <path id="Tracé_1399" data-name="Tracé 1399" d="M113.771,2.547A2.777,2.777,0,0,0,113.2,3a1.844,1.844,0,0,0-.455.566c-.007.018.013.045.031.029.174-.144.3-.352.46-.513.177-.18.375-.332.564-.5.019-.017-.007-.043-.027-.032" transform="translate(-70.484 -1.591)" fill="#0c1229"/>
      <path id="Tracé_1400" data-name="Tracé 1400" d="M115.85,1.517a3.709,3.709,0,0,0-.6.614,2.212,2.212,0,0,0-.418.669c-.007.022.025.037.04.021.178-.2.3-.455.464-.668s.353-.412.54-.611c.013-.013-.006-.038-.022-.025" transform="translate(-71.789 -0.947)" fill="#0c1229"/>
      <path id="Tracé_1401" data-name="Tracé 1401" d="M117.181,1.238c-.144.183-.283.37-.419.558a2.8,2.8,0,0,0-.346.522.022.022,0,0,0,.036.025,2.779,2.779,0,0,0,.374-.5c.132-.192.261-.385.384-.582.011-.017-.016-.037-.029-.021" transform="translate(-72.78 -0.77)" fill="#0c1229"/>
      <path id="Tracé_1402" data-name="Tracé 1402" d="M118.208.638A10.152,10.152,0,0,0,117.132,2.1a.024.024,0,0,0,.039.027A10.175,10.175,0,0,0,118.244.663c.014-.02-.02-.044-.035-.025" transform="translate(-73.228 -0.395)" fill="#0c1229"/>
      <path id="Tracé_1403" data-name="Tracé 1403" d="M119.394.152a12.153,12.153,0,0,0-1.072,1.717c-.01.022.019.046.037.026A12.134,12.134,0,0,0,119.44.176c.017-.029-.028-.051-.046-.024" transform="translate(-73.973 -0.087)" fill="#0c1229"/>
      <path id="Tracé_1404" data-name="Tracé 1404" d="M120.317.062a8.733,8.733,0,0,0-.894,1.635c-.012.034.04.059.062.032A8.665,8.665,0,0,0,120.4.106a.047.047,0,0,0-.084-.044" transform="translate(-74.661 -0.024)" fill="#0c1229"/>
      <path id="Tracé_1405" data-name="Tracé 1405" d="M63.6,2.474c2.2.169,4.324-.506,6.532-.254.032,0,.044-.043.011-.05-2.154-.469-4.37.326-6.545.27-.022,0-.02.033,0,.034" transform="translate(-39.75 -1.264)" fill="#0c1229"/>
    </g>
  </g>
</svg>
