<svg xmlns="http://www.w3.org/2000/svg" xmlns:xlink="http://www.w3.org/1999/xlink" width="28.876" height="34.485" viewBox="0 0 28.876 34.485">
  <defs>
    <clipPath id="clip-path">
      <rect id="Rectangle_7" data-name="Rectangle 7" width="28.876" height="34.485" fill="#0c1229"/>
    </clipPath>
  </defs>
  <g id="Groupe_43" data-name="Groupe 43" transform="translate(0 0)">
    <g id="Groupe_3" data-name="Groupe 3" transform="translate(0 0)" clip-path="url(#clip-path)">
      <path id="Tracé_3" data-name="Tracé 3" d="M12.274,19.4a1.427,1.427,0,0,0,.013-.641c-.027-.324-.061-.647-.117-.966a.06.06,0,0,0-.12.009c-.01.284,0,.568.011.852a1.751,1.751,0,0,0,.11.753.061.061,0,0,0,.1-.007" transform="translate(-5.449 -8.024)" fill="#0c1229"/>
      <path id="Tracé_4" data-name="Tracé 4" d="M12.96,19.678A1.343,1.343,0,0,0,13,19.189c0-.245-.022-.486-.047-.73-.007-.061-.108-.074-.113-.007-.014.189-.026.377-.03.567a1.742,1.742,0,0,0,.05.653c.016.04.085.054.1.006" transform="translate(-5.791 -8.328)" fill="#0c1229"/>
      <path id="Tracé_5" data-name="Tracé 5" d="M13.451,19.836a.039.039,0,0,0,.07-.024c0-.1-.037-.186-.042-.281a.732.732,0,0,1,.09-.374c.016-.031-.03-.051-.047-.024a.7.7,0,0,0-.071.7" transform="translate(-6.054 -8.65)" fill="#0c1229"/>
      <path id="Tracé_6" data-name="Tracé 6" d="M14.1,20.391a4.8,4.8,0,0,0,.1-.793c.007-.066-.095-.088-.1-.021a4.863,4.863,0,0,0-.078.809.04.04,0,0,0,.079,0" transform="translate(-6.344 -8.839)" fill="#0c1229"/>
      <path id="Tracé_7" data-name="Tracé 7" d="M38.039,17.608c-.194.6-.415,1.186-.651,1.765a.027.027,0,0,0-.05-.02c-.17.314-.339.629-.514.941a3.038,3.038,0,0,0-.41.855.041.041,0,0,0,.07.034,3.009,3.009,0,0,0,.449-.835c.137-.3.28-.6.422-.894-.189.461-.386.92-.588,1.382a.048.048,0,0,0,.085.042,14.441,14.441,0,0,0,1.235-3.26c.008-.032-.039-.039-.048-.01" transform="translate(-16.474 -7.958)" fill="#0c1229"/>
      <path id="Tracé_8" data-name="Tracé 8" d="M38.132,19.772a19.2,19.2,0,0,1-.965,2.205c-.011.025.023.05.041.027a5.816,5.816,0,0,0,.948-2.228c0-.016-.02-.02-.024,0" transform="translate(-16.814 -8.941)" fill="#0c1229"/>
      <path id="Tracé_9" data-name="Tracé 9" d="M37.643,16.906c.009-.026-.027-.045-.039-.019a13.648,13.648,0,0,0-1.067,2.625.036.036,0,0,0,.067.023,13.75,13.75,0,0,0,1.039-2.628" transform="translate(-16.53 -7.634)" fill="#0c1229"/>
      <path id="Tracé_10" data-name="Tracé 10" d="M36.5,19.037A13.524,13.524,0,0,0,37.263,17c.011-.033-.036-.059-.05-.025a13.394,13.394,0,0,0-.786,2.042.039.039,0,0,0,.072.025" transform="translate(-16.48 -7.671)" fill="#0c1229"/>
      <path id="Tracé_11" data-name="Tracé 11" d="M36.523,18.75a6.744,6.744,0,0,0-.335.691.011.011,0,0,0,.019.009,6.923,6.923,0,0,0,.346-.686.017.017,0,0,0-.031-.015" transform="translate(-16.372 -8.479)" fill="#0c1229"/>
      <path id="Tracé_12" data-name="Tracé 12" d="M36.454,17.07c.01-.014-.01-.033-.021-.019a2.95,2.95,0,0,0-.592,1.229c0,.022.03.035.038.013a4.958,4.958,0,0,1,.575-1.223" transform="translate(-16.215 -7.712)" fill="#0c1229"/>
      <path id="Tracé_13" data-name="Tracé 13" d="M38.265,14.834c-.013-.009-.03-.011-.038.009a17.617,17.617,0,0,0-1.241,3.128.034.034,0,0,0,.064.022,15.471,15.471,0,0,0,1.153-2.9l0,.006c-.007.044.056.086.086.042a1.766,1.766,0,0,0,.127-.218c-.078.2-.162.4-.236.6-.006.016.018.028.025.012.4-.936.757-1.9,1.132-2.846,0-.009-.01-.016-.014-.007-.223.552-.452,1.1-.677,1.655.021-.061.042-.122.064-.182.162-.445.314-.893.473-1.338.008-.022-.024-.039-.033-.016-.165.376-.338.75-.5,1.127a8.644,8.644,0,0,0-.38.9" transform="translate(-16.733 -5.737)" fill="#0c1229"/>
      <path id="Tracé_14" data-name="Tracé 14" d="M20.968,3.085a3.555,3.555,0,0,0,1.442.561.023.023,0,0,0,.009-.045c-.39-.125-.774-.245-1.148-.4a8.427,8.427,0,0,0,1.223.37.028.028,0,0,0,.018-.052L22.467,3.5c.642.158,1.285.314,1.937.419a.02.02,0,0,0,.008-.039c-.358-.1-.721-.183-1.085-.26q1.082.241,2.172.436a.014.014,0,0,0,.005-.027c-.21-.048-.421-.09-.632-.135.25.042.5.085.752.119a14.1,14.1,0,0,0,3.278.347.022.022,0,0,0,0-.043c-.453-.053-.9-.1-1.357-.144.547.02,1.094.024,1.635-.009a.026.026,0,0,0,0-.052c-1.636-.049-3.244-.133-4.868-.344,0,0,0,0,0,0-.438-.088-.875-.171-1.315-.247a.011.011,0,0,0,0,.021c.106.025.214.045.32.07-.364-.076-.728-.145-1.092-.215-.5-.186-1.022-.316-1.529-.454-.018-.005-.028.025-.01.032l.293.109" transform="translate(-9.35 -1.332)" fill="#0c1229"/>
      <path id="Tracé_15" data-name="Tracé 15" d="M21.139,3.7c-.09-.023-.18-.045-.268-.068-.021-.005-.028.027-.007.033.468.131.938.295,1.415.389.019,0,.03-.025.011-.032-.214-.076-.434-.136-.655-.194.11.024.217.058.33.074a.009.009,0,0,0,0-.018,5.507,5.507,0,0,1-1.394-.441c-.02-.009-.035.021-.015.031a5.314,5.314,0,0,0,.58.226" transform="translate(-9.298 -1.555)" fill="#0c1229"/>
      <path id="Tracé_16" data-name="Tracé 16" d="M31.92,5.453a18.525,18.525,0,0,0-3.5-.58c-.029,0-.039.04-.009.045,1.146.22,2.332.491,3.492.6a.036.036,0,0,0,.014-.07" transform="translate(-12.847 -2.205)" fill="#0c1229"/>
      <path id="Tracé_17" data-name="Tracé 17" d="M31.248,5.752a16.693,16.693,0,0,0-2.612-.528.017.017,0,0,0-.007.033,16.7,16.7,0,0,0,2.6.544c.027,0,.048-.038.017-.049" transform="translate(-12.947 -2.363)" fill="#0c1229"/>
      <path id="Tracé_18" data-name="Tracé 18" d="M28.084,5.553c.641.135,1.282.275,1.927.393a.014.014,0,0,0,0-.027c-.638-.147-1.282-.272-1.925-.4a.018.018,0,0,0-.007.036" transform="translate(-12.7 -2.496)" fill="#0c1229"/>
      <path id="Tracé_19" data-name="Tracé 19" d="M28.677,5.784a.009.009,0,0,0,0,.018l1.5.314a.009.009,0,0,0,0-.018l-1.5-.314" transform="translate(-12.969 -2.617)" fill="#0c1229"/>
      <path id="Tracé_20" data-name="Tracé 20" d="M30.341,6.534a14.705,14.705,0,0,0-2.018-.58c-.035-.009-.044.044-.011.055a14.773,14.773,0,0,0,2.01.58c.032,0,.05-.042.019-.055" transform="translate(-12.8 -2.693)" fill="#0c1229"/>
      <path id="Tracé_21" data-name="Tracé 21" d="M28.663,6.447a16.808,16.808,0,0,0,1.642.544c.03.008.047-.041.018-.052a16.721,16.721,0,0,0-1.647-.533c-.024-.006-.037.032-.014.041" transform="translate(-12.963 -2.898)" fill="#0c1229"/>
      <path id="Tracé_22" data-name="Tracé 22" d="M2.229,44.56c-.005.028.039.045.049.017s.02-.064.031-.1c0,.021-.009.042-.013.063s.038.046.049.017a9.618,9.618,0,0,0,.389-1.542c.088-.357.17-.716.25-1.072,0-.015-.019-.019-.024,0l-.081.251.008-.047a.02.02,0,0,0-.039-.008c-.037.176-.078.352-.12.528a16.6,16.6,0,0,0-.5,1.892" transform="translate(-1.008 -18.972)" fill="#0c1229"/>
      <path id="Tracé_23" data-name="Tracé 23" d="M2.861,44.526c-.034.095-.069.189-.1.286-.017.053.059.067.084.028a4.825,4.825,0,0,0,.594-2.052c0-.021-.029-.028-.033-.007a5.356,5.356,0,0,1-.176.692c.088-.367.171-.735.274-1.1.016-.057-.076-.088-.1-.033a5.754,5.754,0,0,0-.55,2.176s.006,0,.007.007" transform="translate(-1.248 -19.144)" fill="#0c1229"/>
      <path id="Tracé_24" data-name="Tracé 24" d="M34.256,47.583a28.383,28.383,0,0,0,1.557-4.805.021.021,0,0,0-.039-.013,17.308,17.308,0,0,0-1.574,4.8c-.005.033.043.052.056.02" transform="translate(-15.473 -19.343)" fill="#0c1229"/>
      <path id="Tracé_25" data-name="Tracé 25" d="M35.082,49.005a14.182,14.182,0,0,0,.632-1.944.014.014,0,0,0-.026-.009,14.139,14.139,0,0,0-.7,1.92.051.051,0,0,0,.1.033" transform="translate(-15.828 -21.284)" fill="#0c1229"/>
      <path id="Tracé_26" data-name="Tracé 26" d="M35.75,47.4a13.022,13.022,0,0,0,1.084-3.566c.008-.035-.045-.045-.055-.011-.317,1.194-.849,2.346-1.112,3.549a.044.044,0,0,0,.083.028" transform="translate(-16.136 -19.818)" fill="#0c1229"/>
      <path id="Tracé_27" data-name="Tracé 27" d="M50.357,37c-.147-.947-.317-1.891-.456-2.84,0-.018-.03-.016-.027,0A22.223,22.223,0,0,0,50.341,37a.008.008,0,0,0,.016,0" transform="translate(-22.564 -15.449)" fill="#0c1229"/>
      <path id="Tracé_28" data-name="Tracé 28" d="M48.326,30.3c.063.715.142,1.446.274,2.151,0,.026.044.025.042,0-.054-.715-.165-1.442-.288-2.149,0-.018-.029-.016-.027,0" transform="translate(-21.864 -13.704)" fill="#0c1229"/>
      <path id="Tracé_29" data-name="Tracé 29" d="M48.1,30.669a8.473,8.473,0,0,0,.11,1.576.021.021,0,0,0,.041,0,8.494,8.494,0,0,0-.111-1.576.02.02,0,0,0-.039,0" transform="translate(-21.76 -13.866)" fill="#0c1229"/>
      <path id="Tracé_30" data-name="Tracé 30" d="M47.892,30.672c.019.328.027.659.078.984a.024.024,0,0,0,.048,0c0-.329-.032-.659-.06-.986a.034.034,0,0,0-.067,0" transform="translate(-21.668 -13.861)" fill="#0c1229"/>
      <path id="Tracé_31" data-name="Tracé 31" d="M50.057,39.57a16.916,16.916,0,0,0,.345,2.756c.007.028.048.016.047-.01a16.9,16.9,0,0,0-.362-2.748c0-.019-.032-.018-.03,0" transform="translate(-22.647 -17.896)" fill="#0c1229"/>
      <path id="Tracé_32" data-name="Tracé 32" d="M49.33,39.99c.111.717.191,1.449.355,2.156,0,.019.036.011.033-.007-.076-.721-.24-1.438-.37-2.15,0-.011-.02-.01-.019,0" transform="translate(-22.318 -18.089)" fill="#0c1229"/>
      <path id="Tracé_33" data-name="Tracé 33" d="M49.429,41.614l.043.591a.006.006,0,0,0,.011,0l-.041-.591a.007.007,0,1,0-.014,0" transform="translate(-22.363 -18.824)" fill="#0c1229"/>
      <path id="Tracé_34" data-name="Tracé 34" d="M49.05,41.279a2.234,2.234,0,0,0,.167.979.007.007,0,0,0,.013,0,2.532,2.532,0,0,1-.166-.974c0-.009-.014-.008-.014,0" transform="translate(-22.191 -18.673)" fill="#0c1229"/>
      <path id="Tracé_35" data-name="Tracé 35" d="M49.153,42.9l.016.2a.007.007,0,0,0,.014,0l-.012-.2a.009.009,0,0,0-.019,0" transform="translate(-22.238 -19.403)" fill="#0c1229"/>
      <path id="Tracé_36" data-name="Tracé 36" d="M32.7,45.713c.326-.687.526-1.444.783-2.159.009-.025-.028-.043-.037-.019-.265.715-.6,1.424-.793,2.161-.008.028.036.042.048.016" transform="translate(-14.773 -19.691)" fill="#0c1229"/>
      <path id="Tracé_37" data-name="Tracé 37" d="M33.821,44.254a12.189,12.189,0,0,0-.462,1.441.023.023,0,0,0,.043.015,12.152,12.152,0,0,0,.51-1.425.049.049,0,0,0-.091-.031" transform="translate(-15.092 -20.01)" fill="#0c1229"/>
      <path id="Tracé_38" data-name="Tracé 38" d="M33.956,45.925a.623.623,0,0,1-.239.426c-.012.009,0,.028.013.019a.65.65,0,0,0,.256-.439c0-.019-.027-.025-.03-.006" transform="translate(-15.252 -20.773)" fill="#0c1229"/>
      <path id="Tracé_39" data-name="Tracé 39" d="M38.439,32.755c-.078.366-.156.732-.236,1.1-.013.055.06.071.087.03a.433.433,0,0,0,.061-.311c.051-.268.1-.535.154-.8a.034.034,0,0,0-.066-.013" transform="translate(-17.283 -14.807)" fill="#0c1229"/>
      <path id="Tracé_40" data-name="Tracé 40" d="M38.707,33.093a5.329,5.329,0,0,0-.157,1c0,.033.054.046.066.013a5.3,5.3,0,0,0,.186-1,.049.049,0,0,0-.1-.019" transform="translate(-17.441 -14.955)" fill="#0c1229"/>
      <path id="Tracé_41" data-name="Tracé 41" d="M38.85,35.037c.135-.406.241-.82.344-1.235.007-.025-.031-.032-.038-.008-.125.41-.247.818-.34,1.235,0,.023.027.028.034.007" transform="translate(-17.561 -15.283)" fill="#0c1229"/>
      <path id="Tracé_42" data-name="Tracé 42" d="M34.059,40.735a.041.041,0,0,0,.059.051,3.184,3.184,0,0,0,.513-.555c.2-.237.4-.474.585-.725a.033.033,0,0,0-.049-.043c-.2.2-.387.4-.571.613a3.574,3.574,0,0,0-.537.658" transform="translate(-15.407 -17.85)" fill="#0c1229"/>
      <path id="Tracé_43" data-name="Tracé 43" d="M35.041,41.263a12.77,12.77,0,0,0,.915-1.242c.009-.013-.008-.03-.019-.016A12.905,12.905,0,0,0,35,41.239c-.014.021.02.042.036.024" transform="translate(-15.836 -18.097)" fill="#0c1229"/>
      <path id="Tracé_44" data-name="Tracé 44" d="M42.291,33.741a.03.03,0,0,0-.059-.011,4.6,4.6,0,0,1-.212.753c-.073.195-.18.377-.242.575-.007.024.028.039.042.021a2.914,2.914,0,0,0,.471-1.337" transform="translate(-18.901 -15.249)" fill="#0c1229"/>
      <path id="Tracé_45" data-name="Tracé 45" d="M42.7,34.29a9.821,9.821,0,0,1,.5-1.506.051.051,0,0,0-.091-.045,3.528,3.528,0,0,0-.462,1.547c0,.033.046.031.055,0" transform="translate(-19.292 -14.8)" fill="#0c1229"/>
      <path id="Tracé_46" data-name="Tracé 46" d="M42.764,34.734a.041.041,0,0,0,.076.026,3.186,3.186,0,0,0,.264-.786q.15-.522.31-1.042c.011-.035-.043-.044-.055-.011q-.171.512-.353,1.02a3.193,3.193,0,0,0-.243.793" transform="translate(-19.348 -14.885)" fill="#0c1229"/>
      <path id="Tracé_47" data-name="Tracé 47" d="M43.36,34.19c-.088.253-.194.511-.279.772a1.633,1.633,0,0,0-.2.67c0,.034.053.036.06,0a3.019,3.019,0,0,1,.121-.425c.016-.038.029-.079.044-.118a1.818,1.818,0,0,1,.278-.452c.03-.036-.025-.083-.054-.047s-.056.076-.084.114c.051-.17.1-.342.151-.507.006-.019-.026-.03-.032-.011" transform="translate(-19.399 -15.464)" fill="#0c1229"/>
      <path id="Tracé_48" data-name="Tracé 48" d="M6.614,28.373c.395-1,.653-2.051,1.049-3.052.011-.029-.031-.05-.044-.021a12.679,12.679,0,0,0-1.066,3.053c-.005.035.047.056.061.021" transform="translate(-2.965 -11.44)" fill="#0c1229"/>
      <path id="Tracé_49" data-name="Tracé 49" d="M7.438,27.576a16.03,16.03,0,0,0,.973-2.854.026.026,0,0,0-.048-.016,16.077,16.077,0,0,0-.981,2.851.03.03,0,0,0,.056.02" transform="translate(-3.339 -11.171)" fill="#0c1229"/>
      <path id="Tracé_50" data-name="Tracé 50" d="M7.991,27.515c.332-.881.592-1.79.927-2.672.005-.014-.014-.024-.021-.01A12.432,12.432,0,0,0,7.958,27.5c0,.019.026.031.033.011" transform="translate(-3.6 -11.232)" fill="#0c1229"/>
      <path id="Tracé_51" data-name="Tracé 51" d="M10.669,22.667a1.2,1.2,0,0,0,.168-.2,1.127,1.127,0,0,0-.078.228c-.008.035.037.071.068.045a1.638,1.638,0,0,0,.373-.64,2.9,2.9,0,0,0,.233-.91c0-.03-.042-.052-.054-.019-.094.255-.172.515-.276.766-.017.041-.038.081-.059.122a3.015,3.015,0,0,0,.184-.965c0-.049-.072-.049-.083-.005a7.632,7.632,0,0,1-.244.879c-.084.23-.222.439-.289.674-.01.034.035.048.056.028" transform="translate(-4.801 -9.526)" fill="#0c1229"/>
      <path id="Tracé_52" data-name="Tracé 52" d="M11.823,22.155a3.713,3.713,0,0,0-.538,1.12.024.024,0,0,0,.044.015c.194-.364.339-.752.534-1.116.014-.026-.025-.043-.039-.02" transform="translate(-5.105 -10.019)" fill="#0c1229"/>
      <path id="Tracé_53" data-name="Tracé 53" d="M11.15,24.052a.028.028,0,0,0,.046.031,4.62,4.62,0,0,0,.553-.828c.02-.032-.033-.067-.055-.037a4.637,4.637,0,0,0-.543.834" transform="translate(-5.043 -10.499)" fill="#0c1229"/>
      <path id="Tracé_54" data-name="Tracé 54" d="M4.975,36.87c.493-1.66.827-3.445,1.187-5.142,0-.02-.027-.032-.034-.012a18.622,18.622,0,0,0-1.189,5.152c0,.022.031.021.037,0" transform="translate(-2.234 -14.344)" fill="#0c1229"/>
      <path id="Tracé_55" data-name="Tracé 55" d="M22.56,60.22c-.068.008-.128.04-.194.047a.009.009,0,0,0,0,.019c.065,0,.133.016.2.02a.476.476,0,0,0,.2-.035.023.023,0,0,0,0-.044.585.585,0,0,0-.2-.006" transform="translate(-10.115 -27.242)" fill="#0c1229"/>
      <path id="Tracé_56" data-name="Tracé 56" d="M28.544,23.709c-.52-2.938-1.009-5.88-1.5-8.823S26.065,9,25.566,6.062a16.615,16.615,0,0,0-.512-3.019h.04s0,0,0,0a.015.015,0,0,0,0-.027.494.494,0,0,0-.073-.033c-.218-.6-.536-1.023-1-.951a.1.1,0,0,0-.072-.045,22.929,22.929,0,0,0-3.768.128,34.664,34.664,0,0,1-4.345-.121,19.07,19.07,0,0,1-3.912-.8C10.925.873,9.615-.1,8.514.008c0,0,0,0-.005,0l-.01,0c-.047,0-.1,0-.141.009a.027.027,0,0,0-.015.047,1.418,1.418,0,0,0-.44.5,1.615,1.615,0,0,0-.1.2c0-.007,0-.014,0-.021a.013.013,0,0,0-.024,0,7.347,7.347,0,0,0-.468,1.993,6.326,6.326,0,0,0-.07.831c-.006.37.278.706.167,1.079A3.39,3.39,0,0,0,5.758,6.973,13.66,13.66,0,0,0,5.02,9.452a.157.157,0,0,0,.139.194c.9,1.313.775,3.054-.89,3.7a.215.215,0,0,0-.048.03.072.072,0,0,0-.068.045c-.825,2.035-1.377,4.206-2.034,6.3Q1.6,21.386,1.062,23.048A21.555,21.555,0,0,0,.08,26.39a.114.114,0,0,0,.052.111,2.7,2.7,0,0,0-.1,1.3,1.085,1.085,0,0,0,.439.864,1.988,1.988,0,0,0,1.771,1.255.085.085,0,0,0,.054-.034c.718.337,1.435.682,2.129,1.067.751.416,1.425.974,2.2,1.346a.062.062,0,0,0,.022,0,11.076,11.076,0,0,0,.928.793,4.272,4.272,0,0,0,1.39.545c.132.033.268.059.405.085a7.207,7.207,0,0,0,5.135.476,1.582,1.582,0,0,0,.583-.059,9.351,9.351,0,0,0,2.775-.99c.005,0,.005-.009.009-.012.828-.314,1.633-.695,2.4-1.07,1.143-.556,2.28-1.13,3.412-1.708a20.85,20.85,0,0,0,3.673-2.03.122.122,0,0,0,.045-.11,1.063,1.063,0,0,0,.188-.1.894.894,0,0,0,.474-.129.7.7,0,0,0,.2-.177c1.074-.648.428-3.236.275-4.1m0,2.589-.055.076c.022-.083.045-.165.06-.25,0,.059,0,.116,0,.174m-.228.329c0-.024,0-.049.007-.074a.092.092,0,0,0,.041,0l-.048.072m-.208.032c.01-.041.018-.083.028-.124,0,.012,0,.023,0,.035-.009.03-.017.059-.025.089m.12.092.007,0-.008.011,0-.009M28.39,25.7s0,.009-.008.014v-.024l.008.01m-.308,1.086a1.8,1.8,0,0,0-.037.243c-.014.018-.03.036-.043.054a3,3,0,0,0,.08-.3m.371.03c.005-.009.01-.019.015-.027,0,.014-.009.027-.014.04a.032.032,0,0,0,0-.013M28.206,25.7c0-.249,0-.5-.02-.754a3.878,3.878,0,0,1,.02.754m-.015.2c0,.028,0,.057-.007.086l-.007.02c0-.035,0-.07,0-.1a.015.015,0,0,0,.018,0m-.273.376c-.1.136-.207.271-.307.408-.052.071-.108.144-.163.218s-.124.119-.188.177a3.258,3.258,0,0,0,.17-.285,3.748,3.748,0,0,0,.537-.75c-.016.077-.03.156-.049.232m-.359.682.109-.116L27.527,27l.032-.051m.117-.191c.066-.106.13-.212.194-.319-.021.076-.04.151-.063.226l-.13.157a.046.046,0,0,0,0-.064M25.158,6.994c0-.053-.01-.106-.016-.159,0-.32-.018-.641-.043-.963q.093.5.19.991c-.03-.053-.122-.043-.111.027.055.339.1.68.136,1.02-.018-.054-.033-.11-.053-.163a3.4,3.4,0,0,0-.1-.753m-.507-1.257c0,.136.005.272.01.408-.033-.143-.067-.284-.1-.419a.051.051,0,0,0-.085-.016,2.04,2.04,0,0,0,.049-.37c.005.01.007.02.013.03a.044.044,0,0,0,.079-.016,1.06,1.06,0,0,0,.03-.215c.006.035.016.068.022.1.021.14.044.28.069.42a.073.073,0,0,0-.085.075m-.265-3.173.01-.009a1.5,1.5,0,0,1,.215.327.067.067,0,0,0-.052.078h0l0,0c-.014-.056-.027-.112-.04-.169-.005-.023-.107-.168-.143-.225.005,0,.01,0,.015,0m.077,3.2v0c.036.209.057.421.074.632-.02-.213-.048-.423-.078-.628l0,0m.595-.741c0-.013,0-.026,0-.04.014.054.031.106.045.16s.013.12.019.176c-.023-.1-.043-.2-.069-.3M8.262.463A.065.065,0,0,0,8.318.457c.041-.025.088-.077.072-.129.021-.022.043-.043.062-.065l.036,0A7.377,7.377,0,0,0,7.97,1.574,7.343,7.343,0,0,1,8.216.51L8.262.463M8.486.214c.014-.019.027-.04.04-.06l.012.005L8.508.217a.148.148,0,0,0-.022,0M6.851,5.736c.02-.033.041-.066.061-.1a.153.153,0,0,0,0,.041l-.057.057M6.6,5.982c-.005.018-.012.035-.016.053s-.034.041-.05.062c.021-.039.045-.076.067-.114m.3-.23a.232.232,0,0,0,.026.05l-.313.373c-.039.046-.081.092-.123.139a6.132,6.132,0,0,1,.41-.561m.119-.278c.017-.021.031-.044.049-.065a2.468,2.468,0,0,1,.448-.387c-.11.1-.221.189-.326.295-.037.036-.107.094-.171.157M5.3,9.609a.155.155,0,0,0,.056-.09c0-.007,0-.014,0-.02s.009,0,.013,0c.129-.068.251.182.356.53A2.189,2.189,0,0,0,5.3,9.609M4.263,13.717l.03.009-.117.337c.028-.116.061-.23.088-.346m-1.95,6.436c.123-.4.253-.794.383-1.192a35.44,35.44,0,0,0-.905,4,.052.052,0,0,0,.1.021c.069-.239.13-.482.2-.723,0,.009,0,.019,0,.028a.061.061,0,0,0,.08.053A.623.623,0,0,0,2.3,22.26c-.01.163-.016.326-.012.487,0,.057.083.057.1.007.074-.293.14-.584.2-.874A3.433,3.433,0,0,0,2.8,20.9a15.023,15.023,0,0,1,.687-2.406c.013-.033-.035-.057-.05-.025-.148.322-.3.659-.434,1a24.271,24.271,0,0,1,.59-2.427c.011-.037-.048-.056-.062-.021a11.064,11.064,0,0,0-.682,2.29,6.87,6.87,0,0,0-.077.782,8.554,8.554,0,0,0-.463,2.041.63.63,0,0,1-.111.1.039.039,0,0,0-.034-.068l-.048.011c-.007,0-.005.011-.01.016.441-1.631.809-3.295,1.185-4.941a16.164,16.164,0,0,0,1.09-3.532c.007,0,.013,0,.02,0a2.524,2.524,0,0,0,.609-.329c.045-.031.085-.068.128-.1a2.777,2.777,0,0,0,.73-.93c-.091.238-.2.471-.309.706-.083.112-.17.223-.262.332-.039.046.028.1.07.061s.053-.063.08-.093a.025.025,0,0,0,.028,0,1.689,1.689,0,0,0,.158-.212c.019-.024.037-.048.054-.073.026-.04.054-.078.077-.12a3.91,3.91,0,0,0,.483-1.068c.009-.031-.038-.038-.048-.009a3.9,3.9,0,0,1-.2.469,4.165,4.165,0,0,0,.13-.651c0-.027-.019-.036-.039-.032.005-.031.012-.061.016-.091.035.013.076.007.085-.036a.62.62,0,0,0,.005-.12.054.054,0,0,0,.093-.022,1.564,1.564,0,0,0,.021-.216,1.288,1.288,0,0,0,.093.341c.019.04.084.044.092-.006a2.706,2.706,0,0,0-.079-.8c-.047-.31-.109-.618-.182-.924-.007-.03-.052-.018-.051.011.012.265.038.529.066.793A4.374,4.374,0,0,0,5.76,9.41a.039.039,0,0,0-.068.034c.073.169.135.341.192.515-.146-.385-.328-.644-.517-.5.214-.971.548-1.927.741-2.9a5.235,5.235,0,0,1,.47-.789c.009-.012.021-.021.03-.033a2.474,2.474,0,0,0-.165.278,1.264,1.264,0,0,0-.139.306c0,.01.005.014.014.014-.014.047-.028.093-.039.141a2.184,2.184,0,0,0-.124.265c-.013.021-.029.042-.041.064s0,.016.006.024c-.014.039-.036.078-.047.117a.023.023,0,0,0,.04.02,2.5,2.5,0,0,0,.142-.236c.129-.14.242-.3.356-.448l.353-.459a.084.084,0,0,0,.024.009c-.009.013-.021.025-.03.039s0,.024.01.029a1.989,1.989,0,0,0-.469.791c-.006.02.024.028.033.011A3.986,3.986,0,0,1,7.55,5.459a.015.015,0,0,0-.017-.026,2.776,2.776,0,0,0-.348.256c.183-.21.353-.434.52-.653.019-.025-.016-.057-.037-.032-.195.222-.394.448-.571.688,0-.006-.011-.009-.018-.012l.079-.1c.01-.013-.009-.03-.02-.017l-.1.114a2.124,2.124,0,0,1,.34-.378c.138-.14.258-.287.383-.436L7.8,4.836A.018.018,0,0,0,7.785,4.8l-.01.005s-.009-.005-.013,0l-.025.022A1.993,1.993,0,0,0,7.3,5.1c.1-.087.191-.175.294-.252.015-.01.009-.024,0-.032l.023-.026a.4.4,0,0,0,.069-.075c.017-.021.038-.037.054-.059a.1.1,0,0,0,.015-.089A1.147,1.147,0,0,0,7.7,4.019a5.814,5.814,0,0,1,.025-2.37c.044.015.1,0,.1-.055A2.092,2.092,0,0,1,8.048.732.7.7,0,0,1,8.1.653a6,6,0,0,0-.355,2.666c0,.082,0,.163,0,.245a.041.041,0,0,0,.045.043c0,.015,0,.03.007.044a.026.026,0,0,0,.053,0c0-.059,0-.117,0-.175a9.432,9.432,0,0,1,.564-2.9A6.929,6.929,0,0,0,8.05,3.336c0,.031.055.038.058,0a18,18,0,0,1,.377-2.9c0-.011-.006-.015-.015-.013.022-.056.04-.112.063-.168.01,0,.018,0,.027,0s.025-.02.009-.026-.016,0-.024,0c.007-.017.012-.034.019-.051L8.938.34C8.892.447,8.847.56,8.8.675L8.727.609c.01-.036.018-.071.028-.107a.011.011,0,0,0-.02-.007c-.013.03-.023.061-.036.091C8.669.559,8.636.534,8.606.505a.029.029,0,0,0-.043.038c.032.042.071.082.106.123a5.289,5.289,0,0,0-.447,2.162.02.02,0,0,0,.039,0c.136-.709.243-1.4.433-2.1a.833.833,0,0,0,.049.108A3.577,3.577,0,0,0,8.5,2.415a.025.025,0,0,0,.049,0c.078-.324.087-.667.147-1,.028-.154.065-.307.1-.459A.932.932,0,0,0,8.92,1.1a2.116,2.116,0,0,0-.24,1.307c.008.035.062.027.068,0,.041-.222.04-.447.078-.67a3.4,3.4,0,0,1,.159-.567.989.989,0,0,0,.114.074,2.664,2.664,0,0,0,.444.323c.033.018.056-.027.034-.051A2.029,2.029,0,0,0,9.4,1.361c.01,0,.02.007.03.008a.014.014,0,0,0,.005-.027c-.034-.009-.065-.025-.1-.037-.1-.084-.209-.165-.319-.241,0-.012.008-.025.013-.036a1.65,1.65,0,0,0,.607.311.027.027,0,0,0,.022-.046C9.4,1.1,9.12.925,8.861.723,8.868.7,8.877.668,8.884.64a4.008,4.008,0,0,0,.658.285,1.871,1.871,0,0,0,.555.157c.036,0,.049-.05.024-.071A2.136,2.136,0,0,0,9.53.742a3.58,3.58,0,0,0-.62-.193c.019-.065.036-.131.056-.2.812.362,1.629.692,2.458.98-.205-.061-.411-.123-.614-.185-.025-.008-.039.034-.015.044a28.85,28.85,0,0,0,2.943.991.028.028,0,0,0,.018-.053c-.312-.134-.635-.251-.962-.363a19.273,19.273,0,0,0,2.97.6,30.257,30.257,0,0,0,4.107.148,19.856,19.856,0,0,0,3.79-.217.091.091,0,0,0,.076.02.613.613,0,0,1,.541.125c-.141.2.076.374.124.6.014.063.027.126.041.19-.084.327-.182.651-.282.975a2.878,2.878,0,0,0-.127.414c-.026.084-.051.168-.077.252a7.918,7.918,0,0,0,.336-1.978.006.006,0,0,0-.011,0,10.328,10.328,0,0,0-.63,2.807.03.03,0,0,0,.059.012c.031-.1.061-.2.092-.306-.045.164-.091.327-.129.492a.03.03,0,0,0,.02.034c-.191.458-.381.925-.565,1.4.363-1.584.646-3.177.9-4.8,0,0,0,0,0,0-.49,2.241-1.131,4.494-1.789,6.694-.693,2.317-1.671,4.571-2.3,6.9a.118.118,0,0,0,.166.134c.03.674.1,1.309.078,1.959a4.045,4.045,0,0,0-.03.467,5.3,5.3,0,0,1-.08.539c-.228,1.092-.953,2.828-2.1,3.228a.07.07,0,0,0,.009.134c.92.272,1.743-1.453,2.077-2.257-.122.369-.256.733-.405,1.1-.014.034.034.073.057.038a4.346,4.346,0,0,0,.536-1.161c.009.024.033.042.054.016s.034-.053.053-.079a1.606,1.606,0,0,0-.052.22c0,.015.01.022.017.033-.018.041-.031.083-.05.124-.128.272-.32.509-.439.783a.036.036,0,0,0,.059.039,1.684,1.684,0,0,0,.265-.332,4.363,4.363,0,0,0-.208.591,9.2,9.2,0,0,0-.924,1.222c-.018.032.027.056.05.033a8.47,8.47,0,0,0,.892-1.165.833.833,0,0,0-.029.1c-.008.041.043.082.078.052a1.772,1.772,0,0,0,.431-.6c.013-.014.022-.031.034-.046.053-.069.11-.135.156-.208a4.5,4.5,0,0,0,.646-1.753.015.015,0,0,0-.03-.006c-.023.108-.059.208-.09.31a.046.046,0,0,0-.089,0,4.741,4.741,0,0,1-.365,1.015c-.007,0-.014,0-.02,0-.139.192-.283.378-.413.576.159-.372.287-.767.433-1.131a.041.041,0,0,0-.011-.047,2.97,2.97,0,0,0,.226-1.28c0-.008-.009-.007-.012-.012.105-.482.154-.991.219-1.472a.027.027,0,0,0-.053-.01,15.76,15.76,0,0,0-.271,1.591c-.029.1-.057.192-.084.288a.041.041,0,0,0-.061-.006,5.516,5.516,0,0,0,.2-1.661c.01.032.018.067.028.1a.031.031,0,0,0,.06-.013,7.757,7.757,0,0,0-.309-1.849q.077-.166.148-.336c.065.567.109,1.148.222,1.7.007.033.062.028.066,0a4.77,4.77,0,0,0-.127-1.533.053.053,0,0,0,.013,0l0,.007c-.031.078.085.135.116.057.005-.013.011-.027.016-.041.1.393.189.788.295,1.19.01.038.062.021.063-.013a3.484,3.484,0,0,0-.147-.993,10.814,10.814,0,0,0,.822-2.206c.008-.03-.038-.044-.051-.017a11.616,11.616,0,0,0-.825,2.05c-.024-.073-.05-.146-.077-.218.314-.8.624-1.6.884-2.415.008-.026-.034-.039-.045-.015-.244.539-.464,1.09-.678,1.642.21-.637.4-1.284.591-1.924.011,0,.019.015.032.01.292-.1.4-.71.481-1.092.009-.022.019-.045.028-.068a11.663,11.663,0,0,0,.5-1.287.034.034,0,0,0-.018-.042c.017-.049.038-.1.054-.148a.078.078,0,0,0-.013-.07c.152-.252.264-.54.389-.792a.169.169,0,0,0-.14-.245c.042-.142.085-.283.126-.425,0-.018-.024-.027-.031-.01-.055.147-.114.3-.171.445a.166.166,0,0,0-.1.082c-.015.027-.027.055-.042.082a.151.151,0,0,0-.073.066c0,.008-.008.017-.013.025A9.328,9.328,0,0,0,23.483,7.2c0-.022-.031-.03-.034-.007a17.8,17.8,0,0,1-.933,2.758c-.034.1-.067.209-.1.314-.017.04-.034.079-.051.119.529-1.5.993-3.04,1.4-4.531a6.233,6.233,0,0,0,.259-.661.986.986,0,0,0,.021.1,8.5,8.5,0,0,0-.273.982.049.049,0,0,0,.091.032,4.5,4.5,0,0,0,.229-.537.913.913,0,0,0,.022.172,4.016,4.016,0,0,0-.218.947.026.026,0,0,0,.049.016,4.212,4.212,0,0,0,.329-1.008.916.916,0,0,0,.027-.1c.011-.008.025-.011.029-.024v0a6.408,6.408,0,0,0,.151,1.672.033.033,0,0,0,.062,0,4.549,4.549,0,0,0,.005-.911,10.421,10.421,0,0,0,.135,1.287.039.039,0,0,0,.073.011,2.062,2.062,0,0,0,.063.291.051.051,0,0,0,.1-.007A4.612,4.612,0,0,0,24.9,7c-.018-.268-.034-.537-.054-.805.032.137.065.273.1.407.009.083.024.164.034.246a6.3,6.3,0,0,0,.123,1.145.037.037,0,0,0,.071-.005,4.957,4.957,0,0,0,0-.651q.021.169.032.341l0,0,0,.014c.007.124.012.249.014.376,0,.012.02.013.021,0,.008-.069.007-.139.008-.208.035.134.07.268.1.4.03.261.057.521.092.781a.031.031,0,0,0,.062,0c0-.009,0-.018,0-.026.076.429.131.861.166,1.3,0,.012.01.015.019.016.11.977.222,1.956.4,2.922.006.03.051.028.048,0-.094-1.075-.266-2.144-.436-3.209a7.631,7.631,0,0,0-.2-1.467,11.125,11.125,0,0,0-.173-1.5c.013.031.06.031.058-.008s-.01-.1-.014-.155l.31,1.855c.342,2.047.7,4.091,1.048,6.138s.692,4.091,1.033,6.138q.255,1.534.5,3.07c.039.244.1.523.152.816a.113.113,0,0,0-.066.047.632.632,0,0,0-.085.218c-.014-.105-.029-.21-.048-.31,0-.023-.038-.021-.038,0-.014-.2-.031-.407-.054-.608a9.7,9.7,0,0,0-.147-1.092c-.051-.415-.1-.83-.153-1.244a.01.01,0,0,0-.021,0q.039.394.074.791c-.088-.373-.187-.741-.306-1.09-.008-.022-.045-.015-.041.008.182,1.008.324,2.017.488,3.025q.015.255.04.508h0v0c-.013-.04-.065-.022-.067.014-.009.2-.007.4-.009.6-.1.14-.2.279-.3.417l.006-.014a.029.029,0,0,0-.052-.026c-.049.1-.107.185-.165.275.217-.468.38-.972.563-1.443.02-.051-.053-.089-.077-.038a16.416,16.416,0,0,0-.725,1.645,3.676,3.676,0,0,1-1.983,1.418.038.038,0,0,0,.015.074,2.459,2.459,0,0,0,1.25-.518l-.01.013c-.025.038.024.083.061.069.019-.007.037-.019.056-.027-.072.07-.145.14-.211.215-.007.007,0,.014,0,.02q-.969.389-1.926.81-.716.316-1.431.635a8.774,8.774,0,0,0-1.135.455c.013-.022-.018-.05-.039-.033l-.28.225c-.082.065-.02.221.088.173l.045-.02c-.177.2-.351.4-.521.612q-.225.078-.451.153c.106-.128.2-.275.3-.4a6.578,6.578,0,0,1,.614-.64c.042-.038-.022-.111-.066-.074a5.989,5.989,0,0,0-.6.565l-.13.141a8.148,8.148,0,0,0,.464-.747c.033-.061-.058-.1-.094-.047a11.35,11.35,0,0,1-.885,1.159c.043-.069.085-.138.128-.2.214-.333.424-.667.634-1,.028-.044-.045-.092-.075-.05-.2.287-.4.574-.6.863-.159.231-.34.459-.481.705l-.153.056a4.815,4.815,0,0,0,.662-1.458c.008-.029-.04-.046-.051-.017a6.987,6.987,0,0,1-.906,1.587,7.191,7.191,0,0,0-1,.481,12.372,12.372,0,0,1-2.366.847c-.028.01-.053.021-.08.032a1.814,1.814,0,0,1-.641-.619c-.038-.061-.12,0-.089.061a1.816,1.816,0,0,0,.552.63l-.03.012-.144-.091a4.4,4.4,0,0,0-.744-.358,2.855,2.855,0,0,0,.252-.477s0,0,.007,0a2.746,2.746,0,0,0,.251-.364c-.038.108-.076.217-.1.327-.007.026.031.037.043.015a12.909,12.909,0,0,0,.691-1.722c.007-.016,0-.025-.018-.028.442-1.139.839-2.312,1.178-3.483a.062.062,0,0,0,.05-.019c-.038.151-.083.3-.113.454-.005.03.039.046.051.017a13.469,13.469,0,0,0,.476-1.344c-.025.106-.056.21-.077.316a.034.034,0,0,0,.063.021,25.6,25.6,0,0,0,.967-2.956c.021-.071-.089-.091-.111-.022-.1.31-.211.622-.321.934.021-.066.041-.133.062-.2.007-.02-.028-.032-.036-.012-.08.22-.165.441-.249.664.117-.412.222-.825.319-1.223a.055.055,0,0,0-.048-.066l.07-.236A4.752,4.752,0,0,0,19.6,21.653c.018-.028-.025-.051-.046-.031q-.546.562-1.109,1.109c0-.011.007-.021.009-.032s-.015-.018-.02-.007c-.014.028-.023.056-.036.084-.112.108-.221.218-.335.324-.018.017.008.043.027.031.077-.049.148-.1.221-.156-.083.185-.168.369-.24.558a.56.56,0,0,0-.041-.318.123.123,0,0,0-.143-.047.169.169,0,0,0-.13.124.116.116,0,0,0,.051.15l.027.017c-.126.251-.318.713-.467,1.086.182-.56.342-1.125.463-1.681a.026.026,0,0,0-.048-.016c-.181.4-.345.82-.5,1.247q-.106.228-.206.46c.226-.67.455-1.339.68-2.01.016-.049-.063-.073-.084-.029-1.389,2.875-2,6-3.144,8.959a.035.035,0,0,0-.059-.021c-.326.3-.579.663-.912.958-.071.063-.164.145-.268.229l-.06-.039c-.136-.088-.235.094-.169.209a1.081,1.081,0,0,1-.862.271c.015.005.033-.014.018-.025l-.033-.024a.022.022,0,0,0-.026,0c-.063.037-.056.026-.068.1a.039.039,0,0,0,.02.041.349.349,0,0,0,.1.036.074.074,0,0,0-.038.041c-.2-.019-.418.011-.615-.009a6.56,6.56,0,0,1-.649-.128.029.029,0,0,0-.01-.033,10.506,10.506,0,0,0-1.1-.619,5.7,5.7,0,0,0,1.736.466.027.027,0,0,0,.011-.053c-.292-.089-.581-.179-.87-.269,0-.008,0-.016-.008-.022-.48-.27-.983-.514-1.493-.747.213.09.427.18.639.258.029.01.05-.028.021-.043-1.058-.54-2.085-1.131-3.136-1.68-.022-.012-.045.021-.025.037a10.682,10.682,0,0,0,1.976,1.188c-.282-.122-.566-.238-.85-.352a10.856,10.856,0,0,1-1.286-.8A17.951,17.951,0,0,0,4.957,29.08a.034.034,0,0,0-.045.051,16.843,16.843,0,0,0,1.931,1.717c.027.02.05-.008.039-.034.069.05.136.1.207.149-.137-.052-.276-.107-.413-.158-.026-.009-.044.026-.019.038.906.479,1.853.948,2.815,1.349-.146-.053-.293-.1-.438-.154a.015.015,0,0,0-.014.027c.111.066.229.123.345.183-.281-.13-.562-.256-.837-.373a.021.021,0,0,0-.019.037,15.927,15.927,0,0,0,2.248,1.172c-.051-.008-.1-.017-.153-.021a.047.047,0,0,0-.05.064A7.319,7.319,0,0,0,8.137,31.99c-.016,0-.024.02-.009.027.561.261,1.107.561,1.658.847a22.055,22.055,0,0,1-2.013-.959q-1.442-.752-2.9-1.486c.011-.011.018-.027,0-.038a14.379,14.379,0,0,1-1.348-.971,3.431,3.431,0,0,0-1.3-.8.024.024,0,0,0-.015.044,5.39,5.39,0,0,1,1.458,1.025c.109.1.228.2.352.3-.139-.07-.278-.136-.416-.2C3.025,29.313,2.361,28.9,1.76,28.5c0,0-.011,0-.006.007.358.291.726.606,1.1.9l-.034-.016C2.2,28.939,1.567,28.5.937,28.061c-.01-.007-.022.007-.013.014.493.37.985.746,1.484,1.113-.494-.244-.987-.491-1.483-.73a1.651,1.651,0,0,1-.1-.216,2.338,2.338,0,0,1-.11-.919,1.521,1.521,0,0,0,.043.29.03.03,0,0,0,.056,0c.031-.25.008-.5.031-.756A5.519,5.519,0,0,1,.982,26.1s0-.005-.005-.009c.16-.488.252-1.02.419-1.488.006-.016-.017-.028-.025-.012-.045.095-.094.193-.144.293a13.1,13.1,0,0,0,.387-1.653c.144-.582.272-1.167.36-1.742,0-.018-.025-.029-.032-.01-.1.273-.2.555-.289.838.219-.723.437-1.446.66-2.166M8.923.993a.039.039,0,0,0-.038,0A.928.928,0,0,1,8.814.9L8.828.84c.048.048.1.094.152.137-.007.013-.013.028-.02.042L8.923.993m-.165-.2C8.748.773,8.735.755,8.726.733c.013.015.025.031.038.045,0,.005,0,.01-.006.016M8.7.7l0,0h0v0M21.9,12.058c-.014.056-.029.111-.043.168a2.052,2.052,0,0,0-.089.3.085.085,0,0,0,.009.06c-.028.124-.058.249-.083.374-.009.041.024.059.055.056-.249.675-.5,1.354-.707,2.041-.023-.052-.046-.1-.07-.153.183-.5.346-1.009.526-1.5.012-.034-.038-.06-.051-.025-.175.452-.37.9-.549,1.361,0-.009-.008-.019-.012-.027s-.005,0-.008,0c.4-.957.732-1.959,1.036-2.959,0,.026-.006.051-.008.077a.524.524,0,0,0-.006.236m-1.044,3.155c.024-.06.045-.122.068-.183.021.065.046.13.065.2-.023.078-.048.154-.07.232-.02-.084-.042-.163-.064-.245m-.261.392a.034.034,0,0,0-.063.019c0,.045.009.093.013.139,0,.02-.013.038-.018.057s.01.028.026.028c.022.225.047.456.082.688a1.967,1.967,0,0,0-.283-.7q.2-.4.383-.81c0,.034.008.068.013.1-.057.158-.106.316-.153.476m-.292.33a4.205,4.205,0,0,1,.208.694,2.722,2.722,0,0,1,0,.761,3.359,3.359,0,0,0-.352-1.179s.009,0,.012-.01c.047-.087.089-.177.135-.266m.241,3.48c.03-.059.053-.122.077-.185a5.748,5.748,0,0,1-.349.96,4.569,4.569,0,0,0,.155-.819c0,.007,0,.014,0,.021a.063.063,0,0,0,.118.024m-.112-.114a.039.039,0,0,0-.037-.039l0-.018a.052.052,0,0,0,.022-.022c.008-.016.011-.036.019-.051,0,.044-.007.088-.009.131m.3-1.939a3.526,3.526,0,0,0-.05-.437c0-.051,0-.1-.005-.154.022.126.046.253.076.376-.005.072-.014.143-.02.215m.011-2.35c.033-.075.067-.15.1-.226.007.017.011.034.017.051-.021.055-.043.111-.064.167a.029.029,0,0,0-.053.008M20.53,30.929c.047-.056.094-.112.139-.17a.984.984,0,0,0-.1.2l-.035.012a.04.04,0,0,0,0-.04M.714,27.085a.06.06,0,0,0-.1,0,4.508,4.508,0,0,1,.032-.464.056.056,0,0,0,.1.016c.019-.034.03-.073.047-.108a2.721,2.721,0,0,0-.083.555m16.58-.845q-.03.14-.061.279a.056.056,0,0,0,.008.043c-.281.693-.526,1.4-.774,2.106-.1.277-.2.553-.292.831-.054.159-.156.916-.182.406,0-.018-.03-.021-.032,0q-.024.208-.048.415v0c-.12.29-.261.568-.4.845a5.557,5.557,0,0,0,.177-.634.03.03,0,0,0-.052-.024h0a18.481,18.481,0,0,0,.781-2.3.067.067,0,0,0,.123.009,6.581,6.581,0,0,0,.287-.732c.138-.345.266-.695.4-1.04.008-.022-.01-.032-.027-.031.038-.072.077-.145.11-.222a.061.061,0,0,0,.034.024c0,.008,0,.018,0,.025a.024.024,0,0,0-.047,0m-1.336,4.138h0v0m-1.114,2.128a1.415,1.415,0,0,0,.114-.145s0,.009,0,.012a5.779,5.779,0,0,1,.694.42c.02.014.04.031.06.046-.11.047-.218.092-.328.134-.042-.03-.086-.057-.13-.085a1.252,1.252,0,0,1-.121-.172c-.009-.015-.035,0-.027.014.015.033.039.066.059.1-.054-.034-.107-.07-.16-.1-.03-.02-.062.03-.035.052l.29.238c-.064.021-.128.044-.195.061a.682.682,0,0,1-.1-.147.039.039,0,0,0-.06-.014s0,0-.005,0a.017.017,0,0,0-.006.007c-.009.007-.02.012-.02.024l0,.008a.537.537,0,0,0-.108.16s0,0,0,.007c-.028,0-.052.012-.082.014a1.563,1.563,0,0,1-.68-.112,1.562,1.562,0,0,0,.172-.162,3.952,3.952,0,0,0,.617-.959c.032-.044.061-.093.092-.14a4.024,4.024,0,0,0-.243.5.065.065,0,0,0,.047.09,4.41,4.41,0,0,0-.213.52c-.018.055.068.1.1.05a2.985,2.985,0,0,0,.25-.419s.007,0,.009,0m1.364.674a.043.043,0,0,0,.054-.062.444.444,0,0,0-.036-.043l.178-.065a1.429,1.429,0,0,0,.209.044c-.092.037-.185.073-.276.112a5.458,5.458,0,0,1-.539.1l-.011-.005c.011-.015.025-.028.036-.043.1-.032.191-.066.286-.1a1.01,1.01,0,0,0,.1.064M14.9,33.1c-.024,0-.049.009-.074.013a.473.473,0,0,0,.061-.08.55.55,0,0,0,.013.068m-1.555.087a1.2,1.2,0,0,0,.6.3c-.406-.009-.81-.01-1.215-.022a1.281,1.281,0,0,0,.573-.3c.013.009.027.016.04.025M17.086,26.6c.006,0,.015,0,.019-.009s.008-.017.013-.025l-.061.144c.01-.037.019-.074.028-.111m-.313.247a.1.1,0,0,0,.011.026c-.026.07-.047.14-.071.211l.059-.237m.06-.705c-.11.313-.221.629-.333.949,0-.008,0-.015-.014-.015l.016-.066q.183-.522.35-1.048c.026-.064.054-.126.079-.192-.039.123-.071.247-.1.371m-.974,2.471c.119-.256.234-.516.34-.782l0,0c-.17.471-.343.947-.485,1.427.049-.221.1-.439.143-.649m-.345,1.549a8.333,8.333,0,0,1-.267.891c-.022.059-.05.115-.076.172a5.433,5.433,0,0,0,.29-.978c.015-.05.033-.1.048-.151,0,.014-.008.027-.01.041s.009.017.015.025m-.887,1.733c-.071.114-.141.23-.215.342a2.44,2.44,0,0,1-.607.7c-.072-.036-.144-.073-.214-.113a3.88,3.88,0,0,0,.809-.9.05.05,0,0,0,.079.016,2.438,2.438,0,0,0,.267-.285c-.043.078-.082.158-.12.239M13.1,32.96c-.071.065.028.152.1.119.026.022.051.047.079.068a.813.813,0,0,1-.59.151c-.072-.02-.154-.057-.236-.084a2.262,2.262,0,0,0,.646-.254M.4,26.253a2.36,2.36,0,0,0-.06.42,4.24,4.24,0,0,0-.043.49,5.181,5.181,0,0,1,.028-.743c.03-.062.053-.127.081-.19,0,.01-.006.02-.007.023m8.8,7.274c-.054-.02-.106-.045-.159-.067.113.037.228.07.344.1-.031,0-.063-.007-.094-.011s-.06-.015-.091-.02m.879-.038c-.047-.018-.092-.042-.139-.061.225.083.453.159.683.229-.175-.006-.35-.015-.525-.027.041-.043.052-.113-.019-.142m7.3-.7a4.977,4.977,0,0,0-.529.166c-.067-.013-.134-.026-.2-.043a7.6,7.6,0,0,1,.832-.26,2.829,2.829,0,0,0,.351-.11c-.152.088-.3.173-.456.246M1.3,23.488l.192-.63c-.2.681-.371,1.374-.512,2.062l-.055.14c0-.011.005-.022.009-.033.008-.033-.04-.047-.055-.019s-.039.084-.06.124c.171-.548.317-1.1.481-1.644M7,32.472c-.1-.09-.188-.173-.278-.251a.048.048,0,0,0-.008-.025c-.021-.025-.046-.046-.067-.07A10.216,10.216,0,0,0,8.785,33.37a.019.019,0,0,0,0,.031c.031.02.068.039.1.059A4.173,4.173,0,0,1,7,32.472M12.446,34.1a11.942,11.942,0,0,1-2.171-.256c.434.042.877.06,1.317.061a7.759,7.759,0,0,0,1.6.166h.093a6.213,6.213,0,0,1-.838.027m8.608-2.9a29.922,29.922,0,0,1-3.283,1.518c.071-.057.141-.116.206-.177.024-.022,0-.045-.026-.048.665-.278,1.272-.757,1.923-1.095a.058.058,0,0,0,.1.015c.028-.031.049-.068.076-.1.054-.025.109-.047.164-.069a.089.089,0,0,0,.077-.022l.018-.018c.021-.008.041-.019.061-.026.231-.082.459-.161.685-.242l-.055.067c-.062.077.046.154.107.092l0,0c.074-.089.147-.181.222-.271a6.332,6.332,0,0,0,1.6-.827.017.017,0,0,0-.019-.028,7.537,7.537,0,0,1-1.351.631l.169-.151c.145-.126.285-.258.426-.389.039-.036-.02-.1-.061-.068-.1.074-.191.15-.287.225q.077-.1.153-.2.784-.351,1.566-.7c-.423.207-.842.422-1.246.652-.1.057-.012.233.091.181.311-.145.621-.3.931-.445a.11.11,0,0,0,.123.051A13.124,13.124,0,0,0,26,28.514c.021-.011,0-.045-.019-.037-.2.077-.414.149-.625.222.145-.073.291-.145.436-.218.062-.033.009-.133-.055-.109-.359.133-.717.278-1.074.43q.84-.392,1.67-.8l-.089.071a.022.022,0,0,0,.025.036,2.793,2.793,0,0,0,.458-.3c.1-.05.2-.1.3-.149.006,0,0-.013,0-.01l-.192.078a5.046,5.046,0,0,0,.465-.452.036.036,0,0,0,.026,0,4.112,4.112,0,0,0-.4.577c-.014.026.021.044.04.027a6.418,6.418,0,0,0,.791-.988c-.032.107-.065.212-.1.322a.049.049,0,0,0,.085.042c.028-.036.05-.076.074-.114a.724.724,0,0,0-.007.149c-.186.181-.375.363-.56.55q-.156.126-.3.266c-.217.128-.44.249-.668.381v0c-.629.284-1.237.63-1.84.944-1.129.59-2.251,1.193-3.377,1.788" transform="translate(0 0)" fill="#0c1229"/>
      <path id="Tracé_57" data-name="Tracé 57" d="M23.955,13.951a1.078,1.078,0,0,0-.795-.89c-.412-.135-.89-.22-1.126.21a.069.069,0,0,0-.005.027A2.47,2.47,0,0,0,21,15.019c-.079.757.617,2.022,1.551,1.636a2.78,2.78,0,0,0,1.4-2.705m-2.316,1.513c0-.066-.009-.132-.01-.2.005.047.01.093.019.138,0,.019-.005.039-.009.059m.739-2.063,0,0,.024-.014-.022.017m-.468,2.852c-.77-.341-.635-1.435-.363-2.028A1.564,1.564,0,0,1,22,13.652a1.758,1.758,0,0,0-.41,1.9.027.027,0,0,0,.036.015.614.614,0,0,0,.5.706.028.028,0,0,0,.018-.052.8.8,0,0,1-.445-.746s0,0,0,0,.033,0,.036-.023a4.26,4.26,0,0,1,.105-.553,1.507,1.507,0,0,0-.011.239c0,.026.043.037.053.01,0-.011.008-.021.011-.032a.981.981,0,0,0,.014.209.035.035,0,0,0,.067.013,1.278,1.278,0,0,0,.059-.141.657.657,0,0,0-.014.117.03.03,0,0,0,.051.017,1.076,1.076,0,0,0,.119-.2,2.1,2.1,0,0,0-.094.263c-.011.044.028.068.064.063a.865.865,0,0,0,.248.764.037.037,0,0,0,.059-.04c-.035-.145-.122-.273-.165-.418a1.212,1.212,0,0,1-.032-.474c.079-.168.149-.34.232-.507a7.339,7.339,0,0,1,.4-.69c.01-.016-.016-.033-.028-.019a4.359,4.359,0,0,0-.614.9c.045-.117.087-.235.139-.342a5.306,5.306,0,0,1,.49-.82c.018-.025-.016-.057-.037-.032a4.3,4.3,0,0,0-.521.711c-.06.105-.128.226-.186.352a2.738,2.738,0,0,1,.1-.3,4.225,4.225,0,0,1,.54-.911c.018-.024-.012-.065-.038-.042a2.9,2.9,0,0,0-.395.44,2.623,2.623,0,0,1,.416-.6c.018-.019-.012-.043-.03-.026-.056.051-.112.106-.166.163a.044.044,0,0,0-.059-.013,1.755,1.755,0,0,0-.3.243c.1-.152.214-.3.329-.44,2.1-.11.6,3.457-.625,2.914" transform="translate(-9.499 -5.86)" fill="#0c1229"/>
      <path id="Tracé_58" data-name="Tracé 58" d="M1.84,48.155a1.226,1.226,0,0,0-.1.822.031.031,0,0,0,.06,0,2.749,2.749,0,0,0,.043-.4,2.618,2.618,0,0,1,.077-.395.041.041,0,0,0-.077-.026" transform="translate(-0.769 -21.777)" fill="#0c1229"/>
      <path id="Tracé_59" data-name="Tracé 59" d="M2.382,48.131a4.905,4.905,0,0,0-.148,1c0,.03.049.043.06.012a4.883,4.883,0,0,0,.155-1c0-.043-.059-.057-.067-.013" transform="translate(-1.01 -21.764)" fill="#0c1229"/>
      <path id="Tracé_60" data-name="Tracé 60" d="M9.523,42.684c2.087.548,3.045-2.542,3.074-4.019.027-1.418-.624-4.719-2.767-4.025-.105.034-.072.211.04.193,3.431-.557,3.2,7.795-.255,7.512,0-.005,0-.012-.006-.015-.028-.017-.057-.031-.085-.047a1.166,1.166,0,0,0,.266.005.023.023,0,0,0,0-.046,1.853,1.853,0,0,1-1.2-.635s-.007,0-.011-.006a8.094,8.094,0,0,1-.3-1.006c-.015-.079-.023-.159-.032-.24a1.4,1.4,0,0,0,.2.233,3.241,3.241,0,0,0,.481,1.2c-.033-.014-.065-.03-.1-.043a.027.027,0,0,0-.03.044,1.713,1.713,0,0,0,1.188.4.027.027,0,0,0,0-.054c-.141-.042-.285-.074-.428-.111a2.723,2.723,0,0,0-.237-.2.031.031,0,0,0,.008-.022c.02,0,.041-.005.034-.031a2.037,2.037,0,0,0-.089-.226.679.679,0,0,0,.377.323c.027.008.04-.029.022-.046a3.215,3.215,0,0,1-.323-.318.737.737,0,0,1-.048-.087.2.2,0,0,0,.148-.026c.026-.015.007-.049-.017-.049-.116,0-.2-.107-.256-.25-.007-.034-.02-.066-.023-.1,0-.011-.01-.013-.018-.015a4.166,4.166,0,0,1-.119-.744,4.669,4.669,0,0,1,.038-1.109.016.016,0,0,0-.031-.007,3.228,3.228,0,0,0-.091,1.412,4.957,4.957,0,0,1-.266-1.272,6.22,6.22,0,0,1,.584-1.644c.019-.036-.036-.074-.06-.04a3.611,3.611,0,0,0-.5,1.029,3.5,3.5,0,0,1,.075-.407,8.593,8.593,0,0,0,.3-.945.025.025,0,0,0-.046-.016,6.8,6.8,0,0,0-.292.666,2.935,2.935,0,0,1,1.139-1.673.018.018,0,0,0-.02-.029A2.81,2.81,0,0,0,8.52,38.464a2.859,2.859,0,0,0-.209.686.034.034,0,0,0,.064.022,1.9,1.9,0,0,0,.146-.279,2.8,2.8,0,0,0,.126,1.184,2.957,2.957,0,0,0,.609,1.7c-.1-.068-.2-.135-.3-.2-.008,0-.011,0-.019,0a7.6,7.6,0,0,1-.551-1.919.018.018,0,0,0-.037,0c0,.122.013.245.021.369-.056-.18-.1-.361-.145-.544.009-.13.022-.26.038-.389a.021.021,0,0,0-.041-.008c-.015.057-.026.119-.038.178-.006-.034-.011-.07-.016-.1a14.381,14.381,0,0,1,.769-2.206c.013-.027-.008-.041-.031-.042a4.2,4.2,0,0,1,.514-.559,4.254,4.254,0,0,1,.825-.534c.023-.012,0-.047-.02-.039A2.522,2.522,0,0,0,8.671,37.13c-.012.03.027.06.049.033l.095-.118a5.374,5.374,0,0,0-.689,1.8c-.011-.116-.015-.233-.019-.35a5.627,5.627,0,0,1,.882-1.924c.006,0,.013,0,.018,0a3.3,3.3,0,0,1,1.316-.96c.03-.013.023-.065-.012-.058a1.958,1.958,0,0,0-1.281.909.027.027,0,0,0-.038,0,4.5,4.5,0,0,0-.833,1.331,2.435,2.435,0,0,0-.268.8A4.99,4.99,0,0,1,8.9,36.171c-.012.032-.029.062-.038.1s.036.043.051.018a2.269,2.269,0,0,1,.216-.3.974.974,0,0,0-.064.17c-.007.028.033.039.047.016a1.85,1.85,0,0,1,.208-.284,3.2,3.2,0,0,0,.411-.315,1.188,1.188,0,0,1,.58-.149.014.014,0,0,0,0-.028,1.247,1.247,0,0,0-.319,0,2.445,2.445,0,0,1,.26-.129,2.531,2.531,0,0,1,.412-.071c.046.018.09.027.136.049a.036.036,0,0,0,.032-.065c-.045-.027-.09-.044-.136-.066.027-.008.053-.019.079-.025s.021-.062-.013-.062-.1.005-.15.01c.01-.018,0-.042-.02-.041-.05,0-.1.008-.157.013-2.839-.886-4.762,6.657-.913,7.669M8.8,40.42a2.23,2.23,0,0,0,.129.228.023.023,0,0,0,.037,0,3.03,3.03,0,0,0,.053.439c-.013-.03-.03-.059-.042-.089a4.459,4.459,0,0,1-.178-.58M7.61,39.035l0-.013a4.155,4.155,0,0,0-.025.475c-.018-.163-.027-.318-.029-.463.007.025.048.029.051,0m.7,2.524.005.01L8.3,41.558h0m.082.106A.029.029,0,0,0,8.4,41.63c-.014-.047-.026-.093-.039-.14,0,0,.006.007.009.011a2.193,2.193,0,0,0,.214.37.039.039,0,0,0,.07-.035l0-.008a2.074,2.074,0,0,0,.743.482,1.771,1.771,0,0,1-1.01-.647m-.159-1.488c0-.031,0-.062,0-.093.029.08.071.157.106.235a.991.991,0,0,1-.1-.142m1.034,1.751c-.073-.03-.149-.057-.222-.09-.018-.047-.035-.091-.054-.137.089.077.18.154.275.227M8.121,39.711c0,.051-.01.1-.014.152-.006-.026-.015-.05-.02-.077s-.056-.031-.053,0a1.337,1.337,0,0,0,.065.278,4,4,0,0,0,.014.444,6.18,6.18,0,0,1-.139-1.455l.034-.16a3.666,3.666,0,0,0,.112.816m-.2-1.036c0-.028.007-.056.012-.084,0,.028-.009.056-.012.084m-.026.234v0a2.667,2.667,0,0,0-.006.3v0a5.133,5.133,0,0,0,.073,1.339,5.011,5.011,0,0,1-.238-2.03c0-.012-.008-.016-.016-.014a7.879,7.879,0,0,1,.333-1.241.062.062,0,0,0,.043-.028c.06-.09.114-.182.166-.273a3.888,3.888,0,0,0-.477,2.35.026.026,0,0,0,.052,0c.006-.218.026-.429.053-.638-.01.08-.019.16-.024.241,0,.025.037.021.038,0m1.034-2.873a4.344,4.344,0,0,0-.539.685,3.275,3.275,0,0,1,.427-.618,2.307,2.307,0,0,1,.211-.2,1.387,1.387,0,0,0-.074.13c-.009,0-.017-.007-.025,0M9,35.654a2.939,2.939,0,0,0-.275.222c.024-.039.046-.079.071-.118a1.84,1.84,0,0,1,1.185-.663A1.878,1.878,0,0,0,9,35.654M7.558,38.943c0,.009,0,.019,0,.028v-.006c0-.007,0-.015,0-.022" transform="translate(-3.332 -15.629)" fill="#0c1229"/>
      <path id="Tracé_61" data-name="Tracé 61" d="M17.63,41.436a8.082,8.082,0,0,0-.11-1.385.012.012,0,0,0-.023,0,8.014,8.014,0,0,0,.085,1.386.025.025,0,0,0,.048,0" transform="translate(-7.916 -18.116)" fill="#0c1229"/>
      <path id="Tracé_62" data-name="Tracé 62" d="M18.018,41.457a1.954,1.954,0,0,0,.045-1.1c-.007-.041-.07-.038-.067,0a4.335,4.335,0,0,1,.013.546,5.011,5.011,0,0,0-.043.54.027.027,0,0,0,.051.01" transform="translate(-8.127 -18.244)" fill="#0c1229"/>
      <path id="Tracé_63" data-name="Tracé 63" d="M18.524,40.672a7.608,7.608,0,0,0-.1.912c0,.025.038.025.043,0a7.525,7.525,0,0,0,.125-.9c0-.044-.062-.059-.068-.014" transform="translate(-8.336 -18.389)" fill="#0c1229"/>
      <path id="Tracé_64" data-name="Tracé 64" d="M14.641,40.258a.007.007,0,0,0-.014,0c0,.066.009.131.014.2a.006.006,0,0,0,.013,0c0-.066-.009-.131-.013-.2" transform="translate(-6.618 -18.211)" fill="#0c1229"/>
      <path id="Tracé_65" data-name="Tracé 65" d="M13.953,43.242c.01.033.057.02.057-.011a5.122,5.122,0,0,1,.069-1.143c.073-.323.3-1.114.775-.929a0,0,0,1,0,0-.007c-.464-.209-.586.123-.761.532a2.411,2.411,0,0,0-.143,1.558" transform="translate(-6.28 -18.589)" fill="#0c1229"/>
      <path id="Tracé_66" data-name="Tracé 66" d="M10.464,40.484a3.912,3.912,0,0,0-.392,1.53c0,.033.049.033.056,0,.124-.509.22-1.019.383-1.518.009-.028-.036-.042-.048-.016" transform="translate(-4.557 -18.31)" fill="#0c1229"/>
      <path id="Tracé_67" data-name="Tracé 67" d="M10.99,45.134c.022.015.061,0,.048-.033a3.124,3.124,0,0,1-.287-.713,1.628,1.628,0,0,1,.083-.769c.009-.03-.036-.041-.049-.017a1.243,1.243,0,0,0,.205,1.533" transform="translate(-4.803 -19.72)" fill="#0c1229"/>
      <path id="Tracé_68" data-name="Tracé 68" d="M11.594,45.086a4.31,4.31,0,0,0-.082-.635c-.032-.248-.048-.5-.062-.747,0-.046-.077-.053-.083-.005a2.55,2.55,0,0,0,.158,1.411c.02.036.067.009.068-.024" transform="translate(-5.13 -19.756)" fill="#0c1229"/>
      <path id="Tracé_69" data-name="Tracé 69" d="M11.952,43.866a3.616,3.616,0,0,0,.066,1.094.035.035,0,0,0,.067,0A3.593,3.593,0,0,0,12,43.863a.023.023,0,0,0-.046,0" transform="translate(-5.403 -19.835)" fill="#0c1229"/>
      <path id="Tracé_70" data-name="Tracé 70" d="M12.33,44.195c0,.178.011.354.023.532a1.9,1.9,0,0,0,.05.461.028.028,0,0,0,.054,0,1.9,1.9,0,0,0-.014-.463c-.013-.177-.029-.353-.052-.53a.031.031,0,0,0-.061,0" transform="translate(-5.578 -19.98)" fill="#0c1229"/>
      <path id="Tracé_71" data-name="Tracé 71" d="M12.9,44.692a2.882,2.882,0,0,0,.064.695.023.023,0,0,0,.044,0,2.9,2.9,0,0,0-.034-.7.037.037,0,0,0-.074.005" transform="translate(-5.835 -20.202)" fill="#0c1229"/>
      <path id="Tracé_72" data-name="Tracé 72" d="M13.446,44.864c.038.13.072.262.118.389,0,.014.023.006.02-.007-.029-.133-.07-.263-.106-.393-.007-.021-.038-.01-.032.011" transform="translate(-6.083 -20.288)" fill="#0c1229"/>
      <path id="Tracé_73" data-name="Tracé 73" d="M13.626,44.714c-.019-.018-.044.012-.026.03a.891.891,0,0,0,.2.193c.02.011.036-.013.026-.03a.893.893,0,0,0-.2-.193" transform="translate(-6.15 -20.227)" fill="#0c1229"/>
      <path id="Tracé_74" data-name="Tracé 74" d="M30.454,52.051a9.048,9.048,0,0,0,.985-2.564c.009-.037-.047-.047-.057-.011-.273.876-.67,1.688-.995,2.542a.038.038,0,0,0,.068.033" transform="translate(-13.746 -22.374)" fill="#0c1229"/>
      <path id="Tracé_75" data-name="Tracé 75" d="M42.56,50.394a.777.777,0,0,0-.223-.188.051.051,0,0,0-.055.083c.007.006.009.013.016.019-.024.007-.035.042-.008.053s.057.027.085.041a1.15,1.15,0,0,1,.159.745c0,.008.008.009.011.014a.883.883,0,0,1-.344.211c-.157.053-.215.055-.274-.095-.007-.018-.008-.037-.015-.055.114-.073.142-.228.188-.35s.079-.231.116-.347c.011-.008.018-.02.029-.027a.042.042,0,0,0,0-.068c0-.017.011-.034.017-.051.016-.056-.069-.08-.094-.032s-.046.1-.07.145a.855.855,0,0,0-.181.188,1.7,1.7,0,0,1,.133-.28c.02-.033-.031-.066-.056-.037a1.214,1.214,0,0,0-.175.286.529.529,0,0,1,.469-.459c.06,0,.05-.087-.007-.09a.577.577,0,0,0-.556.408.833.833,0,0,0-.013.527.321.321,0,0,0,.031.173.025.025,0,0,0,.026.013c.034.1.07.188.105.272a.064.064,0,0,0,.064.042.851.851,0,0,0,.756-.464.417.417,0,0,0,.019-.047.618.618,0,0,0,.043-.106.6.6,0,0,0-.2-.523" transform="translate(-18.857 -22.665)" fill="#0c1229"/>
      <path id="Tracé_76" data-name="Tracé 76" d="M27.989,58.117c-.01-.01-.028.006-.019.016a1.97,1.97,0,0,0,1.154.71c.025,0,.039-.031.015-.042a3.7,3.7,0,0,1-1.15-.684" transform="translate(-12.654 -26.292)" fill="#0c1229"/>
      <path id="Tracé_77" data-name="Tracé 77" d="M29.12,58.562a.012.012,0,0,0-.01.021c.235.12.468.255.711.359a.011.011,0,0,0,.009-.019c-.228-.134-.473-.243-.71-.36" transform="translate(-13.167 -26.494)" fill="#0c1229"/>
      <path id="Tracé_78" data-name="Tracé 78" d="M29.314,55.969c.26-.538.44-1.121.654-1.678.012-.032-.036-.056-.049-.024-.222.546-.484,1.087-.664,1.651-.007-.008-.015-.013-.022-.02s-.037,0-.038.021c-.006,0-.01.011,0,.018s.03.031.043.046c-.005.019-.013.036-.019.054-.01.035.043.05.058.02l.009-.02a1.987,1.987,0,0,0,1.355.745.027.027,0,0,0,.01-.051,3.854,3.854,0,0,1-1.334-.763" transform="translate(-13.206 -24.545)" fill="#0c1229"/>
      <path id="Tracé_79" data-name="Tracé 79" d="M30.936,55.5A.051.051,0,0,0,31,55.462a21.462,21.462,0,0,0,1.017-2.981c0-.019-.025-.029-.032-.011-.366.98-.725,1.958-1.105,2.933a.065.065,0,0,0,.026.079c-.261-.1-.518-.214-.773-.336-.027-.013-.056.027-.03.045a3.322,3.322,0,0,0,1.233.508c.026,0,.042-.036.015-.045-.139-.05-.274-.1-.41-.158" transform="translate(-13.613 -23.735)" fill="#0c1229"/>
      <path id="Tracé_80" data-name="Tracé 80" d="M40.536,20.458c.073-.2.145-.395.217-.592a.048.048,0,0,0,.067-.012,10.517,10.517,0,0,0,.928-2.488c.009-.03-.037-.038-.047-.01-.169.506-.383.994-.588,1.487.251-.739.484-1.486.665-2.238a.028.028,0,0,0-.052-.018,31.531,31.531,0,0,0-1.218,3.424s-.009,0-.01.007c-.037.13-.075.26-.112.39-.025.087.118.136.15.051" transform="translate(-18.27 -7.497)" fill="#0c1229"/>
      <path id="Tracé_81" data-name="Tracé 81" d="M47.449,22.42c.172.943.312,1.9.544,2.832,0,.008.009.009.017.009.049.453.075.906.108,1.36a.013.013,0,0,0-.021.011,13.459,13.459,0,0,0,.39,3.443c.01.038.058.022.064-.01.093.752.184,1.515.348,2.251.005.024.045.015.043-.009-.068-.849-.238-1.707-.387-2.546,0,0-.006,0-.009-.007,0-.138,0-.275-.01-.416.009.076.019.151.028.227a.024.024,0,0,0,.049,0c0-.183-.013-.365-.032-.546,0-.243-.013-.485-.038-.728.065.524.142,1.046.241,1.558a.019.019,0,0,0,.026.015c.143.942.279,1.886.442,2.825,0,.014.025.013.023,0-.136-.947-.3-1.89-.457-2.834,0,0,.007,0,.007-.008a30,30,0,0,0-.436-3.732c0-.01-.01-.01-.018-.014-.055-.415-.127-.827-.208-1.231.018,0,.035-.008.033-.028a28.03,28.03,0,0,0-.556-3.221,32.1,32.1,0,0,0-.5-3.537c0-.018-.032-.017-.029,0,.175,1.3.272,2.619.462,3.917-.038-.16-.077-.32-.116-.48,0-.018-.03-.008-.026.009.14.646.282,1.293.431,1.938.06.386.133.769.222,1.146-.024,0-.048.009-.046.037.01.143.024.29.036.435-.014-.071-.026-.143-.041-.214a.017.017,0,0,0,.016-.02,16.992,16.992,0,0,0-.663-2.933c-.008-.026-.047-.011-.039.014.044.154.083.31.123.466-.013,0-.026,0-.022.021m.517,2.425c-.105-.666-.245-1.33-.381-1.991.154.654.286,1.314.419,1.974-.019-.008-.034,0-.038.017m-.313-2.511a.03.03,0,0,0,.028-.032c0-.066-.009-.131-.012-.2q.045.342.093.684-.054-.228-.11-.456m.623,4.289c.01.129.019.258.028.387,0,0,.007,0,.007,0l-.021-.324c.034.177.07.353.113.524,0,.013.015.013.026.015q.03.331.066.661c-.036-.264-.077-.527-.122-.786,0-.01-.018-.009-.016,0,.06.416.09.831.117,1.247-.016-.073-.036-.146-.053-.22-.046-.327-.1-.646-.17-.958a4.878,4.878,0,0,0,.016-.594c0,.016.007.031.01.047" transform="translate(-21.314 -8.174)" fill="#0c1229"/>
      <path id="Tracé_82" data-name="Tracé 82" d="M47.588,28a15.02,15.02,0,0,0-.108-1.756c.094.586.195,1.171.324,1.749,0,.018.032.011.03-.006-.094-.691-.225-1.378-.364-2.061a.023.023,0,0,0-.026-.018c0-.025,0-.05-.008-.076a.023.023,0,0,0-.046,0A18.854,18.854,0,0,0,47.543,28a.023.023,0,0,0,.045,0" transform="translate(-21.441 -11.678)" fill="#0c1229"/>
      <path id="Tracé_83" data-name="Tracé 83" d="M47.324,28a15.532,15.532,0,0,0-.263-1.959c0-.025-.043-.024-.041,0a15.587,15.587,0,0,0,.27,1.964c0,.019.034.012.033-.007" transform="translate(-21.274 -11.775)" fill="#0c1229"/>
      <path id="Tracé_84" data-name="Tracé 84" d="M46.937,28.964c-.014-.361-.058-.723-.085-1.083h0c.023.361.03.725.066,1.084a.01.01,0,0,0,.02,0" transform="translate(-21.196 -12.614)" fill="#0c1229"/>
      <path id="Tracé_85" data-name="Tracé 85" d="M46.484,28.791a5.321,5.321,0,0,1-.184-1.068c0-.024-.036-.021-.037,0a2.5,2.5,0,0,0,.192,1.076.015.015,0,0,0,.029-.01" transform="translate(-20.93 -12.535)" fill="#0c1229"/>
      <path id="Tracé_86" data-name="Tracé 86" d="M19.123,34.922a1.322,1.322,0,0,0,1.512-.868c.027-.081-.1-.134-.146-.071a1.436,1.436,0,0,1-1.739.517,1.514,1.514,0,0,1-.911-1.273c.007-.01.016-.017.018-.031.065-.461.073-.924.152-1.384a10.789,10.789,0,0,1,.444-1.524c.026-.078-.09-.105-.127-.044s-.087.157-.129.238a2.724,2.724,0,0,1,1.38-1.505.042.042,0,0,0,.021-.044c1.316-.343,1.413,2.161,1.361,2.937a3.1,3.1,0,0,1-.937,2.08.64.64,0,0,0,0-.136c-.007-.038-.073-.053-.076,0a.425.425,0,0,1-.16.341l-.014.01a.775.775,0,0,0,.026-.108c0-.009-.008-.012-.01-.02a.8.8,0,0,0-.168-.739.03.03,0,0,0-.048,0,.053.053,0,0,0-.066.04,5.072,5.072,0,0,0-.089.725c-.016.016-.029.036-.044.053.025-.349.035-.7.038-1.049a.041.041,0,0,0-.081,0c-.05.363-.095.732-.119,1.1-.024-.008-.047-.016-.071-.026.009-.083.019-.165.026-.248a.03.03,0,0,0-.043-.03,6.682,6.682,0,0,1,.077-.961c.008-.047-.061-.074-.081-.028a2.563,2.563,0,0,0-.18,1.174l-.028-.016a6.827,6.827,0,0,1,.131-1.428c0-.025-.032-.038-.042-.014a3.172,3.172,0,0,0-.241,1.351l-.007,0a8.814,8.814,0,0,1,.11-1.992c.011-.056-.068-.069-.085-.017a5.016,5.016,0,0,0-.246,1.7c-.007-.022-.042-.03-.045,0s0,.039-.007.06c-.009-.012-.024-.023-.033-.035a2.875,2.875,0,0,1,.017-1.063c.047-.457.14-.909.229-1.36.007-.038-.051-.06-.065-.022a6.689,6.689,0,0,0-.367,1.741c-.007.074-.014.152-.02.231-.027-.1-.052-.213-.079-.328a.064.064,0,0,0-.06-.051c0-.179,0-.355.011-.53.016-.122.032-.245.054-.365a4.407,4.407,0,0,1,.825-1.742.029.029,0,0,0-.043-.037,3.636,3.636,0,0,0-.488.689,4.01,4.01,0,0,1,.678-1.074.006.006,0,0,0-.009-.008,3.973,3.973,0,0,0-1.144,2.625,4.154,4.154,0,0,0-.011.566.748.748,0,0,0,.093.717c.015.073.025.148.044.221s.094.041.11-.01a2.263,2.263,0,0,0,.387.35c.01.046.019.093.032.138.02.07.123.042.121-.025v-.014l.027.013a.291.291,0,0,0,.007.079v.011h0c0,.007,0,.012,0,.018a.069.069,0,0,0,.133-.027v-.014a1.326,1.326,0,0,0,.715.052s0,0,.008,0c2.519-.449,1.626-6.66-.379-5.437A2.348,2.348,0,0,0,18,30.328a4.972,4.972,0,0,0-.381,3.065,2.011,2.011,0,0,0,1.506,1.529m.526-.937c.008-.043.018-.086.021-.129s-.038-.061-.061-.031a3.872,3.872,0,0,0,0-.422.643.643,0,0,1,.036.582" transform="translate(-7.92 -13.041)" fill="#0c1229"/>
      <path id="Tracé_87" data-name="Tracé 87" d="M22.219,29.612a2.1,2.1,0,0,0-.4-.51c-.124-.123-.224-.083-.392-.054a.026.026,0,0,0,0,.052c.653.14.763,1.035.839,1.593a.111.111,0,0,0,.093.091,6.824,6.824,0,0,1-.007,1.119,10.162,10.162,0,0,1-.37,1.386c-.019.074.093.136.139.068a3.611,3.611,0,0,0,.356-2.8,2.1,2.1,0,0,0-.255-.947" transform="translate(-9.683 -13.128)" fill="#0c1229"/>
      <path id="Tracé_88" data-name="Tracé 88" d="M29.447,31.589a.019.019,0,0,0-.033-.016,3.719,3.719,0,0,0-.559,2.326c.007.034.057.043.065,0,.069-.365.072-.74.14-1.107a5.431,5.431,0,0,1,.388-1.206" transform="translate(-13.039 -14.28)" fill="#0c1229"/>
      <path id="Tracé_89" data-name="Tracé 89" d="M29.307,34.023c.22-.692.308-1.428.534-2.125.011-.033-.044-.051-.058-.02a5.194,5.194,0,0,0-.543,2.14c0,.041.056.038.067,0" transform="translate(-13.228 -14.415)" fill="#0c1229"/>
      <path id="Tracé_90" data-name="Tracé 90" d="M30.387,32.5c-.095.179-.189.378-.275.584.047-.185.091-.367.136-.539,0-.019-.026-.03-.033-.012a6.232,6.232,0,0,0-.493,1.428.035.035,0,0,0,.065.022,2.212,2.212,0,0,0,.126-.272,1.91,1.91,0,0,0-.042.365.043.043,0,0,0,.08.016c.081-.208.118-.43.18-.644a7.289,7.289,0,0,1,.333-.91.044.044,0,0,0-.079-.039" transform="translate(-13.447 -14.695)" fill="#0c1229"/>
      <path id="Tracé_91" data-name="Tracé 91" d="M29.24,35.937c.008-.049-.069-.081-.087-.03a1.372,1.372,0,0,0,.2,1.347c.03.029.068-.007.06-.041-.052-.214-.149-.4-.187-.623a2.044,2.044,0,0,1,.016-.653" transform="translate(-13.15 -16.234)" fill="#0c1229"/>
      <path id="Tracé_92" data-name="Tracé 92" d="M29.523,36.283c-.013-.046-.09-.03-.082.017.022.141.043.281.072.421a1.269,1.269,0,0,0,.131.468.031.031,0,0,0,.056-.011.933.933,0,0,0-.045-.362c-.038-.179-.083-.356-.131-.532" transform="translate(-13.319 -16.403)" fill="#0c1229"/>
      <path id="Tracé_93" data-name="Tracé 93" d="M30.023,36.278a.027.027,0,0,0-.048-.024c-.131.254-.135.77.181.906.019.008.047-.01.037-.032A3.031,3.031,0,0,1,30,36.786a.764.764,0,0,1,.02-.508" transform="translate(-13.523 -16.396)" fill="#0c1229"/>
      <path id="Tracé_94" data-name="Tracé 94" d="M23.809,15.942a.013.013,0,0,0-.024-.011c-.1.153-.188.309-.277.468a1.212,1.212,0,0,0-.2.44.028.028,0,0,0,.048.024,1.217,1.217,0,0,0,.237-.419c.074-.165.146-.331.212-.5" transform="translate(-10.547 -7.204)" fill="#0c1229"/>
      <path id="Tracé_95" data-name="Tracé 95" d="M23.651,16.864c0,.024.025.05.048.032a1.045,1.045,0,0,0,.215-.326c.091-.162.169-.332.247-.5.018-.038-.036-.062-.058-.028-.09.14-.177.281-.262.424a1.123,1.123,0,0,0-.189.4" transform="translate(-10.7 -7.25)" fill="#0c1229"/>
      <path id="Tracé_96" data-name="Tracé 96" d="M24.368,16.378a3.206,3.206,0,0,0-.341.727.025.025,0,0,0,.043.021,3.214,3.214,0,0,0,.329-.732.018.018,0,0,0-.032-.016" transform="translate(-10.871 -7.405)" fill="#0c1229"/>
      <path id="Tracé_97" data-name="Tracé 97" d="M22.5,17.106a3.345,3.345,0,0,0,.24.9c.021.039.082.013.079-.027a3.31,3.31,0,0,0-.272-.88c-.009-.025-.053-.019-.048.01" transform="translate(-10.18 -7.728)" fill="#0c1229"/>
      <path id="Tracé_98" data-name="Tracé 98" d="M23.71,17.668c-.025-.016-.06-.013-.059.026a.75.75,0,0,0,.04.3.023.023,0,0,0,.044,0,.642.642,0,0,0,0-.25c.024.056.048.113.075.169a.538.538,0,0,0,.131.206.038.038,0,0,0,.062-.031,1.171,1.171,0,0,0-.219-.449c-.024-.042-.09-.009-.079.033" transform="translate(-10.7 -7.97)" fill="#0c1229"/>
      <path id="Tracé_99" data-name="Tracé 99" d="M26.417,15.045c0,.075,0,.15,0,.225,0,.015.026.018.027,0,.008-.111.006-.223.009-.335a1.545,1.545,0,0,0,.005-.8c0-.118,0-.238-.005-.355,0-.015-.023-.013-.023,0l-.007.227c-.016-.048-.032-.1-.051-.142a.029.029,0,0,0-.054.019,1.556,1.556,0,0,1,.09.638v.008c0,.03,0,.059,0,.088a2.073,2.073,0,0,0-.316-1c-.013-.02-.041,0-.029.02a2.179,2.179,0,0,1,.105,1.866c-.007.019.021.025.03.01a1.451,1.451,0,0,0,.129-.291,1.072,1.072,0,0,0,.091-.178" transform="translate(-11.789 -6.158)" fill="#0c1229"/>
      <path id="Tracé_100" data-name="Tracé 100" d="M27.1,14.639c0-.011-.02-.005-.018.006a1.775,1.775,0,0,1-.016.794s0,0,0,0c-.01.061-.021.122-.031.184a.024.024,0,0,0,.045.015,2.188,2.188,0,0,0,.1-1.406c0-.015-.029-.009-.027.005a2.781,2.781,0,0,1-.005.7,1.751,1.751,0,0,0-.049-.3" transform="translate(-12.232 -6.436)" fill="#0c1229"/>
      <path id="Tracé_101" data-name="Tracé 101" d="M27.538,15.759a5.346,5.346,0,0,0,.1-1.006c0-.022-.034-.024-.038,0a5.363,5.363,0,0,0-.1,1.006.019.019,0,0,0,.037,0" transform="translate(-12.442 -6.667)" fill="#0c1229"/>
      <path id="Tracé_102" data-name="Tracé 102" d="M28.051,15.989c0,.02.03.02.033,0,.065-.3.088-.6.123-.9,0-.018-.025-.023-.027,0-.049.3-.11.6-.129.905" transform="translate(-12.691 -6.819)" fill="#0c1229"/>
      <path id="Tracé_103" data-name="Tracé 103" d="M28.766,30.677h0a11.947,11.947,0,0,0-.468,2.008c0,.029.04.049.052.018a11.489,11.489,0,0,0,.464-1.955,4.036,4.036,0,0,1,.538-.911,3.237,3.237,0,0,1,.95-.715c.019-.01,0-.036-.016-.031a2.153,2.153,0,0,0-1.52,1.585" transform="translate(-12.803 -13.162)" fill="#0c1229"/>
      <path id="Tracé_104" data-name="Tracé 104" d="M31.816,29.58c-.067.262-.131.535-.183.809a5.986,5.986,0,0,0-.027-.9.02.02,0,0,0-.041,0c0,.234-.018.467-.037.7l-.007.02c.119-1.158-.314-3.143-1.806-2.9l.027-.01a.028.028,0,0,0,0-.053c-2.61-.316-3.525,2.852-3.365,4.84.064.791.358,2.1,1.3,2.309a2.973,2.973,0,0,0,2.84-.839c.007-.009,0-.016,0-.025a5.3,5.3,0,0,0,.894-2.447,2.785,2.785,0,0,0-.043.293c0,.031.047.037.059.011a2.134,2.134,0,0,0,.116-.358c-.009.081-.02.163-.025.243a.045.045,0,0,0,.088.018,9.7,9.7,0,0,0,.246-1.708.015.015,0,0,0-.029-.005m-4.7-.109h0c0,.008-.007.016-.01.024,0-.008.005-.015.009-.023m-.161.4c-.019.054-.033.109-.05.164.015-.055.032-.109.05-.164m2.181,4.082c-.008.006-.009.015-.015.022a7.116,7.116,0,0,1-.843.123,1.126,1.126,0,0,1-.907-.3.028.028,0,0,0,.021-.033c0-.01,0-.02-.007-.03a1.477,1.477,0,0,0,.308.237.043.043,0,0,0,.055-.063c-.079-.1-.152-.2-.22-.3a1.5,1.5,0,0,0,.136.158.058.058,0,0,0,.093-.062c-.015-.033-.031-.065-.047-.1.024,0,.046.006.07.007s.019.034.03.05a.074.074,0,0,0,.135-.047v-.008a2.048,2.048,0,0,0,1.4-.7.151.151,0,0,0,.052,0,1.545,1.545,0,0,0,.631-.631,1.416,1.416,0,0,0,.264-.908.055.055,0,0,0-.095-.032,2.1,2.1,0,0,0-.235.293c0-.016,0-.032.006-.048s-.04-.03-.053-.01c-.14.21-.261.433-.412.637a1.7,1.7,0,0,1-.5.419,1.262,1.262,0,0,1-.085-.2,1.007,1.007,0,0,1,0-.562.041.041,0,0,0-.077-.026.979.979,0,0,0,.048.866.2.2,0,0,0,.139.312,2.961,2.961,0,0,1-.55.335,1.877,1.877,0,0,1-.383.109c0-.011.011-.022.006-.033l-.022-.045a.036.036,0,0,0-.068,0c-.019.079-.176-.264-.176-.264-.037-.1-.065-.213-.094-.32a4.573,4.573,0,0,1-.114-.862c0-.041-.068-.047-.073,0a2.788,2.788,0,0,0,.005.585,5.506,5.506,0,0,1-.112-.569c-.008-.061-.107-.076-.114-.007a2.544,2.544,0,0,0,.392,1.585l-.051.01a5.85,5.85,0,0,1-.309-.688,2.787,2.787,0,0,1-.129-.728,20.632,20.632,0,0,1,.544-2.414,3.677,3.677,0,0,1,.545-.871,3.343,3.343,0,0,1,1.169-.788.034.034,0,0,0-.022-.064A2.5,2.5,0,0,0,27.62,29.88a6.547,6.547,0,0,0-.4,1.794.029.029,0,0,0-.054,0,2.573,2.573,0,0,0,.162,1.622,3.111,3.111,0,0,1-.142-.287,4.438,4.438,0,0,1-.112-.468,3.835,3.835,0,0,1-.034-.91,13.949,13.949,0,0,1,.377-1.927c.013,0,.026,0,.034-.013a5.3,5.3,0,0,1,.79-1.107,4.075,4.075,0,0,1,1.252-.761c.037-.016.03-.083-.015-.075a2.9,2.9,0,0,0-1.893,1.423c.01-.028.016-.056.027-.084s-.021-.035-.031-.015a6.354,6.354,0,0,0-.717,2.65,2.251,2.251,0,0,0,.22,1.617,2.124,2.124,0,0,0,.184.356,3.052,3.052,0,0,1-.534-1.587s0,0,.005-.006a7.625,7.625,0,0,1,.583-2.673c0,.012-.007.025-.007.037,0,.032.047.038.059.011a3.314,3.314,0,0,1,.78-1.2,3.7,3.7,0,0,1,1.334-.608c.018-.007.018-.037,0-.039a1.636,1.636,0,0,0-.851.171l.033-.026c.006,0,0-.011,0-.018a5.193,5.193,0,0,1,.989-.316.04.04,0,0,0,.032-.048,1.767,1.767,0,0,1,.926.416,6,6,0,0,0-.948-.207c-.026,0-.044.036-.016.046a6.071,6.071,0,0,0,.944.257.28.28,0,0,0-.017.271c.008.016.037.013.033-.007a.273.273,0,0,1,.088-.266s0-.007,0-.009c.716.772.521,2.208.322,3.278a4.414,4.414,0,0,1-1.891,2.786m2.289-3.02c.027-.182.05-.354.071-.514l.014-.055c-.007.066-.01.131-.018.2-.016.125-.042.249-.067.372" transform="translate(-11.924 -12.317)" fill="#0c1229"/>
      <path id="Tracé_105" data-name="Tracé 105" d="M36.235,33.428a.033.033,0,0,0,.064,0,4.613,4.613,0,0,0,.106-1.4.016.016,0,0,0-.032,0,4.567,4.567,0,0,0-.138,1.4" transform="translate(-16.386 -14.486)" fill="#0c1229"/>
      <path id="Tracé_106" data-name="Tracé 106" d="M36.081,7.523a.606.606,0,0,0-.135.375.709.709,0,0,0,.02.2c.018.072.054.085.123.1.271.062.459-.217.515-.439.024-.093.079-.272-.007-.34a.313.313,0,0,0-.28-.038.4.4,0,0,0-.188.125.033.033,0,0,0-.048.011m.036.538c-.035,0-.03-.107-.031-.135s0-.06,0-.09l0,.005a.041.041,0,0,0,.039.012c0,.008-.009.012-.011.02a.13.13,0,0,0,.118.16.136.136,0,0,0,.047-.018s-.007.009-.013.013a.247.247,0,0,1-.156.033m.147-.2c0,.006.005.01.008.016s-.021.014-.033.019c.008,0,.017-.019.026-.034m.017.036c-.006,0-.007-.008-.005-.011s0,.009.005.011m.216-.369a.754.754,0,0,1-.135.411c0-.008.011-.013.014-.022a.067.067,0,0,0-.081-.086.035.035,0,0,0-.024.022.385.385,0,0,1,.027-.046.437.437,0,0,1,.078-.064.055.055,0,0,0-.061-.091.454.454,0,0,0-.143.128.279.279,0,0,1,.1-.215.208.208,0,0,1,.229-.039" transform="translate(-16.263 -3.335)" fill="#0c1229"/>
      <path id="Tracé_107" data-name="Tracé 107" d="M39.449,10.765a1.243,1.243,0,0,0,.26-1.2.083.083,0,0,0-.085-.074l-.03,0a.248.248,0,0,0-.093-.184.653.653,0,0,0-.373-.106.591.591,0,0,0-.6.442c0,.014.009.024.018.034l-.064.122a.857.857,0,0,0,.043,1.028.708.708,0,0,0,.924-.064m-.21-1.156a2.1,2.1,0,0,0-.122.178c.033-.062.069-.123.1-.184l.018.006m.093.014c.049.007.1.011.149.015,0,.025.006.049.009.071a.654.654,0,0,0-.214.036c.019-.041.037-.082.056-.122m.118-.139c-.11-.008-.22-.016-.329-.03a.7.7,0,0,1,.107-.028.029.029,0,0,0,.007-.055l.009,0a.66.66,0,0,1,.154.048.114.114,0,0,1,.051.067m-.946.79c.01,0,.022-.008.024-.021a1.1,1.1,0,0,1,.191-.524.813.813,0,0,1,.246-.207,1.4,1.4,0,0,0,.187.059,2.067,2.067,0,0,0-.243.415,1.076,1.076,0,0,0-.13.525.029.029,0,0,0,.054.011.823.823,0,0,0,.032-.085.906.906,0,0,0-.01.265c.007.051.084.077.107.021a5.3,5.3,0,0,0,.133-.529c.02-.068.048-.134.073-.2a.6.6,0,0,1,.355-.183.054.054,0,0,0,.054-.009,1.338,1.338,0,0,1-.073.589.619.619,0,0,1-.772.365.41.41,0,0,1-.228-.492" transform="translate(-17.343 -4.164)" fill="#0c1229"/>
      <path id="Tracé_108" data-name="Tracé 108" d="M39.178,9.978c.009-.011-.008-.026-.018-.015a1.3,1.3,0,0,0-.343,1.012.012.012,0,0,0,.024,0,1.6,1.6,0,0,1,.337-.995" transform="translate(-17.557 -4.506)" fill="#0c1229"/>
      <path id="Tracé_109" data-name="Tracé 109" d="M25.9,5.311a.091.091,0,0,0-.076.051c-.024.056-.05.115-.077.175a.214.214,0,0,0-.119.147.418.418,0,0,0,.023.2.1.1,0,0,0,0,.013s0,0,.005.007a.223.223,0,0,1,0,.14.093.093,0,0,0,.022.111.5.5,0,0,0,.735-.212.49.49,0,0,0-.511-.632m-.061.718a.516.516,0,0,0-.015-.19l-.008-.032c.014-.024.032-.044.044-.069,0,0,.007.007.011,0s.021-.022.03-.034a.232.232,0,0,0,.005.234.058.058,0,0,0,.09,0l.034-.051a.033.033,0,0,0,.043-.042s0-.013,0-.019l.084-.122a.062.062,0,0,0-.051-.1.168.168,0,0,0-.064.03c.009-.022,0-.05-.03-.039a.232.232,0,0,0-.091.071.123.123,0,0,0,0-.05c.016-.042.033-.082.049-.122a.281.281,0,1,1-.126.527" transform="translate(-11.595 -2.402)" fill="#0c1229"/>
      <path id="Tracé_110" data-name="Tracé 110" d="M18.978,3.093c.059-.161,0-.537-.241-.473a.534.534,0,0,0-.3.243c-.01.018-.02.039-.031.061a.192.192,0,0,1,.009-.145c.009-.015-.015-.031-.025-.017a.325.325,0,0,0-.1.244.4.4,0,0,0,.17.272.339.339,0,0,0,.517-.183m-.2-.3a.235.235,0,0,1-.083.365.178.178,0,0,1-.175-.05c.008-.028.02-.053.029-.08a.1.1,0,0,0,.033.057c.089.071.283-.033.2-.14a.024.024,0,0,0-.039,0c-.015.019-.011.036-.033.037l-.041,0c-.049,0,0-.068.034-.061s.052-.052.013-.064a.125.125,0,0,0-.065,0,.408.408,0,0,1,.122-.071" transform="translate(-8.274 -1.182)" fill="#0c1229"/>
      <path id="Tracé_111" data-name="Tracé 111" d="M21.416,5.875a.608.608,0,0,0,.047.09.043.043,0,0,0,.059.011.448.448,0,0,0,.2-.439.054.054,0,0,0-.056-.049c-.1,0-.2,0-.3.007a.068.068,0,0,0-.062.071.905.905,0,0,0,.055.3c.011.026.038.023.054.006m.094,0a.583.583,0,0,1-.067-.121.964.964,0,0,0,0-.132l.18-.022a.318.318,0,0,1-.114.275" transform="translate(-9.64 -2.483)" fill="#0c1229"/>
      <path id="Tracé_112" data-name="Tracé 112" d="M27.59,9.5a.061.061,0,0,0,.08.053.535.535,0,0,0,.378-.7.064.064,0,0,0-.065-.042.581.581,0,0,0-.191.075l0-.009c.015-.024-.025-.049-.041-.027a1.141,1.141,0,0,0-.085.138.287.287,0,0,0-.08.214s0,0,0,0a.7.7,0,0,0,0,.29m.347-.541a.4.4,0,0,1-.239.448.886.886,0,0,1-.005-.209.033.033,0,0,0,.035.031.035.035,0,0,0,0-.069.033.033,0,0,0-.031.036c0-.011,0-.022,0-.033a.5.5,0,0,1,.242-.2" transform="translate(-12.477 -3.989)" fill="#0c1229"/>
      <path id="Tracé_113" data-name="Tracé 113" d="M20.585,54.747a1.043,1.043,0,0,0,.177-.52.956.956,0,0,0-.418-.91c-.041-.024-.091.033-.061.07s.043.058.065.087c-.1-.02-.189-.045-.284-.074,0-.011,0-.022,0-.034a.04.04,0,0,0-.079-.015c-.041.163-.1.32-.135.484-.013.055-.031.108-.041.159-.008-.007-.014-.016-.026-.017a.881.881,0,0,0,.024-.088c.023-.086.044-.172.066-.258.036-.142.066-.284.089-.429a.425.425,0,0,0,.168.025c.036,0,.041-.061,0-.064a.312.312,0,0,1-.261-.2.063.063,0,0,0-.078-.037.787.787,0,0,0-.515.419c-.077.146-.142.425-.019.566-.033.124-.4.205-.474.258a.4.4,0,0,0-.133.288c-.013.145.088.448.281.4.045.033.09.063.12.083.009.005.016,0,.025,0a.406.406,0,0,0,.2.488.351.351,0,0,0,.38-.094c0,.009.009.018.021.016.085-.014.174-.014.26-.027.051-.008.143,0,.181-.048a.969.969,0,0,0,.109-.231.551.551,0,0,0,.042-.135.332.332,0,0,0,.308-.157m-.545.353c-.034.076-.087.081-.162.11s-.131.061-.2.086a.174.174,0,0,0,.013-.11c-.007-.034-.056-.053-.073-.015a.23.23,0,0,1-.3.13c-.172-.071-.147-.323-.1-.462a.05.05,0,0,0-.09-.044.6.6,0,0,0-.026.08c-.042-.081-.174-.239-.149-.3a.385.385,0,0,1,.26-.225.255.255,0,0,0-.009.068.029.029,0,0,0,.051.017.3.3,0,0,0,.054-.108h0a.017.017,0,0,0,.015-.013c.023-.134.059-.266.091-.4,0-.009-.011-.011-.014,0l-.048.181c.011-.061.023-.124.036-.186,0-.009-.013-.014-.016,0-.036.093-.076.185-.113.278-.012.031-.024.06-.034.09l-.025,0a.489.489,0,0,0-.308.12.471.471,0,0,0-.114.159.287.287,0,0,1-.011-.042c-.027-.255.2-.3.392-.36a.253.253,0,0,0,.173-.232h0a.6.6,0,0,0,0-.191.684.684,0,0,1,.068-.315.565.565,0,0,1,.061-.079c-.01.1-.021.192-.031.288a.934.934,0,0,0,0,.388.032.032,0,0,0,.058,0,.8.8,0,0,0,.045-.324c0-.153,0-.306.006-.458a.673.673,0,0,1,.251-.16.365.365,0,0,0,.091.1c-.043.1-.076.2-.111.3.011-.087.026-.175.032-.261a.057.057,0,0,0-.112-.023,6.41,6.41,0,0,0-.215.979c-.011.077.1.148.148.072a.751.751,0,0,0,.057-.1.108.108,0,0,0,.12-.02.231.231,0,0,0,.021.072.045.045,0,0,0,.062.012.242.242,0,0,0,.053-.065.1.1,0,0,0,.021.039c.082.071.229.009.152-.1,0-.005-.011,0-.015,0a1.437,1.437,0,0,1,.016-.216c.008-.108.011-.215.01-.323.054.019.107.038.16.061a5.314,5.314,0,0,0-.079.75c0,.087.122.1.159.037,0,.019-.005.038,0,.057a.058.058,0,0,0,.044.054,1.484,1.484,0,0,0-.117.217.038.038,0,0,0,.009.042c-.054.013-.112.021-.174.038s-.049.107.008.111h.011a1.632,1.632,0,0,0-.106.2" transform="translate(-8.441 -23.944)" fill="#0c1229"/>
      <path id="Tracé_114" data-name="Tracé 114" d="M21.966,58.138a.818.818,0,0,0-.124-.007c0-.008,0-.016,0-.024.019-.061-.077-.09-.1-.036a.8.8,0,0,0-.027.085.184.184,0,0,0-.122.12.19.19,0,0,0,.09.217c0,.018,0,.033,0,.052a.086.086,0,0,0,.129.042.589.589,0,0,0,.219-.347.086.086,0,0,0-.067-.1m-.145.162h.008s0,.01-.006.015,0-.009,0-.014" transform="translate(-9.765 -26.26)" fill="#0c1229"/>
      <path id="Tracé_115" data-name="Tracé 115" d="M5.276,52.341c-.023-.015-.053.016-.029.034a30.869,30.869,0,0,0,2.859,2.054c.023.014.045-.021.025-.038a30.728,30.728,0,0,0-2.855-2.05" transform="translate(-2.37 -23.678)" fill="#0c1229"/>
      <path id="Tracé_116" data-name="Tracé 116" d="M6.88,52.615a.027.027,0,0,0-.03.045c.359.3.742.565,1.1.862s.681.644,1.05.928c.033.025.083-.014.056-.05A6.788,6.788,0,0,0,6.88,52.615" transform="translate(-3.095 -23.803)" fill="#0c1229"/>
      <path id="Tracé_117" data-name="Tracé 117" d="M7.93,52.814a22.524,22.524,0,0,0,1.965,1.678.023.023,0,0,0,.031-.035,22.7,22.7,0,0,0-1.973-1.668c-.018-.014-.039.011-.022.025" transform="translate(-3.585 -23.881)" fill="#0c1229"/>
      <path id="Tracé_118" data-name="Tracé 118" d="M12.571,55.292a26.531,26.531,0,0,0,2.989,1.67c.021.009.043-.02.023-.034a26.643,26.643,0,0,0-3-1.651c-.01,0-.017.01-.008.015" transform="translate(-5.686 -25.008)" fill="#0c1229"/>
      <path id="Tracé_119" data-name="Tracé 119" d="M13.314,54.924a21.081,21.081,0,0,0,2.173,1.455.032.032,0,0,0,.034-.052,21.164,21.164,0,0,0-2.166-1.466c-.036-.023-.077.038-.042.062" transform="translate(-6.018 -24.819)" fill="#0c1229"/>
      <path id="Tracé_120" data-name="Tracé 120" d="M14.048,54.707c.567.446,1.129.914,1.726,1.321.014.01.032-.009.018-.021-.546-.472-1.143-.895-1.72-1.328-.019-.014-.043.013-.024.028" transform="translate(-6.353 -24.736)" fill="#0c1229"/>
      <path id="Tracé_121" data-name="Tracé 121" d="M15.709,55.75q-.347-.293-.708-.571c-.014-.01-.031.009-.018.02.233.195.47.383.711.567.011.008.025-.007.014-.016" transform="translate(-6.777 -24.963)" fill="#0c1229"/>
      <path id="Tracé_122" data-name="Tracé 122" d="M28.611,53.979a9.576,9.576,0,0,0,.655-1.544.036.036,0,0,0,.037-.02,15.5,15.5,0,0,0,1.13-3.235c.006-.025-.03-.031-.038-.008-.325,1.01-.79,2.075-1.042,3.053,0-.02-.023-.027-.032-.011l-.093.163a.034.034,0,0,0,0,.033h0a9.648,9.648,0,0,0-.657,1.551c-.008.029.032.038.046.016" transform="translate(-12.923 -22.241)" fill="#0c1229"/>
      <path id="Tracé_123" data-name="Tracé 123" d="M32.243,55.415c-.007.033.036.043.052.018a11.462,11.462,0,0,0,.916-2.251c.006-.017-.019-.03-.026-.013a11.37,11.37,0,0,0-.941,2.246" transform="translate(-14.587 -24.051)" fill="#0c1229"/>
      <path id="Tracé_124" data-name="Tracé 124" d="M33.275,54.24c0-.011-.016-.018-.02-.007-.12.332-.268.651-.419.969a5.284,5.284,0,0,0-.469.957.033.033,0,0,0,.056.028,2.988,2.988,0,0,0,.492-.946c.138-.327.246-.665.36-1" transform="translate(-14.643 -24.534)" fill="#0c1229"/>
      <path id="Tracé_125" data-name="Tracé 125" d="M33.148,55.648l.2-.471c.187-.449.364-.9.549-1.351.006-.015-.016-.026-.022-.011-.324.741-.652,1.48-.968,2.225-.019.044.045.076.066.033s.048-.1.072-.155q.046-.015.051-.11c.021-.045.044-.09.064-.136a.019.019,0,0,0-.008-.023" transform="translate(-14.885 -24.344)" fill="#0c1229"/>
      <path id="Tracé_126" data-name="Tracé 126" d="M34.416,54.167a.033.033,0,0,0-.059-.03c-.164.306-.32.614-.472.925a4.708,4.708,0,0,0-.379.835.031.031,0,0,0,.053.026,4.713,4.713,0,0,0,.422-.814c.151-.312.3-.625.435-.943" transform="translate(-15.159 -24.485)" fill="#0c1229"/>
      <path id="Tracé_127" data-name="Tracé 127" d="M34.989,53.912a16.088,16.088,0,0,0-.938,1.961c-.01.028.033.037.047.015a16.1,16.1,0,0,0,.926-1.96.019.019,0,0,0-.034-.017" transform="translate(-15.405 -24.387)" fill="#0c1229"/>
      <path id="Tracé_128" data-name="Tracé 128" d="M35.682,53.721c.016-.031-.032-.054-.048-.024q-.286.519-.586,1.029a3.387,3.387,0,0,0-.473.931.035.035,0,0,0,.06.03,3.428,3.428,0,0,0,.514-.91c.174-.354.35-.706.533-1.056" transform="translate(-15.642 -24.287)" fill="#0c1229"/>
      <path id="Tracé_129" data-name="Tracé 129" d="M36,54.781c-.108.2-.218.4-.323.6-.06.116-.118.232-.177.348-.025.049-.111.3-.164.308.015,0,.014-.03,0-.031l-.024,0a.021.021,0,0,0-.022.01c-.018.045-.019.044.007.085a.03.03,0,0,0,.027.013c.175-.034.228-.292.3-.434.144-.292.283-.587.42-.883A.022.022,0,0,0,36,54.781" transform="translate(-15.958 -24.779)" fill="#0c1229"/>
      <path id="Tracé_130" data-name="Tracé 130" d="M10.715,13.025c.012-.018-.019-.039-.032-.021s-.023.039-.035.057c.117-.385.243-.767.392-1.146,0-.011-.011-.02-.016-.008a14.267,14.267,0,0,0-.606,1.584,1.926,1.926,0,0,0-.153.534c-.056.227-.1.454-.139.685a.027.027,0,0,0,.053.011l.1-.381s.009,0,.01-.008l.018-.093c.088-.324.177-.647.272-.968a2.083,2.083,0,0,1,.133-.247" transform="translate(-4.581 -5.385)" fill="#0c1229"/>
      <path id="Tracé_131" data-name="Tracé 131" d="M11.307,11.7a.031.031,0,0,0,.048-.008,7.743,7.743,0,0,1,.979-1.359c.011-.011-.007-.025-.018-.015a4.064,4.064,0,0,0-.964,1.229c.015-.053.027-.093.034-.111s-.02-.024-.026-.009a9.5,9.5,0,0,0-.429,1.244c-.057.206-.277.613-.141.812a.034.034,0,0,0,.04.013l.032-.012c.023-.009.024-.047,0-.05s.29-1.183.45-1.733" transform="translate(-4.862 -4.666)" fill="#0c1229"/>
      <path id="Tracé_132" data-name="Tracé 132" d="M12.1,12.021c.071-.093.135-.193.2-.29.115-.177.223-.356.326-.54.015-.027-.027-.055-.046-.031-.117.152-.229.306-.336.465a2.156,2.156,0,0,0-.291.487.03.03,0,0,0,.047.031.848.848,0,0,0,.07-.083c-.174.456-.361.912-.5,1.379-.006.021.028.032.036.012.195-.461.343-.947.5-1.421,0,0,0-.007-.006-.01" transform="translate(-5.232 -5.045)" fill="#0c1229"/>
      <path id="Tracé_133" data-name="Tracé 133" d="M12.484,13.257a2.92,2.92,0,0,0-.53,1.32.019.019,0,0,0,.038.008,6.515,6.515,0,0,1,.516-1.312c.008-.014-.015-.03-.024-.016" transform="translate(-5.409 -5.995)" fill="#0c1229"/>
      <path id="Tracé_134" data-name="Tracé 134" d="M11.918,11.6a.014.014,0,0,0-.025-.013.3.3,0,0,1-.043.05c.005-.018.011-.035.016-.053.24-.3.471-.6.694-.906.019-.027-.018-.06-.04-.034-.32.37-.639.746-.928,1.14a.044.044,0,0,0,.047.07.435.435,0,0,0,.1-.056c-.2.532-.388,1.064-.536,1.613a.021.021,0,0,0,.039.013c.226-.549.4-1.115.579-1.682a.489.489,0,0,0,.1-.142m-.166.128.019-.023-.007.019a.094.094,0,0,1-.011,0" transform="translate(-5.067 -4.813)" fill="#0c1229"/>
    </g>
  </g>
</svg>
