<svg xmlns="http://www.w3.org/2000/svg" width="14.607" height="14.609" viewBox="0 0 14.607 14.609">
  <g id="instagram_2_" data-name="instagram (2)" transform="translate(-0.449)" opacity="0.901">
    <path id="Tracé_1502" data-name="Tracé 1502" d="M15.019,4.3a5.338,5.338,0,0,0-.34-1.772A3.742,3.742,0,0,0,12.541.385a5.352,5.352,0,0,0-1.772-.34C9.987.009,9.739,0,7.755,0S5.524.009,4.744.043a5.34,5.34,0,0,0-1.772.34,3.565,3.565,0,0,0-1.3.845A3.6,3.6,0,0,0,.835,2.52a5.353,5.353,0,0,0-.34,1.772C.458,5.074.449,5.323.449,7.306s.009,2.232.043,3.011a5.338,5.338,0,0,0,.34,1.772,3.742,3.742,0,0,0,2.138,2.138,5.353,5.353,0,0,0,1.772.34c.779.034,1.027.043,3.011.043s2.232-.008,3.011-.043a5.337,5.337,0,0,0,1.772-.34,3.737,3.737,0,0,0,2.138-2.138,5.356,5.356,0,0,0,.34-1.772c.034-.779.043-1.027.043-3.011S15.053,5.074,15.019,4.3ZM13.7,10.26a4,4,0,0,1-.251,1.356A2.423,2.423,0,0,1,12.065,13a4.019,4.019,0,0,1-1.356.251c-.771.034-1,.043-2.951.043s-2.183-.008-2.951-.043A4,4,0,0,1,3.452,13a2.248,2.248,0,0,1-.839-.545,2.271,2.271,0,0,1-.545-.839,4.019,4.019,0,0,1-.251-1.356c-.034-.771-.043-1-.043-2.951s.008-2.183.043-2.951a4,4,0,0,1,.251-1.356,2.221,2.221,0,0,1,.548-.839,2.268,2.268,0,0,1,.839-.545A4.021,4.021,0,0,1,4.81,1.37c.771-.034,1-.043,2.951-.043s2.183.009,2.951.043a4,4,0,0,1,1.356.251,2.246,2.246,0,0,1,.839.545,2.271,2.271,0,0,1,.545.839A4.021,4.021,0,0,1,13.7,4.361c.034.771.043,1,.043,2.951S13.737,9.489,13.7,10.26Zm0,0" transform="translate(0 0)" fill="#fff"/>
    <path id="Tracé_1503" data-name="Tracé 1503" d="M128.7,124.5a3.753,3.753,0,1,0,3.753,3.753A3.754,3.754,0,0,0,128.7,124.5Zm0,6.187a2.434,2.434,0,1,1,2.434-2.434A2.435,2.435,0,0,1,128.7,130.687Zm0,0" transform="translate(-120.947 -120.947)" fill="#fff"/>
    <path id="Tracé_1504" data-name="Tracé 1504" d="M364.2,89.478a.876.876,0,1,1-.876-.876A.876.876,0,0,1,364.2,89.478Zm0,0" transform="translate(-351.669 -86.073)" fill="#fff"/>
  </g>
</svg>
