<svg xmlns="http://www.w3.org/2000/svg" xmlns:xlink="http://www.w3.org/1999/xlink" width="86" height="86" viewBox="0 0 86 86">
  <defs>
    <clipPath id="clip-path">
      <rect id="Rectangle_40" data-name="Rectangle 40" width="59.945" height="36.506" fill="#151c36"/>
    </clipPath>
  </defs>
  <g id="Groupe_82" data-name="Groupe 82" transform="translate(-0.477 -0.459)">
    <g id="Groupe_50" data-name="Groupe 50" transform="translate(0.477 0.459)">
      <g id="Ellipse_2" data-name="Ellipse 2" fill="none" stroke="#151c36" stroke-width="1">
        <circle cx="43" cy="43" r="43" stroke="none"/>
        <circle cx="43" cy="43" r="42.5" fill="none"/>
      </g>
    </g>
    <g id="Groupe_52" data-name="Groupe 52" transform="translate(13.067 25.054)">
      <g id="Groupe_51" data-name="Groupe 51" clip-path="url(#clip-path)">
        <path id="Tracé_1613" data-name="Tracé 1613" d="M59.885,29.349a.952.952,0,0,0-.1-.865A8.567,8.567,0,0,0,52.673,24.7c-.076,0-.151,0-.227,0V23.586a1.122,1.122,0,0,0-.922-1.1l-1.849-.336-1.909-7.709a1.122,1.122,0,0,0-.5-.686l-.656-.4c.1-.065.2-.133.289-.207a1.122,1.122,0,0,0,.423-.878V8.3a1.123,1.123,0,0,0-.02-.213l-.1-.516a1.123,1.123,0,0,0-.432-.688,3.88,3.88,0,0,0-3.024-.692A3.83,3.83,0,0,0,41.3,7.8l-5.423.578a1.684,1.684,0,0,0,.176,3.358,1.716,1.716,0,0,0,.18-.01l4.589-.489a3.825,3.825,0,0,0,.8,1.439l0,.012c1.332,3.064,4.293,11.773,2.03,15.225a3.58,3.58,0,0,1-3.268,1.464H34.11a4.662,4.662,0,0,1-4.126-2.1c-.8-1.4-.612-3.257.541-5.4a1.122,1.122,0,0,0,.567-.976V15.174a1.123,1.123,0,0,0-1.123-1.123H10.608a1.123,1.123,0,0,0-1.123,1.123v4.865C7.2,20.873,3.064,23.269.094,30.046A1.122,1.122,0,0,0,0,30.5v2.171A1.123,1.123,0,0,0,1.123,33.79H2.815a7.613,7.613,0,0,0,15.215,0H44.424a7.614,7.614,0,1,0,14.393-3.736l.427-.117a.952.952,0,0,0,.642-.588M13.194,22.978h4.818a.645.645,0,0,1,0,1.291H13.194a.645.645,0,1,1,0-1.291M10.423,36.462A2.956,2.956,0,0,1,7.484,33.79h5.877a2.956,2.956,0,0,1-2.939,2.672m7.59-7.5H13.194a.645.645,0,1,1,0-1.291h4.818a.645.645,0,0,1,0,1.291m2.173-2.345H11.022a.645.645,0,1,1,0-1.291h9.164a.645.645,0,1,1,0,1.291m31.847,9.849A2.952,2.952,0,0,1,49.2,32.686l4.854-1.328a2.951,2.951,0,0,1-2.019,5.1" transform="translate(0 -4.617)" fill="#151c36"/>
        <path id="Tracé_1614" data-name="Tracé 1614" d="M51.011,8.028H39.938a.826.826,0,0,1-.826-.826V.826A.826.826,0,0,1,39.938,0H51.011a.826.826,0,0,1,.826.826V7.2a.826.826,0,0,1-.826.826" transform="translate(-29.496 0)" fill="#e96328"/>
      </g>
    </g>
  </g>
</svg>
