<svg xmlns="http://www.w3.org/2000/svg" xmlns:xlink="http://www.w3.org/1999/xlink" width="112" height="112" viewBox="0 0 112 112">
  <defs>
    <clipPath id="clip-path">
      <rect id="Rectangle_40" data-name="Rectangle 40" width="78.197" height="47.621" fill="#151c36"/>
    </clipPath>
  </defs>
  <g id="Groupe_82" data-name="Groupe 82" transform="translate(-0.477 -0.459)">
    <g id="Groupe_50" data-name="Groupe 50" transform="translate(0.477 0.459)">
      <g id="Ellipse_2" data-name="Ellipse 2" fill="none" stroke="#151c36" stroke-width="1">
        <circle cx="56" cy="56" r="56" stroke="none"/>
        <circle cx="56" cy="56" r="55.5" fill="none"/>
      </g>
    </g>
    <g id="Groupe_52" data-name="Groupe 52" transform="translate(16.901 32.542)">
      <g id="Groupe_51" data-name="Groupe 51" clip-path="url(#clip-path)">
        <path id="Tracé_1613" data-name="Tracé 1613" d="M78.119,36.421a1.242,1.242,0,0,0-.135-1.128,11.176,11.176,0,0,0-9.274-4.936c-.1,0-.2,0-.3,0V28.9a1.464,1.464,0,0,0-1.2-1.441L64.8,27.024,62.308,16.968a1.464,1.464,0,0,0-.655-.9l-.856-.527c.13-.084.256-.173.377-.269a1.464,1.464,0,0,0,.552-1.146V8.962a1.465,1.465,0,0,0-.027-.277l-.13-.674a1.465,1.465,0,0,0-.563-.9,5.062,5.062,0,0,0-3.945-.9,5,5,0,0,0-3.186,2.095L46.8,9.059a2.2,2.2,0,0,0,.23,4.381,2.239,2.239,0,0,0,.235-.013l5.986-.637A4.989,4.989,0,0,0,54.3,14.668c0,.005,0,.01.005.015,1.738,4,5.6,15.358,2.648,19.861-.843,1.285-2.237,1.91-4.263,1.91H44.5a6.081,6.081,0,0,1-5.382-2.745c-1.045-1.824-.8-4.249.706-7.038a1.463,1.463,0,0,0,.74-1.273V17.93A1.464,1.464,0,0,0,39.1,16.466H13.837a1.464,1.464,0,0,0-1.464,1.464v6.346C9.4,25.364,4,28.49.123,37.33A1.463,1.463,0,0,0,0,37.917v2.832a1.465,1.465,0,0,0,1.464,1.464H3.672a9.931,9.931,0,0,0,19.848,0H57.95A9.932,9.932,0,1,0,76.725,37.34l.556-.152a1.241,1.241,0,0,0,.838-.767M17.211,28.11H23.5a.842.842,0,0,1,0,1.684H17.211a.842.842,0,1,1,0-1.684M13.6,45.7a3.856,3.856,0,0,1-3.834-3.486H17.43A3.856,3.856,0,0,1,13.6,45.7m9.9-9.789H17.211a.842.842,0,1,1,0-1.684H23.5a.842.842,0,1,1,0,1.684m2.834-3.059H14.377a.842.842,0,1,1,0-1.683H26.331a.842.842,0,1,1,0,1.683M67.874,45.7a3.851,3.851,0,0,1-3.7-4.925l6.332-1.732A3.849,3.849,0,0,1,67.874,45.7" transform="translate(0 -4.159)" fill="#151c36"/>
        <path id="Tracé_1614" data-name="Tracé 1614" d="M54.633,10.472H40.19a1.077,1.077,0,0,1-1.078-1.078V1.078A1.077,1.077,0,0,1,40.19,0H54.633a1.077,1.077,0,0,1,1.078,1.078V9.395a1.077,1.077,0,0,1-1.078,1.078" transform="translate(-26.568)" fill="#e96328"/>
      </g>
    </g>
  </g>
</svg>
