<svg xmlns="http://www.w3.org/2000/svg" width="86" height="86" viewBox="0 0 86 86">
  <g id="Groupe_105" data-name="Groupe 105" transform="translate(4266 -2638)">
    <g id="Groupe_49" data-name="Groupe 49" transform="translate(-4266 2638)">
      <g id="Ellipse_2" data-name="Ellipse 2" fill="none" stroke="#3c3c3c" stroke-width="1">
        <circle cx="43" cy="43" r="43" stroke="none"/>
        <circle cx="43" cy="43" r="42.5" fill="none"/>
      </g>
    </g>
    <g id="mail" transform="translate(-4250 2617.85)">
      <path id="Tracé_1632" data-name="Tracé 1632" d="M19.635,77.645c0-11.862.01-13.328,0-13.333s-.344,0-4.466,0a1.607,1.607,0,0,1-1.622-1.5A1.575,1.575,0,0,1,15.12,61.16c4.164,0,4.494,0,4.515,0s0-1.341,0-11.653A1.576,1.576,0,0,1,21.21,47.93H38.957a22.575,22.575,0,1,0,0,31.29H21.21a1.576,1.576,0,0,1-1.575-1.575ZM13.44,54.44h2.471a1.607,1.607,0,0,1,1.622,1.5A1.575,1.575,0,0,1,15.96,57.59H13.489a1.607,1.607,0,0,1-1.622-1.5A1.575,1.575,0,0,1,13.44,54.44Zm1.68,16.59H10.129a1.607,1.607,0,0,1-1.622-1.5A1.575,1.575,0,0,1,10.08,67.88h4.991a1.607,1.607,0,0,1,1.622,1.5A1.575,1.575,0,0,1,15.12,71.03Z" transform="translate(0 0)" fill="#151c36"/>
      <path id="Tracé_1633" data-name="Tracé 1633" d="M263.046,137H236.212l13.614,10.5Z" transform="translate(-211.41 -85.92)" fill="#e96328"/>
      <path id="Tracé_1634" data-name="Tracé 1634" d="M233.624,170.637a1.575,1.575,0,0,1-1.941.014L217,159.331v20.993a1.575,1.575,0,0,0,1.575,1.575H246.4a1.575,1.575,0,0,0,1.575-1.575v-21.08Z" transform="translate(-194.215 -105.828)" fill="#e96328"/>
    </g>
  </g>
</svg>
