<svg xmlns="http://www.w3.org/2000/svg" width="86" height="86" viewBox="0 0 86 86">
  <g id="Groupe_104" data-name="Groupe 104" transform="translate(4303 -2507)">
    <g id="Groupe_49" data-name="Groupe 49" transform="translate(-4303 2507)">
      <g id="Ellipse_2" data-name="Ellipse 2" fill="none" stroke="#3c3c3c" stroke-width="1">
        <circle cx="43" cy="43" r="43" stroke="none"/>
        <circle cx="43" cy="43" r="42.5" fill="none"/>
      </g>
    </g>
    <g id="telephone" transform="translate(-4279.763 2530.254)">
      <g id="Groupe_102" data-name="Groupe 102" transform="translate(0.006)">
        <path id="Tracé_1629" data-name="Tracé 1629" d="M30.18,68.582a2.781,2.781,0,0,0-4.2,0c-.983.975-1.966,1.949-2.932,2.94a.579.579,0,0,1-.809.149c-.636-.347-1.313-.628-1.924-1.008a30.489,30.489,0,0,1-7.35-6.69,17.414,17.414,0,0,1-2.635-4.22.6.6,0,0,1,.149-.776c.983-.95,1.941-1.924,2.907-2.9a2.792,2.792,0,0,0-.008-4.3c-.768-.776-1.536-1.536-2.3-2.313-.793-.793-1.577-1.594-2.379-2.379a2.8,2.8,0,0,0-4.2.008c-.991.975-1.941,1.974-2.948,2.932a4.786,4.786,0,0,0-1.5,3.229,13.682,13.682,0,0,0,1.057,5.889,35.783,35.783,0,0,0,6.351,10.58A39.3,39.3,0,0,0,20.459,79.905a18.824,18.824,0,0,0,7.21,2.1A5.284,5.284,0,0,0,32.2,80.277c.842-.942,1.792-1.8,2.684-2.7A2.81,2.81,0,0,0,34.9,73.3Q32.55,70.932,30.18,68.582Z" transform="translate(-0.006 -42.327)" fill="#151c36"/>
        <path id="Tracé_1630" data-name="Tracé 1630" d="M246.807,107.744l3.048-.52A13.679,13.679,0,0,0,238.283,96l-.429,3.064a10.572,10.572,0,0,1,8.953,8.68Z" transform="translate(-218.21 -88.071)" fill="#e96328"/>
        <path id="Tracé_1631" data-name="Tracé 1631" d="M256.067,6.425A22.471,22.471,0,0,0,243.183,0l-.429,3.064a19.608,19.608,0,0,1,16.592,16.08l3.048-.52A22.636,22.636,0,0,0,256.067,6.425Z" transform="translate(-222.706)" fill="#e96328"/>
      </g>
    </g>
  </g>
</svg>
