<svg xmlns="http://www.w3.org/2000/svg" viewBox="0 0 750 500"><defs><style>.cls-1{isolation:isolate;}.cls-2{fill:#fcf4eb;}.cls-3{fill:#ca8741;}.cls-4{fill:#fff;}.cls-5{fill:#b25f14;}.cls-6{fill:#adadad;}.cls-7{fill:#96a19b;}.cls-8{fill:#79827d;}.cls-9{fill:#bf7a00;}.cls-10{fill:#f6c600;}.cls-11{fill:#ed9e00;}.cls-12{fill:#eaeaea;}.cls-13{fill:#dbba8f;}.cls-14{fill:#ffe7c7;}.cls-15{fill:#ecd5b3;}.cls-16{fill:#3b8944;}.cls-17{fill:#5ab16a;}.cls-18{fill:#175118;}.cls-19{fill:#2b6b2f;}.cls-20{fill:#b56b14;}.cls-21{fill:#ff6e41;}.cls-22{fill:#7c4208;}.cls-23{fill:#ce4520;}.cls-24{fill:#c6a209;}.cls-25{fill:#ff9f45;}.cls-26{fill:#bc7433;}.cls-27{opacity:0.34;}.cls-27,.cls-40{mix-blend-mode:overlay;}.cls-28{fill:#946724;}.cls-29{fill:#765216;}.cls-30{fill:#3f2805;}.cls-31{fill:#fcbe95;}.cls-32{fill:#d69270;}.cls-33{fill:#ed804a;}.cls-34{fill:#c1581e;}.cls-35{fill:#b26b4d;}.cls-36{opacity:0.44;}.cls-37{fill:#3a3a3a;}.cls-38{fill:#686868;}.cls-39{fill:#262626;}.cls-40{opacity:0.3;}.cls-41{fill:#4f3209;}.cls-42{fill:#cc7e6e;}.cls-43{fill:#a5594c;}.cls-44{fill:#ffde55;}.cls-45{fill:#f4b400;}.cls-46{fill:#f2ab99;}.cls-47{fill:#161616;}.cls-48{fill:#303030;}.cls-49{fill:#1e1e1e;}.cls-50{fill:#3a3331;}.cls-51{fill:#e05424;}.cls-52{fill:#ff9976;}.cls-53{fill:#f48771;}.cls-54{fill:#ea9b54;}.cls-55{fill:#c46f22;}.cls-56{fill:#7f4109;}.cls-57,.cls-59{fill:#602b2b;mix-blend-mode:multiply;}.cls-57{opacity:0.25;}.cls-58{fill:#c4c4c4;}.cls-59{opacity:0.35;}.cls-60{fill:#444;}.cls-61{fill:#b3bcb7;}.cls-62{fill:#404441;}.cls-63{fill:#555956;}.cls-64{fill:#cec7c0;}.cls-65{fill:#b7aea7;}.cls-66{fill:#9b948f;}.cls-67{fill:#fbbd96;}.cls-68{fill:#fe9a76;}.cls-69{fill:#c45f3f;}.cls-70{fill:#ff723f;}.cls-71{fill:#af3215;}.cls-72{fill:#dd5228;}</style></defs><g class="cls-1"><g id="BACKGROUND"><rect class="cls-2" width="750" height="500"/></g><g id="OBJECTS"><ellipse class="cls-3" cx="375" cy="404.31" rx="287.88" ry="20.55"/><path class="cls-4" d="M171.34,175.23H292c3.52-10.17-10.23-15.56-18.23-12.7-1.69-12.11-6.72-23.14-19.52-16.46-3.56-6.67-4.77-13.19-11.86-18.1-11-7.59-19.05-1.51-26.83,6.05-5,4.86-6.35,1.34-13.5,2.32-12,1.64-13.42,12.45-16.94,21.73-5.08-.4-8.48-1-12.21,3.26C170.09,164.57,168.48,171.24,171.34,175.23Z"/><path class="cls-4" d="M479.71,147.59h105.5c3.08-8.89-8.94-13.61-15.94-11.11-1.47-10.59-5.87-20.23-17.06-14.39-3.12-5.83-4.18-11.53-10.38-15.82-9.59-6.64-16.65-1.32-23.45,5.29-4.38,4.25-5.55,1.17-11.8,2-10.49,1.43-11.74,10.88-14.81,19-4.44-.36-7.42-.88-10.67,2.84C478.62,138.27,477.21,144.1,479.71,147.59Z"/><ellipse class="cls-5" cx="573.14" cy="396.89" rx="40.61" ry="5.88"/><path class="cls-6" d="M586.68,153.64c.09.06.2.1.31.16A1.82,1.82,0,0,1,586.68,153.64Z"/><path class="cls-6" d="M585,152.42l.37.34Z"/><path class="cls-6" d="M584.08,151.26a2.76,2.76,0,0,0,.28.39A3.16,3.16,0,0,1,584.08,151.26Z"/><path class="cls-6" d="M583.79,150.79c.07.14.16.28.24.41C584,151.07,583.86,150.93,583.79,150.79Z"/><path class="cls-7" d="M612,298.86l-.5,4.37-3,26.7-.15,1.33-.17,1.52c-6.44,1.79-11.2,1.15-14,.15-2-.68-2.92-.92-2.92-.92-.16-.76-.29-2.58-.41-3.85,0-.55-.09-1.13-.14-1.73-.52-7.69-.5-20.61-.44-27.92,0-3.13.07-5.24.07-5.42A58.63,58.63,0,0,0,612,298.86Z"/><path class="cls-8" d="M612,298.86l-.5,4.37c-3.8.86-8.8,0-11.62-.65a28,28,0,0,1-9.63-4.07c0-3.13.07-5.24.07-5.42A58.63,58.63,0,0,0,612,298.86Z"/><path class="cls-8" d="M608.27,331.26l-.17,1.52c-6.44,1.79-11.2,1.15-14,.15-2-.68-2.92-.92-2.92-.92-.16-.76-.29-2.58-.41-3.85,0-.55-.09-1.13-.14-1.73a21.68,21.68,0,0,0,5.1,3.29,23.6,23.6,0,0,0,8.83,1.79,15.11,15.11,0,0,0,2.33,0C607.32,331.49,607.8,331.33,608.27,331.26Z"/><path class="cls-7" d="M548.66,301l-.26-3.61-1.56-21.29-1.72-23.46c-.63.25-22,8.74-5.26,50.74.29.75.61,1.5.93,2.27l8.15-.82ZM555,278.73a4.91,4.91,0,0,1,3.09-4.56l5.93-2.35a41.68,41.68,0,0,0-13-12.32l.56,11.26.4,8.12,1.25,25.47,6.78-.7-4.93-23.92A5.65,5.65,0,0,1,555,278.73Z"/><path class="cls-8" d="M555.05,279.73,560,303.65l-6.78.7L552,278.88l-.4-8.12a67.76,67.76,0,0,1,6.73-5.68,40.55,40.55,0,0,1,5.69,6.74L558,274.17a4.91,4.91,0,0,0-3.09,4.56A5.65,5.65,0,0,0,555.05,279.73Z"/><path class="cls-8" d="M548.94,304.8l-8.15.82c-.32-.77-.64-1.52-.93-2.27a33,33,0,0,1,3.44-1.2c1.69-.39,3.4-.73,5.09-1.12a1.81,1.81,0,0,0,.27-.06Z"/><path class="cls-9" d="M551.57,350.87c-10,5-16.35,4.9-19,4.46a2.4,2.4,0,0,1-1.89-1.55s-1.72,3.78,3,4.43a35.72,35.72,0,0,0,7.71-.88,31.44,31.44,0,0,0,8.89-3.31c.73-.42,1.45-.88,2.15-1.38l-.15-2.08C552,350.66,551.8,350.75,551.57,350.87Zm10.57-3.14a1.85,1.85,0,0,1-1.38,1c-1.62.24-3.65.65-5.32,1l.14,2.85s1.78.15,4,.15c.62,0,1.29,0,1.94-.05a1.84,1.84,0,0,0,1.76-1.89A5.22,5.22,0,0,0,562.14,347.73Z"/><path class="cls-10" d="M562.25,346.47l-2.17-7.87a19.76,19.76,0,0,1-.4-2.67,21.21,21.21,0,0,1-.1-2.4l.4-29.88-6.78.7,1.73,35,.51,10.39c1.67-.36,3.7-.77,5.32-1a1.86,1.86,0,0,0,1.38-1A1.84,1.84,0,0,0,562.25,346.47Zm-10.59-4.42-2.72-37.25-8.15.82,3.33,33.13a8.54,8.54,0,0,1-4.86,8.58l-7.37,3.44a2.42,2.42,0,0,0,.65,4.57c2.28.36,7.24.52,14.83-2.56,1.32-.52,2.72-1.16,4.2-1.9a6.36,6.36,0,0,1,.71-.31Z"/><path class="cls-11" d="M551.66,342.05l.62,8.52a6.36,6.36,0,0,0-.71.31c-1.48.74-2.88,1.38-4.2,1.9l-.42.13c-2,.59-4.23,1.07-3.51-1.65.6-2.28,2.23-3.73,4-5.38Q549.55,343.94,551.66,342.05Z"/><path class="cls-11" d="M562.14,347.74a1.86,1.86,0,0,1-1.38,1c-1.62.25-3.65.66-5.32,1l-.51-10.39c1.06-.72,2.16-1.39,3.16-2.15.21-.17.94-.8,1.59-1.31a19.76,19.76,0,0,0,.4,2.67l2.17,7.87A1.84,1.84,0,0,1,562.14,347.74Z"/><path class="cls-10" d="M601.07,382.3c0,.15,0,.3,0,.46a27.8,27.8,0,0,1,3.17,5.74,3.75,3.75,0,0,1,.17,2.38,3.66,3.66,0,0,1-2,2.5c-4,1.85-11.18.57-11.18.57a3.84,3.84,0,0,1-2.7-2l0-.08-.42-1v0a9.4,9.4,0,0,1-.46-2.68,6.09,6.09,0,0,0-.32-1.67c-1.52-4.35.83-15,.83-15V331.26l6.12,1.49c2.79,1,7.46,1.82,13.9,0l2.65-.43s-2.47,9.68-4.93,20.89C603.49,363.93,601.17,376,601.07,382.3Z"/><path class="cls-9" d="M604.41,390.87a2.85,2.85,0,0,1-.52,4.1c-5.89,3.76-14.52.85-14.52.85-2.31-1.1-1.34-4.95-1.34-4.95v0a5.17,5.17,0,0,0,.42,1l0,.08a3.88,3.88,0,0,0,2.7,2s7.15,1.26,11.18-.58a3.66,3.66,0,0,0,2-2.51Z"/><path class="cls-11" d="M606.94,348.24c-2.33,10.69-5.77,27.77-5.87,34.06a1.28,1.28,0,0,0-.21-.14,7.32,7.32,0,0,1-1.9-2.05c-1.16-1.71-.4-3.34-.2-5.27C599.07,371.85,606.27,349.56,606.94,348.24Z"/><path class="cls-9" d="M601.06,383.29a.56.56,0,0,1-.44-.22,24.44,24.44,0,0,0-2.7-3.2.54.54,0,0,1,.76-.76,26.54,26.54,0,0,1,2.82,3.33.54.54,0,0,1-.13.75A.5.5,0,0,1,601.06,383.29Z"/><path class="cls-4" d="M606.85,157.94c-1-.28-1.58-.41-1.58-.41l.08.67s.63,9.78-10.61,11.21a5.48,5.48,0,0,1-.7,0c-1.69,0-7.67-.64-8.35-8.83-1.14.12-2.25.26-3.31.44-1.62,7.21-3.08,11.56-4.3,14.17.5.11,15.61,3.51,27.91-.63C605.58,171.7,605.58,166.66,606.85,157.94Zm3.56,1.11a119,119,0,0,1-.47,14.28s1,2,2,4.53a24.12,24.12,0,0,1,1.47,5.32,5.26,5.26,0,0,1,.36-.65,17.83,17.83,0,0,1,1.65-2.12,23,23,0,0,1,3.85-3.44c2.11-1.48,3.75-2.52,6.32-2.87.93-.13,1.86-.21,2.79-.26v-.08C626.59,165.85,616.66,161.22,610.41,159.05Zm-59.57,25.42a18.77,18.77,0,0,1,2.88.73,19.78,19.78,0,0,1,9.08,5.65,13,13,0,0,1,2,3.13,11.59,11.59,0,0,0,1.16,2.13,5.06,5.06,0,0,0,2.29,2h.39a74.33,74.33,0,0,1,3.93-19.78c.84-2.39,1.46-3.74,1.46-3.74l.09,0a89.37,89.37,0,0,1,4.6-12.82C557.31,167,550.84,184.47,550.84,184.47Zm75.55-4.11a1.7,1.7,0,0,1-1.67-.48c-.57-.53-.93-1.12-1.79-1.31-1-.24-1.91.63-2.74,1.2A14.44,14.44,0,0,0,617.8,182c-.33.36-.65.73-1,1.1a7.62,7.62,0,0,0-1.46,2.51,8.75,8.75,0,0,1-.43,1.44l0,0c.1.06.21.11.32.19a4.88,4.88,0,0,1,1.56,2.83l.14,0a5.84,5.84,0,0,1,.8-1.73,2.16,2.16,0,0,1,1.69-1v0c1-1.19,1.7-2.53,2.77-3.7.17-.2.35-.38.54-.57a17.17,17.17,0,0,1,3.67-2.75Zm5.12,3.25c-.55-1.45-2.91-1.17-4-.76a11.87,11.87,0,0,0-6.21,5.31l0,0a3.5,3.5,0,0,1,.71,1.59,10.23,10.23,0,0,1,.18,2h.1c.81-1.4,2-3,3.27-3.3l0-.16a8.25,8.25,0,0,1,5.38-4.46,3.74,3.74,0,0,1,.66-.09Z"/><path class="cls-12" d="M572.58,178.34a74.33,74.33,0,0,0-3.93,19.78h-.39a5.06,5.06,0,0,1-2.29-2,11.59,11.59,0,0,1-1.16-2.13,13,13,0,0,0-2-3.13,4.2,4.2,0,0,1,.51-.69,8.9,8.9,0,0,0,2.79-6.63c0-.81-.25-2.13.29-2.83.71-.9,1.18-.22,2.14-.08C570.82,180.94,571.66,179.66,572.58,178.34Z"/><path class="cls-12" d="M613.61,179.08c-.41-.3-1-.8-1.66-1.22a24.12,24.12,0,0,1,1.47,5.32,5.26,5.26,0,0,1,.36-.65,17.83,17.83,0,0,1,1.65-2.12C614.82,180,614.21,179.51,613.61,179.08Zm17.25,4.78h-.31c-1.75.06-3.55.2-5.33.14a12.17,12.17,0,0,0-3.93,4.17l0,0a3.5,3.5,0,0,1,.71,1.59,10.23,10.23,0,0,1,.18,2h.1c.81-1.4,2-3,3.27-3.3l0-.16A8.25,8.25,0,0,1,630.86,183.86Zm-12.33-1.42-.73-.43c-.33.36-.65.73-1,1.1a7.62,7.62,0,0,0-1.46,2.51,8.75,8.75,0,0,1-.43,1.44l0,0c.1.06.21.11.32.19a4.88,4.88,0,0,1,1.56,2.83l.14,0a5.84,5.84,0,0,1,.8-1.73,2.16,2.16,0,0,1,1.69-1v0c1-1.19,1.7-2.53,2.77-3.7A11.88,11.88,0,0,1,618.53,182.44Z"/><path class="cls-12" d="M583.82,169.68c1.93,3.77,8.91,6.53,12.85,4.93-2.5.49-6.38-1.08-8.31-2.54a35.89,35.89,0,0,1-4.86-4.76A4.71,4.71,0,0,0,583.82,169.68Z"/><path class="cls-13" d="M606,174.6c-.41-2.9-.41-7.94.86-16.66.9.24,2.13.61,3.56,1.1a119.12,119.12,0,0,1-.47,14.29c-.36,2.9-1,5.13-1.94,5.23C608,178.56,606.58,178.64,606,174.6Z"/><path class="cls-14" d="M604.17,181.83a54.2,54.2,0,0,1-7.89,1.78c-11.52,1.64-16.59-2.24-16.59-2.24s-4,13.75,9.18,14.33l.14-.09-1.77-3a2.61,2.61,0,0,1,1-3.57,2.66,2.66,0,0,1,1.3-.34,2.58,2.58,0,0,1,2.26,1.3l2.64,4.48.21-.07,0-5.54a2.6,2.6,0,0,1,2.09-2.54,2.39,2.39,0,0,1,.53-.06,2.63,2.63,0,0,1,2.6,2.62v3.88c.55-.15,1.1-.29,1.65-.41C605,188.43,604.17,181.83,604.17,181.83Z"/><path class="cls-13" d="M578.73,161.8c1.17-.29,2.39-.54,3.65-.75-1.62,7.22-3.08,11.57-4.3,14.17h0c-2.27,4.82-3.72,3.67-3.72,3.67-.79-.41-.71-2.1-.22-4.27A88.87,88.87,0,0,1,578.73,161.8Z"/><path class="cls-15" d="M620.81,246.74c-1,24-8.86,52.12-8.86,52.12a58.63,58.63,0,0,1-21.68-5.77,77.36,77.36,0,0,1-25.47-20c-.27-.43-.55-.86-.83-1.28a41.81,41.81,0,0,0-13-12.32l-.55-11.18a40.94,40.94,0,0,0,13.66-17,58.16,58.16,0,0,0,4.57-16.87c.17-1.42.26-2.59.3-3.42a16.16,16.16,0,0,0-.08-2.51,60.82,60.82,0,0,1-.24-10.39A71.34,71.34,0,0,1,574,174.6l.09,0c-.49,2.18-.57,3.86.22,4.27,0,0,1.45,1.14,3.72-3.66h0c.5.11,15.61,3.51,27.91-.63.57,3.89,1.92,4,2,4,1-.12,1.58-2.33,1.94-5.24,0,0,3,5.82,3.48,9.85-.56,1.25-.47,2.46-1,3.73l.06.1c-.75.48-.66,1.73-.66,2.54q0,.64,0,1.29l.05.69a7.39,7.39,0,0,0-1-.63,5.18,5.18,0,0,0-2.38-.55,5.39,5.39,0,0,0-3.48,1.27c-1.21.21-2.41.46-3.61.74,3.53-3.92,2.71-10.52,2.71-10.52a52.78,52.78,0,0,1-7.89,1.77c-11.52,1.65-16.59-2.24-16.59-2.24s-4,13.75,9.18,14.33l.14-.08.56.95c-7,3.49-11.78,8.23-10.61,13.25a6.9,6.9,0,0,0,2.1,3.5,9.22,9.22,0,0,0,2,1.42l8.93,10.2.48.18a1.55,1.55,0,0,0,0,.37,1.61,1.61,0,0,0,.7,1.33s-2,4.9,11,6.73v0s0,6,16.42.7l0,.08A93.39,93.39,0,0,1,620.81,246.74Z"/><path class="cls-13" d="M562.79,242.75a4.72,4.72,0,0,1,3.49.94,16.19,16.19,0,0,1,2.81,2.41,39.61,39.61,0,0,1,4.31,6c2.55,4.22,4.3,8.87,6.5,13.16A47.41,47.41,0,0,0,588.28,277a34.53,34.53,0,0,0,5.57,4.65,25.2,25.2,0,0,0,6.5,3.25c-4.8-1.1-9.07-3.95-12.65-7.31a45.81,45.81,0,0,1-8.76-11.87c-1.09-2.21-2.08-4.48-3.05-6.69s-2.07-4.4-3.21-6.55a39.32,39.32,0,0,0-4-6.06,15.82,15.82,0,0,0-2.58-2.53,7.35,7.35,0,0,0-1.56-.9A3.16,3.16,0,0,0,562.79,242.75Z"/><path class="cls-13" d="M573.14,245.52a43.5,43.5,0,0,0,3.83,3.61,45.67,45.67,0,0,0,4.14,3.2,42.06,42.06,0,0,0,9.18,4.86,32.38,32.38,0,0,0,10.12,2.09,27.46,27.46,0,0,0,5.2-.24,36.54,36.54,0,0,0,5.14-1,27.7,27.7,0,0,1-10.36,2.1,29.11,29.11,0,0,1-10.48-1.91,36.18,36.18,0,0,1-9.28-5.21A37.6,37.6,0,0,1,573.14,245.52Z"/><path class="cls-13" d="M620.81,246.74a21,21,0,0,1-11.55-.12,67.12,67.12,0,0,1-11.43-4.73c-2.94-1.57-4.72-3.36-7.15-5.54-.59-.53-4.17-3-2.59-4,.66-.44,2.28.94,3.1.95-1.13-1.38-1.83-3-3.1-4.26-2.63-2.68-6.09-5.38-7.93-8.74-.78-1.44-1.52-4.8-.41-6.25a1.86,1.86,0,0,1,1.31-.71,9.22,9.22,0,0,0,2,1.42l8.93,10.2.48.18a1.55,1.55,0,0,0,0,.37,1.61,1.61,0,0,0,.7,1.33s-2,4.9,11,6.73v0s0,6,16.42.7l0,.08A93.39,93.39,0,0,1,620.81,246.74Z"/><path class="cls-13" d="M590.83,250.76c-6.76-1.71-11.48-5.53-15.94-10.69-2.78-3.23-6.21-8-10.79-8.76a58.16,58.16,0,0,0,4.57-16.87c2.8,2.94,5,8.89,5.7,12.24,1.11,5.23,1.63,10.8,5.3,15.06A39.51,39.51,0,0,0,590.83,250.76Z"/><path class="cls-16" d="M645.24,183.15l.22.14c1.62,1.14,1,3,2.22,4.29,1.52,1.65,2.81,2.24,2.63,4.75a9.67,9.67,0,0,0-.2,2.78c.23,1.1.91,2.11.89,3.29,0,2.06-.85,4.52-2.61,5.65-.52-.81-1.17-1.54-1.65-2.46-.8-1.56-.39-3.7-.74-5.43-.44-2.3-1.48-4.72-3.58-5.94-1.83-1.07-3.84-1.42-5.45-2.87s-2.7-3.59-5.2-3.59h-.25v-.16c-.55-1.46-2.91-1.18-4-.77a12.06,12.06,0,0,0-6.21,5.31l0,0a2.14,2.14,0,0,0-1.1-.67,2,2,0,0,0-.71-.07v0a37.91,37.91,0,0,1,3.31-4.26,17.22,17.22,0,0,1,3.67-2.76,13.07,13.07,0,0,1,2.5-1c2.22-.64,4.5-1,6.3.8,1.34,1.3,1.7,2.82,3.9,2.85C641.11,183,643.4,182.07,645.24,183.15Z"/><path class="cls-17" d="M647.76,211.41c.41,1.81,2.16,3.27,1.94,5.29-.16,1.45-1.84,3.11-3.4,2.49a2.43,2.43,0,0,1-1.17-1.11c-.87-1.56-.88-4-3.21-3.9-1,0-1.64.83-2.65.73A3.49,3.49,0,0,1,637,213a7.69,7.69,0,0,1-.87-5.11,17.11,17.11,0,0,1,.56-2.67c.59-2.13,1.14-3.89-.8-5.46-1.32-1.07-1.28-2-.79-3.56,1-3.2,1.45-6.47-1.25-9.47a2.61,2.61,0,0,0-2.77-1c-1.6.45-3,2.34-4.07,3.06a1.78,1.78,0,0,0-1.45-.31l0-.16c.61-1.58,3.18-4.4,6-4.54h.25c2.5,0,3.53,2.07,5.2,3.59s3.62,1.8,5.45,2.87c2.1,1.22,3.14,3.64,3.58,5.94.35,1.73-.06,3.87.74,5.43.48.92,1.13,1.65,1.65,2.46a4.22,4.22,0,0,1,.78,2.73C649.06,208.48,647.33,209.54,647.76,211.41Z"/><path class="cls-17" d="M644.36,175.52A5.43,5.43,0,0,1,647,180a5.11,5.11,0,0,1-1.78,3.11c-1.84-1.08-4.13-.11-6.12-.12-2.2,0-2.56-1.55-3.9-2.85-1.8-1.76-4.08-1.44-6.3-.8a13.07,13.07,0,0,0-2.5,1l0,0a1.73,1.73,0,0,1-1.67-.48c-.57-.53-.93-1.12-1.79-1.32-1-.23-1.91.64-2.74,1.21a19.55,19.55,0,0,0-3.35,3.33,7.67,7.67,0,0,0-1.46,2.52,8.75,8.75,0,0,1-.43,1.44l0,0a2.77,2.77,0,0,0-2.18-.21,1.67,1.67,0,0,0-.23.12l-.06-.09c.49-1.27.4-2.49,1-3.73a5.26,5.26,0,0,1,.36-.65,21.73,21.73,0,0,1,5.5-5.57,13.7,13.7,0,0,1,6.32-2.87c.93-.13,1.86-.2,2.79-.26l.87-.06a5.57,5.57,0,0,1,4.58-3.48,5.72,5.72,0,0,1,3.85.44c1.08.72,1,1.84,1.54,2.86C640.36,175.63,642.58,174.76,644.36,175.52Z"/><path class="cls-16" d="M635.84,199.75c1.94,1.57,1.39,3.33.8,5.46a17.11,17.11,0,0,0-.56,2.67H636a3.5,3.5,0,0,0-1.86-1.5h0c-.78-.27-2.05,0-2.76-.58-1-.72-.75-1.83-.36-2.84.22-.57.51-1.11.68-1.56.62-1.52,0-2-.71-3.21a4.14,4.14,0,0,1-.4-.93,4.36,4.36,0,0,1,.36-2.94,9.26,9.26,0,0,0,.9-5,10.5,10.5,0,0,0-.44-2.48,4,4,0,0,1-.29-.92l0-.19a2.61,2.61,0,0,1,2.77,1c2.7,3,2.24,6.27,1.25,9.47C634.56,197.79,634.52,198.68,635.84,199.75Z"/><path class="cls-18" d="M634.11,206.37l0,.1s-.54,1.19-1.53,2.95c-.91-.92-2.68.17-2.68.17a2.49,2.49,0,0,1-2.86-.15v0l.84-5.18h0a10.61,10.61,0,0,0,.92-1.52,1.62,1.62,0,0,0,2.2.23h0c-.39,1-.59,2.12.36,2.84.71.55,2,.31,2.76.58Z"/><path class="cls-19" d="M631.8,189.31a9.26,9.26,0,0,1-.9,5,4.36,4.36,0,0,0-.36,2.94l-1.34.11a7.17,7.17,0,0,0-2.55-3.45c.79-1.43,2-4,.31-5.12,1-.72,2.47-2.61,4.07-3.06l0,.19a4,4,0,0,0,.29.92A10.5,10.5,0,0,1,631.8,189.31Z"/><path class="cls-17" d="M629.86,209.59s1.77-1.09,2.68-.17a41.12,41.12,0,0,1-7,9.35h0l1.52-9.32A2.49,2.49,0,0,0,629.86,209.59Z"/><path class="cls-19" d="M630.94,198.17c.72,1.22,1.33,1.69.71,3.21-.17.45-.46,1-.68,1.56h0a1.62,1.62,0,0,1-2.2-.23,7,7,0,0,0,.61-4.78,5.54,5.54,0,0,0-.17-.58l1.34-.11A4.14,4.14,0,0,0,630.94,198.17Z"/><path class="cls-20" d="M629.37,197.93a7,7,0,0,1-.61,4.78,10.61,10.61,0,0,1-.92,1.52h0c-3.54,4.93-12.05,9-21,11.14-.62.15-1.24.29-1.87.41a0,0,0,0,1,0,0,59.16,59.16,0,0,1-6.53,1h0c-1.45.12-2.87.19-4.23.19-4.67,0-8.46-.76-11.1-2.19h0a7.65,7.65,0,0,1-4.14-4.94c-1.17-5,3.6-9.76,10.61-13.24l1.62,2.76c-.35.17-.71.35-1,.53a3,3,0,0,0-.61-.06,4.06,4.06,0,0,0-3.9,2.95c-2.65,2.13-4,4.35-3.54,6.32l.06.23h0c.59,1.87,2.83,3.19,6.12,3.88l1,.17a31,31,0,0,0,6,.34h0a.33.33,0,0,0,.14,0,53.59,53.59,0,0,0,10.75-1.46l1.08-.26.45-.11A48.83,48.83,0,0,0,619,207.41l1-.54c4.37-2.66,6.85-5.65,6.24-8.19a3.8,3.8,0,0,0-1.31-2c.58-.84,1.14-1.69,1.65-2.59,0-.05,0-.09.08-.15a7.17,7.17,0,0,1,2.55,3.45A5.54,5.54,0,0,1,629.37,197.93Z"/><path class="cls-3" d="M627.84,204.24l-.84,5.19h0l-1.52,9.32h0c-2.7,2.56-5.92,4.58-9.55,4.89l-1.2-.5L607,220a1.75,1.75,0,0,0-2.43,1.62,1.72,1.72,0,0,0,.69,1.38l4.72,3.64a9.58,9.58,0,0,1-4.61.49,19.15,19.15,0,0,1-5-1.2L594.58,224a1.63,1.63,0,0,0-1.94.8c0,.12-.09.24-.13.35l-.48-.18-8.93-10.2h0v0c2.64,1.43,6.43,2.19,11.1,2.19,1.36,0,2.78-.06,4.23-.19h0a54.76,54.76,0,0,0,6.53-1s0,0,0,0c.63-.1,1.25-.25,1.87-.4a56.2,56.2,0,0,0,11.39-3.95C622.45,209.41,625.9,207,627.84,204.24Z"/><path class="cls-21" d="M626.65,193.91a.42.42,0,0,0-.08.15c-.51.89-1.07,1.74-1.65,2.59a26.44,26.44,0,0,0-2.95,5.09c-.12.31-.25.61-.4.92a17.8,17.8,0,0,0-1.6,4.17l0,0c-.3.18-.63.37-1,.54a6.13,6.13,0,0,0-1.82-3.09c.06-.29.08-.64.15-.91a20,20,0,0,1,1.06-3.26c.19-.46.38-.92.56-1.38.56-1.36,1.11-2.72,1.75-4.07.16-.36.34-.73.53-1.09s.53-1.1,1-1.83c.81-1.4,2-3,3.27-3.3a1.77,1.77,0,0,1,1.45.3C628.65,189.91,627.44,192.48,626.65,193.91Z"/><path class="cls-22" d="M626.23,198.68c.61,2.54-1.87,5.53-6.24,8.19l0-.05c.28-1.72,1.35-3.43,2-5.08a26.82,26.82,0,0,1,2.95-5.1A3.8,3.8,0,0,1,626.23,198.68Z"/><path class="cls-23" d="M622.24,191.78c-.44.73-.77,1.41-1,1.83s-.37.73-.53,1.09c-.64,1.35-1.19,2.71-1.75,4.07-.18.46-.37.92-.56,1.38a20,20,0,0,0-1.06,3.26c-.07.27-.09.62-.15.91A6,6,0,0,0,614.7,203a30.09,30.09,0,0,1,.84-7.73c.1-.35.18-.69.28-1l0-.12c.27-1.05.55-2.12.86-3.16,0,0,0,0,0,0,.07-.24.14-.48.23-.72a5.84,5.84,0,0,1,.8-1.73,2.16,2.16,0,0,1,1.69-1,2.18,2.18,0,0,1,.71.06,2.09,2.09,0,0,1,1.1.68,3.5,3.5,0,0,1,.71,1.59,10.23,10.23,0,0,1,.18,2Z"/><path class="cls-23" d="M619,207.41c-.55.32-1.13.62-1.73.91a50.41,50.41,0,0,1-9.65,3.55,4.83,4.83,0,0,1-.37-.8,1,1,0,0,0,0-.18,6.34,6.34,0,0,0-.4-2.23,6.12,6.12,0,0,1,1.68-4,6.13,6.13,0,0,1,4.48-1.94,2.68,2.68,0,0,1,.4,0,5.13,5.13,0,0,1,1.24.23,6,6,0,0,1,2.52,1.37A6.13,6.13,0,0,1,619,207.41Z"/><path class="cls-21" d="M617,190.16c-.09.24-.16.48-.23.72,0,0,0,0,0,0-.31,1-.59,2.11-.86,3.16l0,.12c-.1.35-.18.69-.28,1a30.09,30.09,0,0,0-.84,7.73,5.13,5.13,0,0,0-1.24-.23v-.23a17.41,17.41,0,0,0-.59-2.58l-.15-.77c-.21-1.27-.31-2.53-.44-3.81s-.27-2.53-.35-3.8c0-.22,0-.45-.05-.69s0-.32,0-.48,0-.54,0-.81c0-.81-.09-2.06.66-2.54a.57.57,0,0,1,.23-.12,2.69,2.69,0,0,1,2.18.2c.1.06.21.11.32.19a4.88,4.88,0,0,1,1.56,2.83Z"/><path class="cls-24" d="M613.47,202.49v.23h-.4a6.16,6.16,0,0,0-4.48,1.92,4.77,4.77,0,0,0,.19-1.31,5,5,0,0,0-.51-2.2,1.42,1.42,0,0,0,.29,0,5.35,5.35,0,0,0,4.18-2l.15.76A17.54,17.54,0,0,1,613.47,202.49Z"/><path class="cls-25" d="M612.73,199.14a5.32,5.32,0,0,1-4.18,2,1.42,1.42,0,0,1-.29,0,5,5,0,0,0-4.42-2.84h-.05l0-.09h0a5.13,5.13,0,0,1-.43-1.15,5.43,5.43,0,0,1-.15-1.29,3.44,3.44,0,0,1,0-.46,5.29,5.29,0,0,1,1.88-3.66,5.39,5.39,0,0,1,3.48-1.27,5.18,5.18,0,0,1,2.38.55,5.67,5.67,0,0,1,1,.61l0,0c.08,1.27.22,2.53.35,3.8S612.52,197.87,612.73,199.14Z"/><path class="cls-10" d="M608.77,203.32a4.79,4.79,0,0,1-.19,1.32,6.12,6.12,0,0,0-1.68,4,6.35,6.35,0,0,0-6-4.13,3.35,3.35,0,0,0-.71.05,1.75,1.75,0,0,0-.32,0,4.42,4.42,0,0,0-.5.1l-.27.06h0l-.2.07a1.55,1.55,0,0,1-.06-.23,4.65,4.65,0,0,1-.15-.76,5,5,0,0,1,0-.54,4.68,4.68,0,0,1,.17-1.26,4.92,4.92,0,0,1,1-1.95,5,5,0,0,1,3.88-1.83h.12a5.05,5.05,0,0,1,4.93,5Z"/><path class="cls-25" d="M607.3,210.89a1,1,0,0,1,0,.18,5.43,5.43,0,0,1-.08.92l-1.08.25a52.87,52.87,0,0,1-10.75,1.46.17.17,0,0,1-.14,0h0a6.39,6.39,0,0,1-.62-2.17c0-.21,0-.43,0-.64a6.66,6.66,0,0,1,.41-2.27,6.79,6.79,0,0,1,.81-1.47,6.41,6.41,0,0,1,3.13-2.3l.2-.07h0l.27-.06a4,4,0,0,1,.5-.1l.27,0a0,0,0,0,1,.05,0,1.53,1.53,0,0,1,.3,0,2.75,2.75,0,0,1,.41,0,6.35,6.35,0,0,1,6.36,6.36Z"/><path class="cls-22" d="M603.79,198.28h-.07a5,5,0,0,0-3.88,1.83v-4c.78-.23,1.56-.43,2.37-.62.33-.07.65-.15,1-.21a3.44,3.44,0,0,0,0,.46A5.31,5.31,0,0,0,603.79,198.28Z"/><path class="cls-20" d="M601.46,192.36c1.2-.28,2.4-.53,3.61-.74a5.25,5.25,0,0,0-1.88,3.66c-.34.06-.66.14-1,.21-.81.19-1.59.39-2.37.62l0-3.34C600.36,192.62,600.91,192.48,601.46,192.36Z"/><path class="cls-16" d="M599.84,198.52v1.59a4.92,4.92,0,0,0-1,1.95l-.52-.9-2-3.33-.31-.53h0l-1.45-2.46v-.43l0-5.53a2.62,2.62,0,0,1,2.09-2.55,3.17,3.17,0,0,1,.53-.05,2.58,2.58,0,0,1,1.84.77,2.62,2.62,0,0,1,.76,1.85v4.53l0,2.68Z"/><path class="cls-17" d="M598.93,204.85a6.41,6.41,0,0,0-3.13,2.3l-.46-.77-.7-1.19h0l-.47-.8-.6-1h0a4,4,0,0,0-1.63-2.76l-.74-1.25-1.62-2.77-.56-.95-1.77-3a2.61,2.61,0,0,1,1-3.57,2.6,2.6,0,0,1,3.56,1l2.64,4.48.21.34h0l1.45,2.46h0l.31.53,2,3.33.52.9a4.68,4.68,0,0,0-.17,1.26A5.16,5.16,0,0,0,598.93,204.85Z"/><path class="cls-22" d="M594.64,205.19l1.16,2a5.55,5.55,0,0,0-.51.81,4,4,0,0,0-2.82-1.14h-.16a4,4,0,0,0,1.29-3,4.41,4.41,0,0,0,0-.52l1.07,1.83Z"/><path class="cls-24" d="M594.61,211.53a6.39,6.39,0,0,0,.62,2.17,31,31,0,0,1-6-.34,3.09,3.09,0,0,1-.39-.6,3.84,3.84,0,0,0,1.13-1.62,3.74,3.74,0,0,0,.27-1.42,3.82,3.82,0,0,0-.43-1.79.11.11,0,0,0-.05-.09,3.94,3.94,0,0,1,2.51-1h.17a4,4,0,0,1,2.82,1.14,6.28,6.28,0,0,0-.3.65,6.66,6.66,0,0,0-.41,2.27C594.58,211.1,594.59,211.32,594.61,211.53Z"/><path class="cls-23" d="M593.6,203.87a4.1,4.1,0,0,1-.16,1.12h0a4,4,0,0,1-1.12,1.85h0a3.94,3.94,0,0,0-2.51,1,4,4,0,0,0-3.59-2.18h-.3a2.89,2.89,0,0,1-.24-.6,3.9,3.9,0,0,1-.18-1.19,4.34,4.34,0,0,1,.16-1.13,4.06,4.06,0,0,1,3.9-2.93,3,3,0,0,1,.61.05,3.92,3.92,0,0,1,1.78.73,4,4,0,0,1,1.63,2.76h0A4.24,4.24,0,0,1,593.6,203.87Z"/><path class="cls-10" d="M590.27,209.72a4,4,0,0,1-1.4,3,3.07,3.07,0,0,1-.59.43,13.43,13.43,0,0,1-3.7-1.29,4.71,4.71,0,0,1-2.42-2.59h0a4.07,4.07,0,0,1,3.43-3.6l.31,0h.3a4,4,0,0,1,3.59,2.18.11.11,0,0,1,.05.09A3.82,3.82,0,0,1,590.27,209.72Z"/><path class="cls-22" d="M585.64,202.75a4.1,4.1,0,0,0-.16,1.12,4,4,0,0,0,.42,1.79,4.07,4.07,0,0,0-3.74,3.64l-.06-.23C581.64,207.1,583,204.88,585.64,202.75Z"/><path class="cls-22" d="M590.15,199.86a9.17,9.17,0,0,1,1-.53l.74,1.26A3.85,3.85,0,0,0,590.15,199.86Z"/><path class="cls-26" d="M627.84,204.24l-.84,5.19h0l-1.52,9.32h0c-2.7,2.56-5.92,4.58-9.55,4.89l-1.2-.5a37.69,37.69,0,0,0,3.52-11.73C622.45,209.41,625.9,207,627.84,204.24Z"/><path class="cls-27" d="M620,206.83l0,0c-.3.18-.63.37-1,.54a6.13,6.13,0,0,0-1.82-3.09A6,6,0,0,0,614.7,203a5.13,5.13,0,0,0-1.24-.23v-.23a17.41,17.41,0,0,0-.59-2.58l-.15-.77c-.21-1.27-.31-2.53-.44-3.81s-.27-2.53-.35-3.8c0-.22,0-.45-.05-.69s0-.32,0-.48c.66,1.84,1.79,3.41,3.94,3.82l.08,0c.13,2.21.89,3.82,3.09,4.57l.08,0a4,4,0,0,0,2,3.53l.51.33A17.8,17.8,0,0,0,620,206.83Z"/><path class="cls-27" d="M593.43,205a4,4,0,0,1-1.12,1.85h0a3.94,3.94,0,0,0-2.51,1,.11.11,0,0,1,.05.09,3.82,3.82,0,0,1,.43,1.79,4,4,0,0,1-1.4,3,3.07,3.07,0,0,1-.59.43,13.43,13.43,0,0,1-3.7-1.29,2.88,2.88,0,0,1,.49-1.25c.53-.74,1.4-1,1.73-1.89.55-1.56-.71-2.08-1.21-3.06a1.69,1.69,0,0,1-.18-.55l.25-.09c1.61-.58,2.72-.12,4.37.18A6.41,6.41,0,0,0,593.43,205Z"/><path class="cls-27" d="M599.84,198.53a1,1,0,0,0,0,.56v1a4.92,4.92,0,0,0-1,1.95,4.68,4.68,0,0,0-.17,1.26,5.16,5.16,0,0,0,.24,1.53,6.41,6.41,0,0,0-3.13,2.3l-.46-.77-.7-1.19h0l-.47-.8,0,0c.29-.55.16-1.51.35-2.13.27-.88.67-1.71,1-2.58a11.79,11.79,0,0,1,.82-1.79,8.19,8.19,0,0,1,1.56-1.86,8.87,8.87,0,0,0,1.88-2.54l0,2.68v2.41Z"/><path class="cls-27" d="M617.31,208.32a50.41,50.41,0,0,1-9.65,3.55,4.83,4.83,0,0,1-.37-.8,5.43,5.43,0,0,1-.08.92l-1.08.25a52.87,52.87,0,0,1-10.75,1.46.17.17,0,0,1-.14,0h0a31,31,0,0,1-6-.34,3.09,3.09,0,0,1-.39-.6,3.84,3.84,0,0,0,1.13-1.62,5.53,5.53,0,0,1,4.16.14l.45.25c.84.46,1.92,1,2.72.44s.83-1.67,2.08-2,2.4-.08,3.26-1.21a1.87,1.87,0,0,0-.31-2.68c-1-.9-2.13-.78-3.18-1.28a.08.08,0,0,1,0,0h0a.82.82,0,0,1-.26-.16.59.59,0,0,1-.15-.76,1.75,1.75,0,0,1,1.18-.78c1.55-.38,3,.66,4.44-.14a2.34,2.34,0,0,0,.59-3.51,15.34,15.34,0,0,0-1.09-1.15l-.09-.09h0c-.44-.48-.75-.91-.43-1.15a1.47,1.47,0,0,1,.78-.19c1.82-.08,3.88-.14,5.48-1.18a6.35,6.35,0,0,0,2.33-4.15l0,0c.08,1.27.22,2.53.35,3.8s.23,2.54.44,3.81a5.32,5.32,0,0,1-4.18,2,1.42,1.42,0,0,1-.29,0,5,5,0,0,1,.51,2.2,4.79,4.79,0,0,1-.19,1.32,6.26,6.26,0,0,1,1.61-1.23,3.51,3.51,0,0,0,.3,3c1.17,1.66,2.86.49,4.47.72A3.79,3.79,0,0,1,617.31,208.32Z"/><path class="cls-28" d="M606.6,124.16c-1.49.14-3,.3-4.38.5a113.22,113.22,0,0,0-22.53,5.4,102.82,102.82,0,0,0-11,4.58,47.19,47.19,0,0,0,12,1.14h0l1.14,6.51c-22.06,4.87-23.69-3.36-23.69-3.36s-2.67-8.18,21.89-15.21c1-.29,2.09-.58,3.21-.87a146.18,146.18,0,0,1,19-4.15c9.29-1.31,19.16-1.4,22.44,3.22a3.41,3.41,0,0,1,.59,2.24c-.26,2.68-2.55,8.81-17.63,12.54a3.1,3.1,0,0,0-1.72-2.22l.3-4.71h0a66.75,66.75,0,0,0,10.3-6.05C613.13,123.71,609.8,123.87,606.6,124.16Z"/><path class="cls-29" d="M614.87,124.07a33,33,0,0,0,4-.48c.57,0,3.27-.56,3.74-.1.88.84-.88,3.47-1.46,4.11a10.45,10.45,0,0,1-2.38,1.68,28.47,28.47,0,0,1-5.89,3.27,123.9,123.9,0,0,1-23.62,6c-4.48.64-8.88,2-13.38,2.38-3.4.32-7.45.55-10.5-1.24-1.83-1.08-2.27-2.51-.31-3.63a18,18,0,0,1,4-1.56,26.3,26.3,0,0,1,4.18-.59,50.77,50.77,0,0,0,7-1.69c3.15-.8,6.21-1.94,9.36-2.7,3.6-.87,7.13-1.66,10.69-2.68a43.27,43.27,0,0,1,7.2-1.19,27.47,27.47,0,0,0,5.12-.92A9.91,9.91,0,0,1,614.87,124.07Z"/><path class="cls-30" d="M606.6,124.16c3.2-.29,6.53-.45,10-.44a66.75,66.75,0,0,1-10.3,6.05h0Z"/><path class="cls-29" d="M602.26,118.7a145.24,145.24,0,0,0-19,4.16c-1.12.29-2.18.58-3.21.87,0,0,0-.21-.08-.57-.2-2-.23-8.6,7.93-11.57a9.25,9.25,0,0,1,2-.48,14.29,14.29,0,0,1,6.74.55C599.1,112.61,601.4,114.62,602.26,118.7Z"/><path class="cls-30" d="M580.25,133.25l.45,2.53h0a47.19,47.19,0,0,1-12-1.14,102.82,102.82,0,0,1,11-4.58Z"/><path class="cls-27" d="M602.26,118.7a145.24,145.24,0,0,0-19,4.16c-1.12.29-2.18.58-3.21.87,0,0,0-.21-.08-.57a4.92,4.92,0,0,1,.69-.47c2.05-1.18,4-1.58,6.18-2.43,2.78-1.1,6.65-1.64,8.65-4a5.7,5.7,0,0,0,1.21-4.06c0-.1,0-.28-.06-.5C599.1,112.61,601.4,114.62,602.26,118.7Z"/><path class="cls-22" d="M606.6,124.16l-.22,3.4-.14,2.22-.3,4.71a2.75,2.75,0,0,0-.84-.27,3.07,3.07,0,0,0-1.05,0l-1.4-7.18-.39-2,0-.36C603.65,124.47,605.11,124.31,606.6,124.16Z"/><path class="cls-31" d="M605.35,158.21s.63,9.77-10.61,11.2a5.48,5.48,0,0,1-.7,0c-1.69,0-7.67-.65-8.35-8.84,0-.32-.05-.64-.06-1,9.8,1.57,13.56-7.66,14-9l.52-.48c1.21-1.19,2.81-1.94,4-3.21l1.1,10.56Z"/><path class="cls-32" d="M599.72,150.52l-.05.14c-.48,1.3-4.24,10.53-14,9,0-.36,0-.74,0-1.12V153a6.89,6.89,0,0,0,1.06.69,1.82,1.82,0,0,0,.31.16l.36.16c.25.1.51.18.78.26C593.77,155.74,599.41,150.79,599.72,150.52Z"/><path class="cls-31" d="M607.66,136.7a3.08,3.08,0,0,0-1.72-2.21,2.75,2.75,0,0,0-.84-.27,3.07,3.07,0,0,0-1.05,0l-1.4-7.18-.39-2,0-.36a112.27,112.27,0,0,0-14.6,2.94c-2.88.78-5.53,1.62-7.93,2.47l.56,3.17.45,2.54,1.14,6.5.54,3.05a17.89,17.89,0,0,1,2.46-3.34,8.36,8.36,0,0,1,4-2.25,8.74,8.74,0,0,1,2.73-.25,10,10,0,0,1,5.63,2.34,4,4,0,0,0,4.26,1c.59-.18,1.38-.89,2.09-1.18l-.17-1.55a3.41,3.41,0,0,0,1.2.23A3.08,3.08,0,0,0,607.66,136.7Zm-21.5-.73a1.33,1.33,0,0,1-1.33-1.32,1.35,1.35,0,0,1,.22-.75,1.33,1.33,0,1,1,1.11,2.07Zm9.94-.81a1.33,1.33,0,1,1,1.34-1.32A1.33,1.33,0,0,1,596.1,135.16Z"/><path class="cls-33" d="M599.72,150.52c-.31.27-6,5.22-11.59,3.7-.27-.08-.53-.16-.78-.26l-.36-.16c-.11-.06-.22-.1-.31-.16a6.89,6.89,0,0,1-1.06-.69l-.22-.19-.37-.34a4.94,4.94,0,0,1-.67-.77,2.76,2.76,0,0,1-.28-.39l-.05-.06c-.08-.13-.17-.27-.24-.41A6.91,6.91,0,0,1,583,149c0-.2-.1-.41-.14-.61l-.52-3a18,18,0,0,1,2.46-3.35,8.26,8.26,0,0,1,4-2.23,8.79,8.79,0,0,1,2.73-.27,10,10,0,0,1,5.63,2.34,4,4,0,0,0,4.26,1c.59-.18,1.38-.89,2.09-1.18l.57,5.33c-1.17,1.27-2.77,2-4,3.21l-.52.48Z"/><path d="M596.1,132.5a1.33,1.33,0,1,1,0,2.66,1.33,1.33,0,1,1,0-2.66Z"/><path d="M586.16,133.31a1.33,1.33,0,1,1-1.33,1.33,1.31,1.31,0,0,1,1.33-1.33Z"/><path class="cls-34" d="M586.84,145.21a5.72,5.72,0,0,0,4.29,1.23,8.57,8.57,0,0,0,2.16-.68l1.07-.54c.35-.2.7-.41,1.1-.59a10.49,10.49,0,0,1-.78,1,11.1,11.1,0,0,1-1,.84,5.7,5.7,0,0,1-2.44,1,4.4,4.4,0,0,1-2.65-.44A3.87,3.87,0,0,1,586.84,145.21Z"/><path class="cls-34" d="M589.41,134.18a27.81,27.81,0,0,1,.09,4.37,39.49,39.49,0,0,1-.46,4.33l-.44-.49a23.05,23.05,0,0,1,3.28.44,23.08,23.08,0,0,1-3.28.45.42.42,0,0,1-.44-.38v-.11a39.28,39.28,0,0,1,.35-4.33A23.63,23.63,0,0,1,589.41,134.18Z"/><path class="cls-22" d="M582.79,133.28a3.36,3.36,0,0,1,1.09-1.33,4.12,4.12,0,0,1,1.57-.77,3.62,3.62,0,0,1,1.79,0,3,3,0,0,1,1.49.88c-.59,0-1.09-.09-1.59,0a6.17,6.17,0,0,0-1.43.21A18.9,18.9,0,0,0,582.79,133.28Z"/><path class="cls-22" d="M592.66,131.77a5.32,5.32,0,0,1,1.71-1.19,7.08,7.08,0,0,1,2-.59,5.68,5.68,0,0,1,2.13.15,4,4,0,0,1,1.82,1.07,15.85,15.85,0,0,0-2-.24,11.77,11.77,0,0,0-1.87.09C595.27,131.2,594,131.51,592.66,131.77Z"/><path class="cls-35" d="M604,138.58a2.39,2.39,0,0,1,.54-1.89,2.54,2.54,0,0,1,1.74-.91,8.08,8.08,0,0,0-1.35,1.23A6,6,0,0,0,604,138.58Z"/><path class="cls-36" d="M606.6,124.16l-.22,3.4c-1.14-.17-2.2-.37-2.7-.42l-1-.08a54.84,54.84,0,0,0-9,.24c-2,.19-4,.14-6,.3a112.27,112.27,0,0,1,14.6-2.94C603.65,124.47,605.11,124.31,606.6,124.16Z"/><path class="cls-37" d="M569.18,394l-2.93-14-1-4.86a7.55,7.55,0,0,0-7.41-6h-2.5l4.22-16.32,1.94,0,7.13.53.4,28.47Z"/><path class="cls-38" d="M565.23,375.11,569.18,394l-4.06,1.7a24.7,24.7,0,0,1-20.85-.77l-3.38-1.74L545.07,375a7.56,7.56,0,0,1,7.38-5.88h5.37A7.57,7.57,0,0,1,565.23,375.11Z"/><path class="cls-39" d="M559.54,352.78l-4.22,16.32-4.18-15-.86-.09a23.68,23.68,0,0,0,2.15-1.38h3.15S557.36,352.78,559.54,352.78Z"/><path class="cls-37" d="M555.32,369.1h-2.87a8.22,8.22,0,0,0-1.58.16,7.57,7.57,0,0,0-5.8,5.72l-4.18,18.17.45-32.37,0-3.44a31.18,31.18,0,0,0,8.89-3.32l.86.09Z"/><path class="cls-39" d="M540.89,393.15c1-5.23,2.06-10.43,3.17-15.63a28.75,28.75,0,0,1,1-3.95,8.08,8.08,0,0,1,2.55-3.32,8,8,0,0,1,3.88-1.6,16.09,16.09,0,0,1,2-.08h4a8.83,8.83,0,0,1,2.09.21,8,8,0,0,1,3.71,2,8.13,8.13,0,0,1,2.21,3.56c.35,1.36.54,2.62.8,3.94l1.49,7.84c.46,2.62,1,5.23,1.38,7.86-.67-2.58-1.26-5.17-1.89-7.76l-1.79-7.77c-.3-1.27-.57-2.64-.88-3.84a7.11,7.11,0,0,0-5.25-4.81,7.71,7.71,0,0,0-1.87-.16h-4a15.2,15.2,0,0,0-1.93.05,6.88,6.88,0,0,0-3.41,1.36,7.06,7.06,0,0,0-2.28,2.9,12,12,0,0,0-.55,1.84l-.48,1.93C543.59,382.86,542.29,388,540.89,393.15Z"/><path class="cls-40" d="M569,381.75c-.93-.58-1.84-1.19-2.76-1.78-1.14-.74-2.28-1.47-3.45-2.17a90.4,90.4,0,0,1-11.93-8.54c-2.9-2.37-5.69-4.9-8.34-7.43-.3-.3-.73-.65-1.19-1.05l0-3.44a31.18,31.18,0,0,0,8.89-3.32,23.68,23.68,0,0,0,2.15-1.38h3.15s1.78.14,4,.14l1.94,0,7.13.53Z"/><path class="cls-41" d="M555.36,217c.74,0,1.33,1.21,1.33,2.71s-.59,2.7-1.33,2.7h-.15c-.65-.16-1.17-1.31-1.17-2.69S554.63,217,555.36,217Z"/><path class="cls-29" d="M555.58,352.64h-3.15l-.15-2.07-3.34-45.77-3.82-52.19-1.48-20.3L543.4,229a1.58,1.58,0,0,0,1.53,1.17h.2a1.56,1.56,0,0,0,1.37-1.66l-.06-.88h.17a3.4,3.4,0,0,0,2.68-2.66l0,.7.51,10.37.61,12.31L551,259.5l1,19.38,1.25,25.47,2.24,45.43Z"/><path class="cls-29" d="M555.21,222.35l-.88-.09-2.15-.21-2.44-.24h0a15.29,15.29,0,0,0-.05-1.66,12.5,12.5,0,0,1,.75-3.39h0l3,.12.79,0,1.16,0c-.73,0-1.32,1.21-1.32,2.71S554.56,222.2,555.21,222.35Z"/><path class="cls-40" d="M549.32,225.64l.51,10.37L548.31,235a52.29,52.29,0,0,0-4.67-2.64L543.4,229a1.58,1.58,0,0,0,1.53,1.17h.2a1.56,1.56,0,0,0,1.37-1.66l-.06-.88h.17a3.4,3.4,0,0,0,2.68-2.66Z"/><path class="cls-40" d="M552.64,218.39a8.21,8.21,0,0,0-.46,3.66l-2.44-.24h0a15.29,15.29,0,0,0-.05-1.66,12.5,12.5,0,0,1,.75-3.39h0l3,.12A11.93,11.93,0,0,0,552.64,218.39Z"/><path class="cls-31" d="M566,196.11a22.26,22.26,0,0,0-4.23,2.22,27.69,27.69,0,0,0-8.94,10.25,23.12,23.12,0,0,0-1.44,3.28h0l-.12.14a8.75,8.75,0,0,1,3,4.9l-3.76-.15h0a12.5,12.5,0,0,0-.75,3.39,15.29,15.29,0,0,1,.05,1.66,11.13,11.13,0,0,1-.44,3.13,3.4,3.4,0,0,1-2.68,2.66h-.17l.06.88a1.56,1.56,0,0,1-1.37,1.66h-.2A1.58,1.58,0,0,1,543.4,229a32,32,0,0,1-.79-3.59,4.13,4.13,0,0,1-3-3c-4.46-1.35-2.5-8.45-2.5-8.45,0-1.46,2.36-3.11,2.36-3.11l.46-7.74a11.74,11.74,0,0,1,1.63-5.4c3-5,8.59-9.71,11-11.59.67-.54,1.09-.84,1.14-.87,3.34,1,8.69,3.5,11.09,8.78A11.59,11.59,0,0,0,566,196.11Z"/><path class="cls-32" d="M549.74,221.81l4.59.45c-.5,3.44-5,3.37-5,3.37l0-.69a11.23,11.23,0,0,0,.44-3.13Z"/><path class="cls-35" d="M542.6,225.94a.55.55,0,0,1-.53-.45,23.53,23.53,0,0,1-.07-8.65.54.54,0,0,1,1.06.22,22,22,0,0,0,.08,8.25.55.55,0,0,1-.44.62Z"/><path class="cls-35" d="M546.44,228.14a.53.53,0,0,1-.53-.51c-.24-4-.4-9.9-.4-10a.54.54,0,0,1,.52-.55h0a.53.53,0,0,1,.54.52c0,.06.17,5.92.4,9.93a.54.54,0,0,1-.51.57Z"/><path class="cls-35" d="M539.64,222.89a.55.55,0,0,1-.51-.36,18.32,18.32,0,0,1-.58-6.93.52.52,0,0,1,.59-.47.52.52,0,0,1,.47.59,17.81,17.81,0,0,0,.54,6.46.54.54,0,0,1-.34.68A.47.47,0,0,1,539.64,222.89Z"/><path class="cls-32" d="M566,196.11a22.26,22.26,0,0,0-4.23,2.22c-.19-.59-.33-1.11-.46-1.4a27.18,27.18,0,0,0-2.65-5.28,28.13,28.13,0,0,0-6-5.58c.67-.54,1.09-.84,1.14-.87,3.34,1,8.69,3.5,11.09,8.78A11.59,11.59,0,0,0,566,196.11Z"/><path class="cls-32" d="M552.8,208.58a23.12,23.12,0,0,0-1.44,3.28,25.52,25.52,0,0,0-8.15-2.53,10.33,10.33,0,0,1,5.89-1.74A8,8,0,0,1,552.8,208.58Z"/><path class="cls-35" d="M551.24,212.54a.55.55,0,0,1-.35-.12,10.82,10.82,0,0,0-4.69-2.22.53.53,0,0,1-.45-.61.55.55,0,0,1,.61-.45,11.73,11.73,0,0,1,5.22,2.45.54.54,0,0,1,.07.76A.53.53,0,0,1,551.24,212.54Z"/><path class="cls-35" d="M549.29,225.47a.44.44,0,0,1-.16,0,.54.54,0,0,1-.35-.68,10.5,10.5,0,0,0,.41-3,14.46,14.46,0,0,0-.05-1.6v-.12a14,14,0,0,1,.79-3.53,3.14,3.14,0,0,1,.52-.89.54.54,0,0,1,.76,0,.56.56,0,0,1,0,.76,2,2,0,0,0-.31.57,12.08,12.08,0,0,0-.71,3.19,14.34,14.34,0,0,1,0,1.67,11.6,11.6,0,0,1-.47,3.28A.52.52,0,0,1,549.29,225.47Z"/><path class="cls-31" d="M645.13,218.08a18.49,18.49,0,0,1-3.72,4.22c-5.74,5-15,9.64-16.87,10.55a5.51,5.51,0,0,1-.66.29c-1.16.43-2.26.81-3.29,1.14-16.42,5.33-16.42-.7-16.42-.7v0c-13-1.83-11-6.73-11-6.73a1.61,1.61,0,0,1-.7-1.33,1.55,1.55,0,0,1,0-.37c0-.11.08-.23.13-.35a1.63,1.63,0,0,1,1.94-.8l5.77,1.91a19.15,19.15,0,0,0,5,1.2,9.58,9.58,0,0,0,4.61-.49L605.22,223a1.72,1.72,0,0,1-.69-1.38A1.75,1.75,0,0,1,607,220l9,3.71c3.63-.31,6.85-2.33,9.55-4.89a35.71,35.71,0,0,0,4-4.63,45.47,45.47,0,0,0,3-4.71c1-1.77,1.53-3,1.53-3l0-.09a3.48,3.48,0,0,1,1.86,1.49h.11A7.69,7.69,0,0,0,637,213a3.49,3.49,0,0,0,2.32,1.92c1,.11,1.68-.71,2.65-.73C644.25,214.12,644.26,216.52,645.13,218.08Z"/><path class="cls-32" d="M645.13,218.08a18.49,18.49,0,0,1-3.72,4.22l-.39-.53a15.12,15.12,0,0,0-3.43-3.15,27.61,27.61,0,0,0-3.34-2.46c-.83-.42-1.78-.67-2.63-1.09-.68-.33-1.41-.66-2.11-.93a45.47,45.47,0,0,0,3-4.71c1-1.77,1.53-3,1.53-3l0-.09a3.48,3.48,0,0,1,1.86,1.49h.11A7.69,7.69,0,0,0,637,213a3.49,3.49,0,0,0,2.32,1.92c1,.11,1.68-.71,2.65-.73C644.25,214.12,644.26,216.52,645.13,218.08Z"/><path class="cls-35" d="M603,230.88c-4.3,0-8.11-2.17-10.18-3.62a.54.54,0,1,1,.62-.88c1.84,1.29,6.68,4.2,11.69,3.22a.54.54,0,0,1,.21,1.06A12.51,12.51,0,0,1,603,230.88Z"/><path class="cls-35" d="M606.56,233.28c-.82-.09-1.59-.17-2.31-.27-.35,0-.68-.1-1-.15a21.1,21.1,0,0,1-7.46-2.35.53.53,0,1,0-.56.91,22.11,22.11,0,0,0,7.85,2.5l1,.16c.73.1,1.51.18,2.34.27h.06a.54.54,0,0,0,0-1.07Z"/><path class="cls-5" d="M489.54,397.36c0,3.84-18.18,6.95-40.61,6.95s-40.6-3.11-40.6-6.95,18.18-6.94,40.6-6.94S489.54,393.53,489.54,397.36Z"/><path class="cls-42" d="M509.38,261.83a1.15,1.15,0,0,1-.53,1.62,1.29,1.29,0,0,1-1.54-.15L507,263a3.14,3.14,0,0,1-1-1.84,1.18,1.18,0,0,1,.69-1,2.31,2.31,0,0,1,2.36,1.13A4.24,4.24,0,0,1,509.38,261.83Z"/><path class="cls-42" d="M507,263c.5,1.08-.87,1.74-.87,1.74-.37.27-1.1-.12-1.76-.6a12.25,12.25,0,0,1-1.29-1.1,3.63,3.63,0,0,1-1.43-2.08,1.69,1.69,0,0,1,.7-1.64c1.53-.88,3.63,1.84,3.63,1.84A3.14,3.14,0,0,0,507,263Z"/><path class="cls-42" d="M504.38,264.17a1,1,0,0,1-.29,1.34,2.16,2.16,0,0,1-2.76-.06,4,4,0,0,1-.56-.52,12.36,12.36,0,0,1-1-1.15,4.6,4.6,0,0,1-1.4-2.79,1.57,1.57,0,0,1,.8-1.43c1.28-.73,2.49,1.43,2.49,1.43h0a3.63,3.63,0,0,0,1.43,2.08A12.25,12.25,0,0,0,504.38,264.17Z"/><path class="cls-42" d="M499.76,263.78a12.36,12.36,0,0,0,1,1.15C498.89,266.81,497,263,497,263a2.51,2.51,0,0,1-.16-1c0-1.26,1.48-1.07,1.48-1.07A4.6,4.6,0,0,0,499.76,263.78Z"/><path class="cls-43" d="M507.3,263.84a.54.54,0,0,1-.34-.12s-.13-.11-.32-.31a3.48,3.48,0,0,1-1.18-2.22.54.54,0,0,1,1.07,0,2.49,2.49,0,0,0,.87,1.46l.25.24a.54.54,0,0,1,.07.75A.55.55,0,0,1,507.3,263.84Z"/><path class="cls-43" d="M504.38,264.71a.56.56,0,0,1-.32-.11,16,16,0,0,1-1.35-1.14,4.17,4.17,0,0,1-1.58-2.39.54.54,0,0,1,.45-.61.53.53,0,0,1,.61.45,3.28,3.28,0,0,0,1.25,1.76,13.76,13.76,0,0,0,1.26,1.07.54.54,0,0,1-.32,1Z"/><path class="cls-43" d="M500.77,265.47a.51.51,0,0,1-.38-.16,14.38,14.38,0,0,1-1.06-1.2,5.19,5.19,0,0,1-1.51-3.11.54.54,0,0,1,.53-.55.54.54,0,0,1,.55.53,4.29,4.29,0,0,0,1.27,2.45,9.21,9.21,0,0,0,1,1.12.54.54,0,0,1,0,.76A.52.52,0,0,1,500.77,265.47Z"/><path class="cls-10" d="M464,352.93c-.13.5-.21.75-.21.75H451.41l.7-5.21,2.26-16.86,1.21-9a6.17,6.17,0,0,0-.28-2.83l-14.5-41.85-.21-.61c-2.61,23.6-7,70-7.51,75.78,0,.39-.05.59-.05.59H422a20.83,20.83,0,0,1-1.15-3.67c-2.74-11.85-2.4-37.68-2.14-42.86a8.19,8.19,0,0,0-.12-1.85,336.7,336.7,0,0,1-4.39-37c-.06-1.11-.13-2.19-.17-3.26,12.83-1.43,12.15-19.51,12.15-19.51h0c1.16.14,2.38.26,3.67.35a64.17,64.17,0,0,0,7.24,0,60.68,60.68,0,0,0,6.59-.68v10.07l2.36.42,21.21,3.9C479.59,293.91,465.87,346.09,464,352.93Z"/><path class="cls-11" d="M451.6,191.61l.83,4.92L450,197c0-.26-.35-2-.91-4.44-1.86-8.33-5.92-25.38-5.92-25.38h0a27.5,27.5,0,0,1,4.47.7Z"/><path class="cls-11" d="M428.68,194.45l1.12,6.71-2.44.47c0-.3-.49-2.61-1.22-5.83-2-8.81-5.7-24.41-5.7-24.41a28.08,28.08,0,0,1,3.63-.64,11.19,11.19,0,0,0,1.05,2.55Z"/><path class="cls-10" d="M457.57,213.77c0,.06,0,.11,0,.17s0-.11,0-.17Z"/><path class="cls-10" d="M457.34,206.37c-1-4.46-3.57-10.25-4.9-13.06h0c-.49-1.07-.82-1.69-.82-1.69h0l.83,4.91L450,197c0-.25-.35-1.95-.91-4.43-8,4.6-20.4,1.87-20.4,1.87l1.12,6.71-2.44.48c0-.3-.49-2.62-1.22-5.84l-1.76,9.72a49.89,49.89,0,0,0,19.35,23.55V217l2.22-.41h0a7.1,7.1,0,0,1,.37-2.11,9.1,9.1,0,0,1-4.11.75s-12.51,1.21-10.91-13.6c0,0,11.95,3.1,19.94-1a22.27,22.27,0,0,1-.42,7.89A14.66,14.66,0,0,1,457.34,206.37Zm-1.22,7.79-.14.58,1.42-.25a4.71,4.71,0,0,1,.12-.54C457.32,214.59,456.12,214.16,456.12,214.16Zm-15.44,24.06-13-5.46a26.56,26.56,0,0,1-10.89-9,59.9,59.9,0,0,0-1.73,8.78c-.23,1.58-.45,3.41-.64,5.45h0a53.77,53.77,0,0,0,29.2,2.88v-1.46Z"/><path class="cls-44" d="M443.64,240.91v4.3a63.28,63.28,0,0,1-13.83.61c-1.29-.08-2.51-.19-3.67-.34a52.66,52.66,0,0,1-12.06-2.73c.09-1.69.22-3.26.35-4.72h0A53.88,53.88,0,0,0,443.64,240.91Z"/><path class="cls-44" d="M426.14,245.49S426.82,263.57,414,265a206.36,206.36,0,0,1,.09-22.25,52.66,52.66,0,0,0,12.06,2.73Z"/><path class="cls-9" d="M414.08,268.26a13.69,13.69,0,0,0,3.71-.77,14.7,14.7,0,0,0,8.33-7l.85-1.65c.26-.57.44-1.17.68-1.75l.34-.87.24-.91c.15-.61.32-1.21.49-1.82.26-1.23.45-2.48.66-3.74s.25-2.52.42-3.8c.07,1.28.07,2.56.11,3.85-.11,1.28-.21,2.56-.38,3.85a22.61,22.61,0,0,1-2.48,7.37,14.87,14.87,0,0,1-5.48,5.57A12.86,12.86,0,0,1,414.08,268.26Z"/><path class="cls-9" d="M437.05,246a76.34,76.34,0,0,1,1.47,9.47,72.82,72.82,0,0,1,.4,9.58A85.43,85.43,0,0,1,437.05,246Z"/><path class="cls-9" d="M414.44,238a62.27,62.27,0,0,0,7.17,1.83,75.86,75.86,0,0,0,14.63,1.39c2.46,0,4.92-.19,7.4-.34-1.21.28-2.43.56-3.65.76s-2.47.34-3.72.4a45.36,45.36,0,0,1-14.85-1.41c-1.2-.32-2.39-.7-3.57-1.11A29.74,29.74,0,0,1,414.44,238Z"/><path class="cls-9" d="M414.08,242.75c1.21.32,2.41.63,3.64.86s2.43.5,3.66.7c2.44.39,4.91.69,7.37.87s4.95.3,7.42.32c1.24,0,2.49,0,3.73-.09s2.49-.13,3.74-.2c-1.22.31-2.45.52-3.69.72s-2.49.3-3.75.4a46.17,46.17,0,0,1-7.53-.08,48.18,48.18,0,0,1-7.46-1.14A36.35,36.35,0,0,1,414.08,242.75Z"/><path class="cls-11" d="M457.23,326c-1,1.79-2,3.76-2.86,5.64l1.21-9a6.17,6.17,0,0,0-.28-2.83l-14.5-41.85a54.49,54.49,0,0,1,.71-9.66c.65-4.08.69-4.91,4.65-4.66,2.26-.17,5.14,6.78,6.13,8.8.37.77,1.68,2.91.73,3.53-.54.35-2.67-1-3.33-1.11.61,5.06,3.43,10.79,5,15.83,1.79,5.78,3.82,11.79,4.73,17.76C460.38,314.82,460.31,320.39,457.23,326Z"/><path class="cls-9" d="M440.59,277.83h-.07a.54.54,0,0,1-.47-.6c.79-7.1,1.33-11.35,1.64-13a.54.54,0,1,1,1.06.2c-.31,1.6-.84,5.82-1.63,12.9A.53.53,0,0,1,440.59,277.83Z"/><path class="cls-9" d="M440.59,264.35a41.14,41.14,0,0,1,6.22-1.51l-.44.59c-.17-1.28-.28-2.56-.36-3.85a31.38,31.38,0,0,1,0-3.88,31.38,31.38,0,0,1,.89,3.78c.22,1.27.4,2.54.53,3.82v0a.53.53,0,0,1-.44.57c-1.06.15-2.11.28-3.18.36A28.54,28.54,0,0,1,440.59,264.35Z"/><path class="cls-45" d="M464,352.93c-.13.5-.21.75-.21.75H451.41l.7-5.21c2,.44,4.41,1.81,6.2,2.54s3.78,1.25,5.65,1.92Z"/><path class="cls-45" d="M433.16,352.22c0,.39-.13,1.46-.13,1.46H422a20.83,20.83,0,0,1-1.15-3.67C423.28,350.75,431.57,351.93,433.16,352.22Z"/><path class="cls-11" d="M440.68,238.22c-2.42.6-5,.37-7.53.35-4.21,0-7.77-1.41-11.65-2.8-2.07-.74-4.85-1.5-6.43-3.19a59.9,59.9,0,0,1,1.73-8.78,26.56,26.56,0,0,0,10.89,9Z"/><path class="cls-44" d="M451.25,200.65a22.28,22.28,0,0,1-.42,7.89,11.15,11.15,0,0,0-4.35,5.52,3.81,3.81,0,0,0-.15.44,9.39,9.39,0,0,1-4.11.74s-12.51,1.2-10.91-13.61C431.31,201.63,443.26,204.74,451.25,200.65Z"/><path class="cls-9" d="M432.27,203.42c1.5.23,3,.43,4.48.58s3,.25,4.48.28a41.71,41.71,0,0,0,4.47-.13,34,34,0,0,0,4.44-.73,17.84,17.84,0,0,1-4.36,1.31,25.88,25.88,0,0,1-4.57.3,31.46,31.46,0,0,1-4.54-.46A25.42,25.42,0,0,1,432.27,203.42Z"/><path class="cls-46" d="M468.19,204a10.7,10.7,0,0,0-6.39,2.43,16.7,16.7,0,0,0-3-.13c-.45,0-.93,0-1.44.1-1-4.46-3.57-10.25-4.9-13.06l8-1.9,4-1s3,9.19,3.77,13.38Z"/><path class="cls-42" d="M460.41,191.41c-.09.43-.14.83-.2,1.16-.55,2.71-1,5.41-1.36,8.15a33.15,33.15,0,0,0-.07,5.55c-.45,0-.93,0-1.44.1-1-4.46-3.57-10.25-4.9-13.06Z"/><path class="cls-46" d="M479.23,254.2a1.51,1.51,0,0,1-.75.62h-.94a1.54,1.54,0,0,1-.3-.11l-8-4.81a13.34,13.34,0,0,0,3.37,5,4.44,4.44,0,0,0,2.05,1,.58.58,0,0,1,.41.95,3.28,3.28,0,0,1-2.31,1.16,4.48,4.48,0,0,1-3-.79,3.24,3.24,0,0,1-4-.1h0c-2.38,1.21-4.48,0-6.22-2.09a29.34,29.34,0,0,1-4.3-8.13c-.59-1.6-.93-2.76-1-2.93h0l-7.64-3.21-3-1.25v0l-15.95-6.69a26.56,26.56,0,0,1-10.89-9c-7.05-9.64-8.31-22.33-8.45-24.1,0-.11,0-.18,0-.21l13.2-4.08a34.8,34.8,0,0,0,1,4.66,50.17,50.17,0,0,0,27.1,32.27,60.24,60.24,0,0,0,11.48,4s8.54-1.31,13.45,2.48a1.43,1.43,0,0,1,.45,1.7,1.49,1.49,0,0,1-1.64.81l-4.28-1.08a1.17,1.17,0,0,0-1.28,1.78A29.09,29.09,0,0,0,471,246a34.05,34.05,0,0,0,7.69,6.18A1.45,1.45,0,0,1,479.23,254.2Z"/><path class="cls-43" d="M469.77,257.74a.53.53,0,0,1-.3-.09,5.58,5.58,0,0,1-1.19-1.07,31.35,31.35,0,0,1-3-4.15.54.54,0,1,1,.93-.53,31.14,31.14,0,0,0,2.93,4,4.75,4.75,0,0,0,1,.87.53.53,0,0,1,.14.75A.53.53,0,0,1,469.77,257.74Z"/><path class="cls-43" d="M465.75,257.65a.6.6,0,0,1-.31-.1,13.25,13.25,0,0,1-3.63-4.64.54.54,0,0,1,1-.46,12.26,12.26,0,0,0,3.26,4.22.53.53,0,0,1,.14.75A.53.53,0,0,1,465.75,257.65Z"/><path class="cls-42" d="M455.12,241.69a7.25,7.25,0,0,1-.65,1.71q-.12.27-.21.54h0l-7.64-3.21c1.91-.08,3.81-.14,5.75-.32C453.86,240.26,455.37,240,455.12,241.69Z"/><path class="cls-42" d="M422.53,200.07l-.48,0c-3.44-.32-6.76.14-10.21.13a12.18,12.18,0,0,1-3.49-.45c0-.11,0-.18,0-.21l13.2-4.08A34.8,34.8,0,0,0,422.53,200.07Z"/><path class="cls-47" d="M474.86,394.59c1.77,2.62-.4,4.22-2.72,5.13a14.92,14.92,0,0,1-7.64.75c-9.84-1.48-12.56-8.55-12.56-8.55-1.19-.67-2.64-1.62-3.9-2.47-1.61-1.09-2.9-2-2.9-2a3,3,0,0,1,.54-3,3.3,3.3,0,0,0,1.61,2.19c1.44.82,3.3,1.72,4.56,2.33a4.19,4.19,0,0,1,1.92,1.73c1.71,2.95,6.43,6.09,6.43,6.09a19.78,19.78,0,0,0,13,0A2.36,2.36,0,0,0,474.86,394.59Z"/><path class="cls-48" d="M474.86,394.59a2.38,2.38,0,0,1-1.64,2.23,19.85,19.85,0,0,1-13-.05s-4.72-3.13-6.43-6.09a4.38,4.38,0,0,0-1.92-1.74l-.47-.21c-1.22-.59-2.82-1.38-4.09-2.11a3.26,3.26,0,0,1-1.61-2.19,3.13,3.13,0,0,1,0-1.58,127.94,127.94,0,0,0,3.34-20.1c.25-2.9.4-5.94.4-9.07H466l-4.61,17.42a11.44,11.44,0,0,0,.66,7.71l4.54,9.85,0,.17c2.37.35,5.94,1.41,7.91,4.5A2.23,2.23,0,0,1,474.86,394.59Z"/><path d="M466.6,389.37h-.08a15.56,15.56,0,0,0-2.29-.17.58.58,0,0,1-.56-.52.54.54,0,0,1,.52-.55,15.62,15.62,0,0,1,2.49.18.53.53,0,0,1,.45.61A.55.55,0,0,1,466.6,389.37Z"/><path class="cls-49" d="M452.2,387.48a2.45,2.45,0,0,1-.82,1.25c-1.22-.59-2.82-1.38-4.09-2.11a3.26,3.26,0,0,1-1.61-2.19,3.13,3.13,0,0,1,0-1.58,127.94,127.94,0,0,0,3.34-20.1,29.31,29.31,0,0,1,1.91,4.35,12.82,12.82,0,0,1,.63,6c-.25,2.86-1.41,5.75-1.28,8.59C450.38,383.76,452.84,385.5,452.2,387.48Z"/><path class="cls-47" d="M447.66,394.84c1.52,3.73-3,3.77-4.43,3.68a4.5,4.5,0,0,1-.81-.11,16.13,16.13,0,0,0-7.63-.28,25.25,25.25,0,0,1-6.47.82,2.81,2.81,0,0,1-2.61-3.64,6.64,6.64,0,0,1,.26-.72c1.66,3.11,6.88,1.4,6.88,1.4.67-.13,1.47-.25,2.29-.34a32.88,32.88,0,0,1,8.23.26,6.4,6.4,0,0,0,3.2-.26,1.78,1.78,0,0,0,1-.87Z"/><path class="cls-48" d="M447.56,394.78a1.76,1.76,0,0,1-1,.88,6.77,6.77,0,0,1-3.2.26,32,32,0,0,0-8.23-.26,22.06,22.06,0,0,0-2.29.33s-5.22,1.7-6.88-1.4a3.76,3.76,0,0,1-.42-1.25s-.37-4.2-1-10.86a12,12,0,0,0-.25-1.68l-5.52-27.12h17.55s.62,9.37,2.07,18.71c1,6.28,2.32,12.55,4.11,16l-.07.29.17,0a7.19,7.19,0,0,1,2.63,1.24,7.61,7.61,0,0,1,2.36,3.07A2,2,0,0,1,447.56,394.78Z"/><path class="cls-49" d="M442.64,388.68c-1.42.06-2.61-.7-4.23-.29-1.29.31-2.54,1-3.29-.51-.55-1.1-.15-3.08,0-4.21.36-2.31,1.44-4.28,2.07-6.52.36-1.27.88-3,1.22-4.76,1,6.28,2.32,12.55,4.11,16l-.07.29Z"/><path d="M435.72,389.75a.53.53,0,0,1-.2-1,13.23,13.23,0,0,1,7.07-.61.54.54,0,0,1-.24,1.05,12.55,12.55,0,0,0-6.44.55A.43.43,0,0,1,435.72,389.75Z"/><path class="cls-10" d="M443.81,141.46c.68-14.23-10.17-12.7-11.93-12.5a3.25,3.25,0,0,0-.43.08c-17.81,4.54-11.35,18.84-10.75,20.08l0,.09a3.16,3.16,0,0,0-1.89.64c-10.78-22.72,14.26-24.41,14.26-24.41,16.47-1,11,17.57,11,17.57-.09-.47-.19-.93-.3-1.4A.71.71,0,0,1,443.81,141.46Z"/><path class="cls-50" d="M461.56,146.11a11,11,0,0,0-1.34,3.34c-.06.54-.11,1.1-.21,1.63l-.05.29a4.37,4.37,0,0,1-1.62,2.83c-1.47,1.12-3.28,1.14-4.75,2.1l-.16.11-.21.16c-.93.77-1.5,1.91-2.48,2.61-2.06,1.44-5.73.5-7-1.59.06-.18.11-.36.15-.53A33.28,33.28,0,0,0,444.1,143s5.07-17.16-9.19-17.6h-.39c-.45,0-.92,0-1.41,0a3.46,3.46,0,0,0-.44,0,2.38,2.38,0,0,0-.34,0c-4.14.52-23.11,4-13.48,24.33a3.08,3.08,0,0,0,1.89,5.5,2.87,2.87,0,0,0,1.2-.25l1.16,8.51-.06,0a6.81,6.81,0,0,1-3.89.85l-.51-.06-.41-.08a4.31,4.31,0,0,1-2-1.07c-.79-.77-1.09-1.92-1.86-2.69-1.92-1.93-4.6.43-6.67-1.36a7.41,7.41,0,0,1-.93-1,2.35,2.35,0,0,1-.19-.25,4,4,0,0,1-.82-2.18c0-1.45.74-2.87.24-4.32-.62-1.81-2.31-3-2.93-4.92a9.28,9.28,0,0,1,.62-6.84,9.08,9.08,0,0,1,2-2.74l.4-.39h0c1.42-1.37,2.88-2.65,3.28-4.78.63-3.45,1.64-6.65,5-8.25,2.3-1.11,5-.38,7.08-1.9A8.38,8.38,0,0,1,429,120a11.7,11.7,0,0,1,4.77,2.18c1.49-1.08,3.29-2.45,5.18-2.59s3.11,1.6,4.88,2a7.89,7.89,0,0,0,2.94-.18l.41,0h.44a8.29,8.29,0,0,1,4,1.24,7,7,0,0,1,3.54,4.34c.35,1.28.2,2.5.88,3.7.84,1.47,2.47,2.25,3.21,3.8s.38,2.5.45,4C459.84,141.22,462.87,143.09,461.56,146.11Z"/><path class="cls-51" d="M431.88,129c1.76-.2,12.61-1.73,11.93,12.5a2.45,2.45,0,0,1-1.49-1.58c-.64-1.57-.51-2.69-2.1-3.55-1.25-.69-1.62-2.5-3.25-2.62-.71-.06-1.17.22-1.87-.06s-.88-.79-1.39-1.38-.75-.51-1.35,0a8.46,8.46,0,0,1-2,1.58c-.71.31-1.41.15-2.11.43s-1,1-1.55,1.69c-.9,1.12-2.33,1.05-2.91,2.52s-.55,2.66-1.45,3.89c-.78,1.07-1.34,1.57-1.2,3a11,11,0,0,1,.13,2.14,15.68,15.68,0,0,0-.42,1.6l-.11.05c-.6-1.24-7.06-15.54,10.75-20.08A3.25,3.25,0,0,1,431.88,129Z"/><path class="cls-52" d="M429.75,123.73a8.84,8.84,0,0,1,2.92,1.76,2.38,2.38,0,0,0-.34,0,8.72,8.72,0,0,0-2.66-1.56c-2.81-1-4.82-.56-6.53,1.33a2.37,2.37,0,0,1-1.9,1l-.5.08c-2.72.46-4.34,2-5.58,5.22l-.09.25a4,4,0,0,1-1.42,2.16c-2.07,1.85-2.59,5.78-1.77,8.29a6,6,0,0,0,.51,1,4.21,4.21,0,0,1,.65,1.53,1.54,1.54,0,0,1-.21.88,3.52,3.52,0,0,0-.17.39,9.23,9.23,0,0,0,1.59,8,7.65,7.65,0,0,0,1,.82,4.75,4.75,0,0,1,1.5,1.54,2.1,2.1,0,0,1,0,1.24,3.31,3.31,0,0,0-.09.5,7.8,7.8,0,0,0,2.05,6.24l-.41-.08a8.08,8.08,0,0,1-1.89-6.19,3.39,3.39,0,0,1,.1-.52,1.91,1.91,0,0,0,0-1.08,4.52,4.52,0,0,0-1.42-1.45,7.43,7.43,0,0,1-1-.87,9.31,9.31,0,0,1-1.63-8.21,3.17,3.17,0,0,1,.17-.41,1.24,1.24,0,0,0,.19-.75,4.14,4.14,0,0,0-.61-1.42,5.5,5.5,0,0,1-.53-1.06c-.85-2.58-.31-6.65,1.84-8.56a3.75,3.75,0,0,0,1.34-2.06l.1-.25c.89-2.33,2.26-4.79,5.77-5.37.19,0,.36-.06.51-.08a2.2,2.2,0,0,0,1.75-.93C424.72,123.2,426.88,122.74,429.75,123.73Z"/><path class="cls-52" d="M453.43,156.41l-.21.16a6,6,0,0,0-3-3.43.12.12,0,0,1-.07-.13c.08-.56.19-1.11.3-1.63a9.86,9.86,0,0,0,.25-4.2,8.44,8.44,0,0,0-1.84-3.77c-.1-.11-.21-.21-.31-.3a1.33,1.33,0,0,1-.55-.84,5.88,5.88,0,0,1,.62-2.42,9.21,9.21,0,0,0,.48-1.38,10.11,10.11,0,0,0-.4-5.42c-.51-1.35-1.7-4.5-3.49-4.73a.12.12,0,0,1-.11-.12,5.91,5.91,0,0,1,0-.85,3.2,3.2,0,0,0-.21-1.83c-.87-1.65-2.94-1.88-4.66-1.9h-.1a8.35,8.35,0,0,0-5.29,1.79h-.39a8.6,8.6,0,0,1,5.68-2h.11c1.78,0,3.94.27,4.87,2a3.37,3.37,0,0,1,.24,2c0,.23,0,.48,0,.72,1.88.35,3.07,3.51,3.58,4.86a10.36,10.36,0,0,1,.41,5.57,9.5,9.5,0,0,1-.48,1.42,5.68,5.68,0,0,0-.61,2.3,1,1,0,0,0,.47.67c.11.11.22.21.33.33a8.93,8.93,0,0,1,1.89,3.88,10,10,0,0,1-.25,4.31c-.1.48-.2,1-.28,1.52A6.39,6.39,0,0,1,453.43,156.41Z"/><path class="cls-52" d="M460,151.08l-.05.29-.34-.34a1.7,1.7,0,0,1-.24-.23c-.5-.49-1.12-1.1-1.75-.82a.17.17,0,0,1-.1,0s0,0-.06-.08a4.56,4.56,0,0,1-.13-1.74c0-.21,0-.4,0-.6a6.83,6.83,0,0,0-2.17-5,3.26,3.26,0,0,0-.63-.46,1.15,1.15,0,0,1-.69-1,5.41,5.41,0,0,1,.14-1.77,6.49,6.49,0,0,0,.16-1.1,10,10,0,0,0-.32-3,8.51,8.51,0,0,0-2.69-4.63,1.77,1.77,0,0,0-.18-.15c-.35-.3-.37-.35-.31-.79,0-.14.05-.33.08-.61a9.1,9.1,0,0,0-1.24-5.08,6.42,6.42,0,0,0-2.33-2.52h.44a6.61,6.61,0,0,1,2.11,2.41A9.43,9.43,0,0,1,451,129c0,.27-.06.47-.08.61-.05.33-.05.33.22.57l.18.16a8.67,8.67,0,0,1,2.77,4.76,9.76,9.76,0,0,1,.33,3.11,7.68,7.68,0,0,1-.16,1.13,5.23,5.23,0,0,0-.15,1.68.94.94,0,0,0,.58.83,3.44,3.44,0,0,1,.67.49,7,7,0,0,1,2.25,5.21c0,.2,0,.41,0,.62a5.43,5.43,0,0,0,.07,1.52c.74-.21,1.4.44,1.89.92a2.72,2.72,0,0,1,.24.24A1.52,1.52,0,0,1,460,151.08Z"/><path class="cls-52" d="M409.32,153.47c0,.5-.51,1-.94,1.43a4.71,4.71,0,0,0-.55.61,8,8,0,0,0-1.08,2.73,2.35,2.35,0,0,1-.19-.25,7.7,7.7,0,0,1,1.06-2.61,5.37,5.37,0,0,1,.58-.66c.4-.4.85-.86.87-1.27a1.71,1.71,0,0,0-.33-.71,2,2,0,0,1-.19-.33,11.79,11.79,0,0,1-1-2.75,5.52,5.52,0,0,1,.11-2.58c.05-.27.11-.55.16-.84a1.61,1.61,0,0,0-.1-1,3.06,3.06,0,0,0-.46-.73,7,7,0,0,1-.4-.6,16.94,16.94,0,0,1-1.2-3.2,6.39,6.39,0,0,1,0-3.7l.4-.39a6.25,6.25,0,0,0-.19,4,18.14,18.14,0,0,0,1.18,3.16c.1.17.24.36.38.56a3.27,3.27,0,0,1,.49.78,1.84,1.84,0,0,1,.11,1.16c-.05.3-.1.58-.16.84a5.4,5.4,0,0,0-.11,2.48,12,12,0,0,0,1,2.71c0,.08.1.18.17.29A1.7,1.7,0,0,1,409.32,153.47Z"/><path class="cls-46" d="M420.74,149.21l0-.09.11-.05a15.68,15.68,0,0,1,.42-1.6,11,11,0,0,0-.13-2.14c-.14-1.38.42-1.88,1.2-3,.9-1.23.93-2.52,1.45-3.89s2-1.4,2.91-2.52c.51-.65.74-1.37,1.55-1.69s1.4-.12,2.11-.43a8.46,8.46,0,0,0,2-1.58c.6-.51.87-.55,1.35,0s.61,1.06,1.39,1.38,1.16,0,1.87.06c1.63.12,2,1.93,3.25,2.62,1.59.86,1.46,2,2.1,3.55a2.45,2.45,0,0,0,1.49,1.58.71.71,0,0,0,0,.15c.11.47.21.93.3,1.4a33.28,33.28,0,0,1-.23,14.05,5.08,5.08,0,0,1-.15.52,7.72,7.72,0,0,1-3.45,4.4,7.1,7.1,0,0,1-1.74.73c-4.58,1.24-8.73-1.56-8.73-1.56s5.2,8.11,11.44,6c2.56,9.16-5.11,11.45-5.11,11.45-6.4.91-9.57-2.67-11-5.29a11.19,11.19,0,0,1-1.05-2.55l-1-7.13-1.16-8.51a3,3,0,0,1-1.2.25,3.08,3.08,0,0,1-1.89-5.51A3.16,3.16,0,0,1,420.74,149.21Zm19.53-3.84a1.33,1.33,0,1,0-1.33,1.32A1.32,1.32,0,0,0,440.27,145.37Zm-10.71.62a1.34,1.34,0,1,0-1.34,1.34A1.34,1.34,0,0,0,429.56,146Z"/><path class="cls-42" d="M440.34,162.1l.9,5c-6.24,2.12-11.44-6-11.44-6s4.15,2.8,8.73,1.56a7.1,7.1,0,0,0,1.74-.73Z"/><path d="M438.94,144a1.33,1.33,0,1,1-1.32,1.33A1.32,1.32,0,0,1,438.94,144Z"/><circle cx="428.22" cy="145.99" r="1.33"/><path class="cls-43" d="M429.78,154.8a10.57,10.57,0,0,0,5,1,7.25,7.25,0,0,0,2.4-.57,11.26,11.26,0,0,0,1.17-.55c.39-.2.75-.46,1.18-.66a6.32,6.32,0,0,1-2,2,5.77,5.77,0,0,1-2.72.89,6.11,6.11,0,0,1-2.81-.46A5.8,5.8,0,0,1,429.78,154.8Z"/><path class="cls-51" d="M436,141.92a1.54,1.54,0,0,1,.6-.56,4.53,4.53,0,0,1,.71-.32,4.87,4.87,0,0,1,1.55-.28,4.06,4.06,0,0,1,2.91,1.1c-1.08,0-2,0-2.9,0-.46,0-.92,0-1.4,0h-.73A3.18,3.18,0,0,0,436,141.92Z"/><path class="cls-42" d="M432.81,151.41a19.26,19.26,0,0,1,2.86-.63l-.32.41a25.61,25.61,0,0,1-.35-2.89,17.92,17.92,0,0,1,0-2.93,19.33,19.33,0,0,1,.71,2.84,28.11,28.11,0,0,1,.34,2.89v0a.34.34,0,0,1-.32.36h0A18,18,0,0,1,432.81,151.41Z"/><path class="cls-51" d="M423.9,143.83a4,4,0,0,1,1.28-1.25,5.26,5.26,0,0,1,1.68-.68,4.79,4.79,0,0,1,1.81,0,3.82,3.82,0,0,1,1.66.69c-.61.08-1.15.08-1.69.15a13.34,13.34,0,0,0-1.56.25C426,143.16,425.05,143.49,423.9,143.83Z"/><path class="cls-43" d="M419.11,151.21a2.34,2.34,0,0,1,1.85.64,2.54,2.54,0,0,1,.82,1.79,8,8,0,0,0-1.16-1.42A5.86,5.86,0,0,0,419.11,151.21Z"/><path class="cls-53" d="M429.53,149.47c.09.56-.77,1.15-1.92,1.32s-2.14-.15-2.22-.72.78-1.15,1.92-1.32S429.45,148.91,429.53,149.47Z"/><path class="cls-53" d="M443.33,148.27c.05.57-.85,1.11-2,1.2s-2.13-.28-2.18-.85.85-1.1,2-1.2S443.28,147.71,443.33,148.27Z"/><polygon class="cls-54" points="524.1 250.06 524.1 260.33 492.81 254.64 492.81 244.74 524.1 250.06"/><polygon class="cls-55" points="524.1 242.17 524.1 250.06 492.81 244.74 492.81 237.17 524.1 242.17"/><polygon class="cls-54" points="524.1 234.46 524.1 242.17 492.81 237.17 492.81 228.12 524.1 234.46"/><polygon class="cls-55" points="524.1 225.87 524.1 234.46 492.81 228.12 492.81 217.66 524.1 225.87"/><polygon class="cls-54" points="524.1 219.06 524.1 225.87 492.81 217.66 492.81 207.96 495.03 208.75 505.65 212.51 516.11 216.23 516.12 216.23 524.1 219.06"/><path class="cls-56" d="M524.1,260.33l-15.06,1a2.31,2.31,0,0,0-2.36-1.13,1.18,1.18,0,0,0-.69,1s-2.1-2.72-3.63-1.84a1.69,1.69,0,0,0-.7,1.64h0s-1.21-2.16-2.49-1.43a1.57,1.57,0,0,0-.8,1.43s-1.45-.19-1.48,1.07h0l-11.93.76-17.73-3.24L446,255.7l-2.36-.43,15.81-.2.08-.07c1.74,2.09,3.84,3.3,6.22,2.11h0a3.27,3.27,0,0,0,4,.09,4.48,4.48,0,0,0,3,.79,3.36,3.36,0,0,0,2.31-1.16.59.59,0,0,0-.41-1,4.34,4.34,0,0,1-2.05-1l4.93-.06a1.25,1.25,0,0,0,.43.07,1.81,1.81,0,0,0,.51-.08l14.34-.18Z"/><path class="cls-10" d="M518.19,214.35a4.56,4.56,0,0,1-.27.39,5.49,5.49,0,0,1-1.8,1.49h0l-10.46-3.72c.23-.23.44-.48.63-.7a5.79,5.79,0,0,0,.63-.92,6.41,6.41,0,0,0,.9-3.49l.17-.18a6.32,6.32,0,0,1,10.53,2.68A5.55,5.55,0,0,1,518.19,214.35Z"/><path class="cls-25" d="M507.81,207.4a6.41,6.41,0,0,1-.9,3.49,5.79,5.79,0,0,1-.63.92c-.19.22-.4.47-.63.7L495,208.74c.05-.5.09-1,.13-1.46,0-.05,0-.09,0-.14.09-1.19.15-2.31.19-3.36,0,0,3.1-4.17,7.46-3.16a6.41,6.41,0,0,1,4.41,4A8.55,8.55,0,0,1,507.81,207.4Z"/><path class="cls-21" d="M495.36,203.78c0,1.05-.1,2.17-.19,3.36,0,.05,0,.09,0,.14,0,.48-.08,1-.13,1.46l-2.21-.77-8.91,1.63s-.23-2.48-.24-5.77c0-1,0-2.06.06-3.15,0-.25,0-.52,0-.77.34-5.79,1.66-12.07,5.72-12.54C489.49,187.37,496.06,185.48,495.36,203.78Z"/><path class="cls-3" d="M492.82,244.74v9.9l-11.23.13-3.11,0a1.51,1.51,0,0,0,.75-.62,1.45,1.45,0,0,0-.52-2A34.05,34.05,0,0,1,471,246l9.19-.54Z"/><path class="cls-20" d="M492.82,237.16v7.58l-12.61.71L471,246a29.09,29.09,0,0,1-3.21-3.91,1.17,1.17,0,0,1,1.28-1.78l4.28,1.08a1.49,1.49,0,0,0,1.64-.81,1.43,1.43,0,0,0-.45-1.7l1.9-.18Z"/><path class="cls-3" d="M492.82,228.12v9l-16.36,1.53-1.9.18c-4.91-3.79-13.45-2.48-13.45-2.48a60.24,60.24,0,0,1-11.48-4l15.89-1.56Z"/><path class="cls-20" d="M492.82,217.66v10.46l-27.3,2.66-15.89,1.56a50.77,50.77,0,0,1-5.9-3.27v-4.59l13-1.8.14,0c.28,2.21,1,5.45,2.72,5a19.89,19.89,0,0,0,1-5.56h0l6-.84Z"/><path class="cls-3" d="M492.82,208v9.69l-26.19,3.64-6,.84h0c.07-.9.12-1.91.12-3,0,0,4.51,3.45,5.05-4.36h0a1.36,1.36,0,0,0,0-.2s4.11,3.28,6.67-2.75a.2.2,0,0,0,0-.08l7-1.27,4.46-.83Z"/><path class="cls-23" d="M483.91,209.6l-4.46.83-.32-.28-.79-.71-.85-.78c-1.65-1.52-3-2.93-4.18-4.22-8.07-9-5-12.5-4.33-13.08l0,0s0,0,0,0c.52-.53,6-4.43,14.07,8.46l.55.91h.06c-.05,1.09-.06,2.16-.06,3.15C483.68,207.12,483.91,209.6,483.91,209.6Z"/><path class="cls-16" d="M479.45,210.42l-7,1.28a3.89,3.89,0,0,1,1.79-1.88c1.16-.57,2.82-1.12,4.08-.38C478.69,209.76,479.07,210.09,479.45,210.42Z"/><path class="cls-46" d="M477.54,254.83h.94a1.81,1.81,0,0,1-.51.08A1.25,1.25,0,0,1,477.54,254.83Z"/><path class="cls-3" d="M477.54,254.83l-4.93.07a13.34,13.34,0,0,1-3.37-5l8,4.81A1.54,1.54,0,0,0,477.54,254.83Z"/><path class="cls-3" d="M459.53,255l-.08.06-15.81.2v-7.72l11.59-.67A29.34,29.34,0,0,0,459.53,255Z"/><path class="cls-3" d="M456.66,220.7s0,.86.17,2l-.14,0-13,1.8V217l2.22-.41h0a5.75,5.75,0,0,0,.3,2.14c.48,1.48,1.57,2.5,3.92-.4,0,0,3.84,4,5.8-3.6l1.41-.25h0A31.84,31.84,0,0,0,456.66,220.7Z"/><path class="cls-20" d="M455.23,246.88l-11.59.67v-8.08l10.61,4.46S454.59,245.16,455.23,246.88Z"/><path class="cls-17" d="M472.47,211.7a.2.2,0,0,1,0,.08c-2.56,6-6.67,2.75-6.67,2.75-.48,8.07-5.07,4.57-5.07,4.57,0,1.13-.05,2.14-.12,3a19.92,19.92,0,0,1-1,5.57c-1.73.41-2.44-2.84-2.72-5-.14-1.11-.17-2-.17-2a31.65,31.65,0,0,1,.74-6.21,4.71,4.71,0,0,1,.12-.54h0a14,14,0,0,1,4.27-7.55,10.7,10.7,0,0,1,6.39-2.43,14.47,14.47,0,0,1,5,.61l.14-.13a64.29,64.29,0,0,0,5,5c-1.26-.74-2.92-.19-4.08.38A3.89,3.89,0,0,0,472.47,211.7Z"/><path class="cls-16" d="M457.34,206.36a18.33,18.33,0,0,1,4.46,0,14,14,0,0,0-4.27,7.55h0c-.2.63-1.4.2-1.4.2-.05.21-.1.41-.14.6-2,7.57-5.8,3.59-5.8,3.59-2.35,2.91-3.44,1.88-3.92.4a5.78,5.78,0,0,1-.3-2.15,7,7,0,0,1,.37-2.09,3.81,3.81,0,0,1,.15-.44,11.15,11.15,0,0,1,4.35-5.52A14.91,14.91,0,0,1,457.34,206.36Z"/><path class="cls-57" d="M454.25,243.93l-10.61-4.46v15.8l15.81-.2.08-.06a29.34,29.34,0,0,1-4.3-8.13C454.59,245.16,454.25,243.93,454.25,243.93Zm15,6a13.34,13.34,0,0,0,3.37,5l4.93-.07a1.54,1.54,0,0,1-.3-.11Zm9.24,4.91,3.11,0c0-2.93-14.14-38.09-15.66-39.84a.85.85,0,0,0-.19-.19c-.54,7.81-5.05,4.36-5.05,4.36,0,1.13-.05,2.14-.12,3a19.89,19.89,0,0,1-1,5.56c-1.73.41-2.44-2.83-2.72-5-.14-1.1-.17-2-.17-2a31.84,31.84,0,0,1,.74-6.21h0l-1.41.25c-2,7.59-5.8,3.6-5.8,3.6-2.35,2.9-3.44,1.88-3.92.4a5.75,5.75,0,0,1-.3-2.14h0l-2.22.41v12.06a50.77,50.77,0,0,0,5.9,3.27,60.24,60.24,0,0,0,11.48,4s8.54-1.31,13.45,2.48a1.43,1.43,0,0,1,.45,1.7,1.49,1.49,0,0,1-1.64.81l-4.28-1.08a1.17,1.17,0,0,0-1.28,1.78A29.09,29.09,0,0,0,471,246a34.05,34.05,0,0,0,7.69,6.18,1.45,1.45,0,0,1,.52,2A1.51,1.51,0,0,1,478.48,254.82Z"/><path class="cls-27" d="M517.92,214.74a5.49,5.49,0,0,1-1.8,1.49h0l-10.46-3.72L495,208.74l-2.21-.77-8.91,1.63-4.46.83-.32-.28c.07-2.24,1.14-4.91,1.72-6.78a5.94,5.94,0,0,1,2.27-3.6,2.83,2.83,0,0,1,.58-.28,1.67,1.67,0,0,0,.07.42,15.26,15.26,0,0,0,2.37,3.85,8.72,8.72,0,0,0,5.38,3,16.07,16.07,0,0,0,3.65.36l.44,0a7.91,7.91,0,0,1,5.92,1,21.8,21.8,0,0,1,2.24,1.83c.48.44.8,1.31,1.3,1.68s.65.36,1.21.2l.37-.11c1.05-.23,2.16-.35,3.22-.55,2.75-.49,5.58.11,7.36,2.46A5.36,5.36,0,0,1,517.92,214.74Z"/><path class="cls-4" d="M443.16,167.2h0a16.34,16.34,0,0,0-1.92-.05c2.56,9.16-5.1,11.45-5.1,11.45-6.41.9-9.58-2.68-11-5.29l3.56,21.15s12.44,2.73,20.4-1.87C447.22,184.24,443.16,167.2,443.16,167.2ZM425,190.93c-2-8.7-4.58-19.53-4.58-19.53-7.25,1.74-22.13,7.9-13.37,28.48l1.26-.39,13.2-4.08s0,.17.07.49a45.81,45.81,0,0,0,2.78,9.62l1.76-9.72C425.81,194.33,425.43,192.68,425,190.93Zm22.61-23.05,2.54,15.22s0,0,0,0l1.42,8.5h0s.33.62.82,1.69h0l4.65-1.11,7.32-1.75,1.3-.31C464.05,174.53,454.31,169.49,447.63,167.88Z"/><path class="cls-12" d="M429.16,188.36c3.6.64,6.38-.38,9.26-2.64,2.54-2,4.1-5,6.36-6.89,0,4.32-4.22,8.71-7.51,11.1C433.56,192.64,431.87,190.55,429.16,188.36Z"/><path class="cls-12" d="M457.09,192.2l-4.65,1.11h0c-.49-1.07-.82-1.69-.82-1.69h0l-1.42-8.5c.12.27.23.54.37.81a20.48,20.48,0,0,0,3,4C454.73,189.33,456,190.72,457.09,192.2Z"/><path class="cls-12" d="M426.14,195.8l-1.76,9.72a45.81,45.81,0,0,1-2.78-9.62,5.24,5.24,0,0,1,.73-1,14.78,14.78,0,0,0,2.69-4C425.43,192.68,425.81,194.33,426.14,195.8Z"/><path class="cls-58" d="M421.53,196a.54.54,0,0,1-.52-.41l-4.24-16.67a.53.53,0,0,1,.39-.65.53.53,0,0,1,.65.38l4.24,16.68a.54.54,0,0,1-.39.65Z"/><ellipse class="cls-5" cx="336.28" cy="403" rx="43.59" ry="7.17"/><polygon class="cls-20" points="295.73 349.36 295.73 360.33 288.66 360.33 288.66 360.31 225.54 360.31 225.54 349.36 295.73 349.36"/><rect class="cls-3" x="225.54" y="336.67" width="70.19" height="12.69"/><rect class="cls-20" x="225.54" y="323.97" width="70.19" height="12.7"/><rect class="cls-3" x="225.54" y="312.91" width="70.19" height="11.06"/><polygon class="cls-20" points="295.73 254.53 295.73 265.5 288.66 265.5 288.66 265.49 225.54 265.49 225.54 254.53 295.73 254.53"/><rect class="cls-3" x="225.54" y="241.84" width="70.19" height="12.69"/><rect class="cls-20" x="225.54" y="229.15" width="70.19" height="12.69"/><path class="cls-3" d="M295.73,218.08v11.07H225.54V218.08h68c.61,0,1.24,0,1.9,0Z"/><rect class="cls-55" x="218.48" y="396.76" width="70.18" height="10.97"/><rect class="cls-54" x="218.48" y="384.08" width="70.18" height="12.69"/><rect class="cls-55" x="218.48" y="371.39" width="70.18" height="12.69"/><polygon class="cls-54" points="288.66 360.33 288.66 371.38 218.48 371.38 218.48 360.31 225.54 360.31 225.54 360.33 288.66 360.33"/><rect class="cls-55" x="218.48" y="301.93" width="70.18" height="10.97"/><rect class="cls-54" x="218.48" y="289.25" width="70.18" height="12.69"/><rect class="cls-55" x="218.48" y="276.56" width="70.18" height="12.69"/><polygon class="cls-54" points="288.66 265.5 288.66 276.56 218.48 276.56 218.48 265.49 225.54 265.49 225.54 265.5 288.66 265.5"/><path class="cls-59" d="M295.73,218.08v47.43h-7.07v47.4h7.07v47.43h-7.07v47.39h-30l25.14-189.66h9.7c.61,0,1.24,0,1.9,0Z"/><path class="cls-47" d="M356.26,388.79a31.65,31.65,0,0,1,1.43,8.38c-.88,3.53-4.13,6.37-6.4,8a12.34,12.34,0,0,1-4.92,2.08,25.06,25.06,0,0,1-12.59-.73,2.08,2.08,0,0,1-1.35-2.47,3.58,3.58,0,0,1,.52-1.13c.95,1.31,3.24,2.25,8.39,1.4,0,0,10,.08,13.18-7.85A16.15,16.15,0,0,0,356.26,388.79Z"/><path class="cls-48" d="M356.26,388.78a16.29,16.29,0,0,1-1.74,7.69c-3.23,7.93-13.18,7.84-13.18,7.84-5.15.85-7.44-.08-8.39-1.4-1.2-1.66-.23-4-.23-4a7.19,7.19,0,0,1,4.75-4.48l0-.29c.8-4.18-2.47-21-2.47-21l4.5-4.35,12.07-11.64,2.12,13.44,2.5,15.91C356.24,387.32,356.26,388.08,356.26,388.78Z"/><path d="M345.64,395.13a.45.45,0,0,1-.16,0s-4.27-1.28-7.85-.13a.54.54,0,0,1-.33-1,16.06,16.06,0,0,1,8.5.13.53.53,0,0,1,.35.67A.53.53,0,0,1,345.64,395.13Z"/><path class="cls-49" d="M353.66,370.6c-.86-.26-1.75-.49-2.62-.69a42.89,42.89,0,0,0-11.57-1.11l12.07-11.64Z"/><path class="cls-48" d="M357.33,351.56l-5.79,5.6-16.57,16-2.89,2.78a23.11,23.11,0,0,0-7,16.58v.85a12.25,12.25,0,0,0,.44,3.25c.54,1.95.86,5.72-3.6,7.7,0,0-10.16-3.3-8.37-25,0,0,.82-15-.22-21,0,0,.91-2.87,6.12-2l.12,0a36,36,0,0,0,7.75-3.63c.82-.52,1.68-1.07,2.56-1.7a39.11,39.11,0,0,0,12.81-15.5l2.65,2.92L356,350.06Z"/><path class="cls-47" d="M321.88,404.31a3.24,3.24,0,0,1-4.31.32c-9.8-9.79-6.68-23.75-6.68-23.75,1-7.7,0-20.77,0-20.77a1.71,1.71,0,0,1,2.4-1.83c1,6.05.22,21,.22,21C311.72,401,321.88,404.31,321.88,404.31Z"/><path d="M335,373.68a.51.51,0,0,1-.38-.16.54.54,0,0,1,0-.76L357,351.16a.54.54,0,0,1,.75.78l-22.36,21.59A.55.55,0,0,1,335,373.68Z"/><path class="cls-49" d="M324,360.51c-1.54,2.57-.95,5.58-1.28,8.52a.29.29,0,0,1-.57,0c-.32-2.44-.92-4.92-1.26-7.34-.25-1.77-.38-3.92-1.35-5.51a36,36,0,0,0,7.75-3.63C327.43,355.24,325.23,358.47,324,360.51Z"/><path d="M348.5,132a23,23,0,0,1-1.67,5c-.54,1-1.18,1.72-1.88,1.58-.57-2.06-.38-4.28-.65-6.42a38.77,38.77,0,0,0-1.6-7.48c-1.35,1.38-1.89,3.21-3.48,4.51a12.46,12.46,0,0,1-4.66,2.36c-2.93.76-6.94.82-9.68-.57-.33,2.27.53,5.24-.78,7.32-.48.74-1,.91-1.51.76h0a4.41,4.41,0,0,1-2-1.94c-1.17-2-2.38-5.27-1.68-7.58.41-1.37,1.79-3,3.36-2.63.07-.35.15-.68.24-1,0-.11.06-.22.1-.33a13.61,13.61,0,0,1,1-2.42l.13-.23c2.51-4.45,7.42-7.52,12.25-9a17.43,17.43,0,0,1,3.57-.74,3.16,3.16,0,0,1,.32,0,10.6,10.6,0,0,1,2,.06,7.2,7.2,0,0,1,3.6,1.51l.34.29a6.51,6.51,0,0,1,1.1,1.28c1.41,2.14,1.06,4,.5,6.36-.36,1.5.42,1.91.86,3.36A11.92,11.92,0,0,1,348.5,132Z"/><path class="cls-60" d="M345.9,115a3.34,3.34,0,0,0-3.7,1.59,8.5,8.5,0,0,0-1,2.53c-.1.35-.21.71-.33,1.06a15.55,15.55,0,0,1-2.21,4.18,10.49,10.49,0,0,1-7.1,4,19.13,19.13,0,0,1-2.32.16,10.56,10.56,0,0,1-3.89-.64,6.47,6.47,0,0,1-2.77-2.07c0-.11.06-.22.1-.33a6.06,6.06,0,0,0,2.76,2.18,13.89,13.89,0,0,0,6.09.46,10.23,10.23,0,0,0,6.93-4,15.31,15.31,0,0,0,2.17-4.11c.12-.35.23-.71.33-1a9.28,9.28,0,0,1,1.07-2.6,3.51,3.51,0,0,1,3.57-1.74Z"/><path class="cls-60" d="M323.66,123.09a3.82,3.82,0,0,0,1.75,1.21,7.79,7.79,0,0,0,2.52.39,12,12,0,0,0,4.22-.83c3-1.14,4.92-4.7,6.45-8l.32-.71a13.7,13.7,0,0,1,1-2,3.16,3.16,0,0,0-.32,0,17.53,17.53,0,0,0-.92,1.84c-.1.24-.2.48-.32.71-1.51,3.31-3.44,6.82-6.31,7.92a9.84,9.84,0,0,1-6.56.44,3.5,3.5,0,0,1-1.71-1.2Z"/><path class="cls-31" d="M349.37,140.1a3.07,3.07,0,0,0-2.54-3.18c-.54,1-1.18,1.72-1.88,1.58-.57-2.05-.38-4.28-.65-6.42a38.93,38.93,0,0,0-1.6-7.48c-1.35,1.39-1.89,3.22-3.48,4.52a12.3,12.3,0,0,1-4.66,2.35c-2.93.78-6.94.83-9.68-.56-.33,2.26.53,5.24-.78,7.31-.48.74-1,.92-1.51.77h0a1.73,1.73,0,0,0-.32,0,3.08,3.08,0,1,0,1.05,6.06,2.89,2.89,0,0,0,1.13-.45h.07l1.31,17.67s.27,7.43,12.11,7c0,0,9.61-1,8.43-9.53a3.05,3.05,0,0,0-.08-.5l-.13,0c-11.93,4.38-16.13-4.11-16.4-4.7.33.51,4.1,5.7,12,1.93,0,0,2.15-.7,3.37-4.15.73-2,1.14-5,.6-9.41a1.84,1.84,0,0,0,.41.06A3.08,3.08,0,0,0,349.37,140.1Zm-19.59-.27a1.33,1.33,0,1,1-.1-2.66,1.33,1.33,0,0,1,.1,2.66Zm10.31-.58a1.33,1.33,0,0,1-.1-2.65,1.33,1.33,0,1,1,.1,2.65Z"/><path class="cls-32" d="M346.28,159.27l-.13,0c-11.93,4.38-16.13-4.11-16.4-4.7.33.51,4.1,5.7,12,1.93,0,0,2.15-.7,3.37-4.15l1,6.1A8.08,8.08,0,0,1,346.28,159.27Z"/><path d="M341.37,137.88A1.33,1.33,0,1,1,340,136.6,1.32,1.32,0,0,1,341.37,137.88Z"/><path d="M331.06,138.46a1.33,1.33,0,1,1-1.38-1.29A1.33,1.33,0,0,1,331.06,138.46Z"/><path class="cls-35" d="M339.77,148.52a3.9,3.9,0,0,1-1.73,1.91,4.37,4.37,0,0,1-2.63.54,5.7,5.7,0,0,1-2.47-.93c-.35-.25-.68-.53-1-.81a9.36,9.36,0,0,1-.81-1c.4.17.76.36,1.12.55l1.09.5a8.07,8.07,0,0,0,2.18.6A5.72,5.72,0,0,0,339.77,148.52Z"/><path class="cls-32" d="M336.78,137.59a26.33,26.33,0,0,1,1.07,4.24,41.71,41.71,0,0,1,.51,4.32v.06a.4.4,0,0,1-.38.44h0a23.29,23.29,0,0,1-3.31-.31,22,22,0,0,1,3.27-.57l-.42.5a41.82,41.82,0,0,1-.63-4.31A26.51,26.51,0,0,1,336.78,137.59Z"/><path d="M331.41,135.59a16,16,0,0,1-2.24.54c-.71.13-1.34.28-2.2.47a2.56,2.56,0,0,1,2-1.53A3.15,3.15,0,0,1,331.41,135.59Z"/><path d="M342.51,134.74a9.84,9.84,0,0,1-2.21.34c-.35,0-.69,0-1.05,0s-.72,0-1.16,0a2.74,2.74,0,0,1,2.15-1.07A3.08,3.08,0,0,1,342.51,134.74Z"/><path class="cls-35" d="M321.43,140.47a2.34,2.34,0,0,1,1.75.89,2.54,2.54,0,0,1,.56,1.88,7.9,7.9,0,0,0-.95-1.56A6.16,6.16,0,0,0,321.43,140.47Z"/><path class="cls-35" d="M347.71,138.19a6.09,6.09,0,0,0-1,1.53,8.23,8.23,0,0,0-.5,1.76,2.52,2.52,0,0,1,0-2A2.34,2.34,0,0,1,347.71,138.19Z"/><path class="cls-7" d="M361.5,247.62a1.62,1.62,0,0,1-2.35-.82,1.52,1.52,0,0,1-.11-.6,1.68,1.68,0,0,1,.82-1.42l8.6-4.9-5.86,2.31a1.6,1.6,0,0,1-2-.79,1.62,1.62,0,0,1-.16-.7,1.58,1.58,0,0,1,1-1.47l4.5-1.91a6.82,6.82,0,0,1,2.44-.54h1.47c-1-6.67-1.64-12.47-2-17.51v0c-2.92-7.39-5.44-25.33-5.44-25.33l-3,.61c-.17-.88-.39-1.86-.66-2.9l-30.08,1.69c1.08,3.77,1.91,6.18,1.91,6.18l-3.16.39c-.47-1.56-.91-3.1-1.31-4.62-.17.44-4.3,11.26-5.51,18.73a35.44,35.44,0,0,1,6.68,12.42s3.12,11.1-2.33,12.92l-.2-.07a7.75,7.75,0,0,1-1.22,2.21,1,1,0,0,1-.43.3,1.08,1.08,0,0,1-.79,0,1.11,1.11,0,0,1-.71-1,1.07,1.07,0,0,1,.09-.43l.42-1a7.92,7.92,0,0,1-.68.95,1,1,0,0,1-.84.41,1.17,1.17,0,0,1-.73-.28,1.1,1.1,0,0,1-.25-1.25,29.9,29.9,0,0,0,2.06-8.6,34,34,0,0,0,.19-3.86l-.42,3.21-.08.66a9.39,9.39,0,0,1-1.57,4.09l-1.38,2a1,1,0,0,1-.77.37,1,1,0,0,1-.87-1.43l.53-1a1.54,1.54,0,0,0,.17-.42,14.68,14.68,0,0,0-.43-9l-.21.08A161.66,161.66,0,0,0,315,251.31l1.52.37c.38.1.83.21,1.35.32,1.5.33,3.54.72,6,1.08h0c9.63,1.41,25.44,2.25,38.91-4.07a1.67,1.67,0,0,1,.55-2.37l8.14-4.79Zm-14.27-30S334,219.6,335.46,203.74c0,0,11,1.57,19.73-1.36C355.19,202.38,360.26,216.45,347.23,217.66Z"/><path class="cls-8" d="M324.9,252.81a1.72,1.72,0,0,1-1,.27h0a23.22,23.22,0,0,1-6-1.08.94.94,0,0,0-.15-.06,9.47,9.47,0,0,0-1.2-.26l-1.52-.37a161.66,161.66,0,0,1,1.67-26.11l.21-.08a14.68,14.68,0,0,1,.43,9,1.54,1.54,0,0,1-.17.42l-.53,1a1,1,0,0,0,.87,1.43,1,1,0,0,0,.77-.37l1.38-2a9.39,9.39,0,0,0,1.57-4.09l.08-.66c.09.21.16.43.23.65,1.13,3.34,1.27,7.43,1.43,11.21a42.41,42.41,0,0,0,.69,7C324,250.16,324.54,251.52,324.9,252.81Z"/><path class="cls-8" d="M358.63,191.61c-2.85-11.52-10.52-31.85-10.52-31.85h0c.85,0,2,.07,3.33.22h0c4.88,10.15,10.85,33.93,10.85,33.93l-3,.61Q359,193.19,358.63,191.61Z"/><path class="cls-7" d="M380.86,309.27l-2.54-17.2c-.69-7.18-1.63-13.74-2.6-19.39-13.31-1.78-13.43-18.34-13.43-18.34a85.79,85.79,0,0,1-9.7,2.91l-1.4.33c-1.12.24-2.21.44-3.29.62-2.23.39-4.36.65-6.41.81h-.06a69.1,69.1,0,0,1-8.77.16,58.09,58.09,0,0,1-6.08-.57h0s0,.06,0,.18c.09.39.31,1.5.5,3,.74,6,1,18.46-9.83,19.77a213.51,213.51,0,0,0,7.2,32.26,37.06,37.06,0,0,1,1.39,6.33l2.46,19.27,1.45,11.35,0,.07a39.11,39.11,0,0,0,12.81-15.5l2.65,2.92,6.5,7.17,4.18,4.62.18-.16,20.64-25.66A19.3,19.3,0,0,0,380.86,309.27Zm-21.41,6.59a16.24,16.24,0,0,1-2.81,6.65l-2.94,4.09-6.12,8.5.06-12.16.24-45v-.41l0,.13,10.82,29.75A16.25,16.25,0,0,1,359.45,315.86Z"/><path class="cls-8" d="M330.46,199.48l-3.16.4c-.47-1.57-.91-3.11-1.31-4.62h0a162.38,162.38,0,0,1-5.51-31.85,31.92,31.92,0,0,1,3.34-.83c-.62,10,2.56,23.14,4.73,30.73C329.63,197.07,330.46,199.48,330.46,199.48Z"/><path class="cls-61" d="M371,251a204.05,204.05,0,0,1,4.76,21.71c-13.31-1.77-13.43-18.34-13.43-18.34,1.6-.59,3.22-1.24,4.88-2a1.7,1.7,0,0,0,2.48-.1l1.22-1.4Z"/><path class="cls-61" d="M373,244.35l-5.78,5.58a1.7,1.7,0,0,0-.52,1.22,1.76,1.76,0,0,0,.51,1.22c-1.66.72-3.28,1.37-4.88,2a80.86,80.86,0,0,1-14.39,3.87c-2.25.38-4.4.65-6.47.82a67.38,67.38,0,0,1-14.85-.41,45.61,45.61,0,0,1-11.48-2.91c0-1.52-.07-3-.07-4.4,0,0,26.74,7.56,47.77-2.3a1.66,1.66,0,0,0,2.3.48Z"/><path class="cls-61" d="M317.29,281.57c-1.05-7.31-1.67-14.15-2-20.39-.09-1.8-.16-3.56-.2-5.25a1.93,1.93,0,0,1,0-.24,45.31,45.31,0,0,0,11.48,2.92h0s0,.06,0,.18c.09.39.31,1.5.5,3C327.86,267.77,328.08,280.26,317.29,281.57Z"/><path class="cls-62" d="M315,251.3c2,.4,4,.78,6,1s4,.55,6,.73a99.65,99.65,0,0,0,12.09.44,74.5,74.5,0,0,0,12-1.18l3-.6c1-.2,1.95-.54,2.92-.79,2-.44,3.82-1.3,5.76-1.93a48.27,48.27,0,0,1-11.48,4.13,66.2,66.2,0,0,1-12.15,1.44,85.78,85.78,0,0,1-12.21-.69A71.23,71.23,0,0,1,315,251.3Z"/><path class="cls-62" d="M341.43,259a55.16,55.16,0,0,1,2.43,15.23A56.17,56.17,0,0,1,341.43,259Z"/><path class="cls-8" d="M356,350.06,345.3,338.27l-2.65-2.92a39.11,39.11,0,0,1-12.81,15.5l0-.07-1.45-11.35c1-.44,2.11-.79,2.72-1.12,4.21-2.3,6.52-5.2,9.49-8.78,1.05-1.27,4.59-5.42,7.09-6.59l-.06,12.16.87-1.2C349.2,335.47,354,344.5,356,350.06Z"/><path class="cls-62" d="M345.2,339a.55.55,0,0,1-.32-.1.54.54,0,0,1-.12-.75l3.58-5a.53.53,0,0,1,.75-.12.54.54,0,0,1,.12.75l-3.58,5A.51.51,0,0,1,345.2,339Z"/><path class="cls-8" d="M328.69,239.36c5.52-4,11.51-7.35,16.76-11.86,2.33-2,4.95-3.38,7-5.73a21.53,21.53,0,0,1,2.68-3.2c-2.32,5.6-6.68,9.62-9.72,14.68,4.87-2.68,9.26-7,13.82-10.61a58.11,58.11,0,0,1-14.15,15.76c-2.32,1.82-4.37,4.2-6.84,5.85-1.53,1-3.55,1.41-4.9,2.73,3.41-4.09,8.73-9,9.94-14.32C339,235.62,334,239.72,328.69,239.36Z"/><path class="cls-63" d="M347.73,277.53l.15.08v.31A2.62,2.62,0,0,0,347.73,277.53Z"/><path class="cls-8" d="M361,313.83c-.26.87-.7,2.18-1.59,2a16.25,16.25,0,0,0-.71-8.47l-10.82-29.75c4.11-.59,4.65-3.95,5.73.09C354.45,280.73,364.57,301.93,361,313.83Z"/><path class="cls-62" d="M347.9,258.2c.83,3,1.48,6.1,2,9.17s1,6.16,1.42,9.27v0a.37.37,0,0,1-.29.41c-1.77.38-3.54.72-5.34,1,1.7-.65,3.41-1.22,5.14-1.76l-.29.45q-1-4.59-1.66-9.23C348.46,264.45,348.09,261.34,347.9,258.2Z"/><path class="cls-8" d="M352.92,257.28a22.42,22.42,0,0,1-7.49,2.79,100.31,100.31,0,0,1-16,1.68c-.76,0-1.52.05-2.28.05-2.38,0-4.77-.15-7.14-.18a17.35,17.35,0,0,1-4.67-.44c-.09-1.8-.17-3.78-.21-5.48,1.13.36,2.29,1,3.41,1.25.93.21,1.85.47,2.76.73a33,33,0,0,0,5.35,1.12,45,45,0,0,0,6,.38c1.56,0,3.11,0,4.64-.12s2.79-.05,4.19-.05a35.09,35.09,0,0,0,4.59-.17,22.88,22.88,0,0,0,4.53-1l.58-.22a3.46,3.46,0,0,1,1.4-.33Z"/><path class="cls-62" d="M315.1,255.7a43.9,43.9,0,0,0,6.43,1.72,63.66,63.66,0,0,0,6.58,1,71.52,71.52,0,0,0,13.25.09l6.59-.79c2.18-.35,4.35-.84,6.5-1.34s4.3-1.11,6.41-1.8,4.19-1.5,6.31-2.19c-1,.47-2,.93-3.05,1.38s-2,.92-3.08,1.31c-2.1.79-4.22,1.48-6.38,2.1a63.39,63.39,0,0,1-6.55,1.5l-6.67.9a64.85,64.85,0,0,1-13.43-.35A45.69,45.69,0,0,1,315.1,255.7Z"/><path class="cls-62" d="M329.57,263.22a19.31,19.31,0,0,1,.61,6.21,17.32,17.32,0,0,1-1.48,6.14,12.26,12.26,0,0,1-4,4.91A13.82,13.82,0,0,1,319,282.9a18.44,18.44,0,0,0,5.27-3,13.28,13.28,0,0,0,3.58-4.72,20.47,20.47,0,0,0,1.61-5.8A30.56,30.56,0,0,0,329.57,263.22Z"/><path class="cls-62" d="M360.49,257.13a50.54,50.54,0,0,0,2,5.82,29.74,29.74,0,0,0,2.84,5.35,14.9,14.9,0,0,0,4.2,4.21,11.89,11.89,0,0,0,2.71,1.24,13.24,13.24,0,0,0,3,.5,10.6,10.6,0,0,1-3.13,0,10.21,10.21,0,0,1-3-1.05,13.56,13.56,0,0,1-4.62-4.32,22.68,22.68,0,0,1-2.75-5.64A25.5,25.5,0,0,1,360.49,257.13Z"/><path class="cls-61" d="M355.19,202.37s5.07,14.08-8,15.29c0,0-13.24,1.93-11.77-13.92C335.46,203.74,346.47,205.31,355.19,202.37Z"/><path class="cls-62" d="M336,205a44.89,44.89,0,0,0,4.75.56,44.09,44.09,0,0,0,4.74,0,33.71,33.71,0,0,0,4.7-.58l1.16-.24,1.15-.32c.78-.16,1.51-.5,2.29-.71a18.77,18.77,0,0,1-4.47,1.83,22.16,22.16,0,0,1-4.79.77,26.11,26.11,0,0,1-4.84-.19A21.54,21.54,0,0,1,336,205Z"/><path class="cls-64" d="M320.48,163.4c-6.61,2-18.7,7.76-32.36,24l.76.79,11.45,11.88.56.58a14,14,0,0,0,6.08-3.8,2.74,2.74,0,0,1,.1.29c.48,1.38,2.5,7.34,2.76,10.95,1.78.49,3.33,1,4.55,1.31a10.93,10.93,0,0,1,5,3.21c.24.29.49.58.75.91l.38.46c1.21-7.47,5.34-18.29,5.51-18.73v0A162.23,162.23,0,0,1,320.48,163.4Zm27.63-3.63h0c-1.12,0-1.74,0-1.74,0h0c1.18,8.55-8.43,9.52-8.43,9.52-11.84.43-12.11-7-12.11-7a14.44,14.44,0,0,0-2,.26c-.62,10,2.56,23.15,4.73,30.74l30.08-1.69C355.79,180.1,348.11,159.77,348.11,159.77Zm3.33.2h0c4.88,10.14,10.85,33.93,10.85,33.93s.09.68.27,1.82c.72,4.74,2.82,17.55,5.17,23.51-1.64-20.08.65-28,1.38-29.91.14-.35.22-.51.22-.51,2.14,5,5.36,6.42,5.36,6.42l1.49-1.33,9.9-8.88.89-.81C376.61,165.1,359.82,160.87,351.44,160Z"/><path class="cls-65" d="M320.1,213.53c-.26-.33-.51-.62-.75-.91a10.93,10.93,0,0,0-5-3.21c-1.22-.36-2.77-.82-4.55-1.31-.26-3.61-2.28-9.57-2.76-10.95.62-1.16,1.43-2.17,2.07-3.38a29.34,29.34,0,0,0,2-5.69c1.63,4,1.89,8.83,3.54,13,1.19,3,2.88,5.64,4,8.63C319.19,210.88,319.71,212.2,320.1,213.53Z"/><path class="cls-65" d="M367.73,219.24c-2.35-6-4.45-18.77-5.17-23.51.47-2.13,1.05-4.24,1.61-6.33a43.45,43.45,0,0,1,1.93-6.28,12.56,12.56,0,0,0,1.25-3c-.45,2.91,1,5.46,1.54,7.86.09.45.16.9.22,1.35C368.38,191.27,366.09,199.16,367.73,219.24Z"/><path class="cls-65" d="M329.57,186.62c1.5,0,2.93-1.06,4.12-1.88,2.76-1.9,5.47-3.49,7.78-6s4.72-4.41,6.14-7.35c.5-1,.92-2.1,1.42-3.13-.63,6.87-5.17,13.34-10.89,16.93C336,186.57,331.32,189.18,329.57,186.62Z"/><path class="cls-66" d="M369.33,189.36a.56.56,0,0,1-.5-.33c-1.7-4-2.26-9.07-1.67-15.06a.55.55,0,0,1,.59-.48.54.54,0,0,1,.48.59c-.58,5.8,0,10.69,1.59,14.53a.53.53,0,0,1-.28.7A.54.54,0,0,1,369.33,189.36Z"/><path class="cls-66" d="M307,197.4a.5.5,0,0,1-.37-.16.54.54,0,0,1,0-.76c3.13-3.2,4.83-7.71,5.06-13.39a.52.52,0,0,1,.56-.52.54.54,0,0,1,.51.56c-.24,6-2,10.7-5.36,14.1A.56.56,0,0,1,307,197.4Z"/><path class="cls-31" d="M387.34,235.24a5.85,5.85,0,0,0-.62,1.16L385,240.85a7.19,7.19,0,0,1-3.71,3.92L374.19,248a7.42,7.42,0,0,0-2.46,1.86l-.86,1-1.22,1.39a1.71,1.71,0,0,1-3-1.11,1.72,1.72,0,0,1,.52-1.23l5.78-5.58-7.86,5.13a1.66,1.66,0,0,1-2.3-.47,1.67,1.67,0,0,1,.55-2.37l8.14-4.79-10,5.77a1.62,1.62,0,0,1-2.35-.82,1.52,1.52,0,0,1-.11-.6,1.68,1.68,0,0,1,.82-1.42l8.6-4.9-5.86,2.31a1.6,1.6,0,0,1-2-.79,1.62,1.62,0,0,1-.16-.7,1.58,1.58,0,0,1,1-1.47l4.5-1.91a6.82,6.82,0,0,1,2.44-.54h5.59a3.29,3.29,0,0,0,1.36-.29,3.35,3.35,0,0,0,1.81-1.83c.13-.33.28-.69.44-1.08,2.62-6.53,8.19-21.38,7.93-29.05a5.78,5.78,0,0,0,0-.58,12.38,12.38,0,0,1-4.22-2.92,29.4,29.4,0,0,1-5-7.12l5-4.46,1.72-1.54,3.21-2.88S411.11,200.73,387.34,235.24Z"/><path class="cls-35" d="M362.8,243.64a.52.52,0,0,1-.46-.27.53.53,0,0,1,.2-.73l5.65-3.23a.54.54,0,0,1,.53.93l-5.65,3.23A.5.5,0,0,1,362.8,243.64Z"/><path class="cls-35" d="M363.35,247.18a.54.54,0,0,1-.46-.27.53.53,0,0,1,.19-.73l8.14-4.8a.54.54,0,0,1,.54.93l-8.13,4.79A.57.57,0,0,1,363.35,247.18Z"/><path class="cls-35" d="M365.1,250a.54.54,0,0,1-.45-.24.53.53,0,0,1,.16-.74l7.86-5.13a.54.54,0,0,1,.59.9l-7.86,5.13A.52.52,0,0,1,365.1,250Z"/><path class="cls-32" d="M382,239.36a11.93,11.93,0,0,0-3.71-2.06c-.75-.31-2.12-.41-3.06-.81a3.35,3.35,0,0,0,1.81-1.83c.13-.33.28-.69.44-1.08A14.72,14.72,0,0,1,382,239.36Z"/><path class="cls-35" d="M388,205a7.68,7.68,0,0,1-2.74-.52.54.54,0,0,1,.38-1,6.21,6.21,0,0,0,3.74.29.54.54,0,0,1,.25,1A6.91,6.91,0,0,1,388,205Z"/><path class="cls-32" d="M381.19,201a29.4,29.4,0,0,1-5-7.12l9.9-8.88C385.19,188.85,383,196,381.19,201Z"/><path class="cls-31" d="M327.16,226.41A35.44,35.44,0,0,0,320.48,214c-.39-.5-.78-1-1.13-1.37a10.93,10.93,0,0,0-5-3.21c-1.22-.36-2.77-.82-4.55-1.31-4.07-1.12-9.28-2.42-14.1-3.22l.28-.23c.92-.74,3.87-3.21,4.32-4.57L288.88,188.2s-1.36,1.46-3.29,3.71c-4.23,5-11.21,13.92-12.28,19.68a3.11,3.11,0,0,0,1.85,3.4c2.7,1.17,8.48,3,18.37,3.09h2.2a116.16,116.16,0,0,0,16.63-1.52h.33a7.05,7.05,0,0,0,2.41,5.16,13,13,0,0,1,1.82,3.39,14.68,14.68,0,0,1,.43,9,1.54,1.54,0,0,1-.17.42l-.53,1a1,1,0,0,0,.87,1.43,1,1,0,0,0,.77-.37l1.38-2a9.39,9.39,0,0,0,1.57-4.09l.5-3.87a33.82,33.82,0,0,1-2.25,12.46,1.1,1.1,0,0,0,.25,1.25,1.17,1.17,0,0,0,.73.28,1,1,0,0,0,.84-.41,7.92,7.92,0,0,0,.68-.95,12.91,12.91,0,0,0,1.47-3.86,12.91,12.91,0,0,1-1.47,3.86l-.42,1a1.07,1.07,0,0,0-.09.43,1.1,1.1,0,0,0,1.93.73,7.61,7.61,0,0,0,1.22-2.21l.2.07C330.28,237.51,327.16,226.41,327.16,226.41Z"/><path class="cls-35" d="M322,239.87a.57.57,0,0,1-.28-.08.55.55,0,0,1-.18-.74,13.31,13.31,0,0,0,1.62-4.81,26.1,26.1,0,0,0,.26-3.7.54.54,0,1,1,1.07,0,27,27,0,0,1-.27,3.86,14.21,14.21,0,0,1-1.76,5.21A.55.55,0,0,1,322,239.87Z"/><path class="cls-35" d="M319.48,239.69a.52.52,0,0,1-.21,0,.53.53,0,0,1-.28-.7,33.44,33.44,0,0,0,2.21-12.23.55.55,0,0,1,.53-.55.56.56,0,0,1,.55.53,33.92,33.92,0,0,1-2.3,12.67A.55.55,0,0,1,319.48,239.69Z"/><path class="cls-35" d="M312.69,217.1h0a.54.54,0,0,1-.53-.55,5.62,5.62,0,0,1,.82-2.85.54.54,0,0,1,.75-.14.55.55,0,0,1,.14.75,4.48,4.48,0,0,0-.63,2.26A.54.54,0,0,1,312.69,217.1Z"/><path class="cls-35" d="M324.63,239.79a.43.43,0,0,1-.19,0,.54.54,0,0,1-.31-.69,20.42,20.42,0,0,0,1.11-4.45,34.1,34.1,0,0,0,.38-3.72.56.56,0,0,1,.56-.51.54.54,0,0,1,.52.55c0,.07-.07,1.75-.4,3.85a21.86,21.86,0,0,1-1.17,4.67A.53.53,0,0,1,324.63,239.79Z"/><path class="cls-32" d="M300.33,200.08c-.45,1.36-3.4,3.83-4.32,4.57-.79-.24-1-.92-1.7-2.18a25.24,25.24,0,0,0-3.92-5.44,55,55,0,0,0-4.8-5.12c1.93-2.25,3.29-3.71,3.29-3.71Z"/><path class="cls-35" d="M295.73,205.42h-.09c-4.58-.76-8.06-.92-10.33-.49a.53.53,0,0,1-.63-.43.52.52,0,0,1,.43-.62c2.39-.46,6-.3,10.71.48a.54.54,0,0,1-.09,1.07Z"/><path class="cls-5" d="M176.56,394.34c-5.75,0-11.22.19-16.17.52-4.37-.25-9.09-.38-14-.38-22.42,0-40.6,2.83-40.6,6.31s18.18,6.32,40.6,6.32c5.75,0,11.22-.19,16.18-.52,4.36.25,9.08.38,14,.38,22.43,0,40.61-2.82,40.61-6.31S199,394.34,176.56,394.34Z"/><path class="cls-38" d="M171,370.05v34.57a1.82,1.82,0,0,1-1.83,1.83h-1.11a1.82,1.82,0,0,1-1.82-1.83v-29.5a1.83,1.83,0,0,0-3.66,0v29.5a1.82,1.82,0,0,1-1.83,1.83h-1.47a1.82,1.82,0,0,1-1.83-1.83V374.83a1.82,1.82,0,0,0-1.82-1.83h-1.28a1.83,1.83,0,0,0-1.83,1.83v29.79a1.82,1.82,0,0,1-1.83,1.83h-1.18a1.82,1.82,0,0,1-1.83-1.83V374.83a1.82,1.82,0,0,0-1.83-1.83h-1.08a1.83,1.83,0,0,0-1.83,1.83v29.79a1.82,1.82,0,0,1-1.83,1.83h-1.35a1.82,1.82,0,0,1-1.83-1.83V370.05a10.79,10.79,0,0,1,10.77-10.78,1.83,1.83,0,0,0,1.85-1.87l0-2.14-.33-14.34-.11-5h7.71v21.5a1.83,1.83,0,0,0,1.83,1.84h.61A10.79,10.79,0,0,1,171,369.5C171,369.68,171,369.86,171,370.05Z"/><path class="cls-40" d="M171,370.05v26.44c-1-1.08-2-2.23-2.95-3-.63-.54-1.23-1.09-1.81-1.64V375.12a1.83,1.83,0,0,0-3.66,0v13.14q-.5-.5-1-1c-1.42-1.32-2.79-2.66-4.11-4v-8.43a1.82,1.82,0,0,0-1.82-1.83h-1.28a1.83,1.83,0,0,0-1.83,1.83v3c-1.8-2.14-3.52-4.37-5.16-6.71-2-2.92-4.11-5.83-6.27-8.67a10.79,10.79,0,0,1,7.61-3.16,1.83,1.83,0,0,0,1.85-1.87l0-2.14-.33-14.34c1.64,1.93,3.27,3.91,5.06,5.69a21.56,21.56,0,0,0,2.54,2.14v8.68a1.83,1.83,0,0,0,1.83,1.84h.61A10.79,10.79,0,0,1,171,369.5C171,369.68,171,369.86,171,370.05Z"/><path class="cls-29" d="M156.44,335.93h-4.65l-2.63-54.84-.92-19.18L147,236l-1.63-34.18-.6-12.57.4-2.08a1.71,1.71,0,0,1,1.68-1.4,1.73,1.73,0,0,1,1.51.9,7.94,7.94,0,0,1,.87,2.32,1.43,1.43,0,0,0,2.4.7.12.12,0,0,0,0-.08l.56,17,.86,26.5L154,261l.6,18.37Z"/><path class="cls-40" d="M152.22,206.62c-1-.84-2-1.65-3-2.4s-2.43-1.58-3.84-2.41l-.6-12.57.4-2.08a1.71,1.71,0,0,1,1.68-1.4,1.73,1.73,0,0,1,1.51.9,7.94,7.94,0,0,1,.87,2.32,1.43,1.43,0,0,0,2.4.7.12.12,0,0,0,0-.08Z"/><path class="cls-9" d="M128,399a4.71,4.71,0,0,1-3-1.1,3.55,3.55,0,0,0,.27,2.77,2,2,0,0,0,1.1.83c1.23.34,4.38.48,11.64-2.5v-2.89l-8.58,2.68A4.78,4.78,0,0,1,128,399Zm27.78-7.38a3.31,3.31,0,0,0-.88-2,2.78,2.78,0,0,1-1.82,1.79l-.52.16v2.25l2.34-.82a1.35,1.35,0,0,0,.89-1.25S155.75,391.62,155.75,391.58ZM143,397.19l4.74-1.69V393L143,394.51Z"/><path class="cls-10" d="M145.86,373h-1.08a1.75,1.75,0,0,0-1,.32,1.82,1.82,0,0,0-.8,1.51v19.68l2.79-.86,1.95-.62v-18.2A1.82,1.82,0,0,0,145.86,373Zm4.66-17.74h-17L136,383.82a5.91,5.91,0,0,1,0,.6,6.93,6.93,0,0,1-5,6.63l-5,1.46a3.09,3.09,0,0,0-2.2,2.5,4.12,4.12,0,0,0,0,.48,3,3,0,0,0,1.12,2.36,4.68,4.68,0,0,0,3,1.12,4.8,4.8,0,0,0,1.39-.22l8.58-2.67v-26a10.72,10.72,0,0,1,3.12-7.57l0-.05a10.79,10.79,0,0,1,7.61-3.16,1.83,1.83,0,0,0,1.85-1.87ZM155,388.32l-2-14.75a1.79,1.79,0,0,0-.5,1.26v16.69l.52-.16a2.75,2.75,0,0,0,1.82-1.77A3,3,0,0,0,155,388.32Z"/><path class="cls-11" d="M145.86,373h-1.08a1.75,1.75,0,0,0-1,.32c.59,5.28,1,10.61,1.66,15.88a36.47,36.47,0,0,0,.33,4.45l1.95-.62v-18.2A1.82,1.82,0,0,0,145.86,373ZM155,388.32l-2-14.75a1.79,1.79,0,0,0-.5,1.26v16.69l.52-.16a2.75,2.75,0,0,0,1.82-1.77A3,3,0,0,0,155,388.32Zm-16.76-33.06c-.36,1.83,1.24,4.34,2,5.66a16.6,16.6,0,0,1,.82,1.56l0-.05a10.79,10.79,0,0,1,7.61-3.16,1.83,1.83,0,0,0,1.85-1.87l0-2.14Z"/><path class="cls-9" d="M205.64,396.09c3.18,4.1-10.35,4.69-10.35,4.69a20.57,20.57,0,0,1-12.68-4.19,5.19,5.19,0,0,0-1.82-.91,28.4,28.4,0,0,0-6.2-.66c-.73-.74,0-2.74,0-2.74a20.27,20.27,0,0,1,13.28,4.4A21.3,21.3,0,0,0,205.64,396.09Z"/><path class="cls-10" d="M205.64,396.1a21.41,21.41,0,0,1-14.43,1.68,19.44,19.44,0,0,1-3.34-1.1,20.37,20.37,0,0,0-13.28-4.41l-1.26-22.91-.17-3-.6-11.09H191l-1.06,19.57a14.45,14.45,0,0,0,4.74,11.48l3.71,3.34a9.65,9.65,0,0,0,2.68,1.67C202.84,392.05,205.64,393.6,205.64,396.1Z"/><path class="cls-11" d="M191.21,397.78a19.44,19.44,0,0,1-3.34-1.1,20.37,20.37,0,0,0-13.28-4.41l-1.26-22.91-.17-3a7.11,7.11,0,0,1,3.15,2.21c2.12,2.93,2,7.39,2.49,10.82.34,2.22.52,4.78,2,6.53,1.41,1.6,3.38,2.34,5.08,3.56a5.12,5.12,0,0,1,2.17,2.83c.2.62.25,1.29.44,1.92.41,1.33,1.19,1.62,2.08,2.59A2.47,2.47,0,0,1,191.21,397.78Z"/><path class="cls-61" d="M184,275.3c-9,0-11.87-7.63-12.78-12.95a27.56,27.56,0,0,1-.42-5c3-.83,6.25-1.81,9.75-3l.56,3.38Z"/><path class="cls-7" d="M189.09,306.15,184,275.3c-9,0-11.87-7.63-12.78-12.95a27.56,27.56,0,0,1-.42-5A154.43,154.43,0,0,1,154,261h0l.14,4.29.21,6.41.25,7.67a219.31,219.31,0,0,1,19.25,56.34c.95,5,1.72,10.15,2.23,15.4.14,1.39.25,2.76.35,4.16h10.83l.26-2,2.08-15.7A106.82,106.82,0,0,0,189.09,306.15ZM149,277.56l-.57-11.87-.18-3.78-1.15.12a57.78,57.78,0,0,1-12.05-.12,28.73,28.73,0,0,1,.78,4.58c.55,6-.19,16.32-10.66,20.75L135.72,353l.37,2.29h11.35v-4.88c0-4.53,0-11.8.11-20,.15-20,.56-45.44,1.61-49.32Z"/><path class="cls-61" d="M125.16,287.24l-2.89-18-.81-5s4.08-3.3,13.58-2.28a28.73,28.73,0,0,1,.78,4.58C136.37,272.51,135.63,282.81,125.16,287.24Z"/><path class="cls-62" d="M138.05,262.16a30.59,30.59,0,0,1,1.06,8.26,25.26,25.26,0,0,1-1.38,8.29,16.56,16.56,0,0,1-4.72,7,16.26,16.26,0,0,1-7.53,3.56,22,22,0,0,0,3.75-1.72,14.15,14.15,0,0,0,3.26-2.41,17.49,17.49,0,0,0,4.3-6.75,29.4,29.4,0,0,0,1.55-8,37.73,37.73,0,0,0,0-4.12A40.83,40.83,0,0,0,138.05,262.16Z"/><path class="cls-62" d="M168.24,258c.12,1.17.27,2.33.5,3.47a30.35,30.35,0,0,0,.76,3.4,25.77,25.77,0,0,0,2.62,6.34,13.88,13.88,0,0,0,4.66,4.85,11.54,11.54,0,0,0,3.13,1.37,16.93,16.93,0,0,0,3.42.64,12.63,12.63,0,0,1-6.93-1.34,11.81,11.81,0,0,1-2.92-2.14,17,17,0,0,1-2.22-2.86,21.35,21.35,0,0,1-2.51-6.69A26,26,0,0,1,168.24,258Z"/><path class="cls-8" d="M147.09,262a57.78,57.78,0,0,1-12.05-.12c-9.5-1-13.58,2.28-13.58,2.28l.81,5a13.28,13.28,0,0,1,1.35-.6,38.72,38.72,0,0,1,10-2c.72,0,1.43-.09,2.15-.13,3.7-.26,7.39-.6,11.07-.73l1.53-.07-.18-3.78Zm33.46-7.67c-3.5,1.16-6.74,2.14-9.75,3A154.43,154.43,0,0,1,154,261h0l.14,4.29a107.11,107.11,0,0,0,17.09-2.93c.67-.17,1.33-.35,2-.54,3-.84,5.37-2.7,7.9-4.07Z"/><path class="cls-8" d="M173.84,335.7a219.31,219.31,0,0,0-19.25-56.34l-.25-7.67c5,3.49,9.74,7.21,12.22,13,1.55,3.66,7,25.75,7.87,28.88a84,84,0,0,1,2,10.16C176.75,326.1,177,336.1,173.84,335.7Z"/><path class="cls-8" d="M147.44,350.38v4.88H136.09l-.37-2.29c1-.29,2-.72,2.71-.9a75.21,75.21,0,0,1,7.9-1.46A10.07,10.07,0,0,0,147.44,350.38Z"/><path class="cls-8" d="M187.51,353.28l-.26,2H176.42c-.1-1.4-.21-2.77-.35-4.16.62.17,1.23.37,1.83.5,2.38.57,4.8.88,7.2,1.37C185.74,353.1,186.66,353.14,187.51,353.28Z"/><path class="cls-8" d="M149.16,281.09c-1,3.88-1.46,29.31-1.61,49.32-1.1.32-1.85-.29-2.5-1.32-2.57-4-1.87-10-1.87-14.61,0-7.65-.06-15.28,1-22.84.47-3.53.79-7,2.24-10.24a13.32,13.32,0,0,1,2.61-3.84Z"/><path class="cls-67" d="M142.69,160.85a11.68,11.68,0,0,0,5.34,1.68,9.88,9.88,0,0,0,9.08-5,10.27,10.27,0,0,0,.59-1.2,22.74,22.74,0,0,0,1.42-9.46,44.58,44.58,0,0,0-.56-5.54,19.35,19.35,0,0,0-2.44-4.8,12,12,0,0,0-.85-1.09,1.63,1.63,0,0,0-2.07-.32c-7.66,4.53-12.24,2.57-12.24,2.57-1,.43-2,.84-3,1.26h0a5.25,5.25,0,0,1-.66,2,8.19,8.19,0,0,1-.83,1.25,6.15,6.15,0,0,1-.59.66,3.29,3.29,0,0,0-.83,0l-.17,0a3.07,3.07,0,0,0,.85,6.08,2.78,2.78,0,0,0,1.16-.37H137l.06,5.33.12,8.62,0,3.77s-.18,7.43,11.66,7.71c0,0,9.66-.37,9-9C148.15,168.28,143,161.22,142.69,160.85Zm10.39-14.94a1.33,1.33,0,1,1,1.32-1.33A1.33,1.33,0,0,1,153.08,145.91ZM141,145.2a1.33,1.33,0,1,1,1.33,1.35A1.33,1.33,0,0,1,141,145.2Z"/><path class="cls-68" d="M157.72,163.71a8.83,8.83,0,0,1,.16,1.31c-9.73,3.27-14.93-3.8-15.19-4.17a11.81,11.81,0,0,0,5.34,1.68,9.92,9.92,0,0,0,9.08-5l.49,5Z"/><path class="cls-34" d="M160.11,136.27c.08,6.39-1.55,5.06-1.55,5.06a19.35,19.35,0,0,0-2.44-4.8,12,12,0,0,0-.85-1.09,1.63,1.63,0,0,0-2.07-.32c-7.66,4.53-12.24,2.57-12.24,2.57,1.76-.74,3.63-1.49,5.64-2.29,0,0,6.22-2.7,13.15-4.85.18,1.76.28,3.23.33,4.47C160.1,135.47,160.11,135.88,160.11,136.27Z"/><path class="cls-34" d="M138,139h0a5.25,5.25,0,0,1-.66,2,7.52,7.52,0,0,1-.82,1.25,6.15,6.15,0,0,1-.59.66,3.29,3.29,0,0,0-.83,0l-.17,0a2.63,2.63,0,0,1-.55-1.15,3,3,0,0,1,0-1.14C135.45,140.05,136.67,139.52,138,139Z"/><path d="M153.08,143.25a1.33,1.33,0,1,1-1.34,1.33A1.32,1.32,0,0,1,153.08,143.25Z"/><circle cx="142.35" cy="145.21" r="1.33"/><path class="cls-69" d="M143,154.3a10.54,10.54,0,0,0,4.88,1.41,7.07,7.07,0,0,0,2.44-.38,11,11,0,0,0,1.21-.45c.41-.18.79-.4,1.23-.58a6.13,6.13,0,0,1-2.11,1.8,5.67,5.67,0,0,1-2.78.69,6.1,6.1,0,0,1-2.76-.69A5.67,5.67,0,0,1,143,154.3Z"/><path class="cls-34" d="M150.12,141.14a2.39,2.39,0,0,1,1.32-.9A4.8,4.8,0,0,1,153,140a4,4,0,0,1,2.9,1.09c-1.07,0-2,0-2.89,0l-1.41,0A9.26,9.26,0,0,0,150.12,141.14Z"/><path class="cls-68" d="M146.94,150.63a12.86,12.86,0,0,1,2.84-.76l-.43.54a21.71,21.71,0,0,1-.35-2.89,13.86,13.86,0,0,1,.13-2.94,13.16,13.16,0,0,1,.83,2.82,20.18,20.18,0,0,1,.35,2.89v.07a.43.43,0,0,1-.42.47h0A13.94,13.94,0,0,1,146.94,150.63Z"/><path class="cls-34" d="M138,143a3.82,3.82,0,0,1,1.28-1.25,5.26,5.26,0,0,1,1.68-.68,4.59,4.59,0,0,1,1.81,0,3.64,3.64,0,0,1,1.66.69c-.61.07-1.16.07-1.69.14a11.54,11.54,0,0,0-1.56.26C140.17,142.37,139.18,142.7,138,143Z"/><path class="cls-34" d="M134.43,144.4a2.35,2.35,0,0,1,1.63,1.08,2.56,2.56,0,0,1,.36,1.93,8.22,8.22,0,0,0-.78-1.66A6.06,6.06,0,0,0,134.43,144.4Z"/><path class="cls-36" d="M138,139c-1.3.57-2.52,1.1-3.67,1.63a3,3,0,0,0,0,1.14c.52-.1,1.07-.31,1.51-.41s1-.22,1.45-.36a5.25,5.25,0,0,0,.66-2Zm21.78-8.4c-6.93,2.15-13.15,4.85-13.15,4.85-2,.8-3.88,1.55-5.64,2.29-1,.43-2,.84-3,1.26h0a5.25,5.25,0,0,1-.66,2c.46-.12.91-.26,1.37-.42a35.81,35.81,0,0,1,7.22-1.58,51.54,51.54,0,0,0,10.21-2.42c1.35-.46,2.67-1,4-1.51C160,133.78,159.93,132.31,159.75,130.55Z"/><path class="cls-28" d="M177.79,127.77v1.87c-1.11-1.66-4-2-7.56-1.54a60.93,60.93,0,0,0-10.48,2.45c-6.93,2.15-13.15,4.85-13.15,4.85-2,.79-3.88,1.55-5.64,2.29-1,.43-2,.84-3,1.25-1.3.57-2.52,1.11-3.67,1.64-4.67,2.1-8.13,3.88-10.69,5.33-6,3.41-7,5-7,5s-4.19-3.45.92-7.21a93.92,93.92,0,0,1,12.07-6.93,192.21,192.21,0,0,1,27.28-10.94l1.36-.43a34.78,34.78,0,0,1,10.22-1.64C172.54,123.77,177.12,124.51,177.79,127.77Z"/><path class="cls-29" d="M177.79,129.64s-1.55,10.49-18.65,17.22h0a44.62,44.62,0,0,0-.56-5.53s1.63,1.33,1.55-5.06h0c7.73-3.1,10.11-8.17,10.11-8.17C173.81,127.68,176.68,128,177.79,129.64Z"/><path d="M170.23,128.1s-2.38,5.07-10.11,8.17h0c0-1.47-.12-3.34-.36-5.72A60.93,60.93,0,0,1,170.23,128.1Z"/><path class="cls-29" d="M156.86,125.86a191,191,0,0,0-27.28,10.94l.18-7.07.07-2.82a4.39,4.39,0,0,1,5.33-4.17l3,.65a4.39,4.39,0,0,0,5-2.61,4.39,4.39,0,0,1,7.16-1.44l3.78,3.77Z"/><path class="cls-29" d="M137,148.57l.06,5.34H137c-15.16,3.2-20.39-3-20.39-3s1-1.61,7-5a18.6,18.6,0,0,0,8.74.33,3.08,3.08,0,0,0,3.4,2.71,2.65,2.65,0,0,0,1.16-.38Z"/><path d="M134.3,140.58a3,3,0,0,0,.6,2.29,3.08,3.08,0,0,0-2.55,3.37,18.6,18.6,0,0,1-8.74-.33C126.17,144.46,129.63,142.68,134.3,140.58Z"/><path class="cls-27" d="M156.86,125.86a191,191,0,0,0-27.28,10.94l.18-7.07c3.44-1.37,7.52-.24,11.15-1.09a46.65,46.65,0,0,0,8.92-3.38c1.11-.52,2.71-1.54,4.27-2.15Z"/><path class="cls-70" d="M147.76,251.85l-.29-5.9L147,236l-1.56-32.71-.67-14a5.25,5.25,0,0,1-2.52,3.54l-.69.4a3.62,3.62,0,0,0-1.34,1.35l-6.3,11.34c-4.93,8.64-9.58,13.41-13.28,16.06,0,.16.23,1.94.5,4.69.73,7.37,1.83,21.7.59,30.64,0,0-.26,4.68-.26,6.93,0,0,4.08-3.3,13.58-2.28a57.78,57.78,0,0,0,12.05.12l1.15-.12Zm30.55-33.47c-.09-1.22-.14-2.39-.14-3.47a52.2,52.2,0,0,1-12.7-13.06,54.36,54.36,0,0,1-3.29-5.5,9.78,9.78,0,0,0-2.36-3.12l-1.67-.78a6.72,6.72,0,0,1-2.89-2.67c-2.21,2.2-3.6-.18-3.6-.18L152,201l1.05,32.13.33,10.16.27,8.12L154,261h0a154.43,154.43,0,0,0,16.8-3.66c3-.83,6.25-1.81,9.75-3,1.52-.48,3.09-1,4.71-1.6C185.26,252.76,179.28,232.11,178.31,218.38Zm10.49-39.65c-5.57-16.84-30.89-16.2-30.89-16.2l-.31,0,.12,1.13a9.25,9.25,0,0,1,.16,1.33c.65,8.61-9,9-9,9-11.84-.28-11.66-7.71-11.66-7.71l0-3.77H137s-28.59,4.67-32.36,27.73a30.26,30.26,0,0,0-.27,6.52,106.8,106.8,0,0,0,1.83,15.2s1.3-6.49,14.32-10.51l.13,0a50,50,0,0,0,10-8.36,140.07,140.07,0,0,0,11.13-13.22.68.68,0,0,1,0-.19l-.49-.22a1,1,0,0,1-.4-1.39,3.45,3.45,0,0,1,1.09-1.06l1.27-.79a4,4,0,0,1,2-.58l2.47-1.21a3.47,3.47,0,0,1,1.2-.33,1.37,1.37,0,0,1,.53,0l5.48.33a2.08,2.08,0,0,1,1.68,1l5.64,9.9a7.52,7.52,0,0,0,1.73,2l4.31,3.53h0l1.66,1.35a22.38,22.38,0,0,0,3,2.08,57.67,57.67,0,0,0,5.8,2.89l.27.13a31.73,31.73,0,0,0,5.76,1.87s7.94,1.71,10.14,6.79C194.35,203.31,188.8,178.73,188.8,178.73Z"/><path class="cls-71" d="M169.44,226.14a64.37,64.37,0,0,1-8,4,65.32,65.32,0,0,1-8.39,3,64.44,64.44,0,0,1,8-4A66.93,66.93,0,0,1,169.44,226.14Z"/><path class="cls-71" d="M132.16,243.66a47.18,47.18,0,0,1,7.12-4.42A48.93,48.93,0,0,1,147,236a70.69,70.69,0,0,1-7.22,4.21A75.72,75.72,0,0,1,132.16,243.66Z"/><path class="cls-72" d="M144.76,189.24l.67,14a18.17,18.17,0,0,0-5.35,6.21c-2.94,5.46-7,12.71-12.64,15.71a10.93,10.93,0,0,1-6.31,1.42c-.27-2.75-.48-4.53-.5-4.69,3.7-2.65,8.35-7.42,13.28-16.06l6.3-11.34a3.62,3.62,0,0,1,1.34-1.35l.69-.4A5.25,5.25,0,0,0,144.76,189.24Z"/><path class="cls-72" d="M178.31,218.38a27.39,27.39,0,0,1-7.45-2c-4.44-2.39-7.51-6.57-10.26-10.57A10.25,10.25,0,0,0,152,201l-.37-11.39s1.39,2.38,3.6.18a6.72,6.72,0,0,0,2.89,2.67l1.67.78a9.78,9.78,0,0,1,2.36,3.12,54.36,54.36,0,0,0,3.29,5.5,52.2,52.2,0,0,0,12.7,13.06C178.17,216,178.22,217.16,178.31,218.38Z"/><path class="cls-72" d="M147.47,246l.29,5.9c-4.74.5-9.31,1-13.51,3.49a63,63,0,0,0-5.26,3.57c.63-1,1.12-2,2.07-3.48,2.07-1.43,3.47-4,5.82-5.44C140.11,248.07,143.89,247.19,147.47,246Z"/><path class="cls-72" d="M173,239c-3.62,1.09-5.54,4.89-8.29,7.24-1.93,1.65-3.89,3.43-6.33,4.3a19.25,19.25,0,0,1-4.65.84l-.27-8.12a50.65,50.65,0,0,0,8.17-5c2-1.56,3.83-3.81,5.93-5.1,0,2.94-3.4,6.14-5.27,8.21-1.69,1.87-3.9,3.5-5.41,5.4C162.87,246.73,166.89,239.4,173,239Z"/><path class="cls-72" d="M130.62,193.07a50,50,0,0,1-10,8.36l-.13,0c-.14-2,.08-4.08,0-6.13-.07-1.57-.64-3.18-.48-4.85.54,1.42,3.23,1.91,4.52,2.27a11.81,11.81,0,0,0,4.6.65A10.16,10.16,0,0,0,130.62,193.07Z"/><path class="cls-72" d="M178.75,197.2a57.67,57.67,0,0,1-5.8-2.89,22.38,22.38,0,0,1-3-2.08l-1.66-1.35a10.5,10.5,0,0,0,4.27-.15c2.07-.49,3.44-1.84,5.23-2.61.72,2.2.28,5,.62,7.37A16.27,16.27,0,0,0,178.75,197.2Z"/><path class="cls-72" d="M124.1,171.23c2.55,5.37,7.34,9.74,13.36,10.79-5.37-1.13-7.79-7.08-9.77-11.42-.81,1.12.16,2.79,0,4.07C126.09,174.5,124.74,172.28,124.1,171.23Z"/><path class="cls-72" d="M161.41,178.28a12.34,12.34,0,0,1,2-.26,16.34,16.34,0,0,0,5.55-3c1.91-1.34,3-3.29,4.73-4.65-.39,3.93-2.19,6.34-5.67,8.2C166.19,179.6,162.74,180.47,161.41,178.28Z"/><path class="cls-71" d="M179,197.86a.53.53,0,0,1-.52-.39c-1.92-6.44-.09-16.51,0-16.94a.53.53,0,1,1,1,.2c0,.1-1.85,10.24,0,16.44a.54.54,0,0,1-.36.67Z"/><path class="cls-71" d="M120.63,202h0a.53.53,0,0,1-.51-.56c0-.1.49-9.7-2.22-17.4a.54.54,0,0,1,1-.36c2.77,7.91,2.29,17.42,2.27,17.82A.54.54,0,0,1,120.63,202Z"/><path class="cls-67" d="M195.19,210.84s0,.07,0,.19c-.34,1.49-2.79,10.45-12.05,6.71a26,26,0,0,1-4.93-2.83,52.2,52.2,0,0,1-12.7-13.06,54.36,54.36,0,0,1-3.29-5.5,9.78,9.78,0,0,0-2.36-3.12l-1.67-.78a6.72,6.72,0,0,1-2.89-2.67,6.93,6.93,0,0,1-.57-1.27l-2.43-7.4-2.62-1A1.64,1.64,0,0,0,149,180l-4,.15-1.64.52a1.24,1.24,0,0,1-1.58-.85.68.68,0,0,1,0-.19l-.49-.22a1,1,0,0,1-.4-1.39,3.45,3.45,0,0,1,1.09-1.06l1.27-.79a4,4,0,0,1,2-.58l2.47-1.21a3.47,3.47,0,0,1,1.2-.33,1.37,1.37,0,0,1,.53,0l5.48.33a2.08,2.08,0,0,1,1.68,1l5.64,9.9a7.52,7.52,0,0,0,1.73,2l6,4.89a22.38,22.38,0,0,0,3,2.08,61,61,0,0,0,6.07,3l.2.08a31.3,31.3,0,0,0,5.56,1.79s7.94,1.71,10.14,6.79v0A7.07,7.07,0,0,1,195.19,210.84Z"/><path class="cls-67" d="M155.26,189.78c-2.21,2.2-3.6-.18-3.6-.18a.12.12,0,0,1,0,.08,1.43,1.43,0,0,1-2.4-.7,7.94,7.94,0,0,0-.87-2.32,1.73,1.73,0,0,0-1.51-.9,1.71,1.71,0,0,0-1.68,1.4l-.4,2.08a5.25,5.25,0,0,1-2.52,3.54l-.69.4a3.62,3.62,0,0,0-1.34,1.35l-6.3,11.34c-4.93,8.64-9.58,13.41-13.28,16.06-5,3.59-8.36,3.22-8.36,3.22-7.3-2.13-6.2-12.27-6.1-13.12a.28.28,0,0,0,0-.05s1.31-6.53,14.45-10.55l.28-.17c9.31-5.56,20.84-21.41,20.84-21.41a1.24,1.24,0,0,0,1.58.85l1.64-.52,4-.15a1.64,1.64,0,0,1,.66.11l2.62,1,2.43,7.4A6.93,6.93,0,0,0,155.26,189.78Z"/><path class="cls-69" d="M151.66,190.13h-.1a.53.53,0,0,1-.43-.63c.11-.55.92-5.4-3.69-7a.53.53,0,1,1,.35-1c5.47,1.88,4.52,7.56,4.4,8.21A.55.55,0,0,1,151.66,190.13Z"/><path class="cls-69" d="M153.24,177.2a.55.55,0,0,1-.3-.09l-1-.69a1.39,1.39,0,0,0-.81-.25H145.2a.54.54,0,0,1,0-1.08h5.91a2.48,2.48,0,0,1,1.42.44l1,.69a.52.52,0,0,1,.14.74A.51.51,0,0,1,153.24,177.2Z"/><path class="cls-69" d="M155.26,190.32a.53.53,0,0,1-.47-.27,8,8,0,0,1-.61-1.37l-2.35-7.16-2.38-.88a1.21,1.21,0,0,0-.44-.08l-3.94.15-1.58.5a1.8,1.8,0,0,1-1.4-.13,1.73,1.73,0,0,1-.86-1.1.92.92,0,0,1,0-.26,1.42,1.42,0,0,1,0-.19,1.79,1.79,0,0,1,1-1.59l.93-.46a2.91,2.91,0,0,1,1.19-.3l6.2-.21a.54.54,0,0,1,0,1.08l-6.17.2a1.93,1.93,0,0,0-.74.19l-.93.47a.7.7,0,0,0-.39.62.57.57,0,0,1,0,.13.76.76,0,0,0,.36.48.73.73,0,0,0,.56.05l1.64-.53.14,0,4-.15a2,2,0,0,1,.86.14l2.63,1a.52.52,0,0,1,.32.33l2.43,7.41a6.56,6.56,0,0,0,.53,1.18.54.54,0,0,1-.21.73A.48.48,0,0,1,155.26,190.32Z"/><path class="cls-69" d="M156.56,176a.53.53,0,0,1-.46-.26,1.56,1.56,0,0,0-1.25-.78l-5.48-.32a1.66,1.66,0,0,0-.4,0,3,3,0,0,0-1.07.29.54.54,0,1,1-.46-1,4.1,4.1,0,0,1,1.39-.39,3.51,3.51,0,0,1,.6,0l5.48.33a2.62,2.62,0,0,1,2.11,1.3.54.54,0,0,1-.19.74A.52.52,0,0,1,156.56,176Z"/><path class="cls-68" d="M120.29,205.74c-1.12,1.42-3.49,1.61-5.12,2.25-2.66,1-6,3.25-9,4a.28.28,0,0,0,0-.05s1.31-6.53,14.45-10.55l.28-.17C121.18,202.83,121.21,204.58,120.29,205.74Z"/><path class="cls-68" d="M195.19,210.84s0,.07,0,.19a3.36,3.36,0,0,1-1.64-.76c-2.5-1.94-2.61-5.16-5.82-6.44-4.11-1.65-7-3.39-8.47-6.42a31.3,31.3,0,0,0,5.56,1.79s7.94,1.71,10.14,6.79v0A7.07,7.07,0,0,1,195.19,210.84Z"/></g></g></svg>