<svg id="Groupe_94" data-name="Groupe 94" xmlns="http://www.w3.org/2000/svg" xmlns:xlink="http://www.w3.org/1999/xlink" width="27.21" height="27.204" viewBox="0 0 27.21 27.204">
  <defs>
    <clipPath id="clip-path">
      <rect id="Rectangle_158" data-name="Rectangle 158" width="27.21" height="27.204" fill="none"/>
    </clipPath>
  </defs>
  <g id="Groupe_93" data-name="Groupe 93" clip-path="url(#clip-path)">
    <path id="Tracé_1624" data-name="Tracé 1624" d="M10.416,0A10.4,10.4,0,1,1,0,10.3,10.389,10.389,0,0,1,10.416,0m-.029,1.62a8.779,8.779,0,1,0,8.759,8.815A8.732,8.732,0,0,0,10.387,1.62" transform="translate(0 0)"/>
    <path id="Tracé_1625" data-name="Tracé 1625" d="M132.951,135.336a1.641,1.641,0,0,1,.065-.539c.218-.439,0-.694-.276-1.009a1.491,1.491,0,0,1-.421-.926c.044-.685.855-.892,1.394-.351a1.206,1.206,0,0,0,1.351.416,2.171,2.171,0,0,1,2.12.68c1.167,1.154,2.337,2.306,3.478,3.485a2.455,2.455,0,1,1-3.463,3.48c-1.206-1.146-2.411-2.3-3.539-3.52a7.068,7.068,0,0,1-.862-1.632l.152-.084m2.408-.955c-.266.243-.631.42-.67.652a1.276,1.276,0,0,0,.265.966c1.045,1.108,2.141,2.168,3.228,3.236.469.461.958.5,1.3.1.4-.46.234-.876-.147-1.257-1.078-1.077-2.15-2.16-3.238-3.226a4.66,4.66,0,0,0-.74-.475" transform="translate(-114.181 -114.082)"/>
    <path id="Tracé_1626" data-name="Tracé 1626" d="M23.226,30.509a7.361,7.361,0,0,1,7-6.669c.563,0,.968.178.993.774s-.384.812-.927.875a7.117,7.117,0,0,0-1.541.262A5.352,5.352,0,0,0,24.993,30.5c-.1.871-.728,1.345-1.283.9-.242-.2-.327-.585-.484-.886" transform="translate(-20.042 -20.573)"/>
    <path id="Tracé_1627" data-name="Tracé 1627" d="M35.055,100.088c.065-.536.323-.862.837-.855a.807.807,0,0,1,.02,1.614.812.812,0,0,1-.857-.759" transform="translate(-30.25 -85.63)"/>
  </g>
</svg>
