<svg xmlns="http://www.w3.org/2000/svg" width="26.344" height="15.609" viewBox="0 0 26.344 15.609">
  <g id="tripadvisor-logotype" transform="translate(0 -20.082)">
    <g id="Groupe_29" data-name="Groupe 29" transform="translate(0 20.082)">
      <path id="Tracé_1505" data-name="Tracé 1505" d="M16.144,20.326a14.123,14.123,0,0,1,2.167.507,14.827,14.827,0,0,1,3.516,1.6.539.539,0,0,0,.269.078c1.295.005,2.589,0,3.882,0,.1,0,.208.011.312.017,0,.025,0,.036,0,.042-.06.093-.122.185-.182.277a7.941,7.941,0,0,0-1.036,2.157.249.249,0,0,0,.028.236,6.6,6.6,0,0,1-5.377,10.444,6.131,6.131,0,0,1-1.576-.2A6.609,6.609,0,0,1,14.91,33.58c-.118-.125-.228-.256-.354-.4l-1.411,2.1-1.387-2.073a.353.353,0,0,0-.047.024.215.215,0,0,0-.028.029A6.539,6.539,0,0,1,7.6,35.581a6.387,6.387,0,0,1-2.723-.153A6.61,6.61,0,0,1,.088,30.074a6.375,6.375,0,0,1,.118-2.609,6.633,6.633,0,0,1,1.027-2.23.257.257,0,0,0,.029-.192,7.37,7.37,0,0,0-.925-1.99c-.1-.158-.22-.305-.33-.457v-.053a.561.561,0,0,0,.066.007q1.987,0,3.974,0a.336.336,0,0,0,.171-.055,14.272,14.272,0,0,1,2.964-1.438,16.107,16.107,0,0,1,2.3-.624,18.431,18.431,0,0,1,2.288-.3A19.414,19.414,0,0,1,16.144,20.326Zm-1.661,8.748a5.257,5.257,0,1,0,5.145-5.237A5.265,5.265,0,0,0,14.483,29.074ZM6.6,23.818a5.251,5.251,0,1,0,5.263,5.274A5.257,5.257,0,0,0,6.6,23.818Zm.261-1.372a6.708,6.708,0,0,1,6.318,5.732,6.683,6.683,0,0,1,6.217-5.7,14.953,14.953,0,0,0-5.857-1.221A16.22,16.22,0,0,0,6.857,22.445Z" transform="translate(0 -20.082)" fill="#0c1229"/>
      <path id="Tracé_1506" data-name="Tracé 1506" d="M64.872,41.31a3.257,3.257,0,1,1-3.264,3.253A3.246,3.246,0,0,1,64.872,41.31ZM67,44.563a2.129,2.129,0,0,0-4.258-.009A2.129,2.129,0,1,0,67,44.563Z" transform="translate(-45.142 -35.636)" fill="#0c1229"/>
      <path id="Tracé_1507" data-name="Tracé 1507" d="M15.458,41.31a3.257,3.257,0,1,1-3.268,3.25A3.244,3.244,0,0,1,15.458,41.31Zm2.121,3.246a2.13,2.13,0,0,0-4.26.007,2.13,2.13,0,1,0,4.26-.007Z" transform="translate(-8.932 -35.636)" fill="#0c1229"/>
      <path id="Tracé_1508" data-name="Tracé 1508" d="M70.863,49.443a1.079,1.079,0,1,1-1.082,1.089A1.08,1.08,0,0,1,70.863,49.443Z" transform="translate(-51.131 -41.596)" fill="#0c1229"/>
      <path id="Tracé_1509" data-name="Tracé 1509" d="M21.409,49.407a1.089,1.089,0,1,1,0,2.179,1.089,1.089,0,1,1,0-2.179Z" transform="translate(-14.889 -41.569)" fill="#0c1229"/>
    </g>
  </g>
</svg>
