<svg xmlns="http://www.w3.org/2000/svg" xmlns:xlink="http://www.w3.org/1999/xlink" width="14.862" height="38.825" viewBox="0 0 14.862 38.825">
  <defs>
    <clipPath id="clip-path">
      <rect id="Rectangle_8" data-name="Rectangle 8" width="14.191" height="38.583" fill="#0c1229"/>
    </clipPath>
  </defs>
  <g id="Groupe_69" data-name="Groupe 69" transform="matrix(1, 0.017, -0.017, 1, 0.673, 0)">
    <g id="Groupe_8" data-name="Groupe 8" clip-path="url(#clip-path)">
      <path id="Tracé_135" data-name="Tracé 135" d="M8.377,20.845a.093.093,0,0,0,.02-.038,3.3,3.3,0,0,1,1.856-2.354A10.088,10.088,0,0,0,12.3,16.911a7,7,0,0,0,1.871-4.449,20.89,20.89,0,0,0-.516-5.2l.046-.01c.028,0,.016-.047-.012-.042l-.043.008c-.039-.2-.078-.393-.117-.586a23.966,23.966,0,0,0-1.9-5.719,1.2,1.2,0,0,0-.043-.362c-.013-.046-.088-.038-.085.011a.965.965,0,0,1-.006.15.551.551,0,0,0-.356-.332A14.358,14.358,0,0,0,7.487,0,29.021,29.021,0,0,0,3.6.241a1.372,1.372,0,0,0-.906.48.055.055,0,0,0-.095,0c-.014.029-.027.059-.042.088a.039.039,0,0,0-.044.055c0,.005.007.009.01.014A26.034,26.034,0,0,0,0,12.374a6.917,6.917,0,0,0,1.735,4.3,7.945,7.945,0,0,0,1.992,1.577,3.488,3.488,0,0,1,2.045,2.468.087.087,0,0,0,.019.037c.151,2.1.352,4.191.415,6.3.065,2.217-.04,4.429-.038,6.643-.1.361-.23.709-.356,1.064a2.085,2.085,0,0,1-.316.34c-1.068.119-2.133.386-3.186.59-.6.116-1.519.2-1.641.944-.028-.007-.066.019-.055.053s.038.086.056.13a.709.709,0,0,0,.3.942,3.172,3.172,0,0,0,2.067.512c.008,0,.011-.008.017-.011.491.083.984.12,1.408.158.347.03.7.05,1.058.063a21.661,21.661,0,0,0,3.87.026A19.936,19.936,0,0,0,12,38.135l-.023.016a.072.072,0,0,0,.073.125c.166-.09.33-.181.495-.273a2.228,2.228,0,0,0,.948-.529.341.341,0,0,0,.127-.116c-.012.085-.021.17-.037.256,0,.018.023.033.032.013a1.489,1.489,0,0,0,.1-.891c-.005-.032-.058-.025-.057.008a2.88,2.88,0,0,1-.01.336.493.493,0,0,1-.06.183.273.273,0,0,1-.022.025c-.1.071-.207.132-.315.193,0-.02,0-.04,0-.06.042-.035.086-.067.127-.1a.02.02,0,0,0,0-.028.617.617,0,0,0,.269-.433.466.466,0,0,0-.016-.19.045.045,0,0,0,.034-.067.5.5,0,0,0-.145-.14.633.633,0,0,0-.113-.107c.036.016.07.033.107.048.02.008.035-.022.02-.035a2.811,2.811,0,0,0-1.246-.508c-.01,0-.014.012,0,.015a5.2,5.2,0,0,1,.89.374.608.608,0,0,0-.1-.016s0,0,0,0a1.945,1.945,0,0,0-.189-.05,2.278,2.278,0,0,0-.3-.174l0,0L12.561,36c-.026-.013-.052-.026-.079-.037a2.812,2.812,0,0,0-.7-.21c.142.013.284.022.425.027.023,0,.029-.038.005-.041a13.163,13.163,0,0,1-3.12-.806c-.284-.149-.573-.284-.864-.406-.055-.068-.109-.135-.165-.2a.041.041,0,0,0-.062,0c.023-2.393-.1-4.784-.039-7.18.056-2.109.261-4.2.414-6.3m1.762,14.572a8.016,8.016,0,0,0,.876.221l.022.007-.185-.026c-.268-.042-.536-.083-.805-.123,0-.009,0-.019-.007-.025-.059-.037-.122-.072-.182-.109.094.017.188.035.282.054m3.027,1.964-.032.018c0-.007,0-.013,0-.02l.028,0v.007m-11.23.427.008,0c.053.006.106.009.159.011,0,.02-.009.038-.012.06-.053-.021-.1-.044-.155-.067m.326.124c.058-.027.115-.057.172-.086-.025.036-.051.071-.073.11l-.1-.024m.24-.3-.071,0L2.52,37.5a.067.067,0,0,0,.028-.036c.053.011.1.024.158.034-.068.046-.135.092-.2.132M2.171,37.5a.076.076,0,0,0,.024-.108c.043.011.088.018.132.028l-.156.08m-.443-.009A1.25,1.25,0,0,1,1.9,37.3c.06.019.12.039.182.056l-.358.133m-.2.01c-.037-.01-.072-.022-.107-.034l.175-.058a1.13,1.13,0,0,0-.068.092m-.11-.181c.032-.053.064-.105.094-.159.06.025.117.053.178.075-.09.029-.181.057-.272.084m-.186.045a2.183,2.183,0,0,1-.24-.248A.372.372,0,0,1,1,36.907a3.745,3.745,0,0,0,.418.214c-.065.079-.11.138-.192.243m-.316-.449c-.006-.025-.01-.05-.015-.075l.058.037a.282.282,0,0,0-.043.038m1.814.829.031-.008a.046.046,0,0,0,.03-.057c.032-.033.06-.069.1-.1a.066.066,0,0,0,.02-.045l.148.022a1.371,1.371,0,0,1-.44.33c.036-.048.076-.1.116-.14m.511-.162.052.008a.075.075,0,0,0,.038.039.071.071,0,0,0-.02,0l-.153.073c.028-.04.057-.08.084-.122m6.786-.195a.064.064,0,0,0,.04-.078,9.652,9.652,0,0,0,1.262-.117c-.058.019-.117.038-.175.054a.052.052,0,0,0-.025.019l-.779.192a.062.062,0,0,0-.046.047c-.156.019-.31.039-.463.062.149-.035.3-.074.442-.119a.021.021,0,0,0-.011-.04c-.257.055-.516.092-.776.127a4.567,4.567,0,0,0,.531-.147m.062-1.609.013-.008a.012.012,0,0,0-.012-.022l-.045.023-.073-.011a1.045,1.045,0,0,1-.115-.033.021.021,0,0,0-.014-.025c-.044-.015-.091-.025-.136-.039l.026-.017s0-.009,0-.008-.028.014-.042.019c-.032-.01-.066-.019-.1-.028s-.063-.033-.093-.051c.436.082.876.147,1.314.215l.963.146c.065.029.1.039.252.093a1.7,1.7,0,0,0,.169.034c0,.014,0,.027,0,.04-.7-.133-1.406-.22-2.1-.328m-1.628.367v0h0l0,0m.483-.188c-.062.016-.124.035-.186.051.029-.015.058-.027.087-.043.085-.047.027-.191-.067-.158l-.02.009h0l-.018.009a2.558,2.558,0,0,0-.261.119c-.058.022-.116.042-.174.058l.261-.171c.074-.049.028-.187-.064-.152a2.58,2.58,0,0,1-.521.137l.493-.334c.08-.053.008-.18-.076-.13a2.192,2.192,0,0,1-.476.213c.13-.086.261-.169.389-.257a.07.07,0,0,0,.025-.07,1.485,1.485,0,0,0,.272.181c-.012.011-.017.028,0,.035.053.017.108.03.161.046a1.439,1.439,0,0,0,.357.228c.023.01.039-.024.023-.039A1.762,1.762,0,0,0,9,35.567c.08.022.158.045.238.065a.8.8,0,0,0,.114.09.988.988,0,0,0,.1.042A4.042,4.042,0,0,0,9.032,36a.084.084,0,0,0-.093-.039M7.273,24.179c-.008-.135-.016-.267-.024-.4-.007-.148-.015-.294-.023-.439A18.076,18.076,0,0,0,7.2,21.516c.012.022.05.023.055,0a2.371,2.371,0,0,0,.03-.5c0-.011.007-.023.01-.034,0,.174,0,.348.009.522a.008.008,0,0,0,.016,0c.01-.221.01-.444.009-.666.008-.036.018-.072.025-.108a.04.04,0,0,0-.026-.048c0-.077,0-.153,0-.229a.015.015,0,0,0-.031,0c0,.075,0,.151,0,.226a.038.038,0,0,0-.023.022c0-.084-.009-.167-.011-.248a.034.034,0,0,0-.011-.025c0-.017,0-.033.009-.05a.035.035,0,0,0-.067-.018,3.736,3.736,0,0,0-.085.371c-.01-.065-.019-.131-.031-.195,0-.023-.035-.014-.038,0s-.005.063-.009.094c-.012-.05-.023-.1-.037-.148s0-.081-.005-.12a.037.037,0,0,0-.074,0c0,.131-.012.269-.018.408a.046.046,0,0,0-.015-.006c0-.134,0-.268,0-.4a.015.015,0,0,0-.031,0c0,.135,0,.27,0,.4a.039.039,0,0,0-.023.037c-.019-.09-.035-.181-.063-.269-.005-.018-.037-.022-.04,0a5.032,5.032,0,0,0-.013,1.032,11.21,11.21,0,0,0,0,1.651c0,.083,0,.165,0,.248,0-.013,0-.025,0-.038a.016.016,0,0,0-.032,0c-.037.809-.06,1.635-.04,2.453,0-.119-.014-.237-.02-.356.017-.579.02-1.159.019-1.734,0,0,.013-.007.013-.014a13.369,13.369,0,0,0-.055-2.088c.012.009.031.009.033-.007a6.273,6.273,0,0,0,.012-1.378c.2-.026.405-.057.607-.063.11,0,.221,0,.333.008a.025.025,0,0,0-.025.025c-.022.278-.039.578-.038.873-.052.566-.091,1.153-.09,1.726a.022.022,0,0,0-.028.018,8.482,8.482,0,0,0-.119,1.284M7,32.89a.051.051,0,0,0-.09-.035.052.052,0,0,0-.093.029c.055-.6.073-1.208.077-1.816.008,0,.018-.006.019-.018.029-.3.044-.61.059-.917,0,.914-.023,1.841.028,2.756H7m-.164-2.84c-.052.925-.122,1.861-.1,2.785-.011-.086-.025-.169-.039-.252s0-.163-.005-.244c.052-1.014.065-2.033.043-3.04a.032.032,0,0,0-.059-.016c.035-.612.042-1.227.058-1.822,0-.041-.056-.039-.062,0,0-.389-.012-.777-.024-1.165.007.155.011.31.021.464a.018.018,0,0,0,.036,0,27.484,27.484,0,0,0,.016-2.876s.01,0,.01-.007c.01-.059.014-.119.023-.178a.034.034,0,0,0,.028.027c.006.077.01.155.019.232,0,.008.006.012.009.018a20.058,20.058,0,0,0,.023,2.405,15.364,15.364,0,0,0,.017,2.51q-.017.581-.013,1.161M6.4,34.719c.018-.032.037-.064.054-.1a.065.065,0,0,0-.113-.066v0l-.017-.007c.055-.078.1-.16.157-.241,0,.111-.005.221-.009.332a.061.061,0,0,0,.055.067c-.047.062-.093.123-.141.185a.56.56,0,0,1,.015-.176M2.768,1.2l-.037.047c-.018-.017-.038-.033-.055-.051A.824.824,0,0,1,2.7,1.09a.929.929,0,0,0,.1.082c-.016.032-.033.065-.048.1l-.013-.011c.012-.017.022-.035.033-.051s0-.01-.007-.006M3.212.546,3.143.608a.961.961,0,0,0-.235.306L2.854.866a.412.412,0,0,1,0-.068A.983.983,0,0,1,3.212.546M4.64.323c-.069.037-.137.075-.2.12s-.181.1-.216.188c-.092.006-.185.016-.277.029l.006,0a4.4,4.4,0,0,0,.323-.31L4.64.323M5.355.269a3.139,3.139,0,0,0-.305.14c-.089.048-.206.1-.246.2-.1,0-.191,0-.287.006l-.03,0C4.512.6,4.537.576,4.559.56a2.744,2.744,0,0,0,.3-.253c.167-.014.334-.026.5-.038M7.293.175c-.07.027-.141.053-.211.083-.1.042-.232.077-.27.186a.032.032,0,0,0,.005.03L6.5.486c.056-.039.1-.1.153-.142A1.138,1.138,0,0,1,6.915.182c.126,0,.252,0,.378-.007m4.087,2.508c-.028.013-.056.022-.084.034-.027-.121-.062-.244-.1-.367l.03-.007a3.386,3.386,0,0,1,.142.326c0,.007.009.008.012.014M3.711,2.3c.033-.1.068-.2.1-.3l.065.012a1.382,1.382,0,0,0-.133.239c-.011.017-.022.036-.033.053m-.9-1.035L2.8,1.308l-.023-.02.048-.1A1.408,1.408,0,0,0,3,1.276l-.04.131a1.216,1.216,0,0,1-.128-.081c0-.018.007-.035.011-.053a.014.014,0,0,0-.027-.008m.309-.188a.034.034,0,0,0,.051.011A1.848,1.848,0,0,1,3.411.954a.458.458,0,0,0-.093.113c-.013.022.013.052.036.037A.8.8,0,0,1,3.871.965C3.906.971,3.935.921,3.9.9A.7.7,0,0,0,3.769.859C4.836.838,5.9.722,6.973.686h.35c.563,0,1.127,0,1.69,0a5.24,5.24,0,0,1,1.817.42,16,16,0,0,1-3.548.374A20.45,20.45,0,0,1,5.1,1.455a8.573,8.573,0,0,1-1.763-.206l0,0a1.358,1.358,0,0,1-.226-.156l.015-.012m.173.351c-.015.037-.027.074-.042.111-.042-.015-.081-.031-.12-.048a.054.054,0,0,0-.013,0l-.089-.041c.009-.048.02-.1.029-.145a2.356,2.356,0,0,0,.244.082l.03.014a.051.051,0,0,0-.038.031m-.482.045c-.013.033-.025.067-.038.1l.024-.11.015.01m.018.011c.015.01.03.021.047.03l-.046,0a.03.03,0,0,0-.011,0l.01-.032m.123.345.012,0c-.012.039-.023.077-.035.117.008-.04.016-.079.024-.119m.157.032.022,0c-.017.048-.032.1-.048.146.009-.051.017-.1.026-.15m.033-.186v0l.053.014,0,.008a.509.509,0,0,1-.05-.02m.18.046.079.021,0,.009-.079-.018,0-.012m.158.042.031.008-.032,0v0m.482.261.027,0a1.37,1.37,0,0,1-.125.273c.032-.093.065-.185.1-.278m-.231-.355a2.384,2.384,0,0,0-.369-.1c.009-.037.02-.073.028-.11a.049.049,0,0,0,0-.032,1.225,1.225,0,0,0,.679.124s0,0,0-.006l.043.008a12.908,12.908,0,0,0,2.68.195c.976-.012,1.949-.112,2.92-.209a3.286,3.286,0,0,0,1.592-.378.073.073,0,0,0,.081-.062c.009-.008.017-.018.027-.027-.037.11-.08.218-.121.329-1.328.153-2.608.473-3.959.508A16.318,16.318,0,0,1,5.15,1.838c-.347-.037-.9-.065-1.417-.17m7.216.047c.1-.033.2-.072.295-.11a.037.037,0,0,0,0,.016l0,.006c-.1.031-.2.062-.293.088m.233.6c-.017-.05-.033-.1-.051-.15.027.048.051.1.075.146l-.025,0m-.029-.18.042-.01c.015.051.029.1.045.152-.03-.047-.059-.094-.087-.142m-.014-.026-.03-.056.062-.013.017.061-.049.007m-.053-.1c-.036-.069-.069-.137-.1-.205l.108-.033c.02.077.043.154.066.231l-.074.008m.114-.268s0,0,0,0l.066-.023c.019.09.042.18.063.27l-.041,0c-.028-.082-.055-.165-.085-.247m.144-.057.043-.015c.018.1.036.214.056.325-.032-.1-.064-.208-.1-.31m.319-.2c-.115.045-.23.079-.345.117h0a.041.041,0,0,0-.015-.017c.051-.021.106-.037.156-.058s.04-.117-.015-.136a.63.63,0,0,0,.134-.226c.037.108.072.216.108.323a.028.028,0,0,0-.022,0M11,1.059a.123.123,0,0,0,.016-.082l.08.047c-.032.01-.063.024-.1.034M7.339.46,7.008.468c.037-.017.072-.037.107-.054.137-.066.263-.146.394-.22A.043.043,0,0,0,7.528.171c.057,0,.113,0,.17,0a1,1,0,0,0-.36.271c-.005.008,0,.014,0,.022M6.6.222C6.512.275,6.39.376,6.39.484c0,0,0,0,0,.007Q6.163.5,5.93.516a2.364,2.364,0,0,0,.351-.27A.061.061,0,0,0,6.3.21C6.419.2,6.539.2,6.66.19,6.639.2,6.617.209,6.6.222M5.556.543Q5.328.561,5.1.585L5.138.561A3.58,3.58,0,0,0,5.5.275a.027.027,0,0,0,.01-.018c.17-.012.34-.022.509-.032a1.882,1.882,0,0,0-.466.318M3.937.5A3.151,3.151,0,0,0,3.69.707a1.859,1.859,0,0,0-.228.073l.01-.01c.122-.11.236-.227.348-.348C3.831.408,3.816.386,3.8.4c-.122.085-.24.175-.355.269a1.484,1.484,0,0,0-.366.341s0,0,0,0-.02.021-.031.031L2.954.957A.9.9,0,0,0,3.248.78a2.489,2.489,0,0,0,.34-.331c.006-.007,0-.015.008-.023A4.242,4.242,0,0,1,4.13.355C4.064.4,4,.446,3.937.5M2.771.96c0,.014.008.029.012.043C2.769.995,2.76.982,2.748.973c.007-.015.014-.03.022-.045a.313.313,0,0,0,0,.032m-.213.22a.815.815,0,0,0,.042.21c0,.006.008,0,.012.008a3.948,3.948,0,0,0-.257.389q.1-.3.2-.606m.181.232c.009.008.017.017.026.025L2.7,1.681s-.007,0-.008,0c-.051.118-.1.235-.156.353.071-.208.139-.417.2-.624M2.313,2.8c-.048.136-.093.273-.139.409l.072-.245c.022-.055.046-.109.067-.164m-1.1,4.329c.132-.581.275-1.159.422-1.737.2-.671.4-1.343.6-2.014-.17.666-.326,1.334-.45,2.008a.025.025,0,0,0,.048.013c.36-1.165.622-2.364.877-3.557.029-.09.057-.18.086-.271a.031.031,0,0,0,.019.013l.032.008a.588.588,0,0,0-.015.143c0,.009.006.017.008.025a15.815,15.815,0,0,0-.591,2.472.025.025,0,0,0,.048.013,11.333,11.333,0,0,0,.343-1.095c-.015.1-.033.205-.041.306,0,.06.077.06.1.013a4.385,4.385,0,0,0,.144-.416.038.038,0,0,0,.031-.012,2.1,2.1,0,0,0,.259-.676c.048-.158.1-.316.143-.474l.063.013c-.049.132-.1.262-.145.395a2.174,2.174,0,0,0-.173.623.039.039,0,0,0,.073.02,1.94,1.94,0,0,0,.2-.522c.052-.164.1-.331.141-.5l.1.02q-.074.2-.146.4a1.882,1.882,0,0,0-.167.582.04.04,0,0,0,.075.02,1.685,1.685,0,0,0,.2-.485c.057-.165.11-.333.162-.5l.028,0q-.153.408-.294.821a.076.076,0,0,0,.139.058c.032-.063.062-.128.093-.192a.072.072,0,0,0,.132.045c.03-.038.054-.079.079-.119a1.388,1.388,0,0,0-.02.17.055.055,0,0,0,.1.028A2.669,2.669,0,0,0,4.1,2.048a12.361,12.361,0,0,0,1.36.165.046.046,0,0,0,.012-.091c-.212-.06-.427-.109-.643-.153.431.055.864.095,1.292.136A14.55,14.55,0,0,0,9.3,2.078s0,.011.012.011a5.35,5.35,0,0,0,1.571-.255c.017.063.039.126.059.19-.333.037-.666.079-1,.13.315-.067.629-.138.941-.2.009,0,.005-.015,0-.013-.577.094-1.171.161-1.746.286-.7-.012-1.406-.058-2.1-.006a.016.016,0,0,0,0,.032c.664.05,1.341.01,2.008,0-.087.02-.175.037-.261.061-.019.005-.016.037,0,.035.141-.013.282-.033.423-.055-.082.018-.166.033-.248.053a.02.02,0,0,0,.005.039,15.532,15.532,0,0,0,1.994-.3c.006.017.01.034.016.051A12.184,12.184,0,0,0,9.7,2.38a9.96,9.96,0,0,1-2.224,0c-.014,0-.017.021,0,.024a4.966,4.966,0,0,0,2.014.038c0,.008,0,.018.008.017a10.448,10.448,0,0,0,1.5-.288c.019.055.039.106.06.16a11.851,11.851,0,0,0-1.741.335c-.02.006-.017.039.005.037a12.1,12.1,0,0,0,1.756-.326c.05.125.1.249.161.364a8.55,8.55,0,0,1-1.4.4.019.019,0,0,0,.005.037,3.634,3.634,0,0,0,1.432-.409.02.02,0,0,0,.022-.01c.038-.018.077-.035.114-.055a.061.061,0,0,0,.086-.072q-.08-.273-.169-.544l.014,0c.008,0,0-.013,0-.012l-.015,0-.022-.066.037-.008c.041.167.085.331.134.5,0,0-.01.008-.007.015.015.037.03.072.043.108s.028.1.044.149.062.047.09.02c.166.544.337,1.087.52,1.626-.04-.116-.08-.232-.122-.346-.007-.018-.036-.011-.03.008.147.456.245.919.347,1.382l-.027-.085c0-.009-.011-.01-.018-.01a5.724,5.724,0,0,0-.393-1.319c-.008-.019-.037,0-.032.013.013.05.026.1.039.151-.046-.11-.1-.218-.15-.319,0-.009-.021,0-.017.007a6.735,6.735,0,0,1,.35,1.489c0,.023.038.015.04-.005a2,2,0,0,0-.007-.362c.05.181.1.363.159.538a.02.02,0,0,0,.026.012c.076.415.137.845.217,1.266l-.029-.008c-.118-.517-.276-1.034-.442-1.535a7.328,7.328,0,0,0-.331-1.3A.019.019,0,0,0,11.7,4,7.454,7.454,0,0,0,12,5.3a.009.009,0,0,0-.006.01c.081.352.161.7.25,1.054,0,.008.015,0,.013,0-.069-.323-.147-.644-.223-.965,0,0,0,0,0,0,.1.468.22.944.365,1.4q-.419-.121-.844-.225c.159-.012.32-.02.475-.037a.017.017,0,0,0,0-.033l-.975-.041-.173-.036c.179,0,.358.008.536.015.016,0,.016-.024,0-.025-.293-.018-.589-.041-.884-.062-.316-.056-.633-.1-.951-.135-.015,0-.018.023,0,.027.1.025.206.047.309.072-.148-.007-.3-.008-.445-.008A9.714,9.714,0,0,0,6.6,6.216a.061.061,0,0,0-.045.1,10.868,10.868,0,0,0-1.3.092,9.23,9.23,0,0,0-3.1.491c.06-.239.114-.48.175-.715a.024.024,0,0,0-.046-.013c-.064.229-.137.459-.2.691.075-.378.141-.759.214-1.124.009-.044-.056-.063-.067-.018-.109.416-.237.845-.345,1.277L1.857,7a.053.053,0,0,0,0,.1c0,.019-.008.039-.013.058a.653.653,0,0,0-.077.019c.123-.567.25-1.133.4-1.7a.009.009,0,0,0-.018-.005c-.142.388-.266.789-.379,1.194a.026.026,0,0,0-.041.007c-.035.074-.065.151-.1.226.1-.536.206-1.071.34-1.6a.01.01,0,0,0-.019,0,16.155,16.155,0,0,0-.576,2.176.768.768,0,0,0-.1.224l0,0c.126-.741.267-1.479.466-2.209a.015.015,0,0,0-.03-.008A16.2,16.2,0,0,0,.979,8.771a4.928,4.928,0,0,0-.129.794c-.012,0-.026,0-.029.011C.8,9.7.778,9.83.759,9.96c-.009.032-.02.063-.028.095C.9,9.107,1.025,8.148,1.2,7.2c0-.023.009-.045.014-.068M12.539,5.48c0,.006.007.006.012.006.133.485.238.971.333,1.461l-.007,0a10.906,10.906,0,0,0-.461-1.584,6.857,6.857,0,0,0-.2-.76c.1.295.208.589.322.879m.817,3.089-.064.022.024-.169.023-.014c0,.053.012.108.017.161m-.291.5c0-.037.007-.074.01-.112l.026-.012c0,.037,0,.073,0,.111ZM9.123,18.69a1.989,1.989,0,0,0-.453.488,1.536,1.536,0,0,0-.12.24,2.17,2.17,0,0,0-.127.207,3.045,3.045,0,0,1,.128-.291,2.975,2.975,0,0,1,.674-.816c.011-.01,0-.03-.017-.021a2.321,2.321,0,0,0-.532.5,3.252,3.252,0,0,0-.248.373c-.025.043-.077.2-.128.321a.058.058,0,0,0-.045.04c-.009.03-.014.063-.023.093a.086.086,0,0,1-.021.022c.015-.008,0-.029-.011-.026l-.029.005c-.007,0-.008.008-.01.013a4.111,4.111,0,0,1,.189-.617,2.536,2.536,0,0,1,.543-.764c.017-.017-.008-.039-.025-.025a2.441,2.441,0,0,0-.542.608c.049-.107.1-.215.16-.319q.194-.163.4-.315a1.986,1.986,0,0,0,.7-.228,1.714,1.714,0,0,0-.459.515M5.947,19.761l.06.068c-.01-.008-.026-.007-.025.008s0,.047,0,.07c-.012-.049-.023-.1-.036-.146M12.5,5.957c0-.027-.007-.054-.009-.081q.035.144.067.289c-.018-.07-.038-.14-.057-.208m.567,2.931c0,.013,0,.027-.007.04l-.042.013c.008-.065.017-.129.02-.194l.07-.031c0,.065,0,.132,0,.2l-.023.008c0-.011,0-.021,0-.032s-.014-.011-.016,0M8.023,20.281,8,20.269c0-.006,0-.012,0-.018l.039,0-.009.033m-.2.054v0c.006,0,.011,0,.017,0h0c-.01.019-.018.04-.027.06,0-.021,0-.043,0-.064l.007,0m.368-.34c0-.022,0-.045,0-.067a.031.031,0,0,0,.014,0l-.015.064m-.031-.075c-.007.02-.012.042-.019.062-.01,0-.02,0-.024.014l-.008.021c.018-.056.033-.112.048-.168,0,.034,0,.041.016.062-.006,0-.012,0-.014.009m-.1.094a.024.024,0,0,0,.047.007c-.019.052-.038.1-.055.158-.022-.007-.046-.01-.069-.016-.006-.053-.01-.107-.018-.16,0,0,0-.007-.007-.01l.115-.328a1.156,1.156,0,0,0-.014.349m-.145-.04A.035.035,0,0,0,7.882,20c-.007.045-.007.09-.012.134-.02,0-.038-.011-.058-.013,0-.038,0-.077,0-.115A.026.026,0,0,0,7.759,20c-.01.038-.013.076-.021.114-.024,0-.049,0-.073,0a1,1,0,0,0-.223-.122,1.078,1.078,0,0,0-.387-.057.872.872,0,0,0-.446.149l-.019.007a.028.028,0,0,0-.013.015.581.581,0,0,0-.068.062l-.048.005a2.562,2.562,0,0,0-.047-.258.026.026,0,0,0-.05.007c-.006.09,0,.18,0,.27l-.035.01c0-.064-.014-.128-.022-.192,0,0,.011-.009.008-.017s-.011-.026-.015-.039,0-.025,0-.037a.033.033,0,0,0-.013-.021,1.58,1.58,0,0,0-.162-.489c.013.006.025.015.038.02s.032-.022.021-.036c-.032-.041-.072-.076-.108-.114.012.009.023.02.035.028.033.022.068-.02.052-.051-.078-.145-.193-.268-.276-.41,0-.007-.006-.015-.01-.022a6.155,6.155,0,0,0,.446.528.134.134,0,0,0,.1.1.049.049,0,0,0,.055-.072,6.156,6.156,0,0,0-.583-.748l.075,0,.231.318a2.367,2.367,0,0,0,.379.475c.025.02.076,0,.061-.035,0-.009-.009-.018-.013-.027.109,0,.219-.005.329-.015a.049.049,0,0,0,.035,0c.253-.023.507-.067.758-.11a.072.072,0,0,0,.12.028l.055-.057.176-.03c.018,0,.014-.034,0-.032l-.121.009.038-.041c.054-.056.108-.112.161-.168a.076.076,0,0,0,.067-.017l.059-.05a2.321,2.321,0,0,0-.38,1.1M6.431,21.446q-.016.291-.033.583c-.007-.186-.015-.37-.023-.555,0-.013.008-.027.012-.041a.031.031,0,0,0,.044.013m4.9-5.5-.032.006c.056-.054.107-.112.159-.171l.042-.014-.048.058c-.035.043-.073.085-.11.128,0,0,0-.008-.011-.007M7.577,19.186a.4.4,0,0,0,.055-.077l.114-.017c.018,0,.014-.034,0-.032l-.078.008c.124-.111.245-.226.366-.34l.163-.035c-.146.154-.293.307-.437.462-.005.006,0,.012-.007.018l-.171.013m-1.023.054.035,0,.007.008a.045.045,0,0,0,.072-.016c.067,0,.133-.012.2-.02l.028.056c-.1.017-.2.035-.292.059-.015-.029-.03-.057-.048-.084M1.765,11.957c0-.059,0-.118,0-.176,0-.028.007-.057.01-.085,0,.1,0,.2.006.3a.041.041,0,0,0-.033-.009c.005-.012.015-.019.015-.035M1.772,10.1c0-.143,0-.286,0-.429l.005,0c.025-.034.042-.069.065-.1-.024.177-.046.355-.067.536m-.1,3.248c.007.1.018.205.03.31a8.3,8.3,0,0,1-.163-1.008c.037.23.08.464.134.7m.244.1c-.069-.327-.126-.656-.185-.985a.054.054,0,0,0-.064-.043c-.033-.157-.065-.315-.1-.473,0-.007-.007-.01-.011-.015,0-.1,0-.2.005-.3.008.065.015.13.025.193,0,.045,0,.089,0,.133a.078.078,0,0,0,.039.067c.008.039.015.078.024.117a.027.027,0,0,0,.053-.007c0-.007,0-.013,0-.019.064.469.138.953.238,1.433-.011-.035-.022-.071-.032-.106m.113-3.651c0,.048,0,.1.005.143,0,0-.008,0-.008.008a3.931,3.931,0,0,1-.045.578c.017-.243.033-.486.048-.729m.119-.255a.084.084,0,0,0-.1-.005l.006-.094a.106.106,0,0,0,.11-.076c.007-.024.01-.048.017-.072-.007.08-.017.163-.029.247M2.1,8.373c0,.027-.006.051-.008.077a.107.107,0,0,0-.161.09,1.759,1.759,0,0,1-.066.437c.031-.263.063-.527.091-.791,0-.006,0-.008,0-.014.077.036.154.068.233.1a.108.108,0,0,0-.085.1m-.322-.264a.093.093,0,0,0,0-.026l.021.011c-.007,0-.011.01-.017.015m-.34.234a.12.12,0,0,0-.072.006c.008-.045.018-.09.026-.135a.058.058,0,0,0,.06.02c0,.036-.009.072-.013.108M2.62,15.324c-.221-.824-.44-1.639-.633-2.465a9.807,9.807,0,0,0-.049-1.108c-.008-.176-.006-.354,0-.531a3.142,3.142,0,0,0,.119-.5c0,.178,0,.357.005.536h.007a.068.068,0,0,0,.137,0,10.162,10.162,0,0,0-.027-1.611c.033.028.08.035.1-.017a1.466,1.466,0,0,0,.07-.21,9.38,9.38,0,0,0,.179,2.549c0,.019.037.015.035,0A21.927,21.927,0,0,1,2.444,8.98a.03.03,0,0,0-.031-.033,2.241,2.241,0,0,0-.1-.6c0-.012-.013-.016-.019-.025.1.036.2.068.3.1a5.122,5.122,0,0,0-.086,1.453c.008.06.1.05.111,0a1.651,1.651,0,0,0,.052-.292.794.794,0,0,0,.018.109.033.033,0,0,0,.033.022c-.034.14-.063.282-.087.429,0-.005,0-.01,0-.015s-.022-.013-.021,0l.01.1a7.973,7.973,0,0,0,.18,3.143c.007.025.049.021.047-.006-.05-.587-.138-1.165-.163-1.754-.01-.227,0-.452.008-.677.082.814.163,1.629.287,2.436,0,.023.042.018.04-.005-.071-.894-.2-1.785-.314-2.675.022-.342.048-.684.057-1.027a1.758,1.758,0,0,0,.08-.517l0-.047.1.019c-.007.07-.01.14-.013.211-.008-.006-.02-.005-.02.007a11.948,11.948,0,0,0,.181,3.154c0,.014.027.011.025,0a20.552,20.552,0,0,1-.183-2.594.078.078,0,0,0,.149-.031,4.093,4.093,0,0,1,.092-.536h0c-.02.181-.038.364-.043.546a.072.072,0,0,0,.14.019c.013-.052.024-.106.036-.159a.075.075,0,0,0,.068.018c.035.767.063,1.537.133,2.3,0,.017.028.018.028,0-.021-.771-.084-1.541-.139-2.31A.071.071,0,0,0,3.437,9.7a1.868,1.868,0,0,0,.1-.34l.04,0c-.018.162-.036.324-.051.487-.008.085.1.085.133.017l.007,0c.011-.048.018-.1.027-.145,0,.073-.008.146-.007.218,0,.038.06.048.067.009,0-.024.006-.049.01-.073-.014.634-.017,1.272.015,1.9a.016.016,0,0,0,.032,0c.038-.748.025-1.508,0-2.259,0-.043.014-.086.018-.129l.238.027a9.8,9.8,0,0,0,.085,2.013c0,.016.028.012.027,0-.011-.67-.069-1.335-.07-2.006l.275.028c-.008.6-.03,1.207,0,1.8a.014.014,0,0,0,.028,0c.035-.6.013-1.2,0-1.8l.276.028c0,.218.007.437.013.655,0,.135.008.269.013.4,0,.09.006.18.009.269-.013.089-.01.134.01.136a.3.3,0,0,0,0,.14A.028.028,0,0,0,4.8,11.08c0-.057,0-.113-.007-.169a.728.728,0,0,0,.06-.083.011.011,0,0,0-.016-.016.362.362,0,0,0-.046.05c-.018-.459-.037-.918-.06-1.376l.363.036c-.018.4-.038.8-.047,1.2a.046.046,0,0,0,.085.023c.031-.056.062-.112.094-.168a.021.021,0,0,0-.032-.025l-.053.055c.013-.361.019-.722.025-1.084l.265.022c.023.334.045.669.089,1,0,.03.048.042.057.008.026-.117.052-.232.079-.348a.011.011,0,0,0-.022-.006l-.066.2c-.015-.283-.04-.565-.067-.847l.278.023c0,.12,0,.239-.005.359a1.34,1.34,0,0,0,.014.471c.034.088.14.043.135-.037a.023.023,0,0,0-.017-.022l-.021-.008c-.017-.006-.032.019-.018.031-.075-.06-.027-.348-.026-.436V9.586l.058.008s0,0,.006,0l.046,0c0,.1,0,.2,0,.3a.951.951,0,0,0,.011.331c.033.073.142.1.13-.007A.019.019,0,0,0,6.08,10.2l-.019,0a.015.015,0,0,0-.012.028c-.068-.047-.028-.322-.029-.4s0-.15,0-.225l.11.008a1.549,1.549,0,0,1,.065.686c-.008.066.094.065.1,0,.006-.045.01-.091.016-.136a.05.05,0,0,0,.077-.025,2.655,2.655,0,0,1,.217-.5l.026,0a1.863,1.863,0,0,0,.03.578.029.029,0,0,0,.055,0A1.424,1.424,0,0,0,6.747,9.8c.083,0,.166,0,.248-.006a3.479,3.479,0,0,0-.048,1.026c0,.009.015.01.014,0a3.7,3.7,0,0,1,.057-1.027l.079,0c-.018.605-.028,1.216,0,1.818,0,.018.013.025.027.025s.029-.007.027-.025c.029-.6.019-1.213,0-1.819.11,0,.219,0,.328-.012a12.594,12.594,0,0,0-.018,2.181.02.02,0,0,0,.039,0c.008-.731-.005-1.456.027-2.186l.11-.011a17.559,17.559,0,0,0,0,2.459.02.02,0,0,0,.04,0c.022-.819.013-1.643.013-2.464.1-.008.191-.018.287-.029-.008.891-.061,1.775-.085,2.668,0,.015.025.019.027,0A13.148,13.148,0,0,0,8.037,9.72c.045-.005.092-.008.137-.013a.048.048,0,0,0,.034-.073l.087-.01c-.06.893-.116,1.792-.1,2.685a.014.014,0,0,0,.029,0c.085-.892.1-1.8.113-2.693.056-.008.109-.021.164-.031,0,.469,0,.938-.022,1.408-.012.25-.034.5-.056.749-.008.084-.149.829-.154.821a.017.017,0,0,0-.029.017l.073.173a.036.036,0,0,0,.066-.009,14.892,14.892,0,0,0,.176-3.169l.111-.021a12.021,12.021,0,0,1-.14,3.54.015.015,0,0,0,.029.008,6.738,6.738,0,0,0,.2-.932c-.026.373-.052.747-.067,1.124,0,.017.027.02.029,0A13.511,13.511,0,0,0,8.8,9.29c.012-.008.012-.024,0-.028,0-.032-.008-.065-.012-.1.053,0,.105-.007.158-.012,0,.264,0,.528.012.79a.015.015,0,0,0,.03,0c.015-.265.016-.531.011-.8.044,0,.088-.013.132-.02,0,.024,0,.048,0,.072l-.075.025c-.074.025-.044.141.033.119l.042-.012c0,.215,0,.431-.012.646a13.152,13.152,0,0,0-.056,2.214c-.02.436-.05.872-.09,1.307a.051.051,0,0,0-.04.039c-.042-.01-.083-.023-.125-.032a.015.015,0,0,0-.008.03c.054.022.11.041.165.063,0,.054-.008.108-.014.163a4.256,4.256,0,0,0-1.29-.148.007.007,0,0,0,0,.013,5.143,5.143,0,0,1,1.287.16c0,.032-.008.063-.012.094l-.388-.118s0,0,0,0l.389.121c-.011.1-.025.207-.037.311-.062-.018-.123-.039-.185-.056-.015,0-.02.017-.007.023.062.025.125.048.187.073-.019.161-.036.322-.057.484A6.407,6.407,0,0,1,7.983,17.1c-.034,0-.068,0-.1,0a6.015,6.015,0,0,0,.649-2.782.011.011,0,0,0-.023,0,8.435,8.435,0,0,1-.61,2.591l-.093.018A9.431,9.431,0,0,0,8.376,14.3c0-.005-.008-.007-.009,0a12.639,12.639,0,0,1-.651,2.651l-.075.015c.026-.05.051-.1.075-.153l.031,0c.035,0,.022-.049-.005-.057a4.552,4.552,0,0,0,.35-1.728.02.02,0,0,0-.039,0,4.692,4.692,0,0,1-.426,1.714c-.486-.056-.971-.082-1.455-.122a3.938,3.938,0,0,0,1.5-.332c.031-.014.008-.061-.023-.053a6.233,6.233,0,0,1-1.979.2c-.066-.2-.127-.41-.176-.623-.009-.041-.072-.023-.063.018.043.2.092.4.145.6-.068-.005-.138-.014-.207-.022-.115-.338-.224-.679-.312-1.032-.008-.031-.052-.017-.047.013.061.329.14.67.237,1.006-.07-.01-.142-.022-.213-.034-.127-.352-.25-.706-.351-1.067a.02.02,0,0,0-.038.01c.082.34.17.691.273,1.037-.062-.011-.124-.022-.186-.035-.017-.059-.033-.118-.049-.176-.086-.317-.152-.639-.219-.961l.045-.037c.01-.008,0-.021-.014-.014l-.037.028-.024-.116.144-.1c.01-.007,0-.022-.009-.016l-.14.085-.013-.06c-.006-.027-.044-.015-.04.011s.007.045.012.074l-.3.183c-.017-.063-.038-.125-.053-.189-.006-.023-.04-.013-.035.01.014.068.032.138.047.207-.062.038-.119.081-.179.121-.015-.052-.032-.1-.046-.154,0-.019-.031-.01-.028.008.008.057.022.117.032.174-.073.049-.15.094-.218.148-.009.007,0,.019.011.014.073-.037.144-.079.215-.122.011.062.021.124.034.187-.032.028-.067.053-.1.082-.007.007,0,.019.011.014.032-.022.062-.048.093-.07a4.606,4.606,0,0,0,.589,1.519c.011.017.04.006.033-.014-.191-.525-.392-1.027-.557-1.553.054-.041.109-.08.162-.122a7.173,7.173,0,0,0,.328,1.038.026.026,0,0,0-.041.032,3.846,3.846,0,0,0,.282.463c.027.048.048.1.078.146.008.013.023.008.031,0a3.675,3.675,0,0,0,.453.487,2.039,2.039,0,0,1-.644-.671.04.04,0,0,0-.069.04,2.188,2.188,0,0,0,.524.6q-.35-.162-.684-.355-.139-.134-.272-.273a6.446,6.446,0,0,1-.291-.683,8.429,8.429,0,0,1-.28-.86,4.322,4.322,0,0,1,1.257-.9c.006,0,0-.014,0-.012a3.162,3.162,0,0,0-1.26.889l-.032-.108c-.005-.02-.032-.011-.03.008s.014.08.027.139c0,.007-.012.012-.016.018-.022-.113-.049-.222-.064-.339,0-.008-.013-.008-.012,0a6.6,6.6,0,0,0,.124.83c-.124-.332-.232-.669-.331-1a1.834,1.834,0,0,1,.979-.874c.009,0,.006-.018,0-.015a1.627,1.627,0,0,0-.99.84c-.046-.154-.09-.306-.135-.456A18.858,18.858,0,0,1,2.3,10.117c0-.014-.022-.014-.022,0a17.558,17.558,0,0,0,.69,4.581,15.852,15.852,0,0,0,.514,1.561,7.067,7.067,0,0,1-.889-1.51c0-.008-.018,0-.015.007a6.864,6.864,0,0,0,1.042,1.823c.043.092.091.182.138.271l-.042-.032L3.7,16.8a.017.017,0,0,0,0-.021A6.778,6.778,0,0,1,2.6,15.1c0-.011-.022-.006-.018,0a6.212,6.212,0,0,0,.328.7c-.084-.116-.161-.24-.241-.36-.018-.04-.037-.079-.054-.119m10.534-7.11a.065.065,0,0,0-.088.037l-.01,0a.381.381,0,0,0-.022-.132l.215-.11-.025.172-.071.029m-.444.421h0a.076.076,0,0,0-.042-.074c.1-.052.2-.1.3-.155,0,.048-.009.093-.012.13-.082.034-.164.066-.245.1M10.9,15.542l.168-.054-.019.018-.15.036M9.135,13.809c-.031-.01-.062-.016-.092-.025.007-.05.013-.1.019-.15.088.033.176.069.265.1a.079.079,0,0,0,.088.112l.171-.025.148.05q-.125.051-.247.106c-.053-.017-.1-.036-.158-.052-.015,0-.021.018-.007.024l.12.046-.049.021L9.022,13.9c0-.033.012-.065.016-.1.03.008.06.014.09.023a.011.011,0,0,0,.006-.022m-.3-3.016A8.538,8.538,0,0,0,8.7,9.547c.032-.007.066-.011.1-.018,0,0,0,0,0,0a11.351,11.351,0,0,1,.031,1.267M8.787,9.46l-.1,0c-.008-.043-.014-.087-.023-.129,0-.015-.025-.008-.023.006.006.042.009.083.015.124l-.106,0c0-.051,0-.1-.007-.153L8.779,9.3c.006.055.011.111.016.166,0,0,0,0-.008,0m-2.522.305a1.566,1.566,0,0,0-.033-.154l.053,0c-.006.05-.013.1-.02.151m.123-.145.116.007c-.043.077-.081.156-.117.236,0-.081,0-.162,0-.243m0-.089c0-.009,0-.017,0-.026a.044.044,0,0,0-.089,0s0,.01,0,.015c-.095-.011-.19-.022-.285-.032V9.415a.029.029,0,0,0-.059,0v.068l-.11-.01c0-.019,0-.038,0-.057a.031.031,0,0,0-.062,0c0,.017,0,.034,0,.051L5.491,9.44c-.006-.066-.013-.132-.018-.2,0-.04-.066-.04-.063,0,.005.063.009.127.014.19l-.134-.013L5.17,9.4c0-.087.005-.175.006-.262a5.931,5.931,0,0,0,.813.038.049.049,0,0,0,.04-.023A6.576,6.576,0,0,0,7.045,9.1l.2-.007a4.716,4.716,0,0,0,.486.069c-.055,0-.11.008-.164.01-.44.018-.887-.052-1.323-.009a.027.027,0,0,0-.007.053c.055.017.113.028.17.042-.056.007-.113.008-.168.015s-.032.079.012.084c.136.014.275.018.414.023-.006,0-.014,0-.019.007-.035.052-.063.107-.095.159l-.161-.019m6.562-2.244c0,.018.007.037.011.055l-.015,0-.009-.062.013,0m-.538,6.192,0,.03c0-.094.008-.188.008-.281.007-.04.014-.079.02-.118l.01,0c-.012.123-.022.248-.034.371m-1.834,1.235L11,14.632l.067.03a3.678,3.678,0,0,0-.493.127l-.1-.042c.035-.011.069-.024.1-.034m-.594-1.239q-.275.093-.546.2c-.114-.035-.229-.063-.343-.093.3-.029.593-.068.89-.1m.754-.648s0-.007-.007-.011l.6-.118c0,.006,0,.012,0,.017-.2.038-.392.076-.588.112m.877-.535a.137.137,0,0,0,.059.048.048.048,0,0,0,.045.013c.007.029.011.058.018.087l-.12.022c0-.052,0-.1.006-.156,0-.009-.008-.008-.013-.013l0,0M9.823,11.7c.069-.016.15-.03.236-.043,0,.04,0,.082.01.122a.033.033,0,0,0,.065,0c.006-.044.007-.09.011-.135.081-.011.164-.021.246-.03,0,.028,0,.057.01.085a.028.028,0,0,0,.054,0c0-.03.007-.062.012-.093l.132-.013v.012a.027.027,0,0,0,.055,0c0-.006,0-.012,0-.017.138-.014.248-.023.288-.03l.618-.1c0,.031.007.062.011.092-.588.1-1.179.2-1.746.348-.005,0-.008.005-.012.008,0-.069.006-.139.008-.209M6.731,9.529c0-.039-.005-.078-.007-.116,0-.014-.012-.019-.021-.027.135,0,.27.007.406.006,0,.042,0,.085,0,.127-.125,0-.249.005-.375.01m.408-.137c.175,0,.35-.006.525-.015,0,.043-.005.086-.008.128l-.513.013c0-.042,0-.084,0-.126m.55.112c0-.043,0-.086,0-.129l.288-.017c0,.045,0,.09,0,.135-.1,0-.191.009-.287.011M13.1,7.433l-.021.008c0-.018,0-.037-.006-.056l.022,0c0,.017,0,.034,0,.052m-2.279,7.02-.05-.015c.13-.025.258-.057.386-.089,0,.011,0,.023,0,.034-.112.022-.222.048-.332.075,0,0,0,0,0-.005m-.983-3.133c0-.07,0-.14-.006-.21.066,0,.131,0,.2-.006,0,.058,0,.117.005.175l-.2.042M9.9,8.761l.042,0-.042,0Zm2.209,5.788.01-.022c0,.01,0,.019-.006.029l0-.007m-1.592-.424.246.08c-.125.033-.248.07-.37.108-.06-.025-.122-.049-.182-.073.1-.043.2-.076.306-.114M9.434,9.563l.036,0c0,.027-.007.055-.01.083l-.017,0c0-.028,0-.056-.008-.083m3.2-1.458-.078.01.055-.027.087-.03c-.022.015-.042.032-.065.047m-.873,6.489h-.022c.017-.037.031-.075.047-.113l.061-.012c-.021.044-.04.09-.062.133-.008,0-.014-.009-.024-.009m-.289-.052.12-.023a.02.02,0,0,0,.024,0l.065-.013c0,.03-.011.061-.014.092,0,0,0,0,0,0-.077,0-.153,0-.229.011.009,0,.02,0,.022-.015s0-.035.007-.052m.788-3.1-.018,0c0-.032.008-.064.011-.1l.012,0c0,.032,0,.064,0,.1m-2.5-1.9c0,.015,0,.03,0,.044l-.025.005,0-.047.028,0m.152-.015.092-.015c0,.008-.006.017-.008.025l-.084.018c0-.009,0-.018,0-.027m2.3-1.163-.12.025a.072.072,0,0,0-.006-.012l.244-.081c-.04.022-.078.047-.118.068M11.934,11.2h0l0-.008V11.2m-.217-.829a.034.034,0,0,0-.018,0l-.068.053,0-.047.091-.019ZM10.142,9.5a.036.036,0,0,0-.007-.016l.062-.01v.017l-.055.01m1.3-.4c.034-.012.068-.025.1-.039l-.011.032-.028.01a.537.537,0,0,0-.062,0m.012-.182.157-.043,0,.014-.152.029m-.742.257c.047-.007.095-.01.142-.018l0,.013-.139.047V9.171m.411.03c.023-.006.045-.014.068-.021,0,.016-.006.033-.011.048s0,.006,0,.01l-.045.005c0-.014-.007-.029-.009-.043m-.411.077.105-.013-.006.018-.1.011Zm.45.009c0,.014-.01.027-.015.041,0-.012,0-.025,0-.037l.02,0M10.4,9.211l-.041.122h-.01l0-.117.053-.007m.11.2.032-.007c0,.007,0,.015,0,.022l-.04.007.007-.022m.2-.041.072-.014c0,.01-.007.022-.011.032l-.061.01c0-.009,0-.018,0-.028m.263-.042c0,.008,0,.018,0,.026l-.011,0,.01-.028m.739.917v.008l-.012,0,.012-.01m-1.14-1.508h-.023l.025,0,0,0m-.38.494c0,.04,0,.081,0,.121l-.049.007c.014-.043.03-.086.045-.128h0m.225.455.024-.072.1-.014c0,.052,0,.1,0,.155l-.118.021c0-.03-.005-.06-.008-.09m.444-.082c0,.033-.005.066-.008.1l-.044.007c.018-.035.035-.071.052-.106m.087-.074.031-.006c0,.053.008.105,0,.16h0L10.95,9.7q0-.081,0-.16m-.879-.281c-.012.042-.022.085-.035.127-.042.007-.084.011-.126.018,0-.04,0-.08,0-.119.055-.008.109-.016.163-.026m-.128.424c-.012.038-.026.077-.039.115,0-.037,0-.074,0-.112l.037,0m.107-.01h0c0,.06,0,.12-.006.18L10,9.857c.018-.063.035-.127.054-.189m.1-.009.046-.005c0,.056,0,.113,0,.169l-.039.007c0-.057,0-.114-.006-.17m.414.244a.073.073,0,0,0,.018.018c0,.054,0,.108,0,.162l-.121.024c-.005-.061-.01-.122-.015-.182l.122-.022m.11.025a.08.08,0,0,0,.033-.027l.016-.027.123-.025c-.006.063-.012.127-.017.191l-.152.026c0-.047,0-.092,0-.138m.273-.1.111-.023c-.02.068-.038.137-.053.205l-.06.01c0-.064,0-.128,0-.192m.024.367c0,.013-.005.027-.007.04-.01.087.088.132.16.108-.063.01-.125.022-.188.033,0-.059,0-.118.006-.177l.03,0m.386.24a.124.124,0,0,0,.078-.006l.018-.01c0,.034,0,.068,0,.1a.265.265,0,0,1-.071.011.161.161,0,0,1-.123-.076l.1-.02m.3.248c.007-.037.015-.073.022-.109a.354.354,0,0,0,.037-.051c0,.054,0,.108,0,.161l-.056.01v-.012m.256-.329a.1.1,0,0,0,.058-.046h0a1.735,1.735,0,0,0-.029.173.028.028,0,0,0,.047.02c0-.005.006-.012.01-.017,0,.05-.009.1-.014.148l-.067.013c0-.1-.005-.194-.009-.291m.067.389v0c-.019.069-.04.139-.061.208,0-.065,0-.13,0-.2l.058-.016m.288.519c0-.034.008-.067.012-.1,0,.033,0,.066-.005.1h-.006M9.764,9.3c0,.043,0,.086,0,.129l-.035.008c0-.008,0-.015,0-.022a.042.042,0,0,0-.038-.04c0-.022,0-.043,0-.065l.082-.01m0,.393c0,.072,0,.143,0,.214l-.006,0-.016-.215h.018m.02.538a.061.061,0,0,0,.027.024l-.025.006,0-.03m.113-.011c.017-.071.04-.139.059-.209L10.043,10c0,.069,0,.137-.007.206l-.153.035c0-.006.011-.01.013-.018m.265-.244.148-.027c0,.064,0,.128,0,.192-.048.01-.1.022-.144.033,0-.066,0-.132-.007-.2m.151.311c0,.067,0,.133,0,.2-.045.009-.09.022-.135.031q0-.108-.007-.216l.14-.015m.159-.017.1-.012c0,.06,0,.121,0,.181l-.085.015c0-.062-.008-.123-.013-.185m.21-.029.132-.021c0,.06-.008.12-.012.18l-.115.02,0-.178m.112.3c0,.1-.006.208,0,.311l-.1.017c0-.1,0-.207,0-.311l.1-.018m.135-.024c.063-.012.125-.021.188-.033-.007.1-.012.21-.018.315l-.2.034q.017-.156.026-.315m.317.1c.007.005.01.013.018.018a.307.307,0,0,0,.189.041c0,.021,0,.041,0,.062l-.22.041c0-.054.01-.108.014-.161m.431.26,0-.046.038-.01c0,.063,0,.126-.006.189H11.7c-.008-.048-.016-.093-.02-.133m.219.535.013,0L11.9,11.5h-.008c0-.03,0-.062.006-.093m-.012,1.169v.014l-.03.007v-.015l.028-.007m.359.078a4.121,4.121,0,0,1,0,.429l-.056.007c.009-.085.018-.17.027-.253.008-.063-.1-.078-.112-.015-.015.094-.033.19-.05.286l-.03,0c0-.05,0-.1,0-.149v0l.01,0c.053-.008.048-.083.008-.1.009-.048.016-.1.024-.145l.162-.048c.005,0,.006-.007.01-.009m-.378.839c0,.047-.012.093-.019.139l-.05.007c.005-.046.013-.092.018-.138l.052-.008m-.051.334c-.009.047-.018.093-.028.139l-.035.008c.008-.045.011-.092.018-.137l.045-.01m.065.406c0,.012,0,.025,0,.037h-.006c0-.013.007-.026.011-.038m-.053-.893c0-.044.005-.088.008-.132l.046-.008c0,.045,0,.089-.006.134l-.048.006m.013-.2c0-.011,0-.022,0-.032l.044-.011c0,.013,0,.025,0,.038l-.045.006m-.1-.007c0,.007,0,.013,0,.02l-.14.018v0l.143-.035m-.146.117.133-.022-.017.129-.12.015c0-.041,0-.081,0-.122m.1.271c-.006.046-.011.092-.017.137l-.1.013c0-.045.007-.09.009-.135l.107-.015m-.042.346c0,.045-.01.09-.015.135l-.08.017c0-.044,0-.088.008-.132l.087-.019m.1.3c-.008.04-.017.081-.025.121l-.04.005c.008-.038.017-.076.025-.114l.039-.013m.277-.857c0-.046.005-.091.007-.137l.018,0c-.008.047-.016.092-.024.14m-.413.9c0,.031-.006.062-.009.093l-.092.012c0-.025.007-.051.01-.076l.09-.029m.569-1c0-.023,0-.045.007-.068l.057-.009c0,.051-.01.1-.015.15l0-.023a.047.047,0,0,0-.051-.051m.08-.685a.065.065,0,0,0-.067-.017c-.03.009-.062.014-.092.023l0-.017.153-.041c0,.018,0,.035,0,.052m-.3-.268a.065.065,0,0,0-.037-.011c0-.017.007-.034.011-.05a.092.092,0,0,0,.013-.011l.014,0c0,.026,0,.051,0,.077m.277-.726.027-.008c0,.053-.008.106-.013.159l-.031,0c.006-.052.012-.1.018-.155m-2.6-1.6-.013,0c0-.017.009-.034.013-.052Zm.007.7L9.6,10.65c0-.2.007-.4,0-.591l.039-.005q0,.292.007.585m.146-.3c.08-.006.161-.017.241-.025,0,.079-.006.158-.008.236l-.217.049c0-.087-.011-.174-.017-.261m.231.318c0,.112,0,.223,0,.334l-.2.038c0-.115,0-.23-.011-.346l.208-.026m.161-.02c.045-.006.089-.01.134-.017,0,.1.007.208.011.313l-.146.028c0-.108,0-.215,0-.324m.31-.045.073-.013c0,.1,0,.206,0,.31L10.5,10.9c0-.1-.005-.2-.011-.308m.073.454c0,.042,0,.084,0,.126l-.069.012c0-.043,0-.085,0-.128l.062-.009m.123-.018.107-.016c0,.04,0,.082.005.122l-.115.02c0-.042,0-.083,0-.125M10.877,11c.071-.012.141-.028.212-.042,0,.043-.006.087-.007.13-.075.011-.149.025-.224.037.008-.041.012-.083.019-.125m.335-.066c.079-.017.158-.035.237-.054,0,.053,0,.106,0,.159l-.252.034c.006-.046.011-.092.016-.139m.659.706.009,0c0,.033-.008.066-.012.1l-.01,0c0-.033.009-.066.013-.1m-.026.279c0,.018,0,.037-.007.055h-.013c0-.017.007-.034.01-.052l.01,0m.044.845c0,.033,0,.066,0,.1l-.041,0c0-.032,0-.062,0-.093l.037-.011m-.468.509c0,.039-.007.078-.012.116l-.044.007c0-.038.007-.077.01-.115l.046-.008m-.064.653c0,.045-.007.089-.01.134l-.053.012c.006-.045.01-.091.015-.137l.048-.01m.051.351v.054c-.052.009-.1.017-.157.027,0-.012,0-.024.005-.036.051-.013.1-.03.152-.045m0,.276c0,.01,0,.021,0,.031s.013.02.024.025c-.077.007-.151.018-.226.029,0-.016,0-.032.008-.048l.2-.037m.841-2.194-.124.017c.014-.087.032-.171.044-.26l.084-.029c0,.09-.005.181,0,.271m-.063-.38c.007-.047.01-.1.016-.143l.056-.013c0,.048,0,.095,0,.143Zm.582-3.97h0M9.5,9.325c-.01.055-.013.114-.022.17l-.048.012c0-.025-.005-.051-.007-.076s0-.066,0-.1c.027,0,.054,0,.081-.007m-.048.383,0,.014s0-.009,0-.014Zm.145,1,.048-.006c0,.119.011.237.017.356h0c-.029.006-.022.048.006.05,0,.08.006.16.012.24-.037.008-.075.015-.111.023.015-.221.027-.442.032-.664m.584.378.152-.014c0,.046.007.091.011.137l-.166.033c0-.052,0-.1,0-.156m.183.285c0,.044.01.088.015.133-.072,0-.147.009-.223.015,0-.042.007-.083.01-.125l.2-.023m.13-.02.089-.013c0,.05.005.1.01.15l-.112.01c0-.049.01-.1.013-.146m.18-.027q.393-.059.784-.131a.059.059,0,0,0,.075.02c0,.047.012.093.017.14q-.44.062-.88.128h-.007c0-.052.008-.1.011-.157m1.1,1.469-.01.083-.168.02c0-.017,0-.035,0-.052l.176-.051m-.326.122-.044.006,0-.025.045-.012c0,.01,0,.021,0,.031m-.2.384c-.005.041-.01.082-.015.123l-.05.011-1.03.146q.337-.112.678-.212c.14-.02.278-.047.417-.068m.138.259-.015.14-.042.01c0-.048.011-.1.016-.145l.042-.006m-.211.4c0,.047-.01.094-.014.14-.114.027-.228.055-.34.085l-.226-.093c.035-.012.07-.027.105-.039.159-.028.317-.06.475-.093m-.041.644c0,.014,0,.028,0,.042H11.13l-.061-.03.071-.013M9.776,8.771l-.138.007c0-.012,0-.024,0-.037.048-.008.1-.014.145-.022v.052m-.259.012L9.4,8.789V8.778l.122-.019ZM9.3,8.794h0Zm.174.431a.086.086,0,0,0,.01.022c-.022.008-.046.013-.068.022,0-.008,0-.017,0-.026l.058-.017m.087,2.231s.008.005.015,0l.109-.012c0,.055.013.109.019.165a.532.532,0,0,0-.162.106c.008-.088.013-.175.019-.264m.273-.023.206-.022c0,.041.007.081.01.122a1.666,1.666,0,0,0-.221.041c0-.047,0-.094.005-.141m1.917,1.174c0,.006,0,.012,0,.017-.046.01-.092.024-.138.034v-.02l.14-.031m-.29.083-.031.006,0-.018.029-.006c0,.006,0,.012,0,.018m-.162.255c-.105.018-.21.038-.315.059q.159-.035.317-.075l0,.017m-1.293.817-.139.053L9.8,13.792l.208-.03m1.173-.169.041-.006c-.006.053-.011.106-.016.159-.2.045-.4.1-.589.164-.116.02-.233.037-.349.054l-.178-.068a7.591,7.591,0,0,1,1.092-.3m-1.085.4c-.109.015-.22.024-.33.035.063-.026.124-.056.187-.08l.143.045m.213.341c-.116.014-.233.025-.351.033.064-.031.127-.067.191-.1.053.021.107.04.16.062m.428.113.061.019-.039.009-.052-.023.03-.005m.925.373-.108.113c-.164.018-.327.037-.486.067l-.038-.017q.318-.07.633-.163m.114.565h0l-.023,0a3.634,3.634,0,0,0,.257-.484,4.211,4.211,0,0,1-.206.466l-.027.016m.678-2.324h-.007c.015-.1.027-.209.038-.315-.011.1-.021.209-.032.314m.61-5.733V7.319l.013,0Zm-.088.081c0,.024.009.048.013.072l-.023.01c0-.026-.006-.052-.009-.078l.019,0m.033.176,0,.012-.03.03c0-.007,0-.013,0-.02l.03-.021m-8.74,1.65L3.851,9.16c0-.065.01-.129.012-.194a8.991,8.991,0,0,0,.908.112c.113.019.227.034.34.048,0,.085-.006.171-.01.256-.278-.053-.556-.1-.834-.15m-1.11-.418s0,0,0,0c.093.024.19.045.287.067-.012.067-.024.133-.042.2l-.042-.007V9.068c.009-.094-.122-.1-.15-.017l-.077-.013c.006-.075.013-.149.018-.224m.422.015h0c0-.007,0-.015,0-.022l.008,0-.006.02m-.207.363c-.008.026-.016.053-.025.079,0-.027,0-.055.007-.082l.018,0m.262-.541-.005.017c-.153-.027-.306-.057-.459-.088V8.561q.2.042.389.078l.074.012m-.159.127c0,.006-.008.01-.01.018s0,.018-.005.028l-.1,0a.011.011,0,0,0,0-.022l-.185-.037a.027.027,0,0,0-.017,0c0-.027,0-.053,0-.08q.153.048.31.093m-.358.534h.012l-.015.045c0-.015,0-.03,0-.046m0-.048c0-.039.006-.079.009-.118l.053.01c-.013.036-.025.073-.038.11l-.024,0m.456-.034.018,0c0,.02,0,.04-.007.06l-.03,0c.007-.021.012-.042.018-.062m.268.048.233.042v.006L3.842,9.31c0-.011,0-.022,0-.032m.272.048.022,0-.022,0Zm2.623.318c.093.013.188.02.283.027,0,0,0,0,0,0s0,.023-.006.035c-.089.012-.179.019-.267.033,0-.033,0-.065-.005-.1m.3.028.067.007V9.7l-.066.008c0-.008,0-.017,0-.025s0-.005,0-.008m.115.011.035,0-.035,0V9.683m.877-.192c0-.045,0-.091-.007-.136l.295-.021c0,.048-.007.1-.01.145l-.278.012m.312-.159L8.5,9.32c0,.051,0,.1,0,.152l-.162.007c0-.048,0-.1,0-.146m.2-.086v0a.019.019,0,0,0-.039,0v0l-.162-.008s-.007,0-.012,0l-.047,0c.081-.015.16-.032.237-.049s.167-.013.251-.02c0,.031.005.062.009.092l-.237-.011m.629-.12a.035.035,0,0,0,.018.011c.029,0,.059,0,.089.007l-.105.036c0-.018,0-.036,0-.054m.119.154a3.1,3.1,0,0,0,.07.72l-.1.022c0-.2-.005-.408-.01-.606A.041.041,0,0,0,9.171,9.4c0-.028,0-.057,0-.086l.116-.034m-.11,2.6a14.093,14.093,0,0,0,.085-1.774c.038,0,.076-.011.114-.015,0,.012,0,.025.007.036s.013.01.021.014A16.337,16.337,0,0,0,9.413,12.4a.03.03,0,0,0,.06,0c.02-.168.036-.344.052-.519.034.025.047.021.115,0a.032.032,0,0,0,.023-.031c0-.015,0-.029,0-.043s-.043-.036-.05-.007c.005-.024.046-.045.107-.066.012.107.02.215.037.32.005.035.055.023.058-.008s0-.049,0-.073a.033.033,0,0,0,.024.009,9.623,9.623,0,0,0,1.75-.27s-.008,0-.008.01l0,.051s.006.006.008.01a8.043,8.043,0,0,0-1.571.354.027.027,0,0,0,.007.053,8.116,8.116,0,0,0,1.618-.221c0,.026.012.052.017.078a.261.261,0,0,0-.045.056,16.112,16.112,0,0,0-1.695.428c-.06.02-.053.121.015.115a8.789,8.789,0,0,0,1.637-.336h0c0,.055-.012.112-.017.168l-.011,0c0-.027,0-.055-.007-.082,0-.042-.068-.043-.067,0s0,.064,0,.1l-.015,0v-.013c.007-.062-.089-.061-.1,0,0,.01,0,.022,0,.032-.339.068-.677.142-1.013.211a.085.085,0,0,0,.022.165c.029,0,.057,0,.086-.007-.295.055-.588.114-.877.191a.039.039,0,0,0,.01.076,4.938,4.938,0,0,0,1.18-.1q-.564.126-1.117.308a.068.068,0,0,0-.048.062l-.1.012s0,0,0,0c-.158.018-.263.033-.41.053a13.473,13.473,0,0,0,.1-1.6m.2,2.145c-.041.019-.084.033-.125.053a.078.078,0,0,0,.039.144c.19-.009.378-.028.566-.048l.06.019c-.134.063-.268.125-.4.2-.183-.062-.366-.118-.55-.172.018-.1.035-.2.051-.305l.358.111m1.068.461c.055-.008.11-.014.164-.023l.065.028c-.064.017-.128.037-.191.055l-.344.066-.032-.011c.112-.041.225-.08.339-.115m.008.347c-.08.029-.158.06-.236.095-.127.017-.253.033-.381.044.166-.067.334-.125.5-.18l.113.041m.469.17.049.018a5.866,5.866,0,0,0-.729.2l-.311.068a3.475,3.475,0,0,1,.336-.179q.329-.044.655-.112m-.636.41,1.034-.225-.011.013-1.089.236.065-.024m.527.625-.34.059c.128-.039.255-.081.382-.12-.014.02-.029.04-.042.061M12.5,12.557c.015-.186.023-.374.027-.561l.022-.008c-.015.19-.03.38-.049.569m.068-4.1,0-.046.145-.1c.025-.017.047-.037.072-.054.055-.03.108-.061.163-.09a.355.355,0,0,1,.018.124l-.4.165m.689-.508L13.127,8c.05-.042.1-.088.146-.132,0,0,0,0,0,.006l-.01.073M2.04,7.513c-.027.017-.055.032-.082.05.011-.03.019-.061.03-.09l.147-.034c-.033.023-.064.049-.095.075m-.123.064a.024.024,0,0,0,0,.007l-.007,0s0-.008,0-.012m9.575-.761.228.077a4.194,4.194,0,0,1-.421-.107l.193.03m.908.3c-.057.011-.114.024-.171.037l.156-.042.015.005m.191.061.021.007c0,.009,0,.018.007.027l-.028.006s0,0,0,0-.005-.023-.007-.035l.006,0m.194.1.019.094-.048.011c0-.032,0-.064,0-.1l.032-.008m.032.157c.007.034.014.068.021.1l-.08.034c0-.04,0-.08,0-.12l.061-.015m.05.241.009.046c-.033.031-.064.065-.1.1a2.243,2.243,0,0,1-.29.153q-.168.062-.338.118a7.91,7.91,0,0,0,.715-.413M11.6,8.232l-.215.05c-.25.044-.5.082-.727.127l-.126.022c.561-.161,1.114-.369,1.665-.568-.208.115-.406.24-.6.37M6.88,8.96l-.066.012c-.089,0-.178,0-.268,0a.038.038,0,0,0,0-.028l.338.011,0,0M5.552,8.915s0-.008-.006-.01l-.061-.021c.133.011.266.018.4.027l-.332,0m-.268,0h-.1c-.468-.076-.937-.143-1.405-.223,0-.008,0-.015,0-.023.216.036.431.072.65.1.29.062.577.108.857.145M3.045,8.557l-.04-.007a.041.041,0,0,0-.022.079l.04.013a3.34,3.34,0,0,0-.065.375l-.1-.023c.013-.165.024-.331.032-.5l.164.038-.005.022M2.727,8.7c0-.082,0-.164,0-.247l.02.005c-.009.08-.017.161-.024.241M7.441,19.09l-.15.015a1.947,1.947,0,0,0,.216-.268c.093-.019.186-.037.279-.057-.116.1-.23.206-.344.31m-.777.1c-.029-.073-.051-.149-.073-.224.049,0,.1,0,.146-.006.039.066.075.134.108.2-.06.009-.12.017-.18.028M3.822,16.678a6.889,6.889,0,0,1-.367-1.211l.017-.016a8.417,8.417,0,0,0,.378,1.26l-.028-.033m.853.956c-.088-.037-.178-.072-.268-.1a.04.04,0,0,0-.042.007c-.047-.058-.092-.12-.136-.181l.008,0a.252.252,0,0,0,.221.071c.128.1.261.2.4.295.011.007.024-.01.014-.018-.065-.056-.127-.113-.191-.17a5.875,5.875,0,0,0,.9.414c-.079-.017-.158-.032-.236-.052a5.385,5.385,0,0,1-.69-.237h.015c.018,0,.018-.023,0-.029M4.653,16.8l-.2-.523c.06.028.122.053.183.077a4.016,4.016,0,0,0,.221.684c-.069-.076-.136-.156-.2-.239M4.1,15.245l.294-.2c.005.036.012.077.019.123l-.275.208c-.013-.044-.025-.088-.038-.133m-.012.173c-.055.043-.108.089-.162.134-.017-.054-.033-.109-.048-.164.06-.037.119-.075.178-.114.011.048.021.1.033.144m.328-.221c.041.268.108.678.2,1.072-.061-.013-.121-.026-.182-.041-.1-.266-.2-.535-.285-.81l.268-.221M7.727,17.1c.013-.027.027-.053.039-.08.035-.013.071-.025.106-.04-.016.04-.03.08-.046.121h-.1m-.069,0c-.032,0-.063,0-.094,0l.007-.013.1-.031-.017.045M7.1,17.055a8.927,8.927,0,0,1-1.309-.273c-.015-.042-.028-.084-.042-.126a6.107,6.107,0,0,0,1.844.165c-.025.055-.052.11-.078.164q-.208.038-.415.07M5.609,17.1q-.091-.26-.18-.519l.2.048c.012.041.023.082.036.123a.044.044,0,0,0-.026.082l.06.032c.028.085.063.168.095.252-.063,0-.126-.011-.19-.018m.2.056c.034.088.068.176.107.262-.072-.012-.144-.023-.216-.038-.029-.086-.058-.172-.087-.258.065.012.131.024.2.034m.035-.211a3.625,3.625,0,0,0,.419.184c-.117,0-.234,0-.353,0l-.067-.18m-.654-.421h0l.1.024a5.718,5.718,0,0,0,.331.818c-.023,0-.045-.007-.068-.012s-.013.012,0,.014l.082.02c.035.069.063.142.1.208a.02.02,0,0,0,.036-.015c-.019-.059-.04-.117-.059-.175q.113.027.227.05c.056.12.113.238.18.351-.153-.006-.307-.017-.46-.031-.078-.062-.155-.124-.229-.187.012,0,.023-.008.019-.022-.108-.362-.236-.717-.365-1.073.037.01.073.021.11.029m3.343,1.062a.1.1,0,0,0,.025.029c-.121.083-.242.166-.365.247a.09.09,0,0,0-.021.127,6.688,6.688,0,0,1-1.33-.076,4.483,4.483,0,0,0,.606-.035.027.027,0,0,0,.03.028.976.976,0,0,0,.184-.012,1.112,1.112,0,0,0,.2-.086.939.939,0,0,0,.667-.221M6.753,18.8l-.028-.035.061.009.007.021-.04.006m-.295-.9a.072.072,0,0,0,.007.063,2.442,2.442,0,0,1-.692-.094l-.066-.052c.249.037.5.067.751.083m.061.121.016.015-.088-.006c.024,0,.048-.007.072-.01m.062.719.058.078-.087.018c-.009-.036-.014-.072-.022-.108l.051.012m.235.035.043.007h0l-.04.006,0-.013m1.488-.206a.044.044,0,0,0-.046-.033l-.038,0,.014-.014c.045-.008.09-.015.135-.023l-.065.068m.852-.62q-.215.089-.437.158c.022-.011.047-.019.069-.03a.03.03,0,0,0,.012-.042c.083-.02.167-.039.25-.06l.106-.025m-1.608-.227a.014.014,0,0,0,0,.027A.863.863,0,0,0,7.81,17.7a1.177,1.177,0,0,1-.176.082c-.052.019-.1.048-.151.063,0,0,0-.006-.007-.006-.311-.008-.618-.008-.924-.013-.012-.007-.023-.012-.035-.019s-.028,0-.032.018c-.106,0-.211-.007-.318-.01-.04-.112-.082-.222-.124-.333a5.12,5.12,0,0,0,1.915.04.926.926,0,0,1-.411.2M5.4,17.567q-.117-.1-.228-.2a.148.148,0,0,0,.035,0,.022.022,0,0,0,.015-.027L5.217,17.3c0-.02-.032-.013-.033,0a3.98,3.98,0,0,1-.3-.521c-.046-.124-.085-.251-.122-.379.063.022.128.037.192.056A6.36,6.36,0,0,0,5.4,17.567m1.224.719a3.1,3.1,0,0,0,.333-.03l.068.01a2.455,2.455,0,0,0,.26.052c-.228,0-.457-.012-.685-.03l.023,0m-.138.433c.012.042.025.082.035.125l-.064.013c-.045-.062-.093-.121-.141-.178.056.016.113.027.17.04m.058.25c0,.008,0,.015,0,.022l-.014-.022h.011m.365.076-.037-.1.093-.013a1.853,1.853,0,0,0,.114.159c.029.033.072-.009.057-.043s-.044-.087-.068-.13c.088-.013.175-.027.263-.043a.977.977,0,0,0-.1.231s0,.005,0,.009c-.093.01-.184.024-.276.036-.015-.035-.028-.068-.045-.1M8.7,17.314l-.621.344a.6.6,0,0,0,.123-.168.038.038,0,0,0-.018-.048c.02-.022.04-.046.059-.07.153-.013.306-.032.457-.058m-.7.165,0,0a9.228,9.228,0,0,1-1.973-.037c-.033-.089-.066-.178-.1-.266a5.073,5.073,0,0,0,.6.045,4.485,4.485,0,0,0,.787.148l-.013.027c-.013.025.022.056.041.032s.023-.035.036-.051a5.057,5.057,0,0,0,.716.012c-.03.034-.062.064-.095.094M6.1,18.342c.126.017.251.027.377.036-.076,0-.152,0-.228.01L6.1,18.342m-.449.267A1.55,1.55,0,0,0,5.821,19l-.008,0c-.095-.14-.192-.275-.293-.4l.127.011m.557.035c.039.079.082.159.13.239l-.039.008-.188-.251.1,0m.188.332a2.227,2.227,0,0,0,.172.231l-.03,0c-.055-.081-.116-.158-.174-.235h.032m.6.272c0-.017-.012-.033-.018-.049.135-.017.27-.032.405-.052l-.038.034a.052.052,0,0,0-.013.027q-.169.016-.336.041m1.92-1.7.321-.095q-.224.1-.453.194l.132-.1m-.154-.523c-.009,0-.012.011-.018.015-.1.016-.2.025-.307.036a5.844,5.844,0,0,0,.422-1.706c0-.01-.013-.014-.015,0a5.416,5.416,0,0,1-.527,1.721c-.1.008-.194.017-.291.019a4.21,4.21,0,0,0,.81-2.244s.005,0,.006,0c.048-.2.088-.395.126-.594.167.067.336.131.505.2a.084.084,0,0,0,.081.1c.052,0,.1-.006.153-.008l.023.009c-.165.07-.327.145-.486.232-.1.052-.027.185.07.166l.143-.027c-.068.03-.137.055-.2.087A.1.1,0,0,0,9.3,15.2c.161,0,.321-.017.48-.029a4.113,4.113,0,0,0-.372.256c-.061.047-.027.123.03.151-.045.024-.092.042-.137.067a.1.1,0,0,0,.074.176l.16-.035-.251.081c-.115.038-.066.221.051.183l.074-.024s.005,0,.009,0a12.6,12.6,0,0,0,1.282-.3l.3-.073a.05.05,0,0,0,.064.006c.014-.01.027-.022.042-.032l.022-.005c-.043.053-.086.107-.128.16-.631.179-1.259.365-1.888.552a.081.081,0,0,0,.043.157c.536-.107,1.124-.291,1.639-.421l0,0a14.2,14.2,0,0,0-1.943.688.081.081,0,0,0,.043.157l.564-.117-.7.22m1.733-.6-.71.146c.29-.11.58-.22.872-.325-.052.042-.1.083-.156.125a.04.04,0,0,0-.006.054m2.067-4.511s-.009,0-.015,0l-.012,0c0-.051,0-.1,0-.153l.037-.009h0c0,.054-.009.108-.013.163m.14-3.145q.129-.063.254-.131c0,.023,0,.047,0,.07-.086.029-.171.06-.256.09,0-.01,0-.019,0-.029m.343-.181.052-.03c0,.033.01.066.012.1l-.067.022c0-.03,0-.06,0-.091m0-.088c0-.04.006-.087.01-.137l.014-.008c.008.043.011.085.016.127l-.04.018m.142-.208.027-.014-.015.106c0-.031-.006-.061-.012-.092m.163-.088.007,0c0,.016.01.032.014.047a.036.036,0,0,0-.028,0Zm.037-.335a.074.074,0,0,0-.073-.034l.057-.052.016.086m-.091-.444c0,.006,0,.01,0,.015a.057.057,0,0,0-.023-.011c.009-.014.017-.028.025-.042l0,.014c0,.008,0,.016,0,.023m-.38-.273c0-.012,0-.023-.006-.035l.008,0c0,.013.005.027.008.04l-.01,0m-.182-.09c0-.011,0-.022,0-.032l.005,0,.006.03h-.008M5.856,6.615a14.18,14.18,0,0,0-1.5.137.042.042,0,0,0-.034-.018c-.2-.01-.431-.014-.667,0q1.019-.057,2.035-.137l.166.021M1.884,7.684a.064.064,0,0,0,.089.048L2.283,7.6c-.006.006-.014.01-.02.015-.041.039,0,.122.058.1.3-.12.589-.273.879-.42.063-.025.129-.046.191-.072l1.175-.218L6,6.808A20.926,20.926,0,0,0,2.2,7.868c-.033.013-.021.064.015.055,1.412-.388,2.792-.822,4.217-1.15l.372.021c-.1.02-.205.038-.3.059a.044.044,0,0,0-.034.052A9.49,9.49,0,0,0,3.091,8.01c-.019.011-.006.043.015.036.6-.224,1.188-.486,1.8-.684C5.445,7.188,6,7.08,6.543,6.947c.092,0,.189-.01.283-.015a12.977,12.977,0,0,0-1.551.433.023.023,0,0,0,.012.045,15.341,15.341,0,0,0,1.821-.493c.188-.012.377-.028.568-.047-.363.107-.726.216-1.081.343a.01.01,0,0,0,.006.02c.42-.11.835-.245,1.25-.38h.011l.372.021a.042.042,0,0,0-.016.059l-.13,0c-.028,0-.028.026-.016.043a7.34,7.34,0,0,0-1.041.317.015.015,0,0,0,.008.03A8,8,0,0,0,8.23,7h.108a6.067,6.067,0,0,0-.69.237c-.017.007,0,.03.012.027A6.934,6.934,0,0,0,8.646,7h.073c.128.006.257.009.385.011-.315.078-.631.154-.94.248-.019.006-.016.037,0,.035A4.5,4.5,0,0,0,9.351,7.01c.25,0,.5-.014.751-.039a.014.014,0,0,0,0-.027c-.184,0-.368-.007-.551-.012.064-.026.13-.05.193-.077.006,0,0-.012,0-.01-.106.032-.214.056-.321.084H9.41a2.744,2.744,0,0,0-.346-.071L9.23,6.8a.014.014,0,0,0-.008-.028l-.294.07a2.547,2.547,0,0,0-.661.022s0,0,0,0l-.238-.024c.124-.014.246-.032.369-.05q.416,0,.83-.017c.2.006.4.007.606,0,.326.053.653.1.975.186a.019.019,0,0,0,.01-.037c-.168-.058-.346-.114-.528-.165.1,0,.2-.007.3-.013l.223.007a4.934,4.934,0,0,0,1.305.325,4.5,4.5,0,0,0-.714.185c-.03.012-.028.064.008.061a3.827,3.827,0,0,0,.492-.084,4.86,4.86,0,0,0-1.027.4.027.027,0,0,0,.021.05c.552-.171,1.084-.352,1.636-.491,0,.011.007.023.011.034h0a7.686,7.686,0,0,0-1.836.6c-.022.011-.006.045.016.038.645-.187,1.275-.385,1.919-.553.008.03.015.06.023.09-.2.045-.406.089-.608.141-.307.079-.609.174-.91.272q-.226.075-.448.159-.355.17-.157.042c.009,0,.006-.018,0-.015-.209.062-.121.015-.288.155a.016.016,0,0,0,.016.027,23.83,23.83,0,0,1,2.416-.715c.01.037.017.075.028.111,0,.006.007,0,.011.007-.117.054-.233.112-.349.173-.734.228-1.492.428-2.2.728l-.143.025q-.531.033-1.059.057c0-.01,0-.021,0-.032a.011.011,0,0,0-.022,0c0,.011,0,.022,0,.033-.52.023-1.04.043-1.565.058a.073.073,0,0,0-.045.13c-.055,0-.11,0-.166,0A26.421,26.421,0,0,1,4.4,8.558a7.494,7.494,0,0,0-1.221-.2c-.027,0-.027.027-.012.042-.092-.017-.184-.034-.274-.055,0-.022,0-.043,0-.065,0-.085-.118-.079-.128,0,0,.011,0,.022,0,.033L2.734,8.3V8.279c0-.065-.105-.084-.117-.016l0,.009a5.365,5.365,0,0,1-.827-.3c.033-.1.067-.191.1-.291m-.309.383.019-.085L1.629,8a.1.1,0,0,0-.053.063m-.11.019a.067.067,0,0,0-.048-.028c.01-.056.021-.112.031-.168l.038.024c-.009.058-.013.115-.021.172m3.315,9.842-.1-.085q.177.082.364.148H5.022c-.009,0-.01.007-.013.012l-.229-.075m.408.116a3.938,3.938,0,0,0,.844.213.055.055,0,0,0,0,.065q-.457-.138-.911-.283l.069,0m.8.358L5.905,18.4H5.893l-.214-.015c-.008-.015-.018-.03-.026-.045s-.028-.013-.04,0l-.022-.023c-.028-.029-.079.009-.057.043h0v0l.011.014c-.074-.007-.148-.018-.223-.026-.028-.048-.057-.1-.085-.142q.371.118.752.2m-.551.026a.066.066,0,0,0-.047.033l-.028-.047c.025,0,.05.01.075.014m.035.167h.013c.025.041.048.082.073.123l-.013-.012c-.025-.037-.049-.075-.072-.112M9.72,17.506a.053.053,0,0,0-.018.073c-.367.123-.735.235-1.109.327a10.464,10.464,0,0,0,1.538-.722.083.083,0,0,0-.028-.151c.139-.048.276-.1.417-.143-.057.047-.112.094-.171.14-.037.028.01.077.047.06.018-.008.034-.02.052-.029-.247.143-.494.285-.728.446m.975-.761a.06.06,0,0,0-.068-.05l-.02,0h0c-.117.015-.232.036-.348.053.031-.019.061-.04.091-.06l.614-.2c-.086.085-.174.169-.267.251m.259-.418-.293.061a2.18,2.18,0,0,0,.519-.335l.1-.038a1.607,1.607,0,0,0-.163.221.061.061,0,0,0,.01.078c-.027.03-.054.06-.082.089a.077.077,0,0,0-.1-.077m1.624-4.667a.034.034,0,0,0-.021-.007l-.025,0c0-.019,0-.038,0-.057.008-.1.017-.2.023-.306l.038-.007c0,.125-.007.25-.015.373m-.118-1.343c0-.015.007-.031.012-.047,0,.038,0,.077-.006.115,0-.023,0-.045-.005-.068M12.686,8.9c.089-.038.178-.076.266-.115,0,.058.007.116.013.174l-.292.1c0-.052.009-.1.014-.155m.644-.573c0,.014,0,.028,0,.042l-.012,0,.007-.047m-.113-.64-.078.032a1.688,1.688,0,0,0,.174-.181c.007-.008,0-.018.007-.027.006.03.011.06.017.089-.039.03-.08.057-.119.087m-.654-.709h0l-.023-.007v0l.024.007v0m-.115-.035-.1-.029.1.027v0M9.97,6.429,9.783,6.4l-.057-.015q.282.019.566.028l.108.025c-.144,0-.286,0-.43-.008m-1.279,0-.112,0c-.1-.013-.208-.024-.314-.035.146.008.292.02.438.03l-.012.007m-4.019.127c.253.014.508.008.764,0,0,0,.006.007.011.008l.018,0h0l.077.01q-.873.046-1.744.111c.261-.059.526-.1.791-.139.009,0,.008-.01.011-.016l.049-.007c0,.016,0,.033.02.035m-1.795.284a1.745,1.745,0,0,0-.419.17.051.051,0,0,0,.025.093,1.345,1.345,0,0,0,.141-.013,3.314,3.314,0,0,0-.318.1l0-.012a.057.057,0,0,0-.083-.033c-.062.031-.07.047-.077.114,0,0,0,0,0,0l-.1.025c.025-.082.047-.164.069-.246.259-.075.518-.147.774-.209l-.012.007M1.7,7.933,1.615,7.89l.136-.627c.025-.01.052-.015.077-.023q-.079.347-.124.694m-.2-.1-.038-.022c0-.013,0-.026.007-.039.035-.139.08-.279.12-.418L1.6,7.347c-.036.162-.072.323-.1.486m.122-.591v0Zm-.276.4-.027.083-.026-.015A.774.774,0,0,1,1.353,7.6c0,.013,0,.026-.006.038m-.087.1.046.038c-.04.128-.077.257-.11.386l-.008.01c.023-.145.048-.29.073-.434M5.193,18.186a1.536,1.536,0,0,0,.043.148l-.143-.017c-.115-.1-.233-.194-.35-.291.148.059.3.11.449.16m.066.207c.012.032.026.064.04.1l-.135-.113.1.018m-.213.008.051.047a.014.014,0,0,0,0,.016c-.041-.043-.083-.085-.129-.125l.016,0,.065.06m.175.16c.071.066.144.131.219.194.015.023.03.046.046.069-.045-.045-.093-.086-.142-.127s-.081-.091-.123-.136m.276.279a1.93,1.93,0,0,0,.356.4c.024.045.049.091.073.137-.058-.063-.115-.126-.164-.186q-.132-.163-.267-.322a.022.022,0,0,0,0-.028M6.42,34.091l-.022.018c.011-.042.02-.085.027-.128,0,.037,0,.073-.005.11M6.5,27.133v0Zm-.008-2c-.019-.318-.044-.634-.072-.949,0-.1.006-.208.009-.312.024.146.045.295.075.439,0,.018.025.014.033,0q-.025.41-.045.822m.048-3.984c-.007-.005-.017-.005-.017.006a18.812,18.812,0,0,0,.056,2.485c-.013.2-.026.4-.039.6a13.154,13.154,0,0,0-.088-1.547c0-.425.005-.85.01-1.274a2.007,2.007,0,0,0,.05-.694c0-.124-.009-.248-.021-.371,0,0,.005,0,.009,0l.062-.037h.007c-.02.271-.033.554-.027.835m1.066-.9a.913.913,0,0,0,.1.046c0,.022-.007.043-.01.064a.051.051,0,0,0-.092-.031c0-.018,0-.038,0-.056a.025.025,0,0,0-.025-.025l.03,0m0,5.614,0,.081c0-.017,0-.035,0-.052s0-.02,0-.029m.271-2.942c.02-.255.032-.509.035-.763a.054.054,0,0,0,.035,0c-.03.286-.052.576-.066.872,0-.035,0-.07,0-.1M11.8,16.343a.016.016,0,0,0-.02-.012l.008-.01.033-.031.009.013-.03.039m-.087.05a3.954,3.954,0,0,1-.814.741,5.854,5.854,0,0,0,.689-.644c.042-.032.085-.063.125-.1m-.819.653c-.206.107-.411.22-.615.334l-.186.065c.277-.149.543-.325.807-.491.1-.065.209-.132.315-.2-.1.1-.211.2-.321.293m-.065-.213-.011.007a3.063,3.063,0,0,0,.444-.386c-.033.054-.066.106-.1.16-.111.075-.221.149-.333.219m1.527-2.344.036-.035s0-.008,0-.012,0,0,.006-.006q-.077.332-.164.673s-.009,0-.014,0a6.14,6.14,0,0,0,.135-.619m.344-3.068c-.01-.2-.023-.407-.043-.6,0-.035-.056-.036-.055,0,0,.136-.008.268-.012.4l-.036,0c0-.084.008-.169.013-.253a.032.032,0,0,0,0-.059c.005-.118.012-.236.015-.355l.234-.076a.02.02,0,0,0-.011-.038c-.073.019-.148.033-.221.051,0-.107,0-.214.007-.321l.14-.03c.02,0,.011-.033-.008-.031l-.131.018c0-.087,0-.174,0-.261.1-.023.208-.046.31-.07-.034.278-.054.557-.063.837-.04.333-.082.668-.115,1-.008-.075-.019-.148-.03-.221m.211-1.648s0-.006-.007-.005L12.6,9.8c0-.038,0-.076,0-.114.115-.049.23-.1.345-.141-.012.076-.023.151-.032.228m.04-.275c-.114.037-.231.072-.349.107.005-.036.012-.072.016-.108.122-.057.243-.111.363-.165-.01.056-.022.11-.03.166m-.32-.112c0-.023.005-.046.008-.069.127-.059.253-.118.378-.179-.008.039-.014.078-.021.118-.12.044-.241.088-.364.13m.02-.178c0-.026.006-.052.009-.078l.3-.131c0,.023,0,.047.007.07a.013.013,0,0,0,.025,0c.007-.029.007-.059.011-.089l.04-.017c-.008.037-.013.075-.02.113q-.188.065-.377.133m.6-2.035h-.018l.017,0v0M.658,11.1c0,.061-.006.122-.007.183,0-.061,0-.122.007-.183m-.007.207c0,.1.007.207.01.311l-.013-.143c0-.056,0-.112,0-.168m.519,2.779q-.067-.166-.135-.332-.068-.22-.135-.439C.889,13.26.875,13.2.865,13.145a5.588,5.588,0,0,0,.235.721c.022.075.047.148.071.223M.937,12.075c-.01-.455,0-.908.009-1.36,0,.067,0,.135.01.2a.023.023,0,0,0,.045,0c.007-.145.024-.284.035-.426.008.236.02.471.04.706a9.833,9.833,0,0,0-.067,1.413c-.027-.178-.052-.357-.073-.535M4.1,17.729a.037.037,0,0,0,0-.017c-.034-.057-.073-.11-.108-.166.108.08.215.16.328.23L4.3,17.771c-.033-.011-.055.041-.024.056.086.041.175.076.263.113.129.12.258.241.39.358h0s0,0-.008,0a3.218,3.218,0,0,0-.582-.381c-.078-.065-.158-.128-.236-.193M5.283,18.8a.026.026,0,0,0,.032,0l.032.017c.063.085.123.172.188.256.1.13.2.257.307.385.029.037.419.536.309.544a.018.018,0,0,0,0,.035.132.132,0,0,0,.049.006c-.009.076-.015.152-.02.228l0,0a3.1,3.1,0,0,0-.115-.366c0-.01-.015-.012-.024-.014-.006-.019-.012-.038-.018-.056l.026.029a.017.017,0,0,0,.027-.02,9.5,9.5,0,0,0-.854-1.1c.023.017.045.037.07.053m.517.834c-.019-.04-.04-.079-.062-.118l.076.092a.058.058,0,0,0-.014.025m.351,1.992v0Zm.725-.572c0,.016.008.032.013.048a1.97,1.97,0,0,0,.029.319s0,0,0,0c0,.063,0,.126,0,.19q-.012-.252-.043-.5v-.059m.1.371h0c0,.017,0,.033,0,.05v-.049m.574,7.724q.005.152.011.3a.017.017,0,0,0-.018.013c0-.106.005-.212.008-.318m.419,5.3a.768.768,0,0,0,.147.315l-.038-.02a1.2,1.2,0,0,1-.123-.29s.01,0,.014,0m.806.908c-.013-.027-.029-.054-.043-.082.042.027.084.055.127.08l-.064-.005a.029.029,0,0,0-.02.007m-.29-.237h0l0,0,0,0h0m.382.332-.018-.014c.082.02.165.037.248.055L9.1,35.5c-.079-.017-.157-.032-.236-.047m-.578-.485.033.03s-.006.008,0,.013l.013.017-.054-.008c-.039-.045-.074-.1-.11-.145l.12.093m.1.135c.03.038.058.076.09.114-.045-.038-.088-.079-.13-.122l.04.008m-1.916,2.68-.113.006a.021.021,0,0,0-.028-.011l.142,0m4.656-.433a.06.06,0,0,0,.038.01l-.128.021.091-.031m1.828.145c.014-.018.031-.031.044-.051s0-.012,0-.017l.021-.015c0,.017,0,.034-.008.051l-.052.032m-1.729.4.087-.107c.039-.027.078-.056.118-.084l.276-.2c.109-.017.22-.031.326-.052.035-.007.026-.06-.008-.06-.054,0-.111,0-.166,0l.1-.074a3.907,3.907,0,0,0,.393-.175.022.022,0,0,0,.023.018.627.627,0,0,0,.087-.024s.006,0,.01,0a9.115,9.115,0,0,1-.816.614c0-.005.008-.009.007-.015l-.008-.025a.034.034,0,0,0-.032-.024c-.082,0-.118.065-.105.14a.055.055,0,0,0,.038.038.228.228,0,0,0,.05.009c-.172.062-.345.118-.518.165a.7.7,0,0,0,.136-.151m.863-.792a.04.04,0,0,0-.024.005l-.013.01a4.249,4.249,0,0,1-.416.138.052.052,0,0,0-.008-.017c.058-.02.115-.042.173-.064s.126-.042.188-.065.143-.043.214-.065c0,0,.007,0,.012,0l.1-.028-.027.01c-.064.029-.129.049-.193.075m-.668.209c-.065.015-.13.028-.2.04.075-.017.148-.038.222-.059l-.026.019M12.85,36.9l-.006,0c.045-.027.09-.054.132-.085v0a.843.843,0,0,1-.086.067c-.013.008-.027.012-.04.02m-.168.2.017,0-.043.027.027-.022m-1.206.453-.042.033a.037.037,0,0,0-.059,0l-.084.1a.356.356,0,0,1-.117.052.036.036,0,0,0-.006-.013.023.023,0,0,0,.006-.027s-.006-.006-.009-.01l.131-.11.18-.023m-.448.262a.067.067,0,0,0,.029.025.2.2,0,0,0,.085.017.386.386,0,0,0-.122.183.03.03,0,0,0,.018.031l-.01,0a.049.049,0,0,0-.036-.014c-.112,0-.223.006-.334.009.114-.075.225-.157.334-.243l.036-.011m-.417.143c-.006,0-.012,0-.016,0-.03.03-.06.061-.089.093a.042.042,0,0,0-.008.02l-.412.01c.186-.045.368-.095.55-.148Zm1.245-.07a.031.031,0,0,0,.013-.015c.031.007.066-.007.09-.058a.034.034,0,0,0-.012-.045l-.019-.013c.132-.108.586-.426.912-.654-.02.018-.041.033-.061.053s0,.013-.008.019c-.069.052-.14.1-.208.155a1.7,1.7,0,0,0-.448.4.025.025,0,0,0,.028.036,1.344,1.344,0,0,0,.386-.281c.072-.06.143-.119.213-.18a.072.072,0,0,0,.062.119c-.048.042-.1.085-.139.132a.043.043,0,0,0,.052.067,1.856,1.856,0,0,0,.172-.1,1.344,1.344,0,0,1-.1.1c-.1.067-.207.135-.309.2-.091.024-.2.052-.274.07a.049.049,0,0,0-.015-.036.108.108,0,0,0-.172.128,8.375,8.375,0,0,1-.842.17,5.344,5.344,0,0,0,.683-.265m1.326-1.06s-.006,0-.008,0l.013-.013a.084.084,0,0,0,0,.009l-.008.006m-.906,0-.023,0,0,0,.019-.017c0,.007.006.01.008.017m-3.137.842c.084,0,.168-.012.251-.022-.007.013,0,.032.014.032.532,0,1.091-.028,1.641-.083-.067.05-.132.1-.2.153a31.863,31.863,0,0,1-4.377.558l-.232-.016a.091.091,0,0,0-.078-.063l-.068-.007c.17-.012.34-.028.509-.05a.064.064,0,0,0,0-.128c-.123,0-.247,0-.37,0a.078.078,0,0,0-.078-.057L5.8,38.01l0,0v0h.008c.118.01.113-.167,0-.18l-.451-.054-.028-.008.1-.007q.32.014.64.018c.086,0,.173.006.259.008l-.269.027-.069,0a.053.053,0,0,0,0,.1A.463.463,0,0,0,6.2,37.9c.3-.013.591-.029.886-.05-.021.007-.043.012-.063.021a.024.024,0,0,0,.006.044,2.205,2.205,0,0,0,.653-.046c.255-.032.506-.085.758-.137a.01.01,0,0,0,0-.02c-.086,0-.171.011-.257.015,0,0,0-.005-.006-.005-.24,0-.48.011-.721.018h0l.041,0a15.917,15.917,0,0,0,1.6-.134c-.008.026.005.063.038.059m4.017-.356h0Zm.4-.6-.027.008c.007-.007.016-.013.024-.02l0,.012M13,36.6l-.006-.03a.011.011,0,0,0-.022,0c0,.013,0,.026,0,.039l-.046.021a.6.6,0,0,0-.007-.18.636.636,0,0,1,.1.071.444.444,0,0,1,.037.049L13,36.6M9.938,35.481q-.225-.032-.451-.058c-.153-.047-.305-.094-.456-.145-.036-.024-.071-.048-.109-.072l.623.1q.2.089.393.171M8.886,19.015a2.266,2.266,0,0,1,.178-.21c0,.008-.009.016-.012.025s0,.013.008.019c-.06.054-.118.109-.173.166m2.108-1.548a.017.017,0,0,0-.023-.006c-.381.259-.807.521-1.176.822-.192.131-.382.268-.56.414a4.749,4.749,0,0,1,.4-.446,2.817,2.817,0,0,1,.921-.539c.018-.007.011-.034-.008-.028a3.033,3.033,0,0,0-.964.486.051.051,0,0,0-.037-.093,3.4,3.4,0,0,0,.291-.189,3.308,3.308,0,0,0,1.605-1.043,3.352,3.352,0,0,0,.443-.508h0a.4.4,0,0,0,.2-.174c.007.01.018.015.027,0a5.408,5.408,0,0,0,.68-1.022l-.1.306h0c-.048.092-.1.183-.143.277-.012.023.019.05.038.029.037-.042.07-.087.1-.13a7,7,0,0,1-1.709,1.837m2.32-3.592c0,.013-.012.024-.017.037.034-.128.069-.255.1-.384-.021.147-.037.294-.059.442a.018.018,0,0,0,.034.01c.05-.149.087-.3.123-.46-.015.094-.028.188-.045.281,0,0,0,0,0,0a8.967,8.967,0,0,1-.489,1.14q.149-.378.264-.77c.037-.1.077-.195.11-.293,0-.015-.018-.021-.024-.007m.278-.456a.025.025,0,0,0-.007.006c.01-.04.022-.079.03-.118-.007.038-.015.075-.023.113m.048-.232c.01-.048.015-.1.023-.145,0,.022,0,.044-.007.065s-.012.053-.016.079m.11-1.125a4.954,4.954,0,0,0-.028-.522.017.017,0,0,0-.033,0c-.006.137-.015.274-.023.411,0-.174-.008-.348-.024-.518a.013.013,0,0,0-.026,0c-.028.5-.077.985-.136,1.473,0,0,0,0-.006,0-.151.583-.329,1.155-.51,1.726q-.068.134-.14.266c.1-.251.195-.5.271-.751,0-.017-.02-.023-.026-.007a9.129,9.129,0,0,1-.653,1.327c.17-.351.337-.7.493-1.061.012-.028-.027-.053-.043-.025-.124.221-.241.446-.358.672a6.814,6.814,0,0,0,.24-.817.02.02,0,0,0-.038-.011A9.1,9.1,0,0,1,12.3,15.3c-.127.272-.293.521-.441.781-.061.068-.122.138-.184.2-.085.049-.17.1-.253.156a2.884,2.884,0,0,0,.51-.722c-.014.063-.03.126-.044.189,0,.019.023.032.032.014.055-.112.1-.227.15-.344l.052-.017a.041.041,0,0,0-.017-.08c.038-.1.073-.211.1-.319l.022-.02c-.012.047-.023.092-.035.139a.031.031,0,0,0,.056.024,3.934,3.934,0,0,0,.431-1.892A5.322,5.322,0,0,0,12.764,12q.049-.373.08-.749c.009.268.03.533.063.794,0,.018.03.02.03,0a23.62,23.62,0,0,1,.1-2.735c.042-.019.085-.039.128-.057s.018-.065-.015-.052-.071.026-.106.039c0-.04.007-.079.011-.119L13.11,9.1a.061.061,0,0,0,.1,0c.034.782,0,1.559,0,2.341,0,.012.021.016.022,0a11.222,11.222,0,0,0,0-2.452l.051-.351.073-.033q.021.221.047.444c0,.034,0,.068,0,.1,0-.007-.017-.008-.017,0-.022.728.017,1.468.065,2.194a.023.023,0,0,0,.047,0c.007-.088.016-.176.027-.264,0-.009-.013-.01-.015,0-.055.266-.013.036-.014-.072s-.008-.24-.013-.36c0,0,0,0,0,0,.006-.091.009-.184.014-.275a9.663,9.663,0,0,0,.127.977c0,.024.041.018.042-.006a9.269,9.269,0,0,0-.042-.946c.014,0,.029,0,.028-.017-.022-.374-.06-.751-.11-1.126a2.038,2.038,0,0,0,.031-.219,16.153,16.153,0,0,1,.171,3.03m-.521-5c-.006-.006-.009-.014-.019-.017l-.017,0c.007-.02,0-.047-.027-.045l-.081.012-.074-.022A9.72,9.72,0,0,0,12.495,5.2a.009.009,0,0,0-.013-.005c-.2-.7-.436-1.385-.681-2.069.01,0,.019-.012.018-.024a3.577,3.577,0,0,0-.146-.7l-.057-.228c.1.258.2.514.319.764.008.017.035,0,.029-.012a10.667,10.667,0,0,0-.44-1.144c0-.007-.011,0-.017-.005-.013-.047-.026-.095-.041-.141l.08-.03a.868.868,0,0,0,.165-.044,47.636,47.636,0,0,1,1.449,5.17c.023.108.044.22.067.33M9.713.278q.359.042.714.1l.244.045c.295,0,.466.174.525.5A2.554,2.554,0,0,0,9.941.554C9.868.549,9.795.549,9.721.545A12.213,12.213,0,0,0,7.612.454l-.125,0a1.727,1.727,0,0,0,.277-.19.06.06,0,0,0,0-.1q.482,0,.964.024c.33.015.658.051.986.087M.517,13.02a17.59,17.59,0,0,1,.494-6.374A41.782,41.782,0,0,1,2.289,1.986c.12-.2.243-.4.371-.6,0,0,0,0,0,0h0l.017-.027c.008.009.017.017.025.026-.022.049-.046.1-.066.147,0,0,0,0,0,0a12.675,12.675,0,0,0-.647,1.738c0,.009,0,.015.011.02-.063.168-.122.337-.173.509a.018.018,0,0,0,.032.013c.021-.04.038-.082.059-.122a19.319,19.319,0,0,0-1.022,4,16.309,16.309,0,0,0-.385,2.424c0,.029.042.033.05.007C.586,10.049.6,9.975.621,9.9c-.019.217-.034.434-.037.65,0,.019.016.024.032.022-.01.057-.018.113-.027.17-.007-.1-.014-.19-.021-.286,0-.014-.022-.014-.022,0,0,.174.008.35.013.526a6.093,6.093,0,0,0,.11,1.968c-.034,0-.076.025-.062.065.051.148.108.295.161.443,0,0,0,0,0,0,.028.1.06.192.092.288.036.155.075.309.121.461a.035.035,0,0,0,0,.033c.014.032.03.064.044.1a5.6,5.6,0,0,0,.69,1.443c.005.008.013.006.02,0a4.016,4.016,0,0,0,.418.551,7.429,7.429,0,0,0,.529.645A6.976,6.976,0,0,1,.517,13.02m2.866,4.516a6.127,6.127,0,0,1-.531-.4.022.022,0,0,0,.006-.031c-.195-.283-.381-.563-.562-.844a.024.024,0,0,0,.036-.031A14.319,14.319,0,0,1,1.193,13.68c-.027-.15-.053-.3-.079-.444.006-.1.009-.2.014-.306A5.434,5.434,0,0,0,2.18,15.678a.056.056,0,0,0,.093,0,3.591,3.591,0,0,0,.727,1,.035.035,0,0,0,.055-.006c.092.106.19.206.287.3a5.78,5.78,0,0,0,.414.5.029.029,0,0,0,0,.035c.081.091.171.172.26.256-.106-.045-.211-.087-.31-.122a.014.014,0,0,0-.011.025,6,6,0,0,1,.584.336c.093.079.186.158.28.235.176.143.36.3.553.429l.178.254a11.207,11.207,0,0,0-1.91-1.393m2.8,4.367c.007.046.011.093.021.139a.045.045,0,0,0,.038.033c.007.12.017.24.025.361,0,.083-.006.166-.007.25-.023-.261-.049-.522-.077-.782M1.2,36.118a2.693,2.693,0,0,1,.887-.262c1.1-.22,2.24-.385,3.324-.685-.032.025-.061.051-.1.076-.016.012-.033.02-.049.031a6.966,6.966,0,0,0-1.39.406c-.017.008-.01.039.01.036A5.781,5.781,0,0,0,5.068,35.4l-.026.013c-.25.106-.5.2-.761.291-.16.05-.319.1-.475.162a10.817,10.817,0,0,0-1.232.285.016.016,0,0,0,.008.031,9.453,9.453,0,0,0,1.02-.214.076.076,0,0,0,.065.107c.044,0,.091,0,.137-.008-.41.087-.823.141-1.24.223-.027.005-.019.045.006.045a4.4,4.4,0,0,0,1.563-.308,3.032,3.032,0,0,0,1.4-.643c0,.01-.011.018-.015.028l0,0c-.029.061.041.132.1.076a4.557,4.557,0,0,0,.446-.579c.074-.1.151-.209.226-.315a.077.077,0,0,1,.017.013q-.159.248-.313.5a1.281,1.281,0,0,0-.264.53.045.045,0,0,0,.068.039,1.081,1.081,0,0,0,.3-.416c.076-.133.149-.266.223-.4a.508.508,0,0,0,.01.1,3.64,3.64,0,0,0-.395.6h.005c0,.006-.01.008-.012.015-.025.06.052.095.1.075.115-.052.206-.276.272-.378.032-.048.061-.1.092-.147a.461.461,0,0,0,.038.064,1.267,1.267,0,0,0-.24.392c-.011.043.04.092.081.062.013-.01.025-.023.037-.035h.18c.006.018.021.033.04.02l.033-.02h.129a0,0,0,0,0,0-.009H6.574a.167.167,0,0,0,.039-.033.7.7,0,0,0,.065-.1l.157-.263c.044-.073-.068-.137-.113-.066l-.112.173a.564.564,0,0,1-.053-.047c.091-.138.18-.277.27-.416.045-.068-.062-.128-.108-.063l-.258.362a.6.6,0,0,1-.037-.074c.081-.129.161-.257.241-.386a.044.044,0,0,0-.043-.068c0-.043.007-.088.011-.132a.054.054,0,0,0,.092.011,1.561,1.561,0,0,0,.224-.01c.022,0,.031-.036.005-.042s-.047,0-.07-.009c.1-.034.211-.066.316-.1.008,0,.013,0,.023,0,.07-.019.139-.042.208-.065l-.134.072c-.095.053-.229.1-.284.194a.029.029,0,0,0,.024.043.575.575,0,0,0,.268-.13c.121-.074.238-.153.356-.23a.031.031,0,0,0-.032-.054l-.108.058a.053.053,0,0,0-.062-.072c-.09.022-.178.048-.267.073a.168.168,0,0,0-.076.044c-.124.04-.248.08-.373.118a6.265,6.265,0,0,0,.031-1.137c.005,0,.012,0,.013-.013.013-.108.017-.218.028-.328.006.043.011.086.017.129a.039.039,0,0,0-.012.023c-.019.2-.018.409-.022.613a1.4,1.4,0,0,0,.035.533.027.027,0,0,0,.052,0,.761.761,0,0,0,.042-.285.077.077,0,0,0,.1-.073,2.931,2.931,0,0,0,.01-.335l0,0a.526.526,0,0,0,.138-.433.02.02,0,0,0,.027-.015,10.94,10.94,0,0,0,.066-2.9.023.023,0,0,0-.046,0c0,.92-.114,1.869-.068,2.786a.85.85,0,0,0-.034-.112.047.047,0,0,0-.033-.026C7.1,31.882,7.038,30.935,7,30c0-.014-.013-.014-.021-.008C7.036,28.77,7,27.534,7,26.321a.018.018,0,0,0-.036,0c-.013.3-.029.606-.043.911-.007-.417-.008-.835,0-1.254.033-.658.025-1.326,0-1.986a.07.07,0,0,0,.018-.036,7.39,7.39,0,0,0,.03-1.217s.008,0,.009-.009c.011-.145.015-.291.017-.437.026.6.083,1.191.141,1.753a.036.036,0,0,0,.028.032c0,.068-.007.137-.011.206,0-.051,0-.1-.006-.152a.016.016,0,0,0-.033,0A14.236,14.236,0,0,0,7.1,25.882a.024.024,0,0,0,.047,0c.012-.126.017-.254.021-.382.005.042.006.086.013.127a.031.031,0,0,0,.06,0,4.8,4.8,0,0,0,.051-.815,4.79,4.79,0,0,0,.073.551c.007.034.052.022.055-.007a9.675,9.675,0,0,0,.066-1.39.057.057,0,0,0,.022.028c-.013.392-.015.783-.01,1.173-.006,0-.013,0-.013.013l.006.689c-.017-.018-.048-.018-.05.013a42.88,42.88,0,0,0,.011,4.642.021.021,0,0,0,.042,0c.02-.338.033-.678.045-1.019.017.138.031.274.042.411s.012.264.019.4q0,.287,0,.575a7.173,7.173,0,0,0,.043,1.575c.022.439.055.877.095,1.313a2.188,2.188,0,0,0,.055.563c0,.014,0,.028,0,.042s.009.015.012.023a1.864,1.864,0,0,0,.109.3s0,0-.008,0c-.113,0-.224-.012-.336-.023l.112-.184a.056.056,0,0,0,.005-.049c.014,0,.028-.007.042-.006.065,0,.063-.095,0-.1-.209-.018-.541.135-.509.385,0,.022.032.043.051.021.055-.065.1-.14.159-.2a.376.376,0,0,1,.12-.072l-.139.229a.062.062,0,0,0,.053.093c.128-.014.256-.022.385-.023a.63.63,0,0,0-.083.213c0,.02.027.03.04.017a.82.82,0,0,0,.128-.25v0a1.577,1.577,0,0,0,.326.442c-.006,0-.01,0-.016,0l-.016.007c-.1.041-.192.082-.287.123a1.2,1.2,0,0,0-.676.356c-.053.053.019.154.083.107.017-.013.037-.025.054-.037a.089.089,0,0,0,.1.087c.068-.01.133-.025.2-.04l-.13.083c-.068.045-.048.169.045.163a2.963,2.963,0,0,0,.387-.053l-.169.107c-.07.044-.048.171.045.165.043,0,.085-.011.127-.016l0,0a.076.076,0,0,0-.023.072,17.414,17.414,0,0,1-2.7-.211c-.043-.008-.063.058-.019.067a9.448,9.448,0,0,0,2.643.23.016.016,0,0,0,0-.032l-.408-.015c.162,0,.324-.006.486-.013a.086.086,0,0,0,.084.057,2.327,2.327,0,0,0,.932-.273.074.074,0,0,0,.04-.066,4.015,4.015,0,0,0,.466-.267,1.789,1.789,0,0,0,.32.087,6.1,6.1,0,0,0-.979.569c-.013.01-.006.035.012.028a6.465,6.465,0,0,0,1.042-.584c.148.022.293.037.429.055-.373.181-.745.373-1.1.583a.033.033,0,0,0-.047-.022c-.08.035-.16.066-.24.1a2.8,2.8,0,0,0,.3-.159c.015-.009.005-.034-.012-.028A6.561,6.561,0,0,1,8,36.753H8c-.087.014-.175.027-.262.038a.062.062,0,0,0-.048.034c-.051,0-.1,0-.153,0l.118-.02c.009,0,.007-.017,0-.016-.678.015-1.342-.073-2.016-.085a.021.021,0,0,0-.006.041,3.843,3.843,0,0,0,1.8.1q.128,0,.256,0c-.012.038,0,.082.053.077.1-.009.2-.025.293-.041a.054.054,0,0,0,.057.038,2.11,2.11,0,0,0,1.05-.3.022.022,0,0,0,.028.008c.413-.2.817-.433,1.211-.67l.049.007c.186.03.372.062.558.094a8.557,8.557,0,0,0-1.335.58.033.033,0,0,0,.025.06,8.639,8.639,0,0,0,1.374-.629c.38.066.76.13,1.142.181,0,.065.006.126.01.183a.041.041,0,0,0-.027,0c-.139.087-.28.168-.425.245a1.885,1.885,0,0,0-.431.246.027.027,0,0,0,.019.046,1.1,1.1,0,0,0,.415-.164c.157-.085.31-.178.459-.275a1.584,1.584,0,0,0,.04.213.452.452,0,0,1-.045.067H12.2l-1.242.295a.046.046,0,0,0-.037.043l-.039.008a.033.033,0,0,0-.021.051c-.282.022-.566.033-.834.069-.007,0-.012-.008-.021-.008-.4.005-.791.043-1.185.087a.054.054,0,0,0-.054-.084,15.273,15.273,0,0,1-4.44.148.071.071,0,0,0-.065.024c-.12-.012-.24-.022-.36-.036s-.237-.053-.358-.072a.053.053,0,0,0-.046.016c-.168-.023-.336-.043-.5-.07a10.99,10.99,0,0,1-1.532-.33c-.311-.1-1.062-.331-.261-.831M6.48,35.6H6.321a1.831,1.831,0,0,0,.214-.3.547.547,0,0,0,.057.042l-.017.026c-.025.038-.049.077-.072.115a.252.252,0,0,0-.023.114v0M.744,36.744h0m.032.279c.014.025.03.048.045.072a.583.583,0,0,0,.042.093.872.872,0,0,0,.271.33,1.208,1.208,0,0,0,.224.13l.042.029c-.1-.035-.206-.069-.309-.107a.061.061,0,0,0-.043,0,.588.588,0,0,1-.272-.55M3.1,38.149a.073.073,0,0,0-.057-.055c-.123-.019-.244-.043-.365-.068a1.621,1.621,0,0,0,.18-.1.083.083,0,0,0,.108.039l.148-.072c-.025.035-.051.068-.075.1-.043.065.06.146.11.085.091-.113.175-.228.26-.346a.06.06,0,0,0-.009-.085l.059.008a.088.088,0,0,0,.045.054c-.068.036-.082.148.01.166a9.673,9.673,0,0,0,.99.145.119.119,0,0,0,.035.032h-.13a.08.08,0,0,0-.073.038l-.715-.082c-.071-.008-.083.1-.017.122.2.054.4.1.6.142a10,10,0,0,1-1.1-.125m10.1-.635c-.029.016-.055.036-.083.051a.06.06,0,0,0-.024-.012c.033-.025.064-.053.1-.079,0,.013.007.027.012.04m.038-.235c0-.01,0-.02,0-.03.077-.061.152-.122.23-.179a.064.064,0,0,0-.064-.11h0c.058-.05.117-.1.173-.149a.518.518,0,0,1-.333.467m.044-.956c-.027-.014-.056-.023-.084-.035a.564.564,0,0,1,.084.035m-.049.114c.083.045.161.107.244.159-.06.043-.118.09-.177.135v0c0-.015-.01-.03-.015-.045a.049.049,0,0,0,0-.007.043.043,0,0,0-.034-.062l-.009-.016c.021-.016.045-.028.065-.045s0-.094-.045-.077l-.078.035c-.011-.014-.024-.027-.037-.04l.017.012c.02.013.04-.015.024-.032s-.047-.044-.07-.067c.037.018.075.033.11.052M9.262,35.175c-.195-.033-.391-.06-.586-.09l-.083-.049q-.107-.173-.229-.337c.29.171.593.329.9.476" transform="translate(0 0)" fill="#0c1229"/>
      <path id="Tracé_136" data-name="Tracé 136" d="M18.053,50.477c-.013,0-.01.022,0,.022.349-.006.7-.066,1.049-.1.02,0,.02-.034,0-.032-.349.034-.707.047-1.052.113" transform="translate(-11.106 -30.999)" fill="#0c1229"/>
      <path id="Tracé_137" data-name="Tracé 137" d="M18.487,50.8c-.022,0-.023.042,0,.045a1.611,1.611,0,0,0,.881-.21c.016-.008,0-.03-.013-.023a3.829,3.829,0,0,1-.867.188" transform="translate(-11.368 -31.148)" fill="#0c1229"/>
      <path id="Tracé_138" data-name="Tracé 138" d="M34.427,29.7c-.053.238-.1.484-.149.732.018-.213.033-.427.046-.638,0-.032-.05-.039-.055-.007-.038.249-.073.5-.1.756,0-.106,0-.212-.012-.316a.009.009,0,0,0-.017,0,12.618,12.618,0,0,1-.15,1.663c0,.013.017.019.02.005.03-.12.055-.244.077-.368,0,.064-.007.128-.008.191a.018.018,0,0,0,.035.006c-.006.087-.015.175-.018.26a.026.026,0,0,0,.052.007,12.777,12.777,0,0,0,.317-2.287.016.016,0,0,0-.031,0" transform="translate(-20.917 -18.274)" fill="#0c1229"/>
      <path id="Tracé_139" data-name="Tracé 139" d="M8.479,38.246a.008.008,0,0,0,.013.01,3.094,3.094,0,0,1,.962-.789c.005,0,0-.01,0-.008a2.214,2.214,0,0,0-.971.787" transform="translate(-5.218 -23.055)" fill="#0c1229"/>
      <path id="Tracé_140" data-name="Tracé 140" d="M13.027,35.075c.019,0,.019-.03,0-.03a3.774,3.774,0,0,0-1.586.392c-.007,0,0,.016.006.013a4.607,4.607,0,0,1,1.58-.376" transform="translate(-7.04 -21.57)" fill="#0c1229"/>
      <path id="Tracé_141" data-name="Tracé 141" d="M10.54,36.387a4.857,4.857,0,0,1,2.1-.523.008.008,0,0,0,0-.016,3.858,3.858,0,0,0-2.109.524.009.009,0,0,0,.009.015" transform="translate(-6.479 -22.064)" fill="#0c1229"/>
      <path id="Tracé_142" data-name="Tracé 142" d="M13.41,36.233a3.7,3.7,0,0,0-1.771.443c-.014.008,0,.032.011.026a5.611,5.611,0,0,1,1.76-.454.008.008,0,0,0,0-.015" transform="translate(-7.159 -22.301)" fill="#0c1229"/>
      <path id="Tracé_143" data-name="Tracé 143" d="M12.318,37.141a.013.013,0,0,0,.01.023,9.474,9.474,0,0,0,1.056-.432c.007,0,0-.013,0-.011a9.568,9.568,0,0,0-1.061.419" transform="translate(-7.578 -22.602)" fill="#0c1229"/>
      <path id="Tracé_144" data-name="Tracé 144" d="M15.787,36.429c-.011,0-.008.02,0,.019a8.489,8.489,0,0,1,2.275.052c.014,0,.02-.018.006-.022a5.428,5.428,0,0,0-2.283-.049" transform="translate(-9.712 -22.36)" fill="#0c1229"/>
      <path id="Tracé_145" data-name="Tracé 145" d="M16.458,35.575a.014.014,0,0,0,0,.028,13.051,13.051,0,0,1,2.185.181,0,0,0,0,0,0-.009,6.539,6.539,0,0,0-2.187-.2" transform="translate(-10.121 -21.881)" fill="#0c1229"/>
      <path id="Tracé_146" data-name="Tracé 146" d="M16.235,34.77c-.012,0-.009.021,0,.02a7.891,7.891,0,0,1,2.548.13.012.012,0,0,0,.007-.024,4.878,4.878,0,0,0-2.557-.127" transform="translate(-9.988 -21.33)" fill="#0c1229"/>
      <path id="Tracé_147" data-name="Tracé 147" d="M16.927,34.325c.012,0,.017-.016.005-.019a3.447,3.447,0,0,0-1.842-.014.012.012,0,0,0,.007.024,4.826,4.826,0,0,1,1.83.009" transform="translate(-9.283 -21.034)" fill="#0c1229"/>
      <path id="Tracé_148" data-name="Tracé 148" d="M23.081,18.614a.01.01,0,0,0-.006-.02,3.52,3.52,0,0,0-.717.224c-.012.007-.007.03.008.028a3.574,3.574,0,0,0,.715-.233" transform="translate(-13.757 -11.444)" fill="#0c1229"/>
      <path id="Tracé_149" data-name="Tracé 149" d="M22.261,19.173s0,0,0,0a.329.329,0,0,0,.353-.181c.012-.024-.024-.046-.037-.022v0a1.024,1.024,0,0,1-.18.052,1.323,1.323,0,0,0-.234.038.014.014,0,0,0,0,.026.569.569,0,0,0,.4-.093.34.34,0,0,1-.306.155h0a4.571,4.571,0,0,0-.79.27c-.019.01,0,.037.014.033a4.585,4.585,0,0,0,.784-.276" transform="translate(-13.205 -11.667)" fill="#0c1229"/>
      <path id="Tracé_150" data-name="Tracé 150" d="M21.922,20.148a5.3,5.3,0,0,0,1.061-.429c.023-.01.007-.05-.018-.041a5.288,5.288,0,0,0-1.059.433.021.021,0,0,0,.016.038" transform="translate(-13.477 -12.111)" fill="#0c1229"/>
      <path id="Tracé_151" data-name="Tracé 151" d="M22.315,21.031c-.06-.068.324-.2.372-.22.106-.043.211-.088.316-.133.011,0,0-.023-.008-.02-.195.068-.39.139-.583.213-.07.027-.223.077-.193.183s.189.008.112-.043c-.013-.008-.025.01-.016.02" transform="translate(-13.673 -12.715)" fill="#0c1229"/>
      <path id="Tracé_152" data-name="Tracé 152" d="M23.189,21c-.207.145-.422.285-.617.447-.025.021.007.06.034.044.217-.125.419-.278.624-.42.043-.03,0-.1-.042-.071" transform="translate(-13.887 -12.92)" fill="#0c1229"/>
      <path id="Tracé_153" data-name="Tracé 153" d="M19.085,78.637c.067,1,.051,1.983.087,2.976a.042.042,0,0,0,.084,0,11.522,11.522,0,0,0-.088-2.988c-.007-.047-.086-.036-.083.011" transform="translate(-11.746 -48.374)" fill="#0c1229"/>
      <path id="Tracé_154" data-name="Tracé 154" d="M19.546,91.213c0-.007-.007-.013-.011-.007a.422.422,0,0,1-.338.238c-.01,0-.01.016,0,.015a.405.405,0,0,0,.348-.246" transform="translate(-11.811 -56.135)" fill="#0c1229"/>
      <path id="Tracé_155" data-name="Tracé 155" d="M17.491,92.192c.025.01.044-.018.04-.04a.221.221,0,0,1,.04-.111.753.753,0,0,1,.149-.185c.06-.058-.031-.149-.092-.091a.725.725,0,0,0-.193.259.126.126,0,0,0,.055.169" transform="translate(-10.725 -56.469)" fill="#0c1229"/>
      <path id="Tracé_156" data-name="Tracé 156" d="M18.367,92.032a.438.438,0,0,0,.009-.185c0-.05-.08-.049-.077,0a.458.458,0,0,0,.031.19.02.02,0,0,0,.037,0" transform="translate(-11.263 -56.509)" fill="#0c1229"/>
      <path id="Tracé_157" data-name="Tracé 157" d="M19.587,94.354c.023-.012.007-.05-.017-.041a5.985,5.985,0,0,1-.924.26c-.361.067-.719.044-1.082.075-.027,0-.036.042-.007.049a3.079,3.079,0,0,0,2.03-.343" transform="translate(-10.795 -58.048)" fill="#0c1229"/>
      <path id="Tracé_158" data-name="Tracé 158" d="M15.941,96.12c.021,0,.015-.035,0-.035a3.562,3.562,0,0,0-.62.055c-.016,0-.012.027,0,.027a3.574,3.574,0,0,0,.621-.047" transform="translate(-9.421 -59.139)" fill="#0c1229"/>
      <path id="Tracé_159" data-name="Tracé 159" d="M19.312,98.513a9.612,9.612,0,0,0-1.044.1.023.023,0,0,0-.02-.04c-.089.023-.176.05-.263.077-.056.017-.048.114.014.106a12.661,12.661,0,0,0,1.317-.208.016.016,0,0,0,0-.031" transform="translate(-11.046 -60.634)" fill="#0c1229"/>
      <path id="Tracé_160" data-name="Tracé 160" d="M19.737,98.8c-.354.031-.706.072-1.059.111-.067.008-.068.112,0,.106.119-.01.238-.015.356-.037,0,0,0,0,0-.007.236-.029.473-.061.707-.1.04-.007.031-.075-.01-.072" transform="translate(-11.465 -60.808)" fill="#0c1229"/>
      <path id="Tracé_161" data-name="Tracé 161" d="M26.1,6.566c.013-.006,0-.028-.01-.023-.55.214-1.116.319-1.68.481-.02.006-.017.039.005.037a5.348,5.348,0,0,0,1.685-.5" transform="translate(-15.018 -4.027)" fill="#0c1229"/>
      <path id="Tracé_162" data-name="Tracé 162" d="M27.456,7.872a.019.019,0,0,0-.01-.036c-.547.127-1.131.186-1.667.344a.023.023,0,0,0,.006.044,4.525,4.525,0,0,0,1.671-.353" transform="translate(-15.857 -4.823)" fill="#0c1229"/>
      <path id="Tracé_163" data-name="Tracé 163" d="M26.468,8.978a2.871,2.871,0,0,0,1.581-.458.016.016,0,0,0-.017-.028,6.475,6.475,0,0,1-1.571.442c-.026,0-.018.043.006.044" transform="translate(-16.277 -5.225)" fill="#0c1229"/>
      <path id="Tracé_164" data-name="Tracé 164" d="M26.946,10.179a.016.016,0,0,0,.009.032,12.956,12.956,0,0,0,1.32-.42.012.012,0,0,0-.007-.023,13.081,13.081,0,0,0-1.322.411" transform="translate(-16.578 -6.011)" fill="#0c1229"/>
      <path id="Tracé_165" data-name="Tracé 165" d="M28.444,10.678c.011-.008,0-.023-.013-.02l-.022-.073a.021.021,0,0,0-.04.011c.007.028.012.057.019.085a1.533,1.533,0,0,1-.138.08v0c-.009-.029-.055-.017-.045.012,0,0,0,.01,0,.015a2.8,2.8,0,0,1-.831.216.02.02,0,0,0,0,.038,1.277,1.277,0,0,0,.846-.205c.029.1.058.194.088.29a3.7,3.7,0,0,0-.493.147.018.018,0,0,0,.01.035,3.7,3.7,0,0,0,.5-.144c.031.1.063.2.1.295a.015.015,0,0,0,.029-.008c-.024-.1-.054-.2-.084-.3l.066-.022a2.686,2.686,0,0,0,.166.6.012.012,0,0,0,.022-.006,1.173,1.173,0,0,0-.021-.129c.03.1.064.2.1.3.007.019.042.019.039-.005a8.235,8.235,0,0,0-.307-1.2l.006,0m.021.437.019-.006c.017.077.035.152.053.228-.024-.075-.049-.149-.072-.222m.013-.033-.022.005c-.007-.023-.016-.047-.022-.07a.011.011,0,0,0-.021.005c.006.023.01.048.016.072l-.069.017c-.031-.1-.063-.2-.1-.3.045-.029.089-.06.131-.092.027.122.055.244.082.367" transform="translate(-16.841 -6.506)" fill="#0c1229"/>
      <path id="Tracé_166" data-name="Tracé 166" d="M21.231,6.967c.02,0,.012-.034-.008-.031a10.7,10.7,0,0,1-1.573.07c-.015,0-.02.024,0,.027a4.067,4.067,0,0,0,1.586-.066" transform="translate(-12.085 -4.269)" fill="#0c1229"/>
      <path id="Tracé_167" data-name="Tracé 167" d="M21,7.831A7.689,7.689,0,0,0,22.233,7.7c.016,0,.017-.027,0-.026A7.709,7.709,0,0,0,21,7.8a.018.018,0,0,0,0,.035" transform="translate(-12.916 -4.722)" fill="#0c1229"/>
      <path id="Tracé_168" data-name="Tracé 168" d="M22.048,8.381a.989.989,0,0,1-.431.141,2.871,2.871,0,0,1-.373-.032c-.025,0-.029.03-.012.043a.709.709,0,0,0,.824-.141.007.007,0,0,0-.008-.011" transform="translate(-13.062 -5.158)" fill="#0c1229"/>
      <path id="Tracé_169" data-name="Tracé 169" d="M22.385,9.061c-.08.005-.16-.014-.238-.005a.019.019,0,0,0-.01.035.577.577,0,0,0,.548-.076.016.016,0,0,0-.016-.027.76.76,0,0,1-.284.074" transform="translate(-13.62 -5.53)" fill="#0c1229"/>
      <path id="Tracé_170" data-name="Tracé 170" d="M31.474,9.888,31.3,9.449h0l.173.438h0" transform="translate(-19.264 -5.816)" fill="#0c1229"/>
      <path id="Tracé_171" data-name="Tracé 171" d="M7.35,10.637a2.78,2.78,0,0,0,.183-.49,1.854,1.854,0,0,0,.124-.5.011.011,0,0,0-.021-.006,1.6,1.6,0,0,0-.181.408,3.107,3.107,0,0,0-.172.559c-.006.039.045.068.067.028" transform="translate(-4.482 -5.931)" fill="#0c1229"/>
      <path id="Tracé_172" data-name="Tracé 172" d="M8.06,10.953A5.108,5.108,0,0,0,8.413,9.9c.006-.022-.025-.029-.033-.009a5.168,5.168,0,0,0-.352,1.05c0,.018.022.031.031.013" transform="translate(-4.942 -6.08)" fill="#0c1229"/>
      <path id="Tracé_173" data-name="Tracé 173" d="M8.888,11.286a3.171,3.171,0,0,0,.2-.7.007.007,0,1,0-.013,0,3.173,3.173,0,0,0-.212.694.014.014,0,0,0,.027.007" transform="translate(-5.454 -6.512)" fill="#0c1229"/>
      <path id="Tracé_174" data-name="Tracé 174" d="M9.388,11.774a5.279,5.279,0,0,0,.11-.521c.005-.027-.035-.038-.041-.011a5.157,5.157,0,0,0-.1.528c0,.017.024.019.028,0" transform="translate(-5.761 -6.91)" fill="#0c1229"/>
      <path id="Tracé_175" data-name="Tracé 175" d="M11.588,7.184a1.971,1.971,0,0,1,1.08-.668.009.009,0,0,0,0-.018,1.3,1.3,0,0,0-1.1.668c-.007.015.012.032.024.018" transform="translate(-7.116 -3.999)" fill="#0c1229"/>
      <path id="Tracé_176" data-name="Tracé 176" d="M11.918,7.55c.171-.112.324-.247.5-.355a3.078,3.078,0,0,1,.623-.284.011.011,0,0,0-.006-.021,2.25,2.25,0,0,0-1.141.628c-.014.017,0,.046.025.032" transform="translate(-7.317 -4.24)" fill="#0c1229"/>
      <path id="Tracé_177" data-name="Tracé 177" d="M12.81,8.474c-.011.011,0,.035.016.028a4.122,4.122,0,0,0,.691-.46c.017-.012,0-.04-.017-.028a4.105,4.105,0,0,0-.691.461" transform="translate(-7.882 -4.931)" fill="#0c1229"/>
      <path id="Tracé_178" data-name="Tracé 178" d="M5.823,92.814c.015,0,.008-.026-.007-.023-.7.142-1.4.282-2.1.462-.01,0-.005.017,0,.015.7-.125,1.4-.291,2.1-.454" transform="translate(-2.286 -57.112)" fill="#0c1229"/>
      <path id="Tracé_179" data-name="Tracé 179" d="M4.389,93.4a7.029,7.029,0,0,0,2.189-.378.009.009,0,0,0,0-.018,21.042,21.042,0,0,1-2.187.37c-.015,0-.01.025,0,.025" transform="translate(-2.694 -57.242)" fill="#0c1229"/>
      <path id="Tracé_180" data-name="Tracé 180" d="M27.489,94.344c.184-.1.365-.2.543-.312.014-.008,0-.035-.012-.028-.171.072-.338.148-.5.23a2.5,2.5,0,0,0-.552.307c-.018.016,0,.044.022.038a2.183,2.183,0,0,0,.5-.236" transform="translate(-16.591 -57.858)" fill="#0c1229"/>
      <path id="Tracé_181" data-name="Tracé 181" d="M27.809,95.086c.143-.042.285-.086.428-.13.019-.006.01-.031-.008-.029l-.06.009a5.261,5.261,0,0,0,.722-.346.018.018,0,0,0-.014-.033,9.238,9.238,0,0,0-1.1.442c-.05.022-.014.1.037.087" transform="translate(-17.079 -58.199)" fill="#0c1229"/>
    </g>
  </g>
</svg>
